<svg width="684" height="378" viewBox="0 0 684 378" fill="none" xmlns="http://www.w3.org/2000/svg">
<g clip-path="url(#clip0_938_1821)">
<path d="M0 352C0 366.359 11.6406 378 26 378H684V26C684 11.6406 672.359 0 658 0H26C11.6406 0 0 11.6406 0 26V352Z" fill="url(#paint0_linear_938_1821)"/>
<path d="M134 267L20 343H684V267H134Z" fill="#867F7F"/>
<path d="M20 378H45V343H20V378Z" fill="#4D4444"/>
<rect width="664" height="22" transform="matrix(1 0 0 -1 20 365)" fill="#5F5656"/>
<path d="M173.248 286.053C177.443 283.4 180.349 278.217 188 264.996" stroke="#301607" stroke-width="2"/>
<path d="M170.333 284.979C114.497 253.193 130.923 169.862 95.6433 110.344C95.1589 109.527 95.9322 108.529 96.8183 108.872C142.991 126.719 218.372 184.952 171.737 284.523C171.493 285.044 170.834 285.264 170.333 284.979Z" fill="url(#paint1_linear_938_1821)"/>
<path d="M180.885 282.194C243.823 232.518 217.368 127.637 253.994 45.515C254.387 44.6334 253.476 43.7271 252.638 44.2052C200.12 74.1466 115.906 160.882 179.377 281.861C179.664 282.409 180.399 282.577 180.885 282.194Z" fill="url(#paint2_linear_938_1821)"/>
<rect x="151" y="274" width="52" height="43" rx="1" fill="#131324"/>
<path d="M511 55.9961L507 56.0217L506.942 104.022C506.94 105.126 507.835 106.016 508.939 106.009V106.009C510.044 106.002 510.94 105.101 510.942 103.996L511 55.9961Z" fill="#66660D"/>
<path d="M508.971 47.9832L510.969 56.2204L506.953 56.2461L508.971 47.9832Z" fill="#66660D"/>
<path d="M503 53.9961L499 54.0087L498.984 102.009C498.984 103.113 499.879 104.006 500.984 104.002V104.002C502.088 103.999 502.984 103.101 502.984 101.996L503 53.9961Z" fill="#420A12"/>
<path d="M500.948 46.0064L502.932 54.2501L498.959 54.2627L500.948 46.0064Z" fill="#420A12"/>
<rect x="187" y="85.9961" width="351" height="188" rx="11" fill="url(#paint3_linear_938_1821)"/>
<rect x="195" y="92.9961" width="337" height="162" rx="5" fill="#F0E8E8"/>
<rect width="29" height="28" transform="matrix(1 0 0 -1 350 301.996)" fill="url(#paint4_linear_938_1821)"/>
<rect x="285" y="301.996" width="153" height="11" rx="5" fill="url(#paint5_linear_938_1821)"/>
<path d="M288 110.996C288 118.481 286.59 125.893 283.851 132.809C281.113 139.725 277.098 146.008 272.037 151.301C266.977 156.594 260.968 160.793 254.356 163.657C247.744 166.522 240.657 167.996 233.5 167.996L233.5 110.996H288Z" fill="#925700"/>
<path d="M317.644 150.874C319.62 150.874 321.327 151.247 322.766 151.992C324.222 152.72 325.331 153.769 326.094 155.138C326.874 156.507 327.264 158.119 327.264 159.974C327.264 161.829 326.874 163.441 326.094 164.81C325.331 166.162 324.222 167.202 322.766 167.93C321.327 168.641 319.62 168.996 317.644 168.996H312.002V150.874H317.644ZM317.644 167.046C319.984 167.046 321.769 166.431 323 165.2C324.231 163.952 324.846 162.21 324.846 159.974C324.846 157.721 324.222 155.961 322.974 154.696C321.743 153.431 319.967 152.798 317.644 152.798H314.368V167.046H317.644ZM343.385 161.326C343.385 161.777 343.359 162.253 343.307 162.756H331.919C332.005 164.16 332.482 165.261 333.349 166.058C334.233 166.838 335.299 167.228 336.547 167.228C337.569 167.228 338.419 166.994 339.095 166.526C339.788 166.041 340.273 165.399 340.551 164.602H343.099C342.717 165.971 341.955 167.089 340.811 167.956C339.667 168.805 338.245 169.23 336.547 169.23C335.195 169.23 333.981 168.927 332.907 168.32C331.849 167.713 331.017 166.855 330.411 165.746C329.804 164.619 329.501 163.319 329.501 161.846C329.501 160.373 329.795 159.081 330.385 157.972C330.974 156.863 331.797 156.013 332.855 155.424C333.929 154.817 335.16 154.514 336.547 154.514C337.899 154.514 339.095 154.809 340.135 155.398C341.175 155.987 341.972 156.802 342.527 157.842C343.099 158.865 343.385 160.026 343.385 161.326ZM340.941 160.832C340.941 159.931 340.741 159.159 340.343 158.518C339.944 157.859 339.398 157.365 338.705 157.036C338.029 156.689 337.275 156.516 336.443 156.516C335.247 156.516 334.224 156.897 333.375 157.66C332.543 158.423 332.066 159.48 331.945 160.832H340.941ZM351.552 169.23C350.46 169.23 349.481 169.048 348.614 168.684C347.747 168.303 347.063 167.783 346.56 167.124C346.057 166.448 345.78 165.677 345.728 164.81H348.172C348.241 165.521 348.571 166.101 349.16 166.552C349.767 167.003 350.555 167.228 351.526 167.228C352.427 167.228 353.138 167.029 353.658 166.63C354.178 166.231 354.438 165.729 354.438 165.122C354.438 164.498 354.161 164.039 353.606 163.744C353.051 163.432 352.193 163.129 351.032 162.834C349.975 162.557 349.108 162.279 348.432 162.002C347.773 161.707 347.201 161.283 346.716 160.728C346.248 160.156 346.014 159.411 346.014 158.492C346.014 157.764 346.231 157.097 346.664 156.49C347.097 155.883 347.713 155.407 348.51 155.06C349.307 154.696 350.217 154.514 351.24 154.514C352.817 154.514 354.091 154.913 355.062 155.71C356.033 156.507 356.553 157.599 356.622 158.986H354.256C354.204 158.241 353.901 157.643 353.346 157.192C352.809 156.741 352.081 156.516 351.162 156.516C350.313 156.516 349.637 156.698 349.134 157.062C348.631 157.426 348.38 157.903 348.38 158.492C348.38 158.96 348.527 159.35 348.822 159.662C349.134 159.957 349.515 160.199 349.966 160.39C350.434 160.563 351.075 160.763 351.89 160.988C352.913 161.265 353.745 161.543 354.386 161.82C355.027 162.08 355.573 162.479 356.024 163.016C356.492 163.553 356.735 164.255 356.752 165.122C356.752 165.902 356.535 166.604 356.102 167.228C355.669 167.852 355.053 168.346 354.256 168.71C353.476 169.057 352.575 169.23 351.552 169.23ZM361.314 152.434C360.863 152.434 360.482 152.278 360.17 151.966C359.858 151.654 359.702 151.273 359.702 150.822C359.702 150.371 359.858 149.99 360.17 149.678C360.482 149.366 360.863 149.21 361.314 149.21C361.747 149.21 362.111 149.366 362.406 149.678C362.718 149.99 362.874 150.371 362.874 150.822C362.874 151.273 362.718 151.654 362.406 151.966C362.111 152.278 361.747 152.434 361.314 152.434ZM362.458 154.748V168.996H360.092V154.748H362.458ZM372.366 154.514C373.597 154.514 374.672 154.783 375.59 155.32C376.526 155.857 377.22 156.533 377.67 157.348V154.748H380.062V169.308C380.062 170.608 379.785 171.761 379.23 172.766C378.676 173.789 377.878 174.586 376.838 175.158C375.816 175.73 374.62 176.016 373.25 176.016C371.378 176.016 369.818 175.574 368.57 174.69C367.322 173.806 366.586 172.601 366.36 171.076H368.7C368.96 171.943 369.498 172.636 370.312 173.156C371.127 173.693 372.106 173.962 373.25 173.962C374.55 173.962 375.608 173.555 376.422 172.74C377.254 171.925 377.67 170.781 377.67 169.308V166.318C377.202 167.15 376.509 167.843 375.59 168.398C374.672 168.953 373.597 169.23 372.366 169.23C371.101 169.23 369.948 168.918 368.908 168.294C367.886 167.67 367.08 166.795 366.49 165.668C365.901 164.541 365.606 163.259 365.606 161.82C365.606 160.364 365.901 159.09 366.49 157.998C367.08 156.889 367.886 156.031 368.908 155.424C369.948 154.817 371.101 154.514 372.366 154.514ZM377.67 161.846C377.67 160.771 377.454 159.835 377.02 159.038C376.587 158.241 375.998 157.634 375.252 157.218C374.524 156.785 373.718 156.568 372.834 156.568C371.95 156.568 371.144 156.776 370.416 157.192C369.688 157.608 369.108 158.215 368.674 159.012C368.241 159.809 368.024 160.745 368.024 161.82C368.024 162.912 368.241 163.865 368.674 164.68C369.108 165.477 369.688 166.093 370.416 166.526C371.144 166.942 371.95 167.15 372.834 167.15C373.718 167.15 374.524 166.942 375.252 166.526C375.998 166.093 376.587 165.477 377.02 164.68C377.454 163.865 377.67 162.921 377.67 161.846ZM391.003 154.488C392.736 154.488 394.14 155.017 395.215 156.074C396.289 157.114 396.827 158.622 396.827 160.598V168.996H394.487V160.936C394.487 159.515 394.131 158.431 393.421 157.686C392.71 156.923 391.739 156.542 390.509 156.542C389.261 156.542 388.264 156.932 387.519 157.712C386.791 158.492 386.427 159.627 386.427 161.118V168.996H384.061V154.748H386.427V156.776C386.895 156.048 387.527 155.485 388.325 155.086C389.139 154.687 390.032 154.488 391.003 154.488Z" fill="url(#paint6_linear_938_1821)"/>
<path d="M402.199 171.414H401.029V148.612H402.199V171.414Z" fill="black"/>
<path d="M321.89 215.451C320.196 215.451 318.788 215.099 317.666 214.395C316.566 213.713 315.741 212.844 315.191 211.788C314.641 210.732 314.366 209.654 314.366 208.554C314.366 207.52 314.586 206.552 315.026 205.65C315.488 204.726 316.126 203.989 316.94 203.439C317.248 203.241 317.567 203.087 317.897 202.977C318.249 202.845 318.59 202.779 318.92 202.779C319.338 202.779 319.734 202.889 320.108 203.109C320.482 203.307 320.779 203.637 320.999 204.099C321.043 204.187 321.065 204.308 321.065 204.462C321.065 204.616 321.021 204.748 320.933 204.858C320.845 204.968 320.746 205.023 320.636 205.023C320.504 205.023 320.383 204.924 320.273 204.726C320.009 204.198 319.569 203.934 318.953 203.934C318.425 203.934 317.908 204.121 317.402 204.495C316.918 204.891 316.489 205.441 316.115 206.145C315.741 206.827 315.554 207.619 315.554 208.521C315.554 209.445 315.752 210.347 316.148 211.227C316.566 212.107 317.237 212.833 318.161 213.405C319.107 213.977 320.35 214.263 321.89 214.263C323.43 214.263 324.827 213.9 326.081 213.174C327.335 212.448 328.457 211.491 329.447 210.303C330.459 209.093 331.372 207.751 332.186 206.277C333.022 204.781 333.781 203.263 334.463 201.723C335.145 200.183 335.794 198.731 336.41 197.367C337.004 196.025 337.598 194.848 338.192 193.836C337.07 193.968 335.937 194.133 334.793 194.331C333.671 194.507 332.582 194.815 331.526 195.255C330.074 195.871 328.875 196.575 327.929 197.367C327.005 198.137 326.301 198.918 325.817 199.71C325.355 200.502 325.08 201.228 324.992 201.888C324.97 201.998 324.959 202.108 324.959 202.218C324.959 202.328 324.959 202.438 324.959 202.548C324.959 203.34 325.135 203.912 325.487 204.264C325.861 204.616 326.312 204.792 326.84 204.792C327.324 204.792 327.841 204.66 328.391 204.396C328.941 204.132 329.447 203.769 329.909 203.307C330.217 202.999 330.58 202.537 330.998 201.921C331.416 201.305 331.625 200.656 331.625 199.974C331.625 199.578 331.526 199.204 331.328 198.852C331.24 198.698 331.196 198.544 331.196 198.39C331.196 198.236 331.251 198.115 331.361 198.027C331.471 197.939 331.592 197.895 331.724 197.895C331.9 197.895 332.054 197.972 332.186 198.126C332.318 198.324 332.461 198.566 332.615 198.852C332.769 199.138 332.813 199.589 332.747 200.205C332.637 201.371 332.263 202.383 331.625 203.241C330.987 204.099 330.217 204.77 329.315 205.254C328.435 205.716 327.577 205.947 326.741 205.947C325.927 205.947 325.223 205.683 324.629 205.155C324.035 204.627 323.738 203.78 323.738 202.614C323.738 202.482 323.738 202.35 323.738 202.218C323.76 202.064 323.782 201.91 323.804 201.756C323.98 200.48 324.662 199.149 325.85 197.763C327.038 196.355 328.776 195.156 331.064 194.166C332.384 193.616 333.737 193.242 335.123 193.044C336.509 192.846 337.895 192.659 339.281 192.483C339.633 192.153 339.996 191.9 340.37 191.724C340.744 191.526 341.118 191.427 341.492 191.427C341.8 191.427 342.042 191.504 342.218 191.658C342.394 191.812 342.482 191.999 342.482 192.219C342.482 192.483 342.306 192.758 341.954 193.044C341.624 193.308 341.041 193.495 340.205 193.605C340.095 193.627 339.974 193.638 339.842 193.638C339.424 194.166 338.995 194.826 338.555 195.618C338.137 196.41 337.73 197.235 337.334 198.093C336.674 199.567 335.981 201.107 335.255 202.713C334.551 204.319 333.77 205.881 332.912 207.399C332.054 208.895 331.097 210.248 330.041 211.458C328.985 212.69 327.786 213.658 326.444 214.362C325.102 215.088 323.584 215.451 321.89 215.451ZM341.581 212.085C340.767 212.085 340.151 211.865 339.733 211.425C339.315 211.007 339.106 210.611 339.106 210.237C339.106 209.753 339.348 209.511 339.832 209.511C339.942 209.511 340.052 209.522 340.162 209.544C340.272 209.566 340.393 209.61 340.525 209.676C340.987 209.896 341.482 210.061 342.01 210.171C342.56 210.259 343.088 210.314 343.594 210.336C343.792 210.292 343.979 210.006 344.155 209.478C344.331 208.95 344.463 208.444 344.551 207.96C344.617 207.498 344.65 207.025 344.65 206.541C344.65 205.837 344.595 205.122 344.485 204.396C344.375 203.67 344.276 202.944 344.188 202.218C343.594 203.01 342.967 203.813 342.307 204.627C341.647 205.419 341.031 206.145 340.459 206.805C339.887 207.465 339.403 207.971 339.007 208.323C338.919 208.411 338.809 208.455 338.677 208.455C338.523 208.455 338.391 208.4 338.281 208.29C338.171 208.158 338.116 208.015 338.116 207.861C338.116 207.663 338.193 207.498 338.347 207.366C338.545 207.168 338.864 206.827 339.304 206.343C339.744 205.859 340.239 205.287 340.789 204.627C341.361 203.945 341.933 203.241 342.505 202.515C343.077 201.767 343.605 201.063 344.089 200.403C344.111 200.183 344.133 199.974 344.155 199.776C344.177 199.556 344.21 199.347 344.254 199.149C344.408 198.467 344.694 197.95 345.112 197.598C345.552 197.224 345.937 197.037 346.267 197.037C346.663 197.037 346.861 197.246 346.861 197.664C346.861 197.972 346.696 198.423 346.366 199.017C346.212 199.259 346.047 199.523 345.871 199.809C345.695 200.073 345.497 200.359 345.277 200.667C345.277 201.503 345.354 202.372 345.508 203.274C345.662 204.154 345.75 204.814 345.772 205.254C345.794 205.474 345.805 205.694 345.805 205.914C345.827 206.134 345.838 206.365 345.838 206.607C345.838 207.223 345.783 207.839 345.673 208.455C345.585 209.071 345.398 209.632 345.112 210.138C345.706 209.918 346.322 209.632 346.96 209.28C347.598 208.906 348.148 208.51 348.61 208.092C349.05 207.718 349.457 207.322 349.831 206.904C350.205 206.486 350.557 206.101 350.887 205.749C350.975 205.639 351.085 205.584 351.217 205.584C351.327 205.584 351.426 205.65 351.514 205.782C351.624 205.892 351.679 206.035 351.679 206.211C351.679 206.409 351.624 206.574 351.514 206.706C351.184 207.168 350.722 207.685 350.128 208.257C349.556 208.807 349.05 209.247 348.61 209.577C348.038 209.995 347.334 210.369 346.498 210.699C345.662 211.029 344.804 211.271 343.924 211.425C343.484 211.689 342.967 211.887 342.373 212.019C342.219 212.041 342.076 212.052 341.944 212.052C341.812 212.074 341.691 212.085 341.581 212.085ZM358.911 211.623C358.119 211.623 357.58 211.403 357.294 210.963C357.008 210.501 356.865 209.962 356.865 209.346C356.865 208.774 356.931 208.202 357.063 207.63C357.217 207.036 357.36 206.541 357.492 206.145C357.514 206.057 357.547 205.969 357.591 205.881C357.547 205.815 357.525 205.727 357.525 205.617C357.525 205.243 357.657 205.012 357.921 204.924C358.317 203.912 358.779 202.889 359.307 201.855C359.835 200.799 360.374 199.82 360.924 198.918C361.474 198.016 361.958 197.257 362.376 196.641C362.706 196.179 363.102 195.629 363.564 194.991C364.048 194.331 364.587 193.682 365.181 193.044C365.797 192.406 366.457 191.878 367.161 191.46C367.865 191.02 368.591 190.8 369.339 190.8C369.955 190.8 370.384 190.932 370.626 191.196C370.89 191.46 371.022 191.812 371.022 192.252C371.022 192.67 370.923 193.154 370.725 193.704C370.527 194.254 370.263 194.826 369.933 195.42C369.471 196.256 368.833 197.169 368.019 198.159C367.205 199.149 366.303 200.128 365.313 201.096C364.323 202.064 363.289 202.944 362.211 203.736C361.133 204.528 360.077 205.166 359.043 205.65C358.911 206.068 358.735 206.618 358.515 207.3C358.295 207.96 358.185 208.565 358.185 209.115C358.185 209.489 358.262 209.808 358.416 210.072C358.57 210.314 358.856 210.435 359.274 210.435C359.582 210.435 359.967 210.347 360.429 210.171C360.913 209.973 361.463 209.676 362.079 209.28C362.783 208.818 363.454 208.268 364.092 207.63C364.73 206.992 365.302 206.365 365.808 205.749C365.918 205.617 366.017 205.551 366.105 205.551C366.215 205.551 366.314 205.628 366.402 205.782C366.512 205.914 366.567 206.068 366.567 206.244C366.567 206.464 366.512 206.64 366.402 206.772C366.072 207.234 365.621 207.74 365.049 208.29C364.499 208.84 364.004 209.28 363.564 209.61C363.344 209.764 363.08 209.94 362.772 210.138C362.464 210.336 361.958 210.622 361.254 210.996C360.902 211.172 360.517 211.315 360.099 211.425C359.703 211.557 359.307 211.623 358.911 211.623ZM362.871 198.291C362.211 199.259 361.617 200.238 361.089 201.228C360.561 202.218 360.099 203.153 359.703 204.033C360.891 203.329 362.079 202.449 363.267 201.393C364.455 200.315 365.544 199.182 366.534 197.994C367.524 196.806 368.316 195.684 368.91 194.628C369.438 193.704 369.702 193 369.702 192.516C369.702 192.142 369.526 191.955 369.174 191.955C368.646 191.955 368.074 192.197 367.458 192.681C366.842 193.165 366.237 193.77 365.643 194.496C365.049 195.2 364.51 195.904 364.026 196.608C363.542 197.312 363.157 197.873 362.871 198.291ZM372.109 200.733C371.845 200.733 371.603 200.645 371.383 200.469C371.185 200.271 371.086 200.029 371.086 199.743C371.086 199.435 371.185 199.182 371.383 198.984C371.581 198.786 371.823 198.687 372.109 198.687C372.417 198.687 372.67 198.786 372.868 198.984C373.066 199.182 373.165 199.435 373.165 199.743C373.165 200.029 373.055 200.271 372.835 200.469C372.637 200.645 372.395 200.733 372.109 200.733ZM367.225 210.633C366.939 210.633 366.708 210.556 366.532 210.402C366.356 210.226 366.268 209.951 366.268 209.577C366.268 209.115 366.378 208.554 366.598 207.894C366.818 207.212 367.104 206.519 367.456 205.815C367.808 205.089 368.182 204.429 368.578 203.835C368.996 203.219 369.392 202.735 369.766 202.383C369.92 202.229 370.107 202.152 370.327 202.152C370.503 202.152 370.657 202.196 370.789 202.284C370.921 202.372 370.987 202.482 370.987 202.614C370.987 202.724 370.932 202.834 370.822 202.944C370.668 203.098 370.47 203.351 370.228 203.703C370.008 204.033 369.788 204.385 369.568 204.759C369.348 205.111 369.183 205.408 369.073 205.65C368.875 206.068 368.655 206.541 368.413 207.069C368.171 207.597 367.995 208.026 367.885 208.356C367.819 208.576 367.786 208.741 367.786 208.851C367.786 209.093 367.874 209.214 368.05 209.214C368.204 209.214 368.38 209.148 368.578 209.016C368.776 208.862 368.952 208.73 369.106 208.62C369.656 208.18 370.162 207.718 370.624 207.234C371.108 206.728 371.548 206.255 371.944 205.815C372.032 205.705 372.142 205.65 372.274 205.65C372.384 205.65 372.483 205.716 372.571 205.848C372.681 205.958 372.736 206.101 372.736 206.277C372.736 206.475 372.681 206.64 372.571 206.772C372.241 207.234 371.779 207.751 371.185 208.323C370.613 208.873 370.107 209.313 369.667 209.643C369.381 209.863 368.996 210.083 368.512 210.303C368.05 210.523 367.621 210.633 367.225 210.633ZM368.596 223.437C367.87 223.437 367.353 223.217 367.045 222.777C366.715 222.337 366.55 221.743 366.55 220.995C366.55 220.445 366.638 219.785 366.814 219.015C367.188 217.519 367.672 216.067 368.266 214.659C368.838 213.273 369.476 211.898 370.18 210.534C370.884 209.214 371.632 207.751 372.424 206.145C373.238 204.539 374.096 202.911 374.998 201.261C375.922 199.611 376.879 198.071 377.869 196.641C378.199 196.179 378.595 195.629 379.057 194.991C379.541 194.331 380.08 193.682 380.674 193.044C381.29 192.406 381.95 191.878 382.654 191.46C383.358 191.02 384.084 190.8 384.832 190.8C385.448 190.8 385.877 190.932 386.119 191.196C386.383 191.46 386.515 191.812 386.515 192.252C386.515 192.67 386.416 193.154 386.218 193.704C386.02 194.254 385.756 194.826 385.426 195.42C384.92 196.3 384.238 197.268 383.38 198.324C382.544 199.358 381.587 200.381 380.509 201.393C379.453 202.383 378.353 203.285 377.209 204.099C376.087 204.891 374.998 205.485 373.942 205.881C373.546 206.651 373.15 207.421 372.754 208.191C372.38 208.961 372.017 209.72 371.665 210.468C372.237 210.116 372.864 209.83 373.546 209.61C374.25 209.39 374.921 209.28 375.559 209.28C376.329 209.28 376.989 209.5 377.539 209.94C378.111 210.358 378.397 211.117 378.397 212.217C378.397 213.053 378.21 213.977 377.836 214.989C377.484 216.001 376.989 217.002 376.351 217.992C375.713 218.982 374.976 219.884 374.14 220.698C373.304 221.534 372.413 222.194 371.467 222.678C370.521 223.184 369.564 223.437 368.596 223.437ZM378.364 198.291C377.77 199.149 377.176 200.084 376.582 201.096C375.988 202.108 375.405 203.153 374.833 204.231C375.735 203.725 376.648 203.098 377.572 202.35C378.518 201.602 379.42 200.788 380.278 199.908C381.158 199.028 381.95 198.137 382.654 197.235C383.358 196.333 383.941 195.464 384.403 194.628C384.931 193.704 385.195 193 385.195 192.516C385.195 192.142 385.019 191.955 384.667 191.955C384.139 191.955 383.567 192.208 382.951 192.714C382.357 193.198 381.763 193.803 381.169 194.529C380.575 195.233 380.025 195.937 379.519 196.641C379.035 197.323 378.65 197.873 378.364 198.291ZM367.903 220.929C367.903 221.347 367.98 221.677 368.134 221.919C368.288 222.183 368.541 222.315 368.893 222.315C369.575 222.315 370.29 222.073 371.038 221.589C371.786 221.127 372.512 220.511 373.216 219.741C373.942 218.993 374.591 218.168 375.163 217.266C375.735 216.364 376.186 215.473 376.516 214.593C376.868 213.735 377.044 212.965 377.044 212.283C377.044 211.645 376.857 211.205 376.483 210.963C376.131 210.699 375.68 210.567 375.13 210.567C374.602 210.567 374.052 210.655 373.48 210.831C372.908 211.007 372.369 211.227 371.863 211.491C371.379 211.755 371.005 212.019 370.741 212.283C370.257 213.273 369.773 214.351 369.289 215.517C368.805 216.705 368.409 217.992 368.101 219.378C367.969 219.928 367.903 220.445 367.903 220.929ZM382.606 211.491C381.924 211.491 381.341 211.282 380.857 210.864C380.395 210.446 380.164 209.72 380.164 208.686C380.164 207.982 380.34 207.157 380.692 206.211C381.066 205.265 381.561 204.352 382.177 203.472C382.793 202.57 383.475 201.833 384.223 201.261C384.971 200.667 385.73 200.37 386.5 200.37C387.006 200.37 387.38 200.557 387.622 200.931C387.886 201.283 388.018 201.712 388.018 202.218C388.018 202.966 387.776 203.692 387.292 204.396C386.808 205.1 386.192 205.672 385.444 206.112C384.718 206.552 383.992 206.772 383.266 206.772C382.672 206.772 382.221 206.585 381.913 206.211C381.737 206.651 381.594 207.08 381.484 207.498C381.374 207.916 381.319 208.312 381.319 208.686C381.319 209.324 381.451 209.775 381.715 210.039C382.001 210.281 382.353 210.402 382.771 210.402C383.277 210.402 383.838 210.27 384.454 210.006C385.092 209.742 385.686 209.434 386.236 209.082C386.786 208.708 387.193 208.4 387.457 208.158C387.897 207.784 388.315 207.377 388.711 206.937C389.129 206.475 389.492 206.046 389.8 205.65C389.91 205.518 390.031 205.452 390.163 205.452C390.295 205.452 390.405 205.518 390.493 205.65C390.603 205.76 390.658 205.903 390.658 206.079C390.658 206.233 390.603 206.387 390.493 206.541C390.141 206.981 389.701 207.487 389.173 208.059C388.667 208.609 388.095 209.126 387.457 209.61C387.105 209.896 386.654 210.182 386.104 210.468C385.554 210.754 384.971 210.996 384.355 211.194C383.761 211.392 383.178 211.491 382.606 211.491ZM383.2 205.716C383.64 205.716 384.113 205.573 384.619 205.287C385.147 205.001 385.609 204.627 386.005 204.165C386.423 203.681 386.698 203.164 386.83 202.614C386.852 202.57 386.863 202.515 386.863 202.449C386.863 202.383 386.863 202.328 386.863 202.284C386.863 201.888 386.72 201.69 386.434 201.69C385.972 201.69 385.488 201.866 384.982 202.218C384.476 202.548 383.992 202.999 383.53 203.571C383.09 204.121 382.694 204.726 382.342 205.386C382.43 205.452 382.518 205.518 382.606 205.584C382.694 205.628 382.782 205.661 382.87 205.683C382.914 205.705 382.969 205.716 383.035 205.716C383.101 205.716 383.156 205.716 383.2 205.716Z" fill="url(#paint7_linear_938_1821)"/>
<path d="M195 97.9961C195 95.2347 197.239 92.9961 200 92.9961H234V254.996H200C197.239 254.996 195 252.758 195 249.996V97.9961Z" fill="#D6D4EC"/>
<path d="M532 97.9961C532 95.2347 529.761 92.9961 527 92.9961H491V254.996H527C529.761 254.996 532 252.758 532 249.996V97.9961Z" fill="#D6D4EC"/>
<rect width="31" height="18" rx="1" transform="matrix(-1 0 0 1 527 116.996)" fill="#AEAEAE"/>
<rect width="31" height="7" rx="1" transform="matrix(-1 0 0 1 527 159.996)" fill="#AEAEAE"/>
<rect width="21" height="5" rx="1" transform="matrix(-1 0 0 1 527 175.996)" fill="#AEAEAE"/>
<rect width="21" height="5" rx="1" transform="matrix(-1 0 0 1 527 184.996)" fill="#AEAEAE"/>
<rect width="10" height="5" rx="1" transform="matrix(-1 0 0 1 524 138.996)" fill="#AEAEAE"/>
<rect width="10" height="5" rx="1" transform="matrix(-1 0 0 1 509 138.996)" fill="#AEAEAE"/>
<rect width="10" height="5" rx="1" transform="matrix(-1 0 0 1 524 146.996)" fill="#AEAEAE"/>
<rect width="8" height="5" rx="1" transform="matrix(-1 0 0 1 504 175.996)" fill="#AEAEAE"/>
<rect width="8" height="5" rx="1" transform="matrix(-1 0 0 1 504 184.996)" fill="#AEAEAE"/>
<rect width="10" height="5" rx="1" transform="matrix(-1 0 0 1 509 146.996)" fill="#AEAEAE"/>
<path d="M449 148.996H491V230.996H449V148.996Z" fill="white"/>
<path d="M449 151.996H491V182.996H449V151.996Z" fill="url(#paint8_linear_938_1821)"/>
<rect width="35" height="2" rx="1" transform="matrix(1 0 0 -1 454 188.996)" fill="url(#paint9_linear_938_1821)"/>
<path d="M453 213.996H457V217.996H453V213.996Z" fill="#3C1B08"/>
<path d="M458 213.996H462V217.996H458V213.996Z" fill="#040428"/>
<path d="M463 213.996H467V217.996H463V213.996Z" fill="#393907"/>
<path d="M468 213.996H472V217.996H468V213.996Z" fill="#400707"/>
<path d="M473 213.996H477V217.996H473V213.996Z" fill="#402704"/>
<path d="M478 213.996H482V217.996H478V213.996Z" fill="#434300"/>
<path d="M453 207.996H457V211.996H453V207.996Z" fill="#4D1E03"/>
<path d="M458 207.996H462V211.996H458V207.996Z" fill="#0B0B49"/>
<path d="M463 207.996H467V211.996H463V207.996Z" fill="#A7A712"/>
<path d="M468 207.996H472V211.996H468V207.996Z" fill="#9D1111"/>
<path d="M473 207.996H477V211.996H473V207.996Z" fill="#5E3B09"/>
<path d="M478 207.996H482V211.996H478V207.996Z" fill="#7A7A0A"/>
<path d="M453 201.996H457V205.996H453V201.996Z" fill="#9F4009"/>
<path d="M458 201.996H462V205.996H458V201.996Z" fill="#242443"/>
<path d="M463 201.996H467V205.996H463V201.996Z" fill="#F2F200"/>
<path d="M468 201.996H472V205.996H468V201.996Z" fill="#FF0000"/>
<path d="M473 201.996H477V205.996H473V201.996Z" fill="#935D0F"/>
<path d="M478 201.996H482V205.996H478V201.996Z" fill="#B9B90C"/>
<path d="M483 213.996H487V217.996H483V213.996Z" fill="#402704"/>
<path d="M483 207.996H487V211.996H483V207.996Z" fill="#5E3B09"/>
<path d="M483 201.996H487V205.996H483V201.996Z" fill="#935D0F"/>
<path d="M195.5 98.4961H531.5V110.496H195.5V98.4961Z" fill="#27272C" stroke="#27272C"/>
<path d="M195.5 100.496H531.5V97.9961C531.5 95.5108 529.485 93.4961 527 93.4961H200C197.515 93.4961 195.5 95.5108 195.5 97.9961V100.496Z" fill="#101011" stroke="#101011"/>
<ellipse cx="203.111" cy="97.9961" rx="2.11111" ry="2" fill="#FF0000"/>
<ellipse cx="214.888" cy="97.9961" rx="2.11111" ry="2" fill="#255425"/>
<ellipse cx="209" cy="97.9961" rx="2.22222" ry="2" fill="#B9B90C"/>
<path d="M426 136.08L429.25 141.615C429.624 142.252 430.537 142.277 430.946 141.662L433.702 137.509C434.125 136.87 435.079 136.926 435.426 137.608L437.372 141.437C437.722 142.127 438.689 142.175 439.106 141.523L441.77 137.36C442.157 136.755 443.038 136.743 443.44 137.338L446.485 141.838C446.869 142.406 447.698 142.427 448.111 141.88L451.652 137.195C452.065 136.648 452.894 136.67 453.278 137.238L456.34 141.762C456.738 142.351 457.606 142.347 458 141.756L460.971 137.296C461.361 136.711 462.217 136.7 462.622 137.275L466.643 142.995" stroke="url(#paint10_linear_938_1821)" stroke-width="2"/>
<path d="M433.357 125.996L436.608 131.531C436.982 132.168 437.894 132.194 438.303 131.578L441.059 127.425C441.482 126.787 442.437 126.842 442.784 127.525L444.729 131.353C445.08 132.043 446.047 132.091 446.463 131.439L449.127 127.276C449.515 126.671 450.395 126.659 450.798 127.254L453.843 131.754C454.227 132.322 455.055 132.343 455.469 131.796L459.009 127.111C459.423 126.564 460.251 126.586 460.635 127.154L463.697 131.678C464.096 132.267 464.964 132.263 465.358 131.672L468.329 127.212C468.719 126.627 469.575 126.616 469.979 127.191L474.001 132.911" stroke="#A76E00" stroke-width="2"/>
<path d="M494.877 219.432L503.931 220.975L498.074 228.081L494.877 219.432Z" fill="black"/>
<rect width="2.31526" height="7.4537" transform="matrix(0.635955 -0.771726 0.768763 0.639534 500.293 225.387)" fill="black"/>
<path d="M225.471 198.728C236.35 204.161 241.795 193.151 248.057 200.974L247.776 204.899C233.647 210.55 227.019 203.139 225.471 198.728Z" fill="url(#paint11_linear_938_1821)"/>
<path d="M259.051 235.586C254.808 223.821 266.742 220.121 259.492 212.6L255.438 212.256C247.938 225.511 254.722 233.332 259.051 235.586Z" fill="url(#paint12_linear_938_1821)"/>
<path d="M257.37 242.843C254.949 230.463 267.172 228.487 261.185 219.918L257.268 218.988C247.977 231.16 253.465 239.963 257.37 242.843Z" fill="url(#paint13_linear_938_1821)"/>
<path d="M257.104 250.265C254.641 237.081 263.789 226.598 258.821 220.336L255.81 221.827C249.401 242.546 254.002 249.419 257.104 250.265Z" fill="url(#paint14_linear_938_1821)"/>
<path d="M250.942 255.704C245.786 239.405 261.78 234.453 252.461 223.975L247.094 223.446C236.597 241.647 245.285 252.535 250.942 255.704Z" fill="url(#paint15_linear_938_1821)"/>
<path d="M236.349 253.02C237.656 236.884 253.389 236.187 248.985 224.376L244.486 222.608C228.832 236.734 232.539 248.768 236.349 253.02Z" fill="url(#paint16_linear_938_1821)"/>
<path d="M226.844 244.38C231.872 232.778 244.406 231.91 243.875 223.543L240.779 222.381C224.976 232.877 224.904 241.42 226.844 244.38Z" fill="url(#paint17_linear_938_1821)"/>
<path d="M219.039 196.542C229.918 201.976 235.363 190.966 241.625 198.788L241.344 202.714C227.215 208.365 220.587 200.954 219.039 196.542Z" fill="url(#paint18_linear_938_1821)"/>
<path d="M212.101 198.942C224.862 204.869 236.063 195.034 241.763 202.824L240.007 206.462C218.978 210.613 212.641 203.178 212.101 198.942Z" fill="url(#paint19_linear_938_1821)"/>
<path d="M202.277 203.971C217.785 211.595 224.491 195.649 233.779 206.795L233.69 212.451C214.527 220.841 204.764 210.293 202.277 203.971Z" fill="url(#paint20_linear_938_1821)"/>
<path d="M204.941 218.454C220.798 218.77 223.693 203.557 234.545 208.995L235.628 213.539C219.7 227.356 208.533 222.572 204.941 218.454Z" fill="url(#paint21_linear_938_1821)"/>
<path d="M213.541 228.904C225.517 225.158 228.13 213.072 236.18 214.407L236.871 217.528C224.447 231.844 216.141 231.077 213.541 228.904Z" fill="url(#paint22_linear_938_1821)"/>
<path d="M197.439 254.29C210.838 236.688 228.47 234.663 239.074 217.469" stroke="#301607" stroke-width="2"/>
<path d="M228.12 234.641C231.37 227.841 238.862 227.062 238.728 222.25L236.907 221.648C227.257 228.051 227.028 232.978 228.12 234.641Z" fill="url(#paint23_linear_938_1821)"/>
<path d="M221.107 228.051C229.571 225.906 230.929 217.492 236.785 218.768L237.418 220.997C229.09 230.577 223.074 229.691 221.107 228.051Z" fill="url(#paint24_linear_938_1821)"/>
<rect width="1.62447" height="2.99007" rx="0.812233" transform="matrix(0.895801 0.444455 -0.487935 0.87288 271.234 182.67)" fill="#FFB800"/>
<rect width="1.62788" height="2.98443" rx="0.813941" transform="matrix(0.292704 0.956203 -0.939238 0.343267 277.365 190.711)" fill="#FFB800"/>
<ellipse cx="235.359" cy="213.484" rx="4.28864" ry="4.62023" transform="rotate(48.5107 235.359 213.484)" fill="#3E091C"/>
<ellipse cx="254.522" cy="212.003" rx="4.28864" ry="3.94644" transform="rotate(48.5107 254.522 212.003)" fill="#3E091C"/>
<ellipse cx="256.745" cy="218.148" rx="4.28865" ry="4.62023" transform="rotate(48.5107 256.745 218.148)" fill="#3E091C"/>
<ellipse cx="251.132" cy="224.344" rx="4.28864" ry="4.62023" transform="rotate(48.5107 251.132 224.344)" fill="#3E091C"/>
<ellipse cx="244.829" cy="224.193" rx="4.28864" ry="4.62023" transform="rotate(48.5107 244.829 224.193)" fill="#3E091C"/>
<ellipse cx="246.655" cy="203.495" rx="4.28864" ry="3.68976" transform="rotate(48.5107 246.655 203.495)" fill="#3E091C"/>
<ellipse cx="240.128" cy="200.957" rx="4.28864" ry="4.62023" transform="rotate(48.5107 240.128 200.957)" fill="#3E091C"/>
<ellipse cx="235.15" cy="206.273" rx="4.28864" ry="4.62023" transform="rotate(48.5107 235.15 206.273)" fill="#3E091C"/>
<ellipse cx="246.061" cy="212.946" rx="10.9748" ry="6.54532" transform="rotate(48.5107 246.061 212.946)" fill="#3E091C"/>
<path d="M255.075 215.808L251.675 212.449C253.385 210.763 255.953 210.749 257.786 212.56L261.186 215.919C259.476 217.605 256.908 217.619 255.075 215.808Z" stroke="#F39306" stroke-width="2"/>
<path d="M228.865 209.369L228.6 209.142C234.086 203.74 242.967 203.356 248.898 208.426L249.164 208.652C243.678 214.054 234.796 214.438 228.865 209.369Z" stroke="#F39306" stroke-width="2"/>
<path d="M248.625 211.969L250.563 210.024C255.253 215.32 255.079 223.382 250.003 228.476L248.065 230.421C243.375 225.125 243.549 217.063 248.625 211.969Z" stroke="#F39306" stroke-width="2"/>
<path d="M242.424 197.214L247.208 202.255C249.087 204.234 249.358 207.364 247.98 209.662L243.197 204.622C241.318 202.642 241.046 199.512 242.424 197.214Z" stroke="#F39306" stroke-width="2"/>
<path d="M254.611 204.791L254.66 204.932C256.479 210.236 253.578 213.303 248.182 211.782V211.782L248.133 211.641C246.314 206.338 249.215 203.271 254.611 204.791V204.791Z" fill="url(#paint25_linear_938_1821)"/>
<path d="M250.594 208.578V208.578C250.684 216.904 244.03 224.216 235.732 224.911L232.909 225.147V225.147C232.819 216.821 239.473 209.508 247.77 208.814L250.594 208.578Z" fill="url(#paint26_linear_938_1821)"/>
<path d="M259.65 227.27V227.27C251.801 224.766 247.835 216.504 250.829 208.828V208.828V208.828C258.678 211.332 262.644 219.594 259.65 227.27V227.27Z" fill="url(#paint27_linear_938_1821)"/>
<path d="M250.814 208.842L249.489 209.348C242.144 212.153 234.226 208.364 231.805 200.883V200.883L233.131 200.377C240.476 197.571 248.393 201.361 250.814 208.842V208.842Z" fill="url(#paint28_linear_938_1821)"/>
<ellipse cx="250.735" cy="209.029" rx="1.45933" ry="0.994632" transform="rotate(48.5107 250.735 209.029)" fill="#FFFF00"/>
<path d="M251.169 210.076C255.306 208.306 262.706 198.482 275.061 192.486" stroke="#FFE70E"/>
<path d="M249.919 208.759C251.973 204.353 263.624 198.546 270.609 185.61" stroke="#FFE70E"/>
<rect width="122" height="72" rx="5" transform="matrix(-1 0 0 1 629 239.996)" fill="#1E1E20"/>
<rect width="113" height="64" rx="2" transform="matrix(-1 0 0 1 624 243.996)" fill="url(#paint29_linear_938_1821)"/>
<ellipse rx="60" ry="26.5" transform="matrix(-0.972684 -0.232134 -0.237809 0.971312 554.337 273.808)" fill="url(#paint30_radial_938_1821)" fill-opacity="0.66"/>
<ellipse rx="31.5" ry="19" transform="matrix(-0.933335 0.359007 0.367065 0.930195 598.574 272.979)" fill="url(#paint31_radial_938_1821)" fill-opacity="0.58"/>
<path d="M618.836 266.929C621.899 266.477 623.555 268.475 624 269.53V277.989C614.743 278.439 609.368 277.566 607.838 277.073C604.873 278.178 598.963 279.358 599.041 275.241C599.119 271.125 603.853 271.226 606.211 271.792C605.351 270.876 604.473 268.734 607.838 267.494C611.204 266.255 613.768 268.335 614.629 269.53C614.756 268.852 615.774 267.381 618.836 266.929Z" fill="url(#paint32_linear_938_1821)" fill-opacity="0.31"/>
<path d="M620.26 260.066C622.478 259.613 623.677 261.611 624 262.667V271.126C617.296 271.575 613.403 270.703 612.295 270.21C610.148 271.315 605.867 272.494 605.924 268.378C605.98 264.261 609.409 264.363 611.116 264.928C610.494 264.012 609.858 261.87 612.295 260.631C614.732 259.391 616.59 261.472 617.213 262.667C617.305 261.988 618.042 260.518 620.26 260.066Z" fill="url(#paint33_linear_938_1821)" fill-opacity="0.17"/>
<path d="M537.241 270.623C539.468 270.235 540.672 271.946 540.996 272.85V280.092C534.265 280.477 530.357 279.73 529.244 279.308C527.088 280.253 522.79 281.264 522.847 277.739C522.903 274.215 526.346 274.302 528.061 274.786C527.435 274.002 526.797 272.168 529.244 271.107C531.691 270.045 533.556 271.827 534.182 272.85C534.274 272.269 535.014 271.01 537.241 270.623Z" fill="url(#paint34_linear_938_1821)" fill-opacity="0.28"/>
<path d="M577.627 269.32C575.54 268.862 574.411 270.887 574.107 271.957V280.532C580.416 280.988 584.079 280.103 585.122 279.604C587.143 280.723 591.171 281.919 591.118 277.747C591.065 273.574 587.838 273.677 586.231 274.25C586.817 273.321 587.416 271.15 585.122 269.893C582.828 268.637 581.081 270.746 580.494 271.957C580.408 271.269 579.714 269.779 577.627 269.32Z" fill="url(#paint35_linear_938_1821)" fill-opacity="0.28"/>
<path d="M590.891 269.355C591.256 268.277 592.617 266.238 595.133 266.7C597.648 267.161 598.485 268.662 598.588 269.355C599.296 268.135 601.403 266.012 604.167 267.277C606.713 268.442 606.597 270.57 606.011 271.629C606.199 271.691 606.176 271.78 605.851 271.877C605.907 271.803 605.961 271.72 606.011 271.629C605.081 271.324 599.001 271.698 599.054 275.193C599.081 276.933 600.363 277.928 601.683 278.416C602.844 278.388 603.635 278.296 604.066 278.124C605.493 278.784 603.55 279.107 601.683 278.416C599.462 278.47 595.886 278.289 590.891 277.987V269.355Z" fill="url(#paint36_linear_938_1821)" fill-opacity="0.2"/>
<path d="M587.241 266.7C589.394 266.238 590.558 268.277 590.871 269.355V277.987C584.363 278.446 580.585 277.555 579.509 277.053C577.425 278.18 573.269 279.384 573.324 275.183C573.379 270.982 576.707 271.086 578.365 271.663C577.76 270.728 577.143 268.542 579.509 267.277C581.875 266.012 583.678 268.135 584.283 269.355C584.372 268.662 585.088 267.161 587.241 266.7Z" fill="url(#paint37_linear_938_1821)" fill-opacity="0.17"/>
<path d="M511 269.355C511.424 268.277 513.001 266.238 515.918 266.7C518.834 267.161 519.803 268.662 519.924 269.355C520.744 268.135 523.186 266.012 526.391 267.277C529.596 268.542 528.759 270.728 527.941 271.663C530.186 271.086 527.867 270.799 527.941 275C528.011 279.02 515.513 279.114 511.957 278.128C511.444 278.151 511.139 278.123 511.532 277.987C511.654 278.036 511.796 278.083 511.957 278.128C513.348 278.066 516.269 277.636 511 277.987V269.355Z" fill="url(#paint38_linear_938_1821)" fill-opacity="0.23"/>
<path d="M544.217 270.625C542.307 270.219 541.274 272.012 540.996 272.959V280.549C546.77 280.953 550.122 280.169 551.076 279.727C552.926 280.718 556.612 281.777 556.563 278.084C556.515 274.39 553.562 274.481 552.091 274.989C552.628 274.167 553.176 272.245 551.076 271.133C548.977 270.02 547.378 271.887 546.841 272.959C546.762 272.35 546.127 271.031 544.217 270.625Z" fill="url(#paint39_linear_938_1821)" fill-opacity="0.28"/>
<path d="M515.913 260.155C513 259.61 511.424 262.019 511 263.291V273.488C519.808 274.03 524.922 272.978 526.378 272.384C529.199 273.716 534.823 275.138 534.749 270.176C534.675 265.213 530.17 265.336 527.927 266.017C528.745 264.913 529.58 262.331 526.378 260.837C523.176 259.343 520.736 261.85 519.916 263.291C519.796 262.473 518.827 260.7 515.913 260.155Z" fill="url(#paint40_linear_938_1821)" fill-opacity="0.23"/>
<path d="M570.478 269.32C572.63 268.862 573.794 270.887 574.107 271.957V280.532C567.601 280.988 563.824 280.103 562.749 279.604C560.665 280.723 556.511 281.919 556.566 277.747C556.62 273.574 559.948 273.677 561.605 274.25C561.001 273.321 560.383 271.15 562.749 269.893C565.114 268.637 566.916 270.746 567.522 271.957C567.61 271.269 568.326 269.779 570.478 269.32Z" fill="url(#paint41_linear_938_1821)" fill-opacity="0.28"/>
<path d="M548.228 267.615C550.641 267.227 551.946 268.938 552.297 269.842V277.084C545.004 277.469 540.769 276.722 539.563 276.3C537.227 277.246 532.571 278.256 532.632 274.731C532.693 271.207 536.424 271.294 538.281 271.778C537.604 270.994 536.912 269.16 539.563 268.099C542.215 267.038 544.235 268.819 544.914 269.842C545.014 269.261 545.816 268.002 548.228 267.615Z" fill="url(#paint42_linear_938_1821)" fill-opacity="0.08"/>
<path d="M557.101 268.01C554.252 267.551 552.711 269.577 552.297 270.647V279.222C560.909 279.677 565.909 278.793 567.332 278.293C570.09 279.413 575.589 280.609 575.516 276.436C575.444 272.263 571.039 272.366 568.846 272.939C569.646 272.011 570.463 269.839 567.332 268.583C564.201 267.326 561.816 269.435 561.014 270.647C560.897 269.959 559.95 268.468 557.101 268.01Z" fill="url(#paint43_linear_938_1821)" fill-opacity="0.08"/>
<path d="M596.711 263.218C599.124 262.831 600.428 264.542 600.779 265.445V272.688C593.486 273.073 589.251 272.325 588.046 271.904C585.71 272.849 581.053 273.859 581.115 270.335C581.176 266.811 584.906 266.898 586.764 267.382C586.086 266.597 585.394 264.764 588.046 263.702C590.697 262.641 592.718 264.422 593.396 265.445C593.496 264.864 594.298 263.605 596.711 263.218Z" fill="url(#paint44_linear_938_1821)" fill-opacity="0.17"/>
<path d="M605.583 263.613C602.734 263.155 601.194 265.18 600.779 266.25V274.825C609.391 275.281 614.391 274.396 615.815 273.897C618.573 275.016 624.071 276.212 623.999 272.04C623.926 267.867 619.522 267.97 617.329 268.543C618.128 267.614 618.945 265.443 615.815 264.186C612.684 262.93 610.298 265.039 609.497 266.25C609.379 265.562 608.432 264.072 605.583 263.613Z" fill="url(#paint45_linear_938_1821)" fill-opacity="0.17"/>
<path d="M616 274.996L617.45 278.724L663.71 259.749C664.732 259.33 665.236 258.155 664.835 257.126V257.126C664.435 256.097 663.282 255.602 662.26 256.021L616 274.996Z" fill="black"/>
<path d="M614 274.996L615.45 278.724L613.6 279.483C612.578 279.902 611.425 279.407 611.024 278.378V278.378C610.624 277.349 611.128 276.174 612.15 275.755L614 274.996Z" fill="#6C6565"/>
<path d="M616 274.996L617.45 278.724L616.525 279.103C616.014 279.313 615.438 279.066 615.237 278.551L614.15 275.755L616 274.996Z" fill="#252525"/>
<rect width="113" height="48" rx="24" transform="matrix(-1 0 0 1 624 244.996)" fill="url(#paint46_radial_938_1821)" fill-opacity="0.06"/>
<path d="M606 251.996C605.548 257.775 596.629 254.433 597.425 259.856" stroke="black"/>
<path d="M587 254.996C589.729 260.131 596.586 253.591 598.026 258.883" stroke="black"/>
<path d="M649 214.996C649.021 228.291 624.905 221.887 628.127 234.19" stroke="black" stroke-width="2"/>
<path d="M598 226.996C606.237 238.37 622.876 222.439 627.762 234.354" stroke="black" stroke-width="2"/>
<path d="M578 263.996C576.611 266.586 573.175 263.453 572.435 266.101" stroke="black" stroke-width="0.4"/>
<path d="M573 264.996C572.789 262.138 568.287 263.938 568.703 261.236" stroke="black" stroke-width="0.4"/>
<path d="M559 268.996C559.413 269.848 558.279 269.649 558.786 270.409" stroke="black" stroke-width="0.2"/>
<path d="M557 270.996C557.673 271.652 557.824 270.485 558.383 271.206" stroke="black" stroke-width="0.2"/>
<rect width="23" height="23" rx="11.5" transform="matrix(1 0 0 -1 562 215.996)" fill="url(#paint47_linear_938_1821)" fill-opacity="0.44"/>
<rect width="24" height="22" rx="11" transform="matrix(1 0 0 -1 564 121.996)" fill="url(#paint48_linear_938_1821)" fill-opacity="0.44"/>
<rect width="23" height="22" rx="11" transform="matrix(1 0 0 -1 598 173.996)" fill="url(#paint49_linear_938_1821)" fill-opacity="0.44"/>
<path d="M394 238.995C384.718 253.951 379.702 255.387 375 254.995H304H262L293 234.995C311.731 223.138 336.217 215.984 351 213.995C362.142 212.496 383.267 216.372 394 207.995C407.417 197.524 419.458 200.748 427 202.995C433.034 204.793 440.208 200.447 443 197.995C447.098 196.122 453.657 195.369 448 207.995C442.344 220.622 431.69 221.17 427 219.995C422.154 219.416 403.283 224.04 394 238.995Z" fill="url(#paint50_linear_938_1821)"/>
<rect x="301.5" y="140.496" width="110" height="42" stroke="#0085FF" stroke-linejoin="bevel" stroke-dasharray="7 7"/>
<rect x="464.2" y="192.196" width="24.6" height="3.6" rx="0.8" stroke="#DCDCDC" stroke-width="0.4"/>
<path d="M462 174.996L469.662 182.889L526.274 109.638C526.617 109.194 526.581 108.533 526.192 108.133V108.133C525.801 107.73 525.19 107.733 524.806 108.141L494.073 140.825L462 174.996Z" fill="#5C2E12"/>
<path d="M462.25 173.927C441.01 168.313 450.824 198.156 434.966 210.171C461.528 210.598 469.228 191.342 469.912 181.82L462.25 173.927Z" fill="url(#paint51_linear_938_1821)"/>
<rect x="137" y="60.9961" width="59" height="58" rx="6" fill="#100F0F"/>
<g clip-path="url(#clip1_938_1821)">
<path d="M166 89.9961C166 86.4063 169.41 82.9961 173 82.9961C176.59 82.9961 179 86.4063 179 89.9961C179 93.586 176.59 95.9961 173 95.9961C169.41 95.9961 166 93.586 166 89.9961Z" fill="#1ABCFE"/>
<path d="M153 102.996C153 99.4063 155.41 95.9961 159 95.9961H166V102.996C166 106.586 162.59 108.996 159 108.996C155.41 108.996 153 106.586 153 102.996Z" fill="#0ACF83"/>
<path d="M166 69.9961V82.9961H173.538C177.404 82.9961 180 80.5859 180 76.9961C180 73.4062 177.404 69.9961 173.538 69.9961H166Z" fill="#FF7262"/>
<path d="M153 76.9961C153 80.5859 155.41 82.9961 159 82.9961H166V69.9961H159C155.41 69.9961 153 73.4062 153 76.9961Z" fill="#F24E1E"/>
<path d="M153 89.9961C153 93.586 155.41 95.9961 159 95.9961H166V82.9961H159C155.41 82.9961 153 86.4063 153 89.9961Z" fill="#A259FF"/>
</g>
<rect x="200" y="125.996" width="30" height="5" rx="2.5" fill="#AEAEAE"/>
<rect x="200" y="156.996" width="30" height="5" rx="2.5" fill="#AEAEAE"/>
<rect x="200" y="148.996" width="30" height="5" rx="2.5" fill="#AEAEAE"/>
<rect x="200" y="141.996" width="30" height="4" rx="2" fill="#AEAEAE"/>
<rect x="200" y="133.996" width="30" height="5" rx="2.5" fill="#AEAEAE"/>
</g>
<defs>
<linearGradient id="paint0_linear_938_1821" x1="342" y1="378" x2="342" y2="0" gradientUnits="userSpaceOnUse">
<stop stop-color="#001231"/>
<stop offset="1" stop-color="#27275C"/>
</linearGradient>
<linearGradient id="paint1_linear_938_1821" x1="118.412" y1="99.6361" x2="180.396" y2="282.412" gradientUnits="userSpaceOnUse">
<stop stop-color="#000025"/>
<stop offset="0.979167" stop-color="#300213"/>
</linearGradient>
<linearGradient id="paint2_linear_938_1821" x1="225.901" y1="35.9221" x2="169.09" y2="280.408" gradientUnits="userSpaceOnUse">
<stop stop-color="#000025"/>
<stop offset="1" stop-color="#300213"/>
</linearGradient>
<linearGradient id="paint3_linear_938_1821" x1="191.41" y1="85.9961" x2="611.56" y2="467.865" gradientUnits="userSpaceOnUse">
<stop offset="0.296875" stop-color="#424069"/>
<stop offset="1" stop-color="#1E1E2C"/>
</linearGradient>
<linearGradient id="paint4_linear_938_1821" x1="0.364323" y1="-3.36686e-06" x2="50.9052" y2="25.4825" gradientUnits="userSpaceOnUse">
<stop offset="0.296875" stop-color="#424069"/>
<stop offset="1" stop-color="#100F17"/>
</linearGradient>
<linearGradient id="paint5_linear_938_1821" x1="286.922" y1="301.996" x2="294.061" y2="350.333" gradientUnits="userSpaceOnUse">
<stop offset="0.296875" stop-color="#424069"/>
<stop offset="1" stop-color="#100F17"/>
</linearGradient>
<linearGradient id="paint6_linear_938_1821" x1="319.43" y1="159.496" x2="401.806" y2="162.544" gradientUnits="userSpaceOnUse">
<stop/>
<stop offset="1"/>
</linearGradient>
<linearGradient id="paint7_linear_938_1821" x1="318.643" y1="202.996" x2="385.446" y2="204.949" gradientUnits="userSpaceOnUse">
<stop/>
<stop offset="1" stop-color="#9F4009"/>
</linearGradient>
<linearGradient id="paint8_linear_938_1821" x1="491" y1="165.636" x2="449" y2="165.636" gradientUnits="userSpaceOnUse">
<stop stop-color="#3E091C"/>
<stop offset="0.409576" stop-color="#5F0E2B"/>
<stop offset="1" stop-color="white"/>
</linearGradient>
<linearGradient id="paint9_linear_938_1821" x1="2.43485e-07" y1="1.3125" x2="34.9979" y2="0.841245" gradientUnits="userSpaceOnUse">
<stop offset="0.0260417" stop-color="#FF0000"/>
<stop offset="0.129268" stop-color="#FFA500"/>
<stop offset="0.236435" stop-color="#FFFF00"/>
<stop offset="0.39561" stop-color="#008000"/>
<stop offset="0.529534" stop-color="#0C90AD"/>
<stop offset="0.649335" stop-color="#0000FF"/>
<stop offset="0.773843" stop-color="#800080"/>
<stop offset="0.869536" stop-color="#FF00C7"/>
<stop offset="1" stop-color="#FF0202"/>
</linearGradient>
<linearGradient id="paint10_linear_938_1821" x1="446.322" y1="136.08" x2="446.322" y2="142.995" gradientUnits="userSpaceOnUse">
<stop stop-color="#8D5E00"/>
<stop offset="1" stop-color="#9F4009"/>
</linearGradient>
<linearGradient id="paint11_linear_938_1821" x1="246.847" y1="197.589" x2="227.531" y2="204.492" gradientUnits="userSpaceOnUse">
<stop offset="0.015625" stop-color="#511E07"/>
<stop offset="0.953125" stop-color="#925700"/>
</linearGradient>
<linearGradient id="paint12_linear_938_1821" x1="262.811" y1="214.352" x2="253.228" y2="232.514" gradientUnits="userSpaceOnUse">
<stop offset="0.015625" stop-color="#511E07"/>
<stop offset="0.953125" stop-color="#925700"/>
</linearGradient>
<linearGradient id="paint13_linear_938_1821" x1="264.175" y1="222.149" x2="251.823" y2="238.704" gradientUnits="userSpaceOnUse">
<stop offset="0.015625" stop-color="#511E07"/>
<stop offset="0.953125" stop-color="#925700"/>
</linearGradient>
<linearGradient id="paint14_linear_938_1821" x1="261.198" y1="221.016" x2="253.158" y2="249.137" gradientUnits="userSpaceOnUse">
<stop offset="0.015625" stop-color="#511E07"/>
<stop offset="0.953125" stop-color="#925700"/>
</linearGradient>
<linearGradient id="paint15_linear_938_1821" x1="256.796" y1="226.437" x2="242.801" y2="251.081" gradientUnits="userSpaceOnUse">
<stop offset="0.015625" stop-color="#511E07"/>
<stop offset="0.953125" stop-color="#925700"/>
</linearGradient>
<linearGradient id="paint16_linear_938_1821" x1="251.894" y1="227.664" x2="230.588" y2="246.507" gradientUnits="userSpaceOnUse">
<stop offset="0.015625" stop-color="#511E07"/>
<stop offset="0.953125" stop-color="#925700"/>
</linearGradient>
<linearGradient id="paint17_linear_938_1821" x1="245.345" y1="225.833" x2="223.81" y2="239.653" gradientUnits="userSpaceOnUse">
<stop offset="0.015625" stop-color="#511E07"/>
<stop offset="0.953125" stop-color="#925700"/>
</linearGradient>
<linearGradient id="paint18_linear_938_1821" x1="240.415" y1="195.403" x2="221.099" y2="202.307" gradientUnits="userSpaceOnUse">
<stop offset="0.015625" stop-color="#511E07"/>
<stop offset="0.953125" stop-color="#925700"/>
</linearGradient>
<linearGradient id="paint19_linear_938_1821" x1="241.319" y1="199.572" x2="212.72" y2="203.476" gradientUnits="userSpaceOnUse">
<stop offset="0.015625" stop-color="#511E07"/>
<stop offset="0.953125" stop-color="#925700"/>
</linearGradient>
<linearGradient id="paint20_linear_938_1821" x1="231.84" y1="201.945" x2="205.649" y2="212.41" gradientUnits="userSpaceOnUse">
<stop offset="0.015625" stop-color="#511E07"/>
<stop offset="0.953125" stop-color="#925700"/>
</linearGradient>
<linearGradient id="paint21_linear_938_1821" x1="231.761" y1="205.847" x2="210.455" y2="224.689" gradientUnits="userSpaceOnUse">
<stop offset="0.015625" stop-color="#511E07"/>
<stop offset="0.953125" stop-color="#925700"/>
</linearGradient>
<linearGradient id="paint22_linear_938_1821" x1="234.163" y1="212.755" x2="217.967" y2="232.529" gradientUnits="userSpaceOnUse">
<stop offset="0.015625" stop-color="#511E07"/>
<stop offset="0.953125" stop-color="#925700"/>
</linearGradient>
<linearGradient id="paint23_linear_938_1821" x1="239.555" y1="223.537" x2="226.408" y2="231.974" gradientUnits="userSpaceOnUse">
<stop offset="0.015625" stop-color="#511E07"/>
<stop offset="0.953125" stop-color="#925700"/>
</linearGradient>
<linearGradient id="paint24_linear_938_1821" x1="235.261" y1="217.519" x2="224.415" y2="230.761" gradientUnits="userSpaceOnUse">
<stop offset="0.015625" stop-color="#511E07"/>
<stop offset="0.953125" stop-color="#925700"/>
</linearGradient>
<linearGradient id="paint25_linear_938_1821" x1="254.814" y1="205.026" x2="250.003" y2="210.233" gradientUnits="userSpaceOnUse">
<stop stop-color="#750F34"/>
<stop offset="1" stop-color="#9F4009"/>
</linearGradient>
<linearGradient id="paint26_linear_938_1821" x1="249.968" y1="209.59" x2="233.637" y2="224.033" gradientUnits="userSpaceOnUse">
<stop stop-color="#9F4009"/>
<stop offset="1" stop-color="#750F34"/>
</linearGradient>
<linearGradient id="paint27_linear_938_1821" x1="259.71" y1="227.214" x2="249.746" y2="209.603" gradientUnits="userSpaceOnUse">
<stop stop-color="#750F34"/>
<stop offset="1" stop-color="#9F4009"/>
</linearGradient>
<linearGradient id="paint28_linear_938_1821" x1="249.517" y1="208.159" x2="232.713" y2="200.329" gradientUnits="userSpaceOnUse">
<stop stop-color="#9F4009"/>
<stop offset="1" stop-color="#750F34"/>
</linearGradient>
<linearGradient id="paint29_linear_938_1821" x1="46.3903" y1="-4.34696e-08" x2="47.3517" y2="64.0005" gradientUnits="userSpaceOnUse">
<stop stop-color="#0B3C69"/>
<stop offset="0.526042" stop-color="#062440"/>
<stop offset="0.98312" stop-color="#2E0D25"/>
</linearGradient>
<radialGradient id="paint30_radial_938_1821" cx="0" cy="0" r="1" gradientUnits="userSpaceOnUse" gradientTransform="translate(60 26.5) rotate(90) scale(26.5 60)">
<stop stop-color="#FFA500" stop-opacity="0.41"/>
<stop offset="1" stop-color="#062440" stop-opacity="0"/>
</radialGradient>
<radialGradient id="paint31_radial_938_1821" cx="0" cy="0" r="1" gradientUnits="userSpaceOnUse" gradientTransform="translate(31.5 19) rotate(90) scale(19 31.5)">
<stop offset="0.239583" stop-color="#B60000" stop-opacity="0.53"/>
<stop offset="1" stop-color="#062440" stop-opacity="0"/>
</radialGradient>
<linearGradient id="paint32_linear_938_1821" x1="611.52" y1="266.863" x2="611.52" y2="278.123" gradientUnits="userSpaceOnUse">
<stop stop-color="#FFF9F9"/>
<stop offset="1" stop-color="#FFF9F9" stop-opacity="0"/>
</linearGradient>
<linearGradient id="paint33_linear_938_1821" x1="614.962" y1="260" x2="614.962" y2="271.26" gradientUnits="userSpaceOnUse">
<stop stop-color="#FFF9F9"/>
<stop offset="1" stop-color="#FFF9F9" stop-opacity="0"/>
</linearGradient>
<linearGradient id="paint34_linear_938_1821" x1="531.921" y1="270.566" x2="531.921" y2="280.207" gradientUnits="userSpaceOnUse">
<stop stop-color="#FFF9F9"/>
<stop offset="1" stop-color="#FFF9F9" stop-opacity="0"/>
</linearGradient>
<linearGradient id="paint35_linear_938_1821" x1="582.613" y1="269.254" x2="582.613" y2="280.668" gradientUnits="userSpaceOnUse">
<stop stop-color="#FFF9F9" stop-opacity="0.6"/>
<stop offset="1" stop-color="#FFF9F9" stop-opacity="0"/>
</linearGradient>
<linearGradient id="paint36_linear_938_1821" x1="601.143" y1="266.633" x2="601.143" y2="278.124" gradientUnits="userSpaceOnUse">
<stop stop-color="#FFF9F9"/>
<stop offset="1" stop-color="#FFF9F9" stop-opacity="0"/>
</linearGradient>
<linearGradient id="paint37_linear_938_1821" x1="582.097" y1="266.633" x2="582.097" y2="278.124" gradientUnits="userSpaceOnUse">
<stop stop-color="#FFF9F9"/>
<stop offset="1" stop-color="#FFF9F9" stop-opacity="0"/>
</linearGradient>
<linearGradient id="paint38_linear_938_1821" x1="522.885" y1="266.633" x2="522.885" y2="278.124" gradientUnits="userSpaceOnUse">
<stop stop-color="#FFF9F9"/>
<stop offset="1" stop-color="#FFF9F9" stop-opacity="0"/>
</linearGradient>
<linearGradient id="paint39_linear_938_1821" x1="548.78" y1="270.566" x2="548.78" y2="280.669" gradientUnits="userSpaceOnUse">
<stop stop-color="#FFF9F9" stop-opacity="0.56"/>
<stop offset="1" stop-color="#FFF9F9" stop-opacity="0"/>
</linearGradient>
<linearGradient id="paint40_linear_938_1821" x1="522.875" y1="260.076" x2="522.875" y2="273.649" gradientUnits="userSpaceOnUse">
<stop stop-color="#FFF9F9"/>
<stop offset="1" stop-color="#FFF9F9" stop-opacity="0"/>
</linearGradient>
<linearGradient id="paint41_linear_938_1821" x1="565.336" y1="269.254" x2="565.336" y2="280.668" gradientUnits="userSpaceOnUse">
<stop stop-color="#FFF9F9" stop-opacity="0.6"/>
<stop offset="1" stop-color="#FFF9F9" stop-opacity="0"/>
</linearGradient>
<linearGradient id="paint42_linear_938_1821" x1="542.464" y1="267.559" x2="542.464" y2="277.199" gradientUnits="userSpaceOnUse">
<stop stop-color="#FFF9F9"/>
<stop offset="1" stop-color="#FFF9F9" stop-opacity="0"/>
</linearGradient>
<linearGradient id="paint43_linear_938_1821" x1="563.907" y1="267.943" x2="563.907" y2="279.357" gradientUnits="userSpaceOnUse">
<stop stop-color="#FFF9F9"/>
<stop offset="1" stop-color="#FFF9F9" stop-opacity="0"/>
</linearGradient>
<linearGradient id="paint44_linear_938_1821" x1="590.947" y1="263.162" x2="590.947" y2="272.802" gradientUnits="userSpaceOnUse">
<stop stop-color="#FFF9F9"/>
<stop offset="1" stop-color="#FFF9F9" stop-opacity="0"/>
</linearGradient>
<linearGradient id="paint45_linear_938_1821" x1="612.389" y1="263.547" x2="612.389" y2="274.961" gradientUnits="userSpaceOnUse">
<stop stop-color="#FFF9F9"/>
<stop offset="1" stop-color="#FFF9F9" stop-opacity="0"/>
</linearGradient>
<radialGradient id="paint46_radial_938_1821" cx="0" cy="0" r="1" gradientUnits="userSpaceOnUse" gradientTransform="translate(56.5 24) rotate(90) scale(24 56.5)">
<stop offset="0.723958" stop-color="white"/>
<stop offset="1" stop-color="white" stop-opacity="0"/>
</radialGradient>
<linearGradient id="paint47_linear_938_1821" x1="16.5898" y1="21.8206" x2="2.82249" y2="2.72159" gradientUnits="userSpaceOnUse">
<stop stop-color="#9F4009"/>
<stop offset="1" stop-color="#750F34"/>
</linearGradient>
<linearGradient id="paint48_linear_938_1821" x1="17.3111" y1="20.8719" x2="4.5424" y2="1.54788" gradientUnits="userSpaceOnUse">
<stop stop-color="#9F4009"/>
<stop offset="1" stop-color="#750F34"/>
</linearGradient>
<linearGradient id="paint49_linear_938_1821" x1="16.5898" y1="20.8719" x2="3.61626" y2="2.05596" gradientUnits="userSpaceOnUse">
<stop stop-color="#9F4009"/>
<stop offset="1" stop-color="#750F34"/>
</linearGradient>
<linearGradient id="paint50_linear_938_1821" x1="450.201" y1="196.941" x2="298.829" y2="227.231" gradientUnits="userSpaceOnUse">
<stop stop-color="#750F34"/>
<stop offset="1" stop-color="#9F4009"/>
</linearGradient>
<linearGradient id="paint51_linear_938_1821" x1="436.176" y1="211.417" x2="468.335" y2="180.196" gradientUnits="userSpaceOnUse">
<stop stop-color="#9F4009"/>
<stop offset="1" stop-color="#750F34"/>
</linearGradient>
<clipPath id="clip0_938_1821">
<rect width="684" height="378" fill="white"/>
</clipPath>
<clipPath id="clip1_938_1821">
<rect width="27" height="40" fill="white" transform="translate(153 69.9961)"/>
</clipPath>
</defs>
</svg>