<svg width="100%" height="100%" viewBox="0 0 2717 2119" fill="none" xmlns="http://www.w3.org/2000/svg">
                            <path d="M2591 717.148C2392.54 487.337 1122.37 72.1637 431.733 455.503C-139.852 1047.52 -43.544 1680.9 156.361 1865.85C364.709 2094.56 1621.7 2190.97 2225.13 1740.81C2828.56 1290.66 2777.72 932.27 2591 717.148Z" fill="url(#paint0_linear_0_1)"/>
                            <path d="M327.254 1626.54C318.489 1626.99 300.845 1620.69 300.377 1591.84C299.911 1563.08 317.99 1555.77 327.17 1555.69C327.198 1555.69 327.254 1551.42 327.254 1534.33C327.254 1517.24 309.336 1517.83 300.377 1520.27H281.43C283.879 1527.18 281.931 1542.47 254.554 1548.39C227.177 1554.3 218.273 1532.11 217.244 1520.27H184.275C171.054 1520.27 169.807 1529.64 170.837 1534.33V1576.41C154.744 1541.14 133.972 1547.9 125.598 1555.69C117.251 1562.17 104.097 1582.75 118.252 1613.21C132.408 1643.66 159.207 1634.78 170.837 1626.54C171.031 1634.57 171.304 1654.78 170.837 1671.36C170.369 1687.94 184.052 1690.75 190.952 1690.08H238.027C230.293 1696.07 215.308 1714.22 217.244 1738.83C219.181 1763.44 242.924 1766.92 254.554 1765.58C262.483 1767.35 280.429 1764.47 288.775 1738.83C297.122 1713.19 277.173 1695.65 266.156 1690.08C277.563 1690.29 303.549 1690.59 316.236 1690.08C328.923 1689.57 328.867 1677.39 327.254 1671.36V1626.54Z" fill="#4E67A8"/>
                            <path d="M1190.91 915.757C1199.66 915.419 1217.2 921.971 1217.36 950.886C1217.51 979.713 1199.39 986.799 1190.22 986.748C1190.2 986.748 1190.09 991.029 1189.91 1008.15C1189.73 1025.28 1207.62 1024.93 1216.58 1022.61L1235.5 1022.87C1233.13 1015.91 1235.24 1000.61 1262.63 995.055C1290.01 989.499 1298.66 1011.86 1299.56 1023.74L1332.47 1024.19C1345.66 1024.37 1347.01 1014.99 1346.03 1010.28L1346.49 968.108C1362.17 1003.68 1382.98 997.183 1391.42 989.49C1399.82 983.108 1413.17 962.667 1399.37 931.956C1385.57 901.245 1358.73 909.779 1347.03 917.885C1346.92 909.832 1346.87 889.574 1347.51 872.967C1348.16 856.36 1334.53 853.363 1327.64 853.94L1280.65 853.299C1288.44 847.397 1303.59 829.421 1301.92 804.731C1300.26 780.041 1276.59 776.236 1264.97 777.419C1257.08 775.543 1239.13 778.183 1230.53 803.758C1221.92 829.332 1241.64 847.187 1252.58 852.917C1241.19 852.548 1215.26 851.896 1202.59 852.236C1189.92 852.575 1189.84 864.78 1191.39 870.84L1190.91 915.757Z" fill="#9F4009"/>
                            <path d="M233.292 472.292C253.574 650.839 273.228 732.511 63 780.266C808.486 832.58 958.205 828.98 990.732 769.707C1005.8 723.152 1002.05 636.641 1033.81 472.292C1065.58 307.943 967.323 280.361 914.226 287.114H421.524C350.329 274.445 213.01 293.744 233.292 472.292Z" fill="url(#paint1_linear_0_1)"/>
                            <path d="M1953.08 213.374C1932.01 415.705 1911.59 508.256 2130 562.372C1355.52 621.655 1199.98 617.576 1166.18 550.407C1150.53 497.651 1154.42 399.615 1121.43 213.374C1088.43 27.132 1190.5 -4.12342 1245.67 3.5291H1757.53C1831.5 -10.8274 1974.16 11.0425 1953.08 213.374Z" fill="url(#paint2_linear_0_1)"/>
                            <ellipse cx="2332" cy="999.5" rx="227" ry="203.5" fill="#FFF7F7"/>
                            <ellipse cx="2332" cy="1004" rx="189" ry="164" fill="#960B0B"/>
                            <ellipse cx="2332" cy="999.5" rx="127" ry="112.5" fill="white"/>
                            <ellipse cx="2331.5" cy="1000" rx="65.5" ry="60" fill="#960B0B"/>
                            <rect x="465" y="1147" width="724" height="687" rx="27" fill="#5B578C"/>
                            <rect x="526" y="1253" width="26" height="195" fill="#0E0E37"/>
                            <rect x="656" y="1332" width="26" height="116" fill="#0E0E37"/>
                            <rect x="682" y="1350" width="26" height="98" fill="#0E0E37"/>
                            <rect x="708" y="1368" width="26" height="80" fill="#0E0E37"/>
                            <rect x="760" y="1409" width="26" height="39" fill="#0E0E37"/>
                            <rect x="734" y="1386" width="26" height="62" fill="#0E0E37"/>
                            <rect x="630" y="1318" width="26" height="130" fill="#0E0E37"/>
                            <rect x="604" y="1300" width="26" height="148" fill="#0E0E37"/>
                            <rect x="578" y="1283" width="26" height="165" fill="#0E0E37"/>
                            <rect x="552" y="1267" width="26" height="181" fill="#0E0E37"/>
                            <rect x="999" y="1243" width="20" height="120" transform="rotate(90 999 1243)" fill="#0E0E37"/>
                            <rect x="1103" y="1409" width="20" height="221" transform="rotate(90 1103 1409)" fill="#0E0E37"/>
                            <rect x="1029" y="1368" width="20" height="148" transform="rotate(90 1029 1368)" fill="#0E0E37"/>
                            <rect x="1053" y="1323" width="20" height="171" transform="rotate(90 1053 1323)" fill="#0E0E37"/>
                            <rect x="1103" y="1283" width="20" height="221" transform="rotate(90 1103 1283)" fill="#0E0E37"/>
                            <rect x="1011" y="1707" width="184" height="14" rx="7" transform="rotate(-180 1011 1707)" fill="#2F2E41"/>
                            <rect x="1123" y="1727" width="184" height="14" rx="7" transform="rotate(-180 1123 1727)" fill="#2F2E41"/>
                            <rect x="931" y="1726" width="104" height="14" rx="7" transform="rotate(-180 931 1726)" fill="#2F2E41"/>
                            <rect x="1109" y="1747" width="282" height="14" rx="7" transform="rotate(-180 1109 1747)" fill="#2F2E41"/>
                            <rect x="1011" y="1585" width="184" height="14" rx="7" transform="rotate(-180 1011 1585)" fill="#2F2E41"/>
                            <rect x="1123" y="1605" width="184" height="14" rx="7" transform="rotate(-180 1123 1605)" fill="#2F2E41"/>
                            <rect x="931" y="1604" width="104" height="14" rx="7" transform="rotate(-180 931 1604)" fill="#2F2E41"/>
                            <rect x="1109" y="1625" width="282" height="14" rx="7" transform="rotate(-180 1109 1625)" fill="#2F2E41"/>
                            <rect x="1011" y="1646" width="184" height="14" rx="7" transform="rotate(-180 1011 1646)" fill="#2F2E41"/>
                            <rect x="1123" y="1666" width="184" height="14" rx="7" transform="rotate(-180 1123 1666)" fill="#2F2E41"/>
                            <rect x="931" y="1665" width="104" height="14" rx="7" transform="rotate(-180 931 1665)" fill="#2F2E41"/>
                            <rect x="1109" y="1686" width="282" height="14" rx="7" transform="rotate(-180 1109 1686)" fill="#2F2E41"/>
                            <path d="M786 1655C786 1677.35 778.845 1699.2 765.439 1717.78C752.034 1736.36 732.98 1750.85 710.687 1759.4C688.395 1767.95 663.865 1770.19 640.199 1765.83C616.533 1761.47 594.795 1750.71 577.733 1734.9C560.671 1719.1 549.052 1698.97 544.344 1677.05C539.637 1655.13 542.053 1632.4 551.287 1611.76C560.521 1591.11 576.158 1573.46 596.22 1561.04C616.283 1548.63 639.871 1542 664 1542L664 1655H786Z" fill="#0E0E37"/>
                            <rect x="512.5" y="1522.5" width="648" height="264" rx="24.5" stroke="#2F2E41" stroke-width="5"/>
                            <rect x="508.5" y="1231.5" width="295" height="232" rx="24.5" stroke="#2F2E41" stroke-width="5"/>
                            <rect x="879" y="1229" width="3" height="219" fill="black"/>
                            <path d="M986.051 1674.62C945.165 1740.08 853.278 1758.52 780.052 1712.79C706.825 1667.05 683.086 1576.39 723.972 1510.93C764.858 1445.47 856.745 1427.02 929.972 1472.76C1003.2 1518.5 1026.94 1609.16 986.051 1674.62Z" fill="url(#paint3_linear_0_1)" fill-opacity="0.19" stroke="black" stroke-width="26"/>
                            <path d="M758.546 1708.79L790.476 1728.73L711.159 1870.23L633.834 2006.35L580.4 1972.98L667.825 1843.16L758.546 1708.79Z" fill="black"/>
                            <path d="M985.891 1898.03C993.323 1888.89 991.936 1875.45 982.794 1868.02C973.651 1860.59 960.215 1861.97 952.783 1871.12C945.351 1880.26 946.738 1893.7 955.88 1901.13C965.023 1908.56 978.459 1907.17 985.891 1898.03ZM1591.31 1909.73C1591.76 1907.57 1590.37 1905.45 1588.2 1905.01L1552.94 1897.75C1550.78 1897.31 1548.66 1898.7 1548.22 1900.87C1547.77 1903.03 1549.16 1905.14 1551.33 1905.59L1582.67 1912.04L1576.23 1943.38C1575.78 1945.54 1577.17 1947.66 1579.34 1948.1C1581.5 1948.55 1583.62 1947.16 1584.06 1944.99L1591.31 1909.73ZM965.872 1886.57C971.347 1896.06 981.112 1906.2 994.223 1916.33C1007.38 1926.5 1024.12 1936.81 1043.8 1946.58C1083.16 1966.11 1134.48 1983.56 1192.86 1993.24C1309.63 2012.6 1455.01 2000.93 1589.6 1912.26L1585.2 1905.58C1452.65 1992.91 1309.43 2004.46 1194.17 1985.35C1136.54 1975.79 1085.98 1958.58 1047.36 1939.41C1028.05 1929.83 1011.78 1919.78 999.114 1910C986.404 1900.18 977.542 1890.79 972.801 1882.57L965.872 1886.57Z" fill="white"/>
                            <path d="M723.874 831.701C712.144 830.595 701.738 839.207 700.632 850.937C699.526 862.667 708.138 873.073 719.868 874.18C731.598 875.286 742.004 866.674 743.11 854.944C744.217 843.214 735.604 832.808 723.874 831.701ZM607.26 1131.51C609.168 1132.62 611.617 1131.98 612.73 1130.07L630.862 1098.97C631.975 1097.06 631.33 1094.61 629.422 1093.5C627.513 1092.39 625.064 1093.03 623.951 1094.94L607.834 1122.58L580.189 1106.47C578.281 1105.35 575.832 1106 574.719 1107.91C573.606 1109.82 574.251 1112.26 576.16 1113.38L607.26 1131.51ZM719.59 849.654C694.742 866.901 654.153 891.814 625.916 934.872C597.51 978.186 581.801 1039.45 605.406 1129.07L613.143 1127.04C590.052 1039.37 605.573 980.48 632.606 939.259C659.807 897.781 698.864 873.779 724.152 856.226L719.59 849.654Z" fill="white"/>
                            <path d="M2537.78 839.945L2597.02 825.648L2556.98 776.352L2530.84 831.407L2537.78 839.945ZM2335.47 1004.27L2542.05 836.478L2535.11 827.939L2328.53 995.731L2335.47 1004.27Z" fill="black"/>
                            <g filter="url(#filter0_d_0_1)">
                            <ellipse cx="1808.23" cy="893.5" rx="108.5" ry="113.5" fill="#FFFF47"/>
                            </g>
                            <path d="M1772.06 1060C1767.19 1026.77 1745.14 991.348 1734.73 977.793C1788.77 968.139 1893.61 954.623 1880.62 977.793C1867.64 1000.96 1860.47 1042.25 1858.51 1060H1772.06Z" fill="#FFFF47"/>
                            <path d="M1844.39 1060C1849.26 1026.77 1871.31 991.348 1881.73 977.793C1827.68 968.139 1722.84 954.623 1735.83 977.793C1748.82 1000.96 1755.99 1042.25 1757.95 1060H1844.39Z" fill="#FFFF47"/>
                            <path d="M1795.71 1031C1792.55 1005.16 1788.12 946.34 1795.71 917.817C1803.31 889.294 1787.39 891.097 1778.48 895.564C1771.48 900.19 1760.79 912.601 1773.98 925.235C1787.17 937.87 1816.28 930.499 1829.19 925.235C1838.18 919.333 1851.77 905.135 1834.18 895.564C1816.6 885.992 1812.2 906.411 1812.2 917.817L1805.96 1031H1795.71Z" stroke="black" stroke-width="4"/>
                            <path d="M1863.56 685.937L1842.76 760.425L1845.87 761.208L1870.84 687.769L1863.56 685.937Z" fill="#F2F200"/>
                            <path d="M1997.45 812.331L1925.97 846.683L1927.42 849.407L2000.85 818.711L1997.45 812.331Z" fill="#F2F200"/>
                            <path d="M1962.89 741.463L1899 794.035L1901.11 796.341L1967.82 746.867L1962.89 741.463Z" fill="#F2F200"/>
                            <path d="M1747.53 680.971L1767.03 760.425L1763.95 761.306L1740.32 683.036L1747.53 680.971Z" fill="#F2F200"/>
                            <path d="M1622.07 807.407L1693.89 846.683L1692.59 849.472L1619.01 813.941L1622.07 807.407Z" fill="#F2F200"/>
                            <path d="M1666.56 738L1725.54 793.221L1723.6 795.65L1662 743.689L1666.56 738Z" fill="#F2F200"/>
                            <rect x="1623" y="1018" width="730" height="1101" rx="58" fill="#3A3A45"/>
                            <rect x="1653" y="1057" width="670" height="1030" rx="24" fill="white"/>
                            <rect x="1841" y="986" width="293" height="99" rx="13" fill="#925700"/>
                            <path d="M2025 986C2025 980.091 2024.03 974.239 2022.15 968.779C2020.26 963.32 2017.5 958.359 2014.02 954.18C2010.53 950.002 2006.4 946.687 2001.85 944.425C1997.3 942.164 1992.42 941 1987.5 941C1982.58 941 1977.7 942.164 1973.15 944.425C1968.6 946.687 1964.47 950.002 1960.98 954.18C1957.5 958.359 1954.74 963.32 1952.85 968.779C1950.97 974.239 1950 980.091 1950 986L1987.5 986H2025Z" fill="#925700"/>
                            <ellipse cx="1987.5" cy="974" rx="12.5" ry="12" fill="#11213F"/>
                            <rect x="1735.5" y="1256.5" width="103" height="102" rx="51" stroke="black" stroke-width="5"/>
                            <rect x="1735.5" y="1817.5" width="103" height="102" rx="51" stroke="black" stroke-width="5"/>
                            <rect x="1735.5" y="1630.5" width="103" height="102" rx="51" stroke="black" stroke-width="5"/>
                            <rect x="1735.5" y="1443.5" width="103" height="102" rx="51" stroke="black" stroke-width="5"/>
                            <rect x="2134" y="1295" width="184" height="14" rx="7" transform="rotate(-180 2134 1295)" fill="#AFAFB8"/>
                            <rect x="2246" y="1315" width="184" height="14" rx="7" transform="rotate(-180 2246 1315)" fill="#AFAFB8"/>
                            <rect x="2054" y="1314" width="104" height="14" rx="7" transform="rotate(-180 2054 1314)" fill="#AFAFB8"/>
                            <rect x="2191" y="1295" width="49" height="14" rx="7" transform="rotate(-180 2191 1295)" fill="#AFAFB8"/>
                            <rect x="2232" y="1335" width="282" height="14" rx="7" transform="rotate(-180 2232 1335)" fill="#AFAFB8"/>
                            <rect x="2134" y="1856" width="184" height="14" rx="7" transform="rotate(-180 2134 1856)" fill="#AFAFB8"/>
                            <rect x="2246" y="1876" width="184" height="14" rx="7" transform="rotate(-180 2246 1876)" fill="#AFAFB8"/>
                            <rect x="2054" y="1875" width="104" height="14" rx="7" transform="rotate(-180 2054 1875)" fill="#AFAFB8"/>
                            <rect x="2232" y="1896" width="282" height="14" rx="7" transform="rotate(-180 2232 1896)" fill="#AFAFB8"/>
                            <rect x="2246" y="1689" width="184" height="14" rx="7" transform="rotate(-180 2246 1689)" fill="#AFAFB8"/>
                            <rect x="2054" y="1688" width="104" height="14" rx="7" transform="rotate(-180 2054 1688)" fill="#AFAFB8"/>
                            <rect x="2002" y="1667" width="49" height="14" rx="7" transform="rotate(-180 2002 1667)" fill="#AFAFB8"/>
                            <rect x="2232" y="1709" width="282" height="14" rx="7" transform="rotate(-180 2232 1709)" fill="#AFAFB8"/>
                            <rect x="2062" y="1482" width="112" height="14" rx="7" transform="rotate(-180 2062 1482)" fill="#AFAFB8"/>
                            <rect x="2246" y="1502" width="184" height="14" rx="7" transform="rotate(-180 2246 1502)" fill="#AFAFB8"/>
                            <rect x="2054" y="1501" width="104" height="14" rx="7" transform="rotate(-180 2054 1501)" fill="#AFAFB8"/>
                            <rect x="2122" y="1482" width="49" height="14" rx="7" transform="rotate(-180 2122 1482)" fill="#AFAFB8"/>
                            <rect x="2142" y="1522" width="192" height="14" rx="7" transform="rotate(-180 2142 1522)" fill="#AFAFB8"/>
                            <path d="M2489.91 1266.91L2170.38 1568.69L2144 1598.5L2134.5 1627V1629.5L2135 1631L2135.5 1631.5L2136 1632L2137 1632.5L2139 1633L2170.38 1627L2206.15 1591.44L2517.06 1287.69C2524.87 1282.08 2537.29 1268.3 2524.46 1258.01C2511.63 1247.72 2496.08 1259.66 2489.91 1266.91Z" fill="#302F2D"/>
                            <ellipse cx="407" cy="545.5" rx="58" ry="58.5" fill="#D9D9D9"/>
                            <ellipse cx="790" cy="550.5" rx="58" ry="58.5" fill="#D9D9D9"/>
                            <ellipse cx="597" cy="550.5" rx="58" ry="58.5" fill="#D9D9D9"/>
                            <ellipse cx="1335" cy="281.5" rx="58" ry="58.5" fill="#D9D9D9"/>
                            <ellipse cx="1718" cy="286.5" rx="58" ry="58.5" fill="#D9D9D9"/>
                            <ellipse cx="1525" cy="286.5" rx="58" ry="58.5" fill="#D9D9D9"/>
                            <defs>
                            <filter id="filter0_d_0_1" x="1570.73" y="655" width="475" height="485" filterUnits="userSpaceOnUse" color-interpolation-filters="sRGB">
                            <feFlood flood-opacity="0" result="BackgroundImageFix"/>
                            <feColorMatrix in="SourceAlpha" type="matrix" values="0 0 0 0 0 0 0 0 0 0 0 0 0 0 0 0 0 0 127 0" result="hardAlpha"/>
                            <feMorphology radius="28" operator="dilate" in="SourceAlpha" result="effect1_dropShadow_0_1"/>
                            <feOffset dy="4"/>
                            <feGaussianBlur stdDeviation="50.5"/>
                            <feComposite in2="hardAlpha" operator="out"/>
                            <feColorMatrix type="matrix" values="0 0 0 0 0.94902 0 0 0 0 0.94902 0 0 0 0 0 0 0 0 0.21 0"/>
                            <feBlend mode="normal" in2="BackgroundImageFix" result="effect1_dropShadow_0_1"/>
                            <feBlend mode="normal" in="SourceGraphic" in2="effect1_dropShadow_0_1" result="shape"/>
                            </filter>
                            <linearGradient id="paint0_linear_0_1" x1="2285.13" y1="1106.29" x2="293.332" y2="1328.73" gradientUnits="userSpaceOnUse">
                            <stop stop-color="#071429"/>
                            <stop offset="1" stop-color="#11213F"/>
                            </linearGradient>
                            <linearGradient id="paint1_linear_0_1" x1="351.718" y1="340.148" x2="831.291" y2="843.126" gradientUnits="userSpaceOnUse">
                            <stop stop-color="#9F4009"/>
                            <stop offset="1" stop-color="#750F34"/>
                            </linearGradient>
                            <linearGradient id="paint2_linear_0_1" x1="1622.5" y1="0" x2="1622.5" y2="604" gradientUnits="userSpaceOnUse">
                            <stop stop-color="#925700"/>
                            <stop offset="1" stop-color="#9F4009"/>
                            </linearGradient>
                            <linearGradient id="paint3_linear_0_1" x1="936.858" y1="1461.73" x2="773.165" y2="1723.81" gradientUnits="userSpaceOnUse">
                            <stop stop-color="#FFF3F3"/>
                            <stop offset="1" stop-color="white" stop-opacity="0.53"/>
                            </linearGradient>
                            </defs>
                            </svg>