<svg width="100%" height="100%" viewBox="0 0 4159 2411" fill="none" xmlns="http://www.w3.org/2000/svg">
<rect width="4159" height="2411" rx="229" fill="url(#paint0_linear_0_1)"/>
<path d="M165.552 1780.82C192.008 1704.88 263.617 1654 344.031 1654H3804.84C3884.17 1654 3955.06 1703.54 3982.32 1778.04L4121.05 2157.04C4166.18 2280.36 4074.89 2411 3943.56 2411H211.989C81.9107 2411 -9.28538 2282.66 33.5104 2159.82L165.552 1780.82Z" fill="url(#paint1_linear_0_1)"/>
<path d="M3595.04 1604.7C3681.05 1573.8 3649.07 1487.99 3724.24 1494.25L3744.24 1515.88C3701.98 1621.13 3627.16 1618.95 3595.04 1604.7Z" fill="url(#paint2_linear_0_1)"/>
<path d="M3970.33 1612.2C3884.07 1574.84 3925.63 1491.44 3846.99 1492.06L3824.13 1512.18C3857.73 1620.6 3935.6 1624.04 3970.33 1612.2Z" fill="url(#paint3_linear_0_1)"/>
<path d="M4001.29 1658.47C3921.09 1608.11 3973.58 1531.98 3895.74 1520.41L3870.39 1536.8C3888.81 1649.33 3965.33 1664.8 4001.29 1658.47Z" fill="url(#paint4_linear_0_1)"/>
<path d="M4039.09 1697.03C3955.93 1642.8 3945.49 1541.46 3886.6 1535.39C3886.13 1535.34 3885.69 1535.64 3885.55 1536.09L3878.48 1558.79C3878.4 1559.06 3878.44 1559.36 3878.57 1559.6C3956.76 1696.9 4017.1 1709.8 4039.05 1698.7C4039.71 1698.37 4039.71 1697.44 4039.09 1697.03Z" fill="url(#paint5_linear_0_1)"/>
<path d="M4035.94 1757.92C3923.43 1701.95 3977.41 1591.93 3873.16 1588.31C3872.91 1588.3 3872.65 1588.39 3872.46 1588.55L3842.58 1614.15C3842.28 1614.41 3842.16 1614.84 3842.28 1615.22C3886.73 1761.98 3988.21 1773.01 4035.86 1759.78C4036.74 1759.54 4036.75 1758.32 4035.94 1757.92Z" fill="url(#paint6_linear_0_1)"/>
<path d="M3946.47 1822.34C3867.81 1733.36 3943.46 1645.91 3857.37 1609.31C3857.11 1609.2 3856.8 1609.19 3856.54 1609.31L3824.55 1624.1C3824.21 1624.26 3823.98 1624.62 3823.97 1625C3820.44 1778.62 3902.2 1821.41 3945.76 1824.02C3946.64 1824.07 3947.05 1823 3946.47 1822.34Z" fill="url(#paint7_linear_0_1)"/>
<path d="M3850.91 1829.46C3815.2 1743.93 3873.68 1672.7 3826.45 1632.88C3826.15 1632.63 3825.72 1632.57 3825.37 1632.74L3804.02 1643C3803.73 1643.14 3803.52 1643.42 3803.47 1643.74C3779.77 1779.32 3823.41 1824.47 3849.84 1830.81C3850.62 1831 3851.21 1830.19 3850.91 1829.46Z" fill="url(#paint8_linear_0_1)"/>
<path d="M3549.8 1628.23C3635.81 1597.32 3603.83 1511.51 3679 1517.77L3699 1539.41C3656.74 1644.65 3581.92 1642.48 3549.8 1628.23Z" fill="url(#paint9_linear_0_1)"/>
<path d="M3528.74 1677.29C3625.23 1638.24 3630.09 1529.24 3701.16 1537.63C3701.52 1537.68 3701.85 1537.93 3701.98 1538.28L3712.36 1565.32C3712.48 1565.64 3712.44 1566 3712.26 1566.28C3627.87 1698.04 3555.75 1696.86 3528.54 1679.07C3527.87 1678.63 3528.01 1677.59 3528.74 1677.29Z" fill="url(#paint10_linear_0_1)"/>
<path d="M3506.13 1755.87C3624.7 1710.55 3574.01 1594.54 3681.75 1601.15C3681.99 1601.16 3682.23 1601.27 3682.4 1601.43L3712.1 1630.15C3712.39 1630.44 3712.49 1630.89 3712.35 1631.27C3659.82 1774.62 3554.61 1775.75 3506.07 1757.76C3505.21 1757.44 3505.28 1756.19 3506.13 1755.87Z" fill="url(#paint11_linear_0_1)"/>
<path d="M3598.19 1814.97C3679.35 1731.54 3613.03 1639.17 3697.68 1608.47C3697.96 1608.37 3698.28 1608.39 3698.53 1608.53L3728.04 1625.43C3728.37 1625.62 3728.56 1625.99 3728.55 1626.36C3721.53 1779.83 3640.59 1817.01 3598.8 1816.68C3597.93 1816.68 3597.58 1815.6 3598.19 1814.97Z" fill="url(#paint12_linear_0_1)"/>
<path d="M3698.99 1822.06C3738.87 1739.18 3687.9 1664.16 3735.61 1627.62C3735.94 1627.37 3736.39 1627.33 3736.73 1627.54L3756.37 1639.2C3756.64 1639.36 3756.82 1639.65 3756.85 1639.96C3770.29 1776.78 3725.62 1818.89 3699.96 1823.46C3699.19 1823.6 3698.65 1822.78 3698.99 1822.06Z" fill="url(#paint13_linear_0_1)"/>
<path d="M3753.57 2040.74C3726.74 1878.2 3806.96 1772.61 3767.89 1627.26" stroke="#301607" stroke-width="12"/>
<path d="M3804.39 1772.72C3785.55 1721.4 3818.48 1677.88 3792.75 1654.1C3792.44 1653.81 3791.98 1653.75 3791.61 1653.95L3779.94 1660.15C3779.67 1660.29 3779.48 1660.56 3779.42 1660.86C3765.2 1742.19 3788.42 1769.69 3803.31 1773.99C3804.06 1774.21 3804.66 1773.45 3804.39 1772.72Z" fill="url(#paint14_linear_0_1)"/>
<path d="M3733.66 1776.77C3763.87 1721.04 3726.57 1671.56 3762.62 1646.62C3762.93 1646.41 3763.33 1646.38 3763.65 1646.54L3778.12 1654.03C3778.42 1654.18 3778.62 1654.49 3778.65 1654.82C3787.4 1745.39 3754.09 1774.4 3734.61 1778.2C3733.81 1778.36 3733.27 1777.49 3733.66 1776.77Z" fill="url(#paint15_linear_0_1)"/>
<rect width="12.2098" height="22.2848" rx="6.1049" transform="matrix(0.940199 -0.340625 0.301131 0.953583 3744.2 1275.29)" fill="#FFB800"/>
<rect width="12.2314" height="22.2489" rx="6.11571" transform="matrix(0.897186 0.441652 -0.400614 0.916247 3819.89 1283.4)" fill="#FFB800"/>
<ellipse cx="3726.88" cy="1626.91" rx="32.2854" ry="34.3915" transform="rotate(1.98278 3726.88 1626.91)" fill="#3E091C"/>
<ellipse cx="3818" cy="1515.83" rx="32.2854" ry="29.3761" transform="rotate(1.98278 3818 1515.83)" fill="#3E091C"/>
<ellipse cx="3863.08" cy="1535.32" rx="32.2854" ry="34.3915" transform="rotate(1.98278 3863.08 1535.32)" fill="#3E091C"/>
<ellipse cx="3867.89" cy="1597.38" rx="32.2854" ry="34.3915" transform="rotate(1.98278 3867.89 1597.38)" fill="#3E091C"/>
<ellipse cx="3834.44" cy="1630.63" rx="32.2854" ry="34.3915" transform="rotate(1.98278 3834.44 1630.63)" fill="#3E091C"/>
<ellipse cx="3730.77" cy="1514.72" rx="32.2854" ry="27.4654" transform="rotate(1.98278 3730.77 1514.72)" fill="#3E091C"/>
<ellipse cx="3683.11" cy="1536.97" rx="32.2854" ry="34.3915" transform="rotate(1.98278 3683.11 1536.97)" fill="#3E091C"/>
<ellipse cx="3686.39" cy="1591.09" rx="32.2854" ry="34.3915" transform="rotate(1.98278 3686.39 1591.09)" fill="#3E091C"/>
<ellipse cx="3779.34" cy="1566.35" rx="82.6193" ry="48.7213" transform="rotate(1.98278 3779.34 1566.35)" fill="#3E091C"/>
<path d="M3841.71 1530.33L3807.73 1531.42C3808.52 1515.64 3820.56 1503.64 3837.88 1503.09L3871.86 1502.01C3871.07 1517.78 3859.03 1529.78 3841.71 1530.33Z" stroke="#F39306" stroke-width="19"/>
<path d="M3671.87 1638.7L3670.1 1638.88C3670.1 1583.59 3712.28 1535.85 3768.23 1530.05L3770 1529.86C3770 1585.15 3727.82 1632.9 3671.87 1638.7Z" stroke="#F39306" stroke-width="19"/>
<path d="M3789.22 1546.22L3788.73 1529.23C3839.94 1532.09 3881.17 1573.59 3882.7 1625.94L3883.19 1642.92C3831.97 1640.06 3790.74 1598.56 3789.22 1546.22Z" stroke="#F39306" stroke-width="19"/>
<path d="M3677.19 1507.45L3727.6 1507.44C3746.05 1507.44 3762.77 1520.07 3768.69 1537.13L3718.28 1537.14C3699.83 1537.14 3683.11 1524.5 3677.19 1507.45Z" stroke="#F39306" stroke-width="19"/>
<path d="M3779.04 1478.4L3780.18 1478.91C3818.52 1496.24 3820.21 1527.59 3783.96 1548.94V1548.94L3782.83 1548.43C3744.49 1531.1 3742.8 1499.75 3779.04 1478.4V1478.4Z" fill="url(#paint16_linear_0_1)"/>
<path d="M3778.93 1519.5V1519.5C3824.9 1561.67 3830.34 1635.16 3791.08 1683.64L3777.93 1699.89V1699.89C3731.96 1657.71 3726.52 1584.22 3765.78 1535.74L3778.93 1519.5Z" fill="url(#paint17_linear_0_1)"/>
<path d="M3927.98 1566.37V1566.37C3873.98 1595.75 3807.98 1575.01 3781.53 1519.52V1519.52V1519.52C3835.53 1490.14 3901.53 1510.87 3927.98 1566.37V1566.37Z" fill="url(#paint18_linear_0_1)"/>
<path d="M3781.52 1519.66L3777.76 1528.62C3754.88 1583.1 3693.03 1606.79 3639.61 1581.54V1581.54L3643.38 1572.58C3666.26 1518.1 3728.11 1494.41 3781.52 1519.66V1519.66Z" fill="url(#paint19_linear_0_1)"/>
<ellipse cx="3782.15" cy="1521.04" rx="10.986" ry="7.40372" transform="rotate(1.98278 3782.15 1521.04)" fill="#FFFF00"/>
<path d="M3790.12 1524.07C3801.86 1492.66 3786.48 1402.36 3817.67 1304.93" stroke="#FFE70E" stroke-width="4"/>
<path d="M3776.43 1524.07C3762.99 1490.41 3791.57 1397.74 3757.03 1293.75" stroke="#FFE70E" stroke-width="4"/>
<rect width="205" height="185" transform="matrix(1 0 0 -1 2106 2101)" fill="url(#paint20_linear_0_1)"/>
<rect x="1779" y="2101" width="858" height="62" rx="31" fill="url(#paint21_linear_0_1)"/>
<rect x="999" y="620" width="2417" height="1296" rx="80" fill="url(#paint22_linear_0_1)"/>
<rect x="1076" y="681" width="2264" height="1103" rx="25" fill="white"/>
<path d="M1076 706C1076 692.193 1087.19 681 1101 681H3315C3328.81 681 3340 692.193 3340 706V752H1076V706Z" fill="#171515"/>
<rect x="1152" y="811" width="402" height="60" rx="30" fill="#36405A"/>
<rect x="2953" y="811" width="284" height="60" rx="30" fill="#463553"/>
<rect x="2658" y="811" width="284" height="60" rx="30" fill="#463553"/>
<rect x="2267" y="1379" width="970" height="346" rx="30" fill="#463553"/>
<rect x="2267" y="965" width="970" height="320" rx="30" fill="#D3C4CC"/>
<rect x="2641" y="1285" width="374" height="320" rx="30" transform="rotate(-180 2641 1285)" fill="#EC7A5A"/>
<path d="M2403.91 1050.19L2553.08 1120.55L2401.53 1194.39L2403.91 1050.19Z" fill="white"/>
<rect x="1194" y="1504" width="425" height="57" rx="28.5" fill="#511E07"/>
<rect x="1678" y="1591" width="195" height="34" rx="17" fill="#1A1011"/>
<rect x="1194" y="1641" width="243" height="34" rx="17" fill="#1A1011"/>
<rect x="1915" y="1691" width="231" height="34" rx="17" fill="#1A1011"/>
<rect x="1194" y="1691" width="703" height="34" rx="17" fill="#1A1011"/>
<rect x="1759" y="1641" width="267" height="34" rx="17" fill="#1A1011"/>
<rect x="1444" y="1641" width="312" height="34" rx="17" fill="#1A1011"/>
<rect x="1881" y="1591" width="265" height="34" rx="17" fill="#1A1011"/>
<rect x="1194" y="1591" width="462" height="34" rx="17" fill="#1A1011"/>
<rect x="2934" y="1088" width="111" height="19" rx="9.5" fill="#1A1011"/>
<rect x="2656" y="1115" width="139" height="19" rx="9.5" fill="#1A1011"/>
<rect x="3070" y="1142" width="132" height="19" rx="9.5" fill="#1A1011"/>
<rect x="2656" y="1142" width="403" height="19" rx="9.5" fill="#1A1011"/>
<rect x="2980" y="1115" width="153" height="19" rx="9.5" fill="#1A1011"/>
<rect x="2800" y="1115" width="179" height="19" rx="9.5" fill="#1A1011"/>
<rect x="2654" y="1169" width="139" height="19" rx="9.5" fill="#1A1011"/>
<rect x="2654" y="1196" width="403" height="19" rx="9.5" fill="#1A1011"/>
<rect x="2798" y="1169" width="352" height="19" rx="9.5" fill="#1A1011"/>
<rect x="3050" y="1088" width="152" height="19" rx="9.5" fill="#1A1011"/>
<rect x="2656" y="1088" width="265" height="19" rx="9.5" fill="#1A1011"/>
<g filter="url(#filter0_d_0_1)">
<rect width="822" height="411" rx="42" transform="matrix(-1 0 0 1 2026 965)" fill="#ACC2FF"/>
</g>
<path d="M1799 1120L1598.08 1375.75H1999.92L1799 1120Z" fill="#2F4858"/>
<path d="M1406.5 1165L1574.08 1376.5H1238.92L1406.5 1165Z" fill="#2F4858"/>
<path d="M1599.5 1221L1767.08 1376.25H1431.92L1599.5 1221Z" fill="#2F4858"/>
<ellipse rx="48" ry="45.5" transform="matrix(-1 0 0 1 1444 1041.5)" fill="#EBEB20"/>
<circle cx="2100.5" cy="1075.5" r="45.5" fill="#511E07"/>
<circle cx="2100.5" cy="1289.5" r="45.5" fill="#36405A"/>
<circle cx="2100.5" cy="1182.5" r="45.5" fill="#463553"/>
<rect x="298" y="908" width="873" height="1147" rx="35" fill="#141212"/>
<path d="M668.5 2117H796L833 2053H633L668.5 2117Z" fill="#141212"/>
<rect x="551" y="2117" width="368" height="46" fill="#141212"/>
<rect x="313" y="926" width="839" height="1100" rx="35" fill="black"/>
<path d="M1038 926H1117C1136.33 926 1152 941.67 1152 961V1991C1152 2010.33 1136.33 2026 1117 2026H1038V926Z" fill="#070707"/>
<path d="M350 926H348C328.67 926 313 941.67 313 961V1991C313 2010.33 328.67 2026 348 2026H350V926Z" fill="#070707"/>
<rect x="1057" y="959" width="13" height="3" rx="1.5" fill="#171736"/>
<rect x="1057" y="1012" width="13" height="2" rx="1" fill="#171736"/>
<rect x="1089" y="984" width="33" height="2" rx="1" fill="#171736"/>
<rect x="1072" y="959" width="22" height="3" rx="1.5" fill="#171736"/>
<rect x="1080" y="969" width="12" height="3" rx="1.5" fill="#171736"/>
<rect x="1094" y="969" width="22" height="3" rx="1.5" fill="#171736"/>
<rect x="1091" y="965" width="8" height="1" rx="0.5" fill="#171736"/>
<rect x="1095" y="994" width="34" height="2" rx="1" fill="#171736"/>
<rect x="1072.5" y="964.5" width="16" height="1" rx="0.5" fill="#171736" stroke="black"/>
<rect x="1072.5" y="1007.5" width="16" height="1" rx="0.5" fill="#171736" stroke="black"/>
<rect x="1081" y="989" width="11" height="2" rx="1" fill="#171736"/>
<rect x="1081" y="994" width="12" height="2" rx="1" fill="#171736"/>
<rect x="1081" y="1003" width="12" height="2" rx="1" fill="#171736"/>
<rect x="1089" y="974" width="50" height="3" rx="1.5" fill="#171736"/>
<rect x="1089" y="999" width="51" height="2" rx="1" fill="#171736"/>
<path d="M1089 980C1089 979.448 1089.45 979 1090 979H1144C1144.55 979 1145 979.448 1145 980V980C1145 980.552 1144.55 981 1144 981H1090C1089.45 981 1089 980.552 1089 980V980Z" fill="#171736"/>
<rect x="1057" y="1082" width="13" height="2" rx="1" fill="#171736"/>
<rect x="1057" y="1134" width="13" height="3" rx="1.5" fill="#171736"/>
<rect x="1089" y="1106" width="33" height="2" rx="1" fill="#171736"/>
<rect x="1072" y="1082" width="22" height="2" rx="1" fill="#171736"/>
<rect x="1080" y="1092" width="12" height="3" rx="1.5" fill="#171736"/>
<rect x="1094" y="1092" width="22" height="3" rx="1.5" fill="#171736"/>
<rect x="1091" y="1087" width="8" height="3" rx="1.5" fill="#171736"/>
<rect x="1072.5" y="1087.5" width="16" height="2" rx="1" fill="#171736" stroke="black"/>
<rect x="1072.5" y="1129.5" width="16" height="2" rx="1" fill="#171736" stroke="black"/>
<rect x="1076" y="1153" width="13" height="3" rx="1.5" fill="#171736"/>
<rect x="1076" y="1168" width="14" height="3" rx="1.5" fill="#171736"/>
<rect x="1091" y="1153" width="22" height="3" rx="1.5" fill="#171736"/>
<rect x="1091.5" y="1158.5" width="44" height="1" rx="0.5" fill="#171736" stroke="black"/>
<rect x="1091.5" y="1162.5" width="46" height="2" rx="1" fill="#171736" stroke="black"/>
<rect x="1057" y="1142" width="13" height="2" rx="1" fill="#171736"/>
<rect x="1057" y="1178" width="13" height="2" rx="1" fill="#171736"/>
<rect x="1072" y="1142" width="22" height="2" rx="1" fill="#171736"/>
<rect x="1072.5" y="1146.5" width="16" height="2" rx="1" fill="#171736" stroke="black"/>
<rect x="1072.5" y="1173.5" width="16" height="1" rx="0.5" fill="#171736" stroke="black"/>
<rect x="1081" y="1125" width="12" height="3" rx="1.5" fill="#171736"/>
<rect x="1089" y="1097" width="50" height="2" rx="1" fill="#171736"/>
<rect x="1089" y="1120" width="50" height="3" rx="1.5" fill="#171736"/>
<path d="M1089 1103C1089 1102.45 1089.45 1102 1090 1102H1144C1144.55 1102 1145 1102.45 1145 1103V1103C1145 1103.55 1144.55 1104 1144 1104H1090C1089.45 1104 1089 1103.55 1089 1103V1103Z" fill="#171736"/>
<rect x="1089" y="1117" width="33" height="1" rx="0.5" fill="#171736"/>
<path d="M1089 1112C1089 1111.45 1089.45 1111 1090 1111H1144C1144.55 1111 1145 1111.45 1145 1112V1112C1145 1112.55 1144.55 1113 1144 1113H1090C1089.45 1113 1089 1112.55 1089 1112V1112Z" fill="#171736"/>
<rect x="1057" y="1021" width="24" height="3" rx="1.5" fill="#171736"/>
<rect x="1057" y="1075" width="24" height="2" rx="1" fill="#171736"/>
<rect x="1085" y="1021" width="18" height="3" rx="1.5" fill="#171736"/>
<rect x="1081" y="1033" width="12" height="2" rx="1" fill="#171736"/>
<rect x="1094" y="1033" width="22" height="2" rx="1" fill="#171736"/>
<rect x="1091" y="1027" width="8" height="2" rx="1" fill="#171736"/>
<rect x="1095" y="1051" width="34" height="2" rx="1" fill="#171736"/>
<rect x="1072.5" y="1027.5" width="16" height="1" rx="0.5" fill="#171736" stroke="black"/>
<rect x="1072.5" y="1070.5" width="16" height="1" rx="0.5" fill="#171736" stroke="black"/>
<rect x="1081" y="1048" width="11" height="1" rx="0.5" fill="#171736"/>
<rect x="1081" y="1051" width="12" height="2" rx="1" fill="#171736"/>
<rect x="1081" y="1065" width="12" height="3" rx="1.5" fill="#171736"/>
<rect x="1089" y="1036" width="29" height="3" rx="1.5" fill="#171736"/>
<rect x="1089" y="1062" width="51" height="1" rx="0.5" fill="#171736"/>
<rect x="1089" y="1057" width="46" height="3" rx="1.5" fill="#171736"/>
<path d="M1089 1043C1089 1042.45 1089.45 1042 1090 1042H1117C1117.55 1042 1118 1042.45 1118 1043V1043C1118 1043.55 1117.55 1044 1117 1044H1090C1089.45 1044 1089 1043.55 1089 1043V1043Z" fill="#171736"/>
<rect x="1059" y="1458" width="13" height="3" rx="1.5" fill="#171736"/>
<rect x="1059" y="1511" width="13" height="2" rx="1" fill="#171736"/>
<rect x="1091" y="1483" width="33" height="2" rx="1" fill="#171736"/>
<rect x="1074" y="1458" width="22" height="3" rx="1.5" fill="#171736"/>
<rect x="1082" y="1468" width="12" height="3" rx="1.5" fill="#171736"/>
<rect x="1096" y="1468" width="22" height="3" rx="1.5" fill="#171736"/>
<rect x="1093" y="1464" width="8" height="1" rx="0.5" fill="#171736"/>
<rect x="1097" y="1493" width="34" height="2" rx="1" fill="#171736"/>
<rect x="1074.5" y="1463.5" width="16" height="1" rx="0.5" fill="#171736" stroke="black"/>
<rect x="1074.5" y="1506.5" width="16" height="1" rx="0.5" fill="#171736" stroke="black"/>
<rect x="1083" y="1488" width="11" height="2" rx="1" fill="#171736"/>
<rect x="1083" y="1493" width="12" height="2" rx="1" fill="#171736"/>
<rect x="1083" y="1502" width="12" height="2" rx="1" fill="#171736"/>
<rect x="1091" y="1473" width="50" height="3" rx="1.5" fill="#171736"/>
<rect x="1091" y="1498" width="51" height="2" rx="1" fill="#171736"/>
<path d="M1091 1479C1091 1478.45 1091.45 1478 1092 1478H1146C1146.55 1478 1147 1478.45 1147 1479V1479C1147 1479.55 1146.55 1480 1146 1480H1092C1091.45 1480 1091 1479.55 1091 1479V1479Z" fill="#171736"/>
<rect x="1059" y="1581" width="13" height="2" rx="1" fill="#171736"/>
<rect x="1059" y="1633" width="13" height="3" rx="1.5" fill="#171736"/>
<rect x="1091" y="1605" width="33" height="2" rx="1" fill="#171736"/>
<rect x="1074" y="1581" width="22" height="2" rx="1" fill="#171736"/>
<rect x="1082" y="1591" width="12" height="3" rx="1.5" fill="#171736"/>
<rect x="1096" y="1591" width="22" height="3" rx="1.5" fill="#171736"/>
<rect x="1093" y="1586" width="8" height="3" rx="1.5" fill="#171736"/>
<rect x="1074.5" y="1586.5" width="16" height="2" rx="1" fill="#171736" stroke="black"/>
<rect x="1074.5" y="1628.5" width="16" height="2" rx="1" fill="#171736" stroke="black"/>
<rect x="1078" y="1652" width="13" height="3" rx="1.5" fill="#171736"/>
<rect x="1078" y="1667" width="14" height="3" rx="1.5" fill="#171736"/>
<rect x="1093" y="1652" width="22" height="3" rx="1.5" fill="#171736"/>
<rect x="1093.5" y="1657.5" width="44" height="1" rx="0.5" fill="#171736" stroke="black"/>
<rect x="1093.5" y="1661.5" width="46" height="2" rx="1" fill="#171736" stroke="black"/>
<rect x="1059" y="1641" width="13" height="2" rx="1" fill="#171736"/>
<rect x="1059" y="1677" width="13" height="2" rx="1" fill="#171736"/>
<rect x="1074" y="1641" width="22" height="2" rx="1" fill="#171736"/>
<rect x="1074.5" y="1645.5" width="16" height="2" rx="1" fill="#171736" stroke="black"/>
<rect x="1074.5" y="1672.5" width="16" height="1" rx="0.5" fill="#171736" stroke="black"/>
<rect x="1083" y="1624" width="12" height="3" rx="1.5" fill="#171736"/>
<rect x="1091" y="1596" width="50" height="2" rx="1" fill="#171736"/>
<rect x="1091" y="1619" width="50" height="3" rx="1.5" fill="#171736"/>
<path d="M1091 1602C1091 1601.45 1091.45 1601 1092 1601H1146C1146.55 1601 1147 1601.45 1147 1602V1602C1147 1602.55 1146.55 1603 1146 1603H1092C1091.45 1603 1091 1602.55 1091 1602V1602Z" fill="#171736"/>
<rect x="1091" y="1616" width="33" height="1" rx="0.5" fill="#171736"/>
<path d="M1091 1611C1091 1610.45 1091.45 1610 1092 1610H1146C1146.55 1610 1147 1610.45 1147 1611V1611C1147 1611.55 1146.55 1612 1146 1612H1092C1091.45 1612 1091 1611.55 1091 1611V1611Z" fill="#171736"/>
<rect x="1059" y="1520" width="24" height="3" rx="1.5" fill="#171736"/>
<rect x="1059" y="1574" width="24" height="2" rx="1" fill="#171736"/>
<rect x="1087" y="1520" width="18" height="3" rx="1.5" fill="#171736"/>
<rect x="1083" y="1532" width="12" height="2" rx="1" fill="#171736"/>
<rect x="1096" y="1532" width="22" height="2" rx="1" fill="#171736"/>
<rect x="1093" y="1526" width="8" height="2" rx="1" fill="#171736"/>
<rect x="1097" y="1550" width="34" height="2" rx="1" fill="#171736"/>
<rect x="1074.5" y="1526.5" width="16" height="1" rx="0.5" fill="#171736" stroke="black"/>
<rect x="1074.5" y="1569.5" width="16" height="1" rx="0.5" fill="#171736" stroke="black"/>
<rect x="1083" y="1547" width="11" height="1" rx="0.5" fill="#171736"/>
<rect x="1083" y="1550" width="12" height="2" rx="1" fill="#171736"/>
<rect x="1083" y="1564" width="12" height="3" rx="1.5" fill="#171736"/>
<rect x="1091" y="1535" width="29" height="3" rx="1.5" fill="#171736"/>
<rect x="1091" y="1561" width="51" height="1" rx="0.5" fill="#171736"/>
<rect x="1091" y="1556" width="46" height="3" rx="1.5" fill="#171736"/>
<path d="M1091 1542C1091 1541.45 1091.45 1541 1092 1541H1119C1119.55 1541 1120 1541.45 1120 1542V1542C1120 1542.55 1119.55 1543 1119 1543H1092C1091.45 1543 1091 1542.55 1091 1542V1542Z" fill="#171736"/>
<rect width="13" height="3" rx="1.5" transform="matrix(1 0 0 -1 1057 1437)" fill="#171736"/>
<rect width="13" height="2" rx="1" transform="matrix(1 0 0 -1 1057 1377)" fill="#171736"/>
<rect width="33" height="2" rx="1" transform="matrix(1 0 0 -1 1089 1409)" fill="#171736"/>
<rect width="22" height="3" rx="1.5" transform="matrix(1 0 0 -1 1072 1437)" fill="#171736"/>
<rect width="12" height="4" rx="2" transform="matrix(1 0 0 -1 1080 1426)" fill="#171736"/>
<rect width="22" height="4" rx="2" transform="matrix(1 0 0 -1 1094 1426)" fill="#171736"/>
<rect width="8" height="1" rx="0.5" transform="matrix(1 0 0 -1 1091 1430)" fill="#171736"/>
<rect width="34" height="3" rx="1.5" transform="matrix(1 0 0 -1 1095 1398)" fill="#171736"/>
<rect x="0.5" y="-0.5" width="16" height="1" rx="0.5" transform="matrix(1 0 0 -1 1072 1430)" fill="#171736" stroke="black"/>
<rect x="0.5" y="-0.5" width="16" height="1" rx="0.5" transform="matrix(1 0 0 -1 1072 1382)" fill="#171736" stroke="black"/>
<rect width="11" height="2" rx="1" transform="matrix(1 0 0 -1 1081 1403)" fill="#171736"/>
<rect width="12" height="3" rx="1.5" transform="matrix(1 0 0 -1 1081 1398)" fill="#171736"/>
<rect width="12" height="2" rx="1" transform="matrix(1 0 0 -1 1081 1387)" fill="#171736"/>
<rect width="50" height="3" rx="1.5" transform="matrix(1 0 0 -1 1089 1420)" fill="#171736"/>
<rect width="51" height="2" rx="1" transform="matrix(1 0 0 -1 1089 1392)" fill="#171736"/>
<path d="M1089 1413C1089 1413.55 1089.45 1414 1090 1414H1144C1144.55 1414 1145 1413.55 1145 1413V1413C1145 1412.45 1144.55 1412 1144 1412H1090C1089.45 1412 1089 1412.45 1089 1413V1413Z" fill="#171736"/>
<rect width="13" height="2" rx="1" transform="matrix(1 0 0 -1 1057 1298)" fill="#171736"/>
<rect width="13" height="4" rx="2" transform="matrix(1 0 0 -1 1057 1240)" fill="#171736"/>
<rect width="33" height="2" rx="1" transform="matrix(1 0 0 -1 1089 1271)" fill="#171736"/>
<rect width="22" height="2" rx="1" transform="matrix(1 0 0 -1 1072 1298)" fill="#171736"/>
<rect width="12" height="3" rx="1.5" transform="matrix(1 0 0 -1 1080 1287)" fill="#171736"/>
<rect width="22" height="3" rx="1.5" transform="matrix(1 0 0 -1 1094 1287)" fill="#171736"/>
<rect width="8" height="4" rx="2" transform="matrix(1 0 0 -1 1091 1293)" fill="#171736"/>
<rect x="0.5" y="-0.5" width="16" height="3" rx="1.5" transform="matrix(1 0 0 -1 1072 1292)" fill="#171736" stroke="black"/>
<rect x="0.5" y="-0.5" width="16" height="2" rx="1" transform="matrix(1 0 0 -1 1072 1244)" fill="#171736" stroke="black"/>
<rect width="13" height="3" rx="1.5" transform="matrix(1 0 0 -1 1076 1218)" fill="#171736"/>
<rect width="14" height="4" rx="2" transform="matrix(1 0 0 -1 1076 1202)" fill="#171736"/>
<rect width="22" height="3" rx="1.5" transform="matrix(1 0 0 -1 1091 1218)" fill="#171736"/>
<rect x="0.5" y="-0.5" width="44" height="1" rx="0.5" transform="matrix(1 0 0 -1 1091 1212)" fill="#171736" stroke="black"/>
<rect x="0.5" y="-0.5" width="46" height="2" rx="1" transform="matrix(1 0 0 -1 1091 1207)" fill="#171736" stroke="black"/>
<rect width="13" height="2" rx="1" transform="matrix(1 0 0 -1 1057 1231)" fill="#171736"/>
<rect width="13" height="2" rx="1" transform="matrix(1 0 0 -1 1057 1190)" fill="#171736"/>
<rect width="22" height="2" rx="1" transform="matrix(1 0 0 -1 1072 1231)" fill="#171736"/>
<rect x="0.5" y="-0.5" width="16" height="2" rx="1" transform="matrix(1 0 0 -1 1072 1225)" fill="#171736" stroke="black"/>
<rect x="0.5" y="-0.5" width="16" height="1" rx="0.5" transform="matrix(1 0 0 -1 1072 1195)" fill="#171736" stroke="black"/>
<rect width="12" height="3" rx="1.5" transform="matrix(1 0 0 -1 1081 1250)" fill="#171736"/>
<rect width="50" height="3" rx="1.5" transform="matrix(1 0 0 -1 1089 1282)" fill="#171736"/>
<rect width="50" height="4" rx="2" transform="matrix(1 0 0 -1 1089 1256)" fill="#171736"/>
<path d="M1089 1275C1089 1275.55 1089.45 1276 1090 1276H1144C1144.55 1276 1145 1275.55 1145 1275V1275C1145 1274.45 1144.55 1274 1144 1274H1090C1089.45 1274 1089 1274.45 1089 1275V1275Z" fill="#171736"/>
<rect width="33" height="1" rx="0.5" transform="matrix(1 0 0 -1 1089 1259)" fill="#171736"/>
<path d="M1089 1264.5C1089 1265.33 1089.67 1266 1090.5 1266H1143.5C1144.33 1266 1145 1265.33 1145 1264.5V1264.5C1145 1263.67 1144.33 1263 1143.5 1263H1090.5C1089.67 1263 1089 1263.67 1089 1264.5V1264.5Z" fill="#171736"/>
<rect width="24" height="3" rx="1.5" transform="matrix(1 0 0 -1 1057 1367)" fill="#171736"/>
<rect width="24" height="2" rx="1" transform="matrix(1 0 0 -1 1057 1306)" fill="#171736"/>
<rect width="18" height="3" rx="1.5" transform="matrix(1 0 0 -1 1085 1367)" fill="#171736"/>
<rect width="12" height="3" rx="1.5" transform="matrix(1 0 0 -1 1081 1354)" fill="#171736"/>
<rect width="22" height="3" rx="1.5" transform="matrix(1 0 0 -1 1094 1354)" fill="#171736"/>
<rect width="8" height="2" rx="1" transform="matrix(1 0 0 -1 1091 1360)" fill="#171736"/>
<rect width="34" height="2" rx="1" transform="matrix(1 0 0 -1 1095 1333)" fill="#171736"/>
<rect x="0.5" y="-0.5" width="16" height="1" rx="0.5" transform="matrix(1 0 0 -1 1072 1359)" fill="#171736" stroke="black"/>
<rect x="0.5" y="-0.5" width="16" height="1" rx="0.5" transform="matrix(1 0 0 -1 1072 1311)" fill="#171736" stroke="black"/>
<rect width="11" height="1" rx="0.5" transform="matrix(1 0 0 -1 1081 1337)" fill="#171736"/>
<rect width="12" height="2" rx="1" transform="matrix(1 0 0 -1 1081 1333)" fill="#171736"/>
<rect width="12" height="4" rx="2" transform="matrix(1 0 0 -1 1081 1318)" fill="#171736"/>
<rect width="29" height="3" rx="1.5" transform="matrix(1 0 0 -1 1089 1350)" fill="#171736"/>
<rect width="51" height="1" rx="0.5" transform="matrix(1 0 0 -1 1089 1321)" fill="#171736"/>
<rect width="46" height="4" rx="2" transform="matrix(1 0 0 -1 1089 1327)" fill="#171736"/>
<path d="M1089 1342C1089 1342.55 1089.45 1343 1090 1343H1117C1117.55 1343 1118 1342.55 1118 1342V1342C1118 1341.45 1117.55 1341 1117 1341H1090C1089.45 1341 1089 1341.45 1089 1342V1342Z" fill="#171736"/>
<rect x="3095" y="384" width="819" height="487" rx="11" fill="#131111"/>
<path d="M3095 437H3914V395C3914 386.163 3906.84 379 3898 379H3111C3102.16 379 3095 386.163 3095 395V437Z" fill="#1C1A1A"/>
<path d="M3422.1 737.2L3301.5 667.6V638.5L3422.1 569.2V597.7L3326.1 653.2L3422.1 708.7V737.2ZM3556.79 528.719L3467.87 760.311H3444.58L3533.64 528.719H3556.79ZM3583.42 737.8V709.3L3679.42 653.8L3583.42 598.3V569.8L3704.02 639.1V668.2L3583.42 737.8Z" fill="url(#paint23_linear_0_1)"/>
<ellipse cx="3138.53" cy="408" rx="12.5347" ry="12" fill="#FF0000"/>
<ellipse cx="3208.46" cy="408" rx="12.5347" ry="12" fill="#255425"/>
<ellipse cx="3173.5" cy="408" rx="13.1944" ry="12" fill="#B9B90C"/>
<ellipse cx="1129.53" cy="717" rx="12.5347" ry="12" fill="#FF0000"/>
<ellipse cx="1199.46" cy="717" rx="12.5347" ry="12" fill="#255425"/>
<ellipse cx="1164.5" cy="717" rx="13.1944" ry="12" fill="#B9B90C"/>
<path d="M3613.89 1973.65C3612.89 1966.43 3618.5 1960 3625.78 1960H3916.14C3923.45 1960 3929.06 1966.48 3928.01 1973.72L3896.99 2187.72C3896.13 2193.62 3891.08 2198 3885.11 2198H3655.45C3649.46 2198 3644.39 2193.58 3643.56 2187.65L3613.89 1973.65Z" fill="#2F2E41"/>
<rect x="3608" y="1949" width="328" height="22" rx="8" fill="#1F1E2B"/>
<rect x="3640" y="2187" width="262" height="22" rx="3" fill="#1F1E2B"/>
<path d="M2377.45 1524.65C2377.45 1514.45 2379.75 1505.3 2384.35 1497.2C2388.95 1489 2395.2 1482.6 2403.1 1478C2411.1 1473.4 2419.95 1471.1 2429.65 1471.1C2441.05 1471.1 2451 1473.85 2459.5 1479.35C2468 1484.85 2474.2 1492.65 2478.1 1502.75H2461.75C2458.85 1496.45 2454.65 1491.6 2449.15 1488.2C2443.75 1484.8 2437.25 1483.1 2429.65 1483.1C2422.35 1483.1 2415.8 1484.8 2410 1488.2C2404.2 1491.6 2399.65 1496.45 2396.35 1502.75C2393.05 1508.95 2391.4 1516.25 2391.4 1524.65C2391.4 1532.95 2393.05 1540.25 2396.35 1546.55C2399.65 1552.75 2404.2 1557.55 2410 1560.95C2415.8 1564.35 2422.35 1566.05 2429.65 1566.05C2437.25 1566.05 2443.75 1564.4 2449.15 1561.1C2454.65 1557.7 2458.85 1552.85 2461.75 1546.55H2478.1C2474.2 1556.55 2468 1564.3 2459.5 1569.8C2451 1575.2 2441.05 1577.9 2429.65 1577.9C2419.95 1577.9 2411.1 1575.65 2403.1 1571.15C2395.2 1566.55 2388.95 1560.2 2384.35 1552.1C2379.75 1544 2377.45 1534.85 2377.45 1524.65ZM2531.57 1578.05C2524.67 1578.05 2518.47 1576.85 2512.97 1574.45C2507.57 1571.95 2503.32 1568.55 2500.22 1564.25C2497.12 1559.85 2495.52 1554.8 2495.42 1549.1H2509.97C2510.47 1554 2512.47 1558.15 2515.97 1561.55C2519.57 1564.85 2524.77 1566.5 2531.57 1566.5C2538.07 1566.5 2543.17 1564.9 2546.87 1561.7C2550.67 1558.4 2552.57 1554.2 2552.57 1549.1C2552.57 1545.1 2551.47 1541.85 2549.27 1539.35C2547.07 1536.85 2544.32 1534.95 2541.02 1533.65C2537.72 1532.35 2533.27 1530.95 2527.67 1529.45C2520.77 1527.65 2515.22 1525.85 2511.02 1524.05C2506.92 1522.25 2503.37 1519.45 2500.37 1515.65C2497.47 1511.75 2496.02 1506.55 2496.02 1500.05C2496.02 1494.35 2497.47 1489.3 2500.37 1484.9C2503.27 1480.5 2507.32 1477.1 2512.52 1474.7C2517.82 1472.3 2523.87 1471.1 2530.67 1471.1C2540.47 1471.1 2548.47 1473.55 2554.67 1478.45C2560.97 1483.35 2564.52 1489.85 2565.32 1497.95H2550.32C2549.82 1493.95 2547.72 1490.45 2544.02 1487.45C2540.32 1484.35 2535.42 1482.8 2529.32 1482.8C2523.62 1482.8 2518.97 1484.3 2515.37 1487.3C2511.77 1490.2 2509.97 1494.3 2509.97 1499.6C2509.97 1503.4 2511.02 1506.5 2513.12 1508.9C2515.32 1511.3 2517.97 1513.15 2521.07 1514.45C2524.27 1515.65 2528.72 1517.05 2534.42 1518.65C2541.32 1520.55 2546.87 1522.45 2551.07 1524.35C2555.27 1526.15 2558.87 1529 2561.87 1532.9C2564.87 1536.7 2566.37 1541.9 2566.37 1548.5C2566.37 1553.6 2565.02 1558.4 2562.32 1562.9C2559.62 1567.4 2555.62 1571.05 2550.32 1573.85C2545.02 1576.65 2538.77 1578.05 2531.57 1578.05ZM2619.61 1578.05C2612.71 1578.05 2606.51 1576.85 2601.01 1574.45C2595.61 1571.95 2591.36 1568.55 2588.26 1564.25C2585.16 1559.85 2583.56 1554.8 2583.46 1549.1H2598.01C2598.51 1554 2600.51 1558.15 2604.01 1561.55C2607.61 1564.85 2612.81 1566.5 2619.61 1566.5C2626.11 1566.5 2631.21 1564.9 2634.91 1561.7C2638.71 1558.4 2640.61 1554.2 2640.61 1549.1C2640.61 1545.1 2639.51 1541.85 2637.31 1539.35C2635.11 1536.85 2632.36 1534.95 2629.06 1533.65C2625.76 1532.35 2621.31 1530.95 2615.71 1529.45C2608.81 1527.65 2603.26 1525.85 2599.06 1524.05C2594.96 1522.25 2591.41 1519.45 2588.41 1515.65C2585.51 1511.75 2584.06 1506.55 2584.06 1500.05C2584.06 1494.35 2585.51 1489.3 2588.41 1484.9C2591.31 1480.5 2595.36 1477.1 2600.56 1474.7C2605.86 1472.3 2611.91 1471.1 2618.71 1471.1C2628.51 1471.1 2636.51 1473.55 2642.71 1478.45C2649.01 1483.35 2652.56 1489.85 2653.36 1497.95H2638.36C2637.86 1493.95 2635.76 1490.45 2632.06 1487.45C2628.36 1484.35 2623.46 1482.8 2617.36 1482.8C2611.66 1482.8 2607.01 1484.3 2603.41 1487.3C2599.81 1490.2 2598.01 1494.3 2598.01 1499.6C2598.01 1503.4 2599.06 1506.5 2601.16 1508.9C2603.36 1511.3 2606.01 1513.15 2609.11 1514.45C2612.31 1515.65 2616.76 1517.05 2622.46 1518.65C2629.36 1520.55 2634.91 1522.45 2639.11 1524.35C2643.31 1526.15 2646.91 1529 2649.91 1532.9C2652.91 1536.7 2654.41 1541.9 2654.41 1548.5C2654.41 1553.6 2653.06 1558.4 2650.36 1562.9C2647.66 1567.4 2643.66 1571.05 2638.36 1573.85C2633.06 1576.65 2626.81 1578.05 2619.61 1578.05Z" fill="url(#paint24_linear_0_1)"/>
<rect x="1465" y="2039" width="450" height="185" rx="22" fill="#1F1D1D"/>
<path d="M1591.08 2109.04C1589.69 2109.04 1588.52 2108.56 1587.56 2107.6C1586.65 2106.64 1586.2 2105.47 1586.2 2104.08C1586.2 2102.69 1586.65 2101.52 1587.56 2100.56C1588.52 2099.6 1589.69 2099.12 1591.08 2099.12C1592.47 2099.12 1593.61 2099.6 1594.52 2100.56C1595.48 2101.52 1595.96 2102.69 1595.96 2104.08C1595.96 2105.47 1595.48 2106.64 1594.52 2107.6C1593.61 2108.56 1592.47 2109.04 1591.08 2109.04ZM1594.68 2169.52C1594.68 2173.41 1593.69 2176.27 1591.72 2178.08C1589.75 2179.89 1586.87 2180.8 1583.08 2180.8H1578.84V2174.64H1581.88C1583.91 2174.64 1585.32 2174.24 1586.12 2173.44C1586.97 2172.64 1587.4 2171.28 1587.4 2169.36V2116.16H1594.68V2169.52ZM1651.72 2170.56L1640.6 2159.44C1637.88 2160.19 1635.11 2160.56 1632.28 2160.56C1627.11 2160.56 1622.39 2159.36 1618.12 2156.96C1613.86 2154.51 1610.47 2151.12 1607.96 2146.8C1605.51 2142.43 1604.28 2137.52 1604.28 2132.08C1604.28 2126.64 1605.51 2121.76 1607.96 2117.44C1610.47 2113.07 1613.86 2109.68 1618.12 2107.28C1622.39 2104.83 1627.11 2103.6 1632.28 2103.6C1637.51 2103.6 1642.26 2104.83 1646.52 2107.28C1650.79 2109.68 1654.15 2113.04 1656.6 2117.36C1659.06 2121.68 1660.28 2126.59 1660.28 2132.08C1660.28 2137.41 1659.11 2142.21 1656.76 2146.48C1654.42 2150.75 1651.19 2154.11 1647.08 2156.56L1661.16 2170.56H1651.72ZM1611.72 2132.08C1611.72 2136.51 1612.6 2140.4 1614.36 2143.76C1616.18 2147.12 1618.63 2149.71 1621.72 2151.52C1624.87 2153.33 1628.39 2154.24 1632.28 2154.24C1636.18 2154.24 1639.67 2153.33 1642.76 2151.52C1645.91 2149.71 1648.36 2147.12 1650.12 2143.76C1651.94 2140.4 1652.84 2136.51 1652.84 2132.08C1652.84 2127.6 1651.94 2123.71 1650.12 2120.4C1648.36 2117.04 1645.94 2114.45 1642.84 2112.64C1639.75 2110.83 1636.23 2109.92 1632.28 2109.92C1628.34 2109.92 1624.82 2110.83 1621.72 2112.64C1618.63 2114.45 1616.18 2117.04 1614.36 2120.4C1612.6 2123.71 1611.72 2127.6 1611.72 2132.08ZM1708.93 2116.16V2160H1701.65V2153.52C1700.26 2155.76 1698.32 2157.52 1695.81 2158.8C1693.36 2160.03 1690.64 2160.64 1687.65 2160.64C1684.24 2160.64 1681.17 2159.95 1678.45 2158.56C1675.73 2157.12 1673.57 2154.99 1671.97 2152.16C1670.42 2149.33 1669.65 2145.89 1669.65 2141.84V2116.16H1676.85V2140.88C1676.85 2145.2 1677.94 2148.53 1680.13 2150.88C1682.32 2153.17 1685.3 2154.32 1689.09 2154.32C1692.98 2154.32 1696.05 2153.12 1698.29 2150.72C1700.53 2148.32 1701.65 2144.83 1701.65 2140.24V2116.16H1708.93ZM1761.22 2136.4C1761.22 2137.79 1761.14 2139.25 1760.98 2140.8H1725.94C1726.21 2145.12 1727.68 2148.51 1730.34 2150.96C1733.06 2153.36 1736.34 2154.56 1740.18 2154.56C1743.33 2154.56 1745.94 2153.84 1748.02 2152.4C1750.16 2150.91 1751.65 2148.93 1752.5 2146.48H1760.34C1759.17 2150.69 1756.82 2154.13 1753.3 2156.8C1749.78 2159.41 1745.41 2160.72 1740.18 2160.72C1736.02 2160.72 1732.29 2159.79 1728.98 2157.92C1725.73 2156.05 1723.17 2153.41 1721.3 2150C1719.44 2146.53 1718.5 2142.53 1718.5 2138C1718.5 2133.47 1719.41 2129.49 1721.22 2126.08C1723.04 2122.67 1725.57 2120.05 1728.82 2118.24C1732.13 2116.37 1735.92 2115.44 1740.18 2115.44C1744.34 2115.44 1748.02 2116.35 1751.22 2118.16C1754.42 2119.97 1756.88 2122.48 1758.58 2125.68C1760.34 2128.83 1761.22 2132.4 1761.22 2136.4ZM1753.7 2134.88C1753.7 2132.11 1753.09 2129.73 1751.86 2127.76C1750.64 2125.73 1748.96 2124.21 1746.82 2123.2C1744.74 2122.13 1742.42 2121.6 1739.86 2121.6C1736.18 2121.6 1733.04 2122.77 1730.42 2125.12C1727.86 2127.47 1726.4 2130.72 1726.02 2134.88H1753.7ZM1778.11 2123.28C1779.39 2120.77 1781.21 2118.83 1783.55 2117.44C1785.95 2116.05 1788.86 2115.36 1792.27 2115.36V2122.88H1790.35C1782.19 2122.88 1778.11 2127.31 1778.11 2136.16V2160H1770.83V2116.16H1778.11V2123.28ZM1838.44 2116.16L1812.04 2180.64H1804.52L1813.16 2159.52L1795.48 2116.16H1803.56L1817.32 2151.68L1830.92 2116.16H1838.44Z" fill="url(#paint25_linear_0_1)"/>
<path d="M1510.36 2090C1484.79 2122.26 1522.42 2165.63 1562 2131.59C1540.68 2139.92 1500.5 2143.26 1510.36 2090Z" fill="#0000FB"/>
<path d="M1523.27 2086C1504.09 2110.49 1532.32 2143.42 1562 2117.58C1546.01 2123.9 1515.87 2126.44 1523.27 2086Z" fill="#0000FB"/>
<path d="M1536.76 2083C1525.26 2099.13 1542.19 2120.82 1560 2103.8C1550.4 2107.96 1532.32 2109.63 1536.76 2083Z" fill="#0000FB"/>
<rect width="163" height="170" rx="81.5" transform="matrix(1 0 0 -1 942 469)" fill="url(#paint26_linear_0_1)" fill-opacity="0.44"/>
<rect width="164" height="168" rx="82" transform="matrix(1 0 0 -1 536 168)" fill="url(#paint27_linear_0_1)" fill-opacity="0.44"/>
<rect width="163" height="168" rx="81.5" transform="matrix(1 0 0 -1 647 839)" fill="url(#paint28_linear_0_1)" fill-opacity="0.44"/>
<rect x="459" y="120" width="427" height="259" rx="22" fill="#1F1D1D"/>
<path d="M653.1 197.75V272.9C653.1 282.2 650.25 289.55 644.55 294.95C638.95 300.35 631.55 303.05 622.35 303.05C613.15 303.05 605.7 300.35 600 294.95C594.4 289.55 591.6 282.2 591.6 272.9H608.85C608.95 277.5 610.1 281.15 612.3 283.85C614.6 286.55 617.95 287.9 622.35 287.9C626.75 287.9 630.1 286.55 632.4 283.85C634.7 281.05 635.85 277.4 635.85 272.9V197.75H653.1ZM715.268 303.05C708.268 303.05 701.968 301.85 696.368 299.45C690.768 296.95 686.368 293.45 683.168 288.95C679.968 284.45 678.368 279.2 678.368 273.2H696.668C697.068 277.7 698.818 281.4 701.918 284.3C705.118 287.2 709.568 288.65 715.268 288.65C721.168 288.65 725.768 287.25 729.068 284.45C732.368 281.55 734.018 277.85 734.018 273.35C734.018 269.85 732.968 267 730.868 264.8C728.868 262.6 726.318 260.9 723.218 259.7C720.218 258.5 716.018 257.2 710.618 255.8C703.818 254 698.268 252.2 693.968 250.4C689.768 248.5 686.168 245.6 683.168 241.7C680.168 237.8 678.668 232.6 678.668 226.1C678.668 220.1 680.168 214.85 683.168 210.35C686.168 205.85 690.368 202.4 695.768 200C701.168 197.6 707.418 196.4 714.518 196.4C724.618 196.4 732.868 198.95 739.268 204.05C745.768 209.05 749.368 215.95 750.068 224.75H731.168C730.868 220.95 729.068 217.7 725.768 215C722.468 212.3 718.118 210.95 712.718 210.95C707.818 210.95 703.818 212.2 700.718 214.7C697.618 217.2 696.068 220.8 696.068 225.5C696.068 228.7 697.018 231.35 698.918 233.45C700.918 235.45 703.418 237.05 706.418 238.25C709.418 239.45 713.518 240.75 718.718 242.15C725.618 244.05 731.218 245.95 735.518 247.85C739.918 249.75 743.618 252.7 746.618 256.7C749.718 260.6 751.268 265.85 751.268 272.45C751.268 277.75 749.818 282.75 746.918 287.45C744.118 292.15 739.968 295.95 734.468 298.85C729.068 301.65 722.668 303.05 715.268 303.05Z" fill="#FFFF00"/>
<rect x="385" y="1003" width="64" height="7" rx="3.5" fill="#072A85"/>
<rect x="385" y="1156" width="64" height="7" rx="3.5" fill="#072A85"/>
<rect x="571" y="1003" width="39" height="7" rx="3.5" fill="#499D49"/>
<rect x="614" y="1017" width="37" height="7" rx="3.5" fill="#FFFF00"/>
<rect x="459" y="1136" width="35" height="7" rx="3.5" fill="#FFFF00"/>
<rect x="541" y="1077" width="57" height="5" rx="2.5" fill="#242443"/>
<rect x="459" y="1003" width="107" height="7" rx="3.5" fill="#2D8CC1"/>
<rect x="459" y="1156" width="139" height="7" rx="3.5" fill="#2D8CC1"/>
<rect x="475" y="1202" width="65" height="6" rx="3" fill="#072A85"/>
<rect x="546" y="1202" width="210" height="6" rx="3" fill="#2D8CC1"/>
<rect x="475" y="1215" width="65" height="8" rx="4" fill="#072A85"/>
<rect x="546" y="1215" width="232" height="8" rx="4" fill="#2D8CC1"/>
<rect x="475" y="1246" width="80" height="6" rx="3" fill="#072A85"/>
<rect x="566" y="1246" width="292" height="6" rx="3" fill="#2D8CC1"/>
<rect x="525" y="1229" width="77" height="8" rx="4" fill="#2D8CC1"/>
<rect x="385" y="1172" width="140" height="6" rx="3" fill="#242443"/>
<rect x="532" y="1172" width="181" height="6" rx="3" fill="#FBFB87"/>
<rect x="434" y="1187" width="140" height="6" rx="3" fill="#5F0E2B"/>
<rect x="459" y="1017" width="151" height="7" rx="3.5" fill="#FBFB87"/>
<rect x="459" y="1105" width="151" height="8" rx="4" fill="#242443"/>
<rect x="499" y="1122" width="196" height="5" rx="2.5" fill="#160A60"/>
<rect x="499" y="1091" width="117" height="7" rx="3.5" fill="#5F0E2B"/>
<rect x="385" y="1304" width="37" height="7" rx="3.5" fill="#FFFF00"/>
<rect x="385" y="1274" width="152" height="8" rx="4" fill="#242443"/>
<rect x="426" y="1290" width="199" height="6" rx="3" fill="#242443"/>
<rect x="434" y="1261" width="111" height="6" rx="3" fill="#5F0E2B"/>
<rect x="499" y="1032" width="182" height="6" rx="3" fill="#5F0E2B"/>
<rect x="541" y="1047" width="172" height="7" rx="3.5" fill="#242443"/>
<rect x="584" y="1062" width="232" height="6" rx="3" fill="#C27446"/>
<rect x="614" y="1003" width="240" height="7" rx="3.5" fill="#160A60"/>
<rect x="605" y="1156" width="55" height="7" rx="3.5" fill="#160A60"/>
<rect x="394" y="1181" width="8" height="4" rx="2" fill="#27275C"/>
<rect x="385" y="1643" width="64" height="7" rx="3.5" fill="#072A85"/>
<rect x="385" y="1796" width="64" height="7" rx="3.5" fill="#072A85"/>
<rect x="614" y="1657" width="37" height="7" rx="3.5" fill="#FFFF00"/>
<rect x="459" y="1776" width="35" height="7" rx="3.5" fill="#FFFF00"/>
<rect x="541" y="1717" width="57" height="5" rx="2.5" fill="#242443"/>
<rect x="459" y="1643" width="107" height="7" rx="3.5" fill="#2D8CC1"/>
<rect x="459" y="1796" width="139" height="7" rx="3.5" fill="#2D8CC1"/>
<rect x="475" y="1842" width="65" height="6" rx="3" fill="#072A85"/>
<rect x="546" y="1842" width="210" height="6" rx="3" fill="#2D8CC1"/>
<rect x="475" y="1855" width="65" height="8" rx="4" fill="#072A85"/>
<rect x="546" y="1855" width="232" height="8" rx="4" fill="#2D8CC1"/>
<rect x="475" y="1886" width="80" height="6" rx="3" fill="#072A85"/>
<rect x="566" y="1886" width="292" height="6" rx="3" fill="#2D8CC1"/>
<rect x="525" y="1869" width="77" height="8" rx="4" fill="#2D8CC1"/>
<rect x="385" y="1812" width="140" height="6" rx="3" fill="#242443"/>
<rect x="532" y="1812" width="181" height="6" rx="3" fill="#FBFB87"/>
<rect x="434" y="1827" width="140" height="6" rx="3" fill="#5F0E2B"/>
<rect x="582" y="1827" width="300" height="6" rx="3" fill="#242443"/>
<rect x="459" y="1657" width="151" height="7" rx="3.5" fill="#FBFB87"/>
<rect x="459" y="1745" width="151" height="8" rx="4" fill="#242443"/>
<rect x="499" y="1762" width="196" height="5" rx="2.5" fill="#160A60"/>
<rect x="499" y="1731" width="117" height="7" rx="3.5" fill="#5F0E2B"/>
<rect x="385" y="1944" width="37" height="7" rx="3.5" fill="#FFFF00"/>
<rect x="385" y="1914" width="152" height="8" rx="4" fill="#242443"/>
<rect x="426" y="1930" width="199" height="6" rx="3" fill="#242443"/>
<rect x="434" y="1901" width="111" height="6" rx="3" fill="#5F0E2B"/>
<rect x="499" y="1672" width="182" height="6" rx="3" fill="#5F0E2B"/>
<rect x="541" y="1687" width="172" height="7" rx="3.5" fill="#242443"/>
<rect x="584" y="1702" width="172" height="6" rx="3" fill="#C27446"/>
<rect x="605" y="1796" width="363" height="7" rx="3.5" fill="#160A60"/>
<rect x="394" y="1821" width="8" height="4" rx="2" fill="#27275C"/>
<rect x="385" y="1321" width="64" height="7" rx="3.5" fill="#072A85"/>
<rect x="385" y="1474" width="64" height="7" rx="3.5" fill="#072A85"/>
<rect x="614" y="1335" width="37" height="7" rx="3.5" fill="#FFFF00"/>
<rect x="459" y="1454" width="35" height="7" rx="3.5" fill="#FFFF00"/>
<rect x="541" y="1395" width="57" height="5" rx="2.5" fill="#242443"/>
<rect x="459" y="1321" width="107" height="7" rx="3.5" fill="#2D8CC1"/>
<rect x="459" y="1474" width="139" height="7" rx="3.5" fill="#2D8CC1"/>
<rect x="475" y="1520" width="65" height="6" rx="3" fill="#072A85"/>
<rect x="546" y="1520" width="210" height="6" rx="3" fill="#2D8CC1"/>
<rect x="475" y="1533" width="65" height="8" rx="4" fill="#072A85"/>
<rect x="546" y="1533" width="232" height="8" rx="4" fill="#2D8CC1"/>
<rect x="475" y="1564" width="80" height="6" rx="3" fill="#072A85"/>
<rect x="566" y="1564" width="292" height="6" rx="3" fill="#2D8CC1"/>
<rect x="525" y="1547" width="77" height="8" rx="4" fill="#2D8CC1"/>
<rect x="385" y="1490" width="140" height="6" rx="3" fill="#242443"/>
<rect x="532" y="1490" width="93" height="6" rx="3" fill="#FBFB87"/>
<rect x="434" y="1505" width="140" height="6" rx="3" fill="#5F0E2B"/>
<rect x="582" y="1505" width="300" height="6" rx="3" fill="#242443"/>
<rect x="459" y="1335" width="151" height="7" rx="3.5" fill="#FBFB87"/>
<rect x="459" y="1423" width="151" height="8" rx="4" fill="#242443"/>
<rect x="499" y="1440" width="196" height="5" rx="2.5" fill="#160A60"/>
<rect x="499" y="1409" width="117" height="7" rx="3.5" fill="#5F0E2B"/>
<rect x="385" y="1622" width="37" height="7" rx="3.5" fill="#FFFF00"/>
<rect x="385" y="1592" width="152" height="8" rx="4" fill="#242443"/>
<rect x="426" y="1608" width="199" height="6" rx="3" fill="#242443"/>
<rect x="434" y="1579" width="111" height="6" rx="3" fill="#5F0E2B"/>
<rect x="499" y="1350" width="182" height="6" rx="3" fill="#5F0E2B"/>
<rect x="541" y="1365" width="172" height="7" rx="3.5" fill="#242443"/>
<rect x="584" y="1380" width="319" height="6" rx="3" fill="#C27446"/>
<rect x="570" y="1321" width="240" height="7" rx="3.5" fill="#160A60"/>
<rect x="394" y="1499" width="8" height="4" rx="2" fill="#27275C"/>
<defs>
<filter id="filter0_d_0_1" x="1112" y="938" width="932" height="521" filterUnits="userSpaceOnUse" color-interpolation-filters="sRGB">
<feFlood flood-opacity="0" result="BackgroundImageFix"/>
<feColorMatrix in="SourceAlpha" type="matrix" values="0 0 0 0 0 0 0 0 0 0 0 0 0 0 0 0 0 0 127 0" result="hardAlpha"/>
<feOffset dx="-37" dy="28"/>
<feGaussianBlur stdDeviation="27.5"/>
<feComposite in2="hardAlpha" operator="out"/>
<feColorMatrix type="matrix" values="0 0 0 0 0 0 0 0 0 0 0 0 0 0 0 0 0 0 0.5 0"/>
<feBlend mode="normal" in2="BackgroundImageFix" result="effect1_dropShadow_0_1"/>
<feBlend mode="normal" in="SourceGraphic" in2="effect1_dropShadow_0_1" result="shape"/>
</filter>
<linearGradient id="paint0_linear_0_1" x1="2079.5" y1="0" x2="2079.5" y2="2411" gradientUnits="userSpaceOnUse">
<stop stop-color="#27275C"/>
<stop offset="1" stop-color="#030328"/>
</linearGradient>
<linearGradient id="paint1_linear_0_1" x1="2080" y1="1654" x2="2080" y2="2411" gradientUnits="userSpaceOnUse">
<stop stop-color="#4A4C50"/>
<stop offset="1" stop-color="#737579"/>
</linearGradient>
<linearGradient id="paint2_linear_0_1" x1="3699.48" y1="1483.44" x2="3638.3" y2="1623.59" gradientUnits="userSpaceOnUse">
<stop offset="0.015625" stop-color="#511E07"/>
<stop offset="0.953125" stop-color="#925700"/>
</linearGradient>
<linearGradient id="paint3_linear_0_1" x1="3873.75" y1="1483.11" x2="3922.31" y2="1628.27" gradientUnits="userSpaceOnUse">
<stop offset="0.015625" stop-color="#511E07"/>
<stop offset="0.953125" stop-color="#925700"/>
</linearGradient>
<linearGradient id="paint4_linear_0_1" x1="3923.42" y1="1515.7" x2="3949.26" y2="1667.33" gradientUnits="userSpaceOnUse">
<stop offset="0.015625" stop-color="#511E07"/>
<stop offset="0.953125" stop-color="#925700"/>
</linearGradient>
<linearGradient id="paint5_linear_0_1" x1="3901.81" y1="1525.96" x2="4011.94" y2="1714.58" gradientUnits="userSpaceOnUse">
<stop offset="0.015625" stop-color="#511E07"/>
<stop offset="0.953125" stop-color="#925700"/>
</linearGradient>
<linearGradient id="paint6_linear_0_1" x1="3908.66" y1="1577.5" x2="3969.49" y2="1779.77" gradientUnits="userSpaceOnUse">
<stop offset="0.015625" stop-color="#511E07"/>
<stop offset="0.953125" stop-color="#925700"/>
</linearGradient>
<linearGradient id="paint7_linear_0_1" x1="3889.97" y1="1610.27" x2="3882.65" y2="1821.86" gradientUnits="userSpaceOnUse">
<stop offset="0.015625" stop-color="#511E07"/>
<stop offset="0.953125" stop-color="#925700"/>
</linearGradient>
<linearGradient id="paint8_linear_0_1" x1="3846.07" y1="1636.26" x2="3810.74" y2="1823.47" gradientUnits="userSpaceOnUse">
<stop offset="0.015625" stop-color="#511E07"/>
<stop offset="0.953125" stop-color="#925700"/>
</linearGradient>
<linearGradient id="paint9_linear_0_1" x1="3654.24" y1="1506.96" x2="3593.06" y2="1647.12" gradientUnits="userSpaceOnUse">
<stop offset="0.015625" stop-color="#511E07"/>
<stop offset="0.953125" stop-color="#925700"/>
</linearGradient>
<linearGradient id="paint10_linear_0_1" x1="3681.69" y1="1523.44" x2="3556.8" y2="1699.18" gradientUnits="userSpaceOnUse">
<stop offset="0.015625" stop-color="#511E07"/>
<stop offset="0.953125" stop-color="#925700"/>
</linearGradient>
<linearGradient id="paint11_linear_0_1" x1="3645.59" y1="1586.79" x2="3568.59" y2="1782.39" gradientUnits="userSpaceOnUse">
<stop offset="0.015625" stop-color="#511E07"/>
<stop offset="0.953125" stop-color="#925700"/>
</linearGradient>
<linearGradient id="paint12_linear_0_1" x1="3666.51" y1="1607.21" x2="3659.19" y2="1818.8" gradientUnits="userSpaceOnUse">
<stop offset="0.015625" stop-color="#511E07"/>
<stop offset="0.953125" stop-color="#925700"/>
</linearGradient>
<linearGradient id="paint13_linear_0_1" x1="3716.7" y1="1629.63" x2="3740.24" y2="1818.48" gradientUnits="userSpaceOnUse">
<stop offset="0.015625" stop-color="#511E07"/>
<stop offset="0.953125" stop-color="#925700"/>
</linearGradient>
<linearGradient id="paint14_linear_0_1" x1="3803.54" y1="1655.76" x2="3781.98" y2="1770.05" gradientUnits="userSpaceOnUse">
<stop offset="0.015625" stop-color="#511E07"/>
<stop offset="0.953125" stop-color="#925700"/>
</linearGradient>
<linearGradient id="paint15_linear_0_1" x1="3748.42" y1="1648.11" x2="3764.18" y2="1774.57" gradientUnits="userSpaceOnUse">
<stop offset="0.015625" stop-color="#511E07"/>
<stop offset="0.953125" stop-color="#925700"/>
</linearGradient>
<linearGradient id="paint16_linear_0_1" x1="3781.38" y1="1478.5" x2="3784.81" y2="1531.17" gradientUnits="userSpaceOnUse">
<stop stop-color="#750F34"/>
<stop offset="1" stop-color="#9F4009"/>
</linearGradient>
<linearGradient id="paint17_linear_0_1" x1="3781.23" y1="1528.06" x2="3775.61" y2="1690.25" gradientUnits="userSpaceOnUse">
<stop stop-color="#9F4009"/>
<stop offset="1" stop-color="#750F34"/>
</linearGradient>
<linearGradient id="paint18_linear_0_1" x1="3927.99" y1="1565.76" x2="3780.33" y2="1528.66" gradientUnits="userSpaceOnUse">
<stop stop-color="#750F34"/>
<stop offset="1" stop-color="#9F4009"/>
</linearGradient>
<linearGradient id="paint19_linear_0_1" x1="3771.08" y1="1523.17" x2="3641.71" y2="1574.86" gradientUnits="userSpaceOnUse">
<stop stop-color="#9F4009"/>
<stop offset="1" stop-color="#750F34"/>
</linearGradient>
<linearGradient id="paint20_linear_0_1" x1="2.57539" y1="-2.22453e-05" x2="349.668" y2="187.236" gradientUnits="userSpaceOnUse">
<stop offset="0.296875" stop-color="#343451"/>
<stop offset="1" stop-color="#100F17"/>
</linearGradient>
<linearGradient id="paint21_linear_0_1" x1="1789.78" y1="2101" x2="1830.21" y2="2373.38" gradientUnits="userSpaceOnUse">
<stop offset="0.296875" stop-color="#343451"/>
<stop offset="1" stop-color="#100F17"/>
</linearGradient>
<linearGradient id="paint22_linear_0_1" x1="1029.36" y1="620" x2="3925.42" y2="3249.29" gradientUnits="userSpaceOnUse">
<stop offset="0.296875" stop-color="#2F2E41"/>
<stop offset="0.822917" stop-color="#171736"/>
</linearGradient>
<linearGradient id="paint23_linear_0_1" x1="3340.6" y1="627" x2="3695.64" y2="632.866" gradientUnits="userSpaceOnUse">
<stop stop-color="#925700"/>
<stop offset="1" stop-color="#9F4009"/>
</linearGradient>
<linearGradient id="paint24_linear_0_1" x1="2371" y1="1524.5" x2="2663" y2="1524.5" gradientUnits="userSpaceOnUse">
<stop stop-color="white"/>
<stop offset="1" stop-color="#E4E4E4"/>
</linearGradient>
<linearGradient id="paint25_linear_0_1" x1="1581" y1="2132" x2="1832.41" y2="2132" gradientUnits="userSpaceOnUse">
<stop stop-color="white"/>
<stop offset="1" stop-color="#B0B0B0"/>
</linearGradient>
<linearGradient id="paint26_linear_0_1" x1="117.571" y1="161.283" x2="14.5339" y2="24.2277" gradientUnits="userSpaceOnUse">
<stop stop-color="#323296"/>
<stop offset="1" stop-color="#511E07"/>
</linearGradient>
<linearGradient id="paint27_linear_0_1" x1="118.293" y1="159.385" x2="16.9889" y2="22.1956" gradientUnits="userSpaceOnUse">
<stop stop-color="#323296"/>
<stop offset="1" stop-color="#511E07"/>
</linearGradient>
<linearGradient id="paint28_linear_0_1" x1="117.571" y1="159.385" x2="16.0868" y2="22.7889" gradientUnits="userSpaceOnUse">
<stop stop-color="#323296"/>
<stop offset="1" stop-color="#511E07"/>
</linearGradient>
</defs>
</svg>
