<svg width="100%" height="100%" viewBox="0 0 4648 3064" fill="none" xmlns="http://www.w3.org/2000/svg">
<path d="M4518.76 2344.28C4518.76 2973.79 2796.19 3000 1944 3000C1091.81 3000 192 2658.52 192 2029C192 1399.48 1384.81 234 2237 234C3089.19 234 4991.26 1124.5 4518.76 2344.28Z" fill="url(#paint0_linear_782_1640)"/>
<path d="M4518.76 2344.28C4488 3029.5 2847.19 2987.5 1995 2987.5C1500.74 2987.5 602.5 3009.22 267.5 2332.5C985.5 2332.5 1517.81 2344.28 2370 2344.28C3222.19 2344.28 3637 2344.28 4518.76 2344.28Z" fill="url(#paint1_linear_782_1640)"/>
<path d="M3438.83 2664.46C3521.7 2666.08 3547.94 2597.82 3550.71 2563.49V2545.62H3522.37V2526.17H3438.83V2380H3339.06C3337.79 2474.15 3355.96 2662.84 3438.83 2664.46Z" fill="#DDDD40"/>
<path d="M3452.53 2545.62H3522.37V2526.17H3438.83V2380H3339.06C3337.79 2474.15 3355.96 2662.84 3438.83 2664.46C3521.7 2666.08 3547.94 2597.82 3550.71 2563.49V2545.62H3452.53ZM3452.53 2545.62L3449.36 2553.94" stroke="#2F2E41" stroke-width="2"/>
<ellipse rx="13.0738" ry="14.2245" transform="matrix(1 0 0 -1 3473.07 2605.22)" fill="white"/>
<mask id="path-6-outside-1_782_1640" maskUnits="userSpaceOnUse" x="3482" y="1472" width="395" height="427" fill="black">
<rect fill="white" x="3482" y="1472" width="395" height="427"/>
<path d="M3576 1805C3603.18 1805 3630.1 1801.91 3655.22 1795.9C3680.33 1789.9 3703.15 1781.1 3722.37 1770C3741.59 1758.9 3756.84 1745.73 3767.24 1731.23C3777.65 1716.73 3783 1701.19 3783 1685.5C3783 1669.81 3777.65 1654.27 3767.24 1639.77C3756.84 1625.27 3741.59 1612.1 3722.37 1601C3703.15 1589.9 3680.33 1581.1 3655.22 1575.1C3630.1 1569.09 3603.18 1566 3576 1566L3576 1685.5V1805Z"/>
</mask>
<path d="M3576 1805C3603.18 1805 3630.1 1801.91 3655.22 1795.9C3680.33 1789.9 3703.15 1781.1 3722.37 1770C3741.59 1758.9 3756.84 1745.73 3767.24 1731.23C3777.65 1716.73 3783 1701.19 3783 1685.5C3783 1669.81 3777.65 1654.27 3767.24 1639.77C3756.84 1625.27 3741.59 1612.1 3722.37 1601C3703.15 1589.9 3680.33 1581.1 3655.22 1575.1C3630.1 1569.09 3603.18 1566 3576 1566L3576 1685.5V1805Z" stroke="#7098FE" stroke-width="188" mask="url(#path-6-outside-1_782_1640)"/>
<mask id="path-7-outside-2_782_1640" maskUnits="userSpaceOnUse" x="927" y="1771" width="395" height="427" fill="black">
<rect fill="white" x="927" y="1771" width="395" height="427"/>
<path d="M1228 2104C1200.82 2104 1173.9 2100.91 1148.78 2094.9C1123.67 2088.9 1100.85 2080.1 1081.63 2069C1062.41 2057.9 1047.16 2044.73 1036.76 2030.23C1026.35 2015.73 1021 2000.19 1021 1984.5C1021 1968.81 1026.35 1953.27 1036.76 1938.77C1047.16 1924.27 1062.41 1911.1 1081.63 1900C1100.85 1888.9 1123.67 1880.1 1148.78 1874.1C1173.9 1868.09 1200.82 1865 1228 1865L1228 1984.5V2104Z"/>
</mask>
<path d="M1228 2104C1200.82 2104 1173.9 2100.91 1148.78 2094.9C1123.67 2088.9 1100.85 2080.1 1081.63 2069C1062.41 2057.9 1047.16 2044.73 1036.76 2030.23C1026.35 2015.73 1021 2000.19 1021 1984.5C1021 1968.81 1026.35 1953.27 1036.76 1938.77C1047.16 1924.27 1062.41 1911.1 1081.63 1900C1100.85 1888.9 1123.67 1880.1 1148.78 1874.1C1173.9 1868.09 1200.82 1865 1228 1865L1228 1984.5V2104Z" stroke="#DDDD40" stroke-width="188" mask="url(#path-7-outside-2_782_1640)"/>
<path d="M3607 2194C3607 2170.25 3626.25 2151 3650 2151H4299C4322.75 2151 4342 2170.25 4342 2194V2628C4342 2633.52 4337.52 2638 4332 2638H3617C3611.48 2638 3607 2633.52 3607 2628V2194Z" fill="#0F0D0D"/>
<path d="M4004.16 1562C4004.16 2103.23 3758.9 2105.66 3646 2103.23V2180.96C4190.66 2243.14 4353.58 2001.33 4366.96 1872.65L4395 1562H4004.16Z" fill="url(#paint2_linear_782_1640)"/>
<path d="M3576 2103C3576 2102.45 3576.45 2102 3577 2102H3649C3649.55 2102 3650 2102.45 3650 2103V2180.88C3650 2181.48 3649.48 2181.94 3648.89 2181.88L3576.89 2173.95C3576.38 2173.89 3576 2173.47 3576 2172.96V2103Z" fill="#181826"/>
<path d="M4006.5 1456.5L4404 1459L4395.03 1543H4004L4006.5 1456.5Z" fill="url(#paint3_linear_782_1640)" fill-opacity="0.16"/>
<path d="M4005.8 1456.64C4004.9 1459.83 4007.29 1463 4010.61 1463H4398.04C4401.15 1463 4403.51 1460.19 4402.97 1457.13L4395.75 1416.13C4395.33 1413.74 4393.26 1412 4390.83 1412H4022.21C4019.97 1412 4018 1413.49 4017.39 1415.64L4005.8 1456.64Z" fill="#181826"/>
<path d="M4170.59 1402.01C4169.73 1415.55 4180.48 1427 4194.04 1427H4227.55C4240.89 1427 4251.56 1415.9 4251.03 1402.57V1402.57C4250.53 1389.96 4240.17 1380 4227.55 1380H4194.04C4181.65 1380 4171.38 1389.63 4170.59 1402.01V1402.01Z" fill="#181826"/>
<path d="M4184.73 1344.69C4202.53 1334.08 4243.64 1324.46 4265.64 1370.83" stroke="#F0F0FC" stroke-width="11"/>
<path d="M4154.31 1273.46C4194.09 1252.51 4287.35 1235.32 4342.11 1334.14" stroke="#F0F0FC" stroke-width="11"/>
<path d="M4168.24 1307.72C4196.38 1294.4 4263.1 1284.58 4304.87 1351.86" stroke="#F0F0FC" stroke-width="11"/>
<path d="M4204.42 1516.44C4099.98 1487.37 4028.18 1503.28 4005 1515.39L4004 1573.39H4394.52L4399 1516.44C4379.05 1528.56 4308.87 1545.52 4204.42 1516.44Z" fill="url(#paint4_linear_782_1640)"/>
<rect x="934" y="119" width="583" height="317" rx="22" fill="#1F1D1D"/>
<path d="M1181.8 205V305.2C1181.8 317.6 1178 327.4 1170.4 334.6C1162.93 341.8 1153.07 345.4 1140.8 345.4C1128.53 345.4 1118.6 341.8 1111 334.6C1103.53 327.4 1099.8 317.6 1099.8 305.2H1122.8C1122.93 311.333 1124.47 316.2 1127.4 319.8C1130.47 323.4 1134.93 325.2 1140.8 325.2C1146.67 325.2 1151.13 323.4 1154.2 319.8C1157.27 316.067 1158.8 311.2 1158.8 305.2V205H1181.8ZM1264.69 345.4C1255.36 345.4 1246.96 343.8 1239.49 340.6C1232.02 337.267 1226.16 332.6 1221.89 326.6C1217.62 320.6 1215.49 313.6 1215.49 305.6H1239.89C1240.42 311.6 1242.76 316.533 1246.89 320.4C1251.16 324.267 1257.09 326.2 1264.69 326.2C1272.56 326.2 1278.69 324.333 1283.09 320.6C1287.49 316.733 1289.69 311.8 1289.69 305.8C1289.69 301.133 1288.29 297.333 1285.49 294.4C1282.82 291.467 1279.42 289.2 1275.29 287.6C1271.29 286 1265.69 284.267 1258.49 282.4C1249.42 280 1242.02 277.6 1236.29 275.2C1230.69 272.667 1225.89 268.8 1221.89 263.6C1217.89 258.4 1215.89 251.467 1215.89 242.8C1215.89 234.8 1217.89 227.8 1221.89 221.8C1225.89 215.8 1231.49 211.2 1238.69 208C1245.89 204.8 1254.22 203.2 1263.69 203.2C1277.16 203.2 1288.16 206.6 1296.69 213.4C1305.36 220.067 1310.16 229.267 1311.09 241H1285.89C1285.49 235.933 1283.09 231.6 1278.69 228C1274.29 224.4 1268.49 222.6 1261.29 222.6C1254.76 222.6 1249.42 224.267 1245.29 227.6C1241.16 230.933 1239.09 235.733 1239.09 242C1239.09 246.267 1240.36 249.8 1242.89 252.6C1245.56 255.267 1248.89 257.4 1252.89 259C1256.89 260.6 1262.36 262.333 1269.29 264.2C1278.49 266.733 1285.96 269.267 1291.69 271.8C1297.56 274.333 1302.49 278.267 1306.49 283.6C1310.62 288.8 1312.69 295.8 1312.69 304.6C1312.69 311.667 1310.76 318.333 1306.89 324.6C1303.16 330.867 1297.62 335.933 1290.29 339.8C1283.09 343.533 1274.56 345.4 1264.69 345.4Z" fill="#FFFF00"/>
<rect x="3835" y="834" width="712" height="301" rx="22" fill="#1F1D1D"/>
<path d="M4058.44 929.18V939.62H4003V986.6H4049.8V997.04H4003V1055H3990.4V929.18H4058.44ZM4091.77 921.8V1055H4079.17V921.8H4091.77ZM4114.54 1005.68C4114.54 995.6 4116.52 986.78 4120.48 979.22C4124.56 971.54 4130.14 965.66 4137.22 961.58C4144.42 957.38 4152.52 955.28 4161.52 955.28C4170.88 955.28 4178.92 957.44 4185.64 961.76C4192.48 966.08 4197.4 971.6 4200.4 978.32V956.72H4213V1055H4200.4V1033.22C4197.28 1039.94 4192.3 1045.52 4185.46 1049.96C4178.74 1054.28 4170.7 1056.44 4161.34 1056.44C4152.46 1056.44 4144.42 1054.34 4137.22 1050.14C4130.14 1045.94 4124.56 1040 4120.48 1032.32C4116.52 1024.64 4114.54 1015.76 4114.54 1005.68ZM4200.4 1005.86C4200.4 997.94 4198.78 990.98 4195.54 984.98C4192.3 978.98 4187.86 974.36 4182.22 971.12C4176.7 967.88 4170.58 966.26 4163.86 966.26C4156.9 966.26 4150.66 967.82 4145.14 970.94C4139.62 974.06 4135.24 978.62 4132 984.62C4128.88 990.5 4127.32 997.52 4127.32 1005.68C4127.32 1013.72 4128.88 1020.8 4132 1026.92C4135.24 1032.92 4139.62 1037.54 4145.14 1040.78C4150.66 1043.9 4156.9 1045.46 4163.86 1045.46C4170.58 1045.46 4176.7 1043.84 4182.22 1040.6C4187.86 1037.36 4192.3 1032.74 4195.54 1026.74C4198.78 1020.74 4200.4 1013.78 4200.4 1005.86ZM4275.61 1056.44C4264.33 1056.44 4255.09 1053.86 4247.89 1048.7C4240.81 1043.42 4236.85 1036.28 4236.01 1027.28H4248.97C4249.57 1032.8 4252.15 1037.3 4256.71 1040.78C4261.39 1044.14 4267.63 1045.82 4275.43 1045.82C4282.27 1045.82 4287.61 1044.2 4291.45 1040.96C4295.41 1037.72 4297.39 1033.7 4297.39 1028.9C4297.39 1025.54 4296.31 1022.78 4294.15 1020.62C4291.99 1018.46 4289.23 1016.78 4285.87 1015.58C4282.63 1014.26 4278.19 1012.88 4272.55 1011.44C4265.23 1009.52 4259.29 1007.6 4254.73 1005.68C4250.17 1003.76 4246.27 1000.94 4243.03 997.22C4239.91 993.38 4238.35 988.28 4238.35 981.92C4238.35 977.12 4239.79 972.68 4242.67 968.6C4245.55 964.52 4249.63 961.28 4254.91 958.88C4260.19 956.48 4266.19 955.28 4272.91 955.28C4283.47 955.28 4291.99 957.98 4298.47 963.38C4304.95 968.66 4308.43 975.98 4308.91 985.34H4296.31C4295.95 979.58 4293.67 974.96 4289.47 971.48C4285.39 967.88 4279.75 966.08 4272.55 966.08C4266.19 966.08 4261.03 967.58 4257.07 970.58C4253.11 973.58 4251.13 977.3 4251.13 981.74C4251.13 985.58 4252.27 988.76 4254.55 991.28C4256.95 993.68 4259.89 995.6 4263.37 997.04C4266.85 998.36 4271.53 999.86 4277.41 1001.54C4284.49 1003.46 4290.13 1005.32 4294.33 1007.12C4298.53 1008.92 4302.13 1011.56 4305.13 1015.04C4308.13 1018.52 4309.69 1023.14 4309.81 1028.9C4309.81 1034.18 4308.37 1038.92 4305.49 1043.12C4302.61 1047.2 4298.59 1050.44 4293.43 1052.84C4288.27 1055.24 4282.33 1056.44 4275.61 1056.44ZM4386.63 1055L4346.13 1010.9V1055H4333.53V921.8H4346.13V1000.64L4385.73 956.72H4403.37L4356.75 1005.68L4403.73 1055H4386.63Z" fill="white"/>
<rect x="2329" y="565" width="893" height="317" rx="22" fill="#1F1D1D"/>
<path d="M2566.86 697.36C2566.86 708.16 2563.32 716.86 2556.24 723.46C2549.16 730.06 2538.54 733.36 2524.38 733.36H2499V787H2486.4V661.18H2524.38C2538.42 661.18 2548.98 664.48 2556.06 671.08C2563.26 677.68 2566.86 686.44 2566.86 697.36ZM2524.38 722.56C2544.06 722.56 2553.9 714.16 2553.9 697.36C2553.9 688.96 2551.56 682.6 2546.88 678.28C2542.2 673.96 2534.7 671.8 2524.38 671.8H2499V722.56H2524.38ZM2669 688.72L2610.68 833.26H2597.54L2616.62 786.46L2576.3 688.72H2590.16L2623.64 772.6L2656.04 688.72H2669ZM2702.47 699.34V760.36C2702.47 766.36 2703.61 770.5 2705.89 772.78C2708.17 775.06 2712.19 776.2 2717.95 776.2H2729.47V787H2715.97C2707.09 787 2700.49 784.96 2696.17 780.88C2691.85 776.68 2689.69 769.84 2689.69 760.36V699.34H2676.01V688.72H2689.69V664.06H2702.47V688.72H2729.47V699.34H2702.47ZM2797.05 686.92C2804.49 686.92 2811.15 688.48 2817.03 691.6C2823.03 694.72 2827.71 699.52 2831.07 706C2834.55 712.36 2836.29 720.16 2836.29 729.4V787H2823.87V730.84C2823.87 720.16 2821.17 712 2815.77 706.36C2810.49 700.72 2803.23 697.9 2793.99 697.9C2784.51 697.9 2776.95 700.9 2771.31 706.9C2765.67 712.9 2762.85 721.72 2762.85 733.36V787H2750.25V653.8H2762.85V705.46C2765.97 699.58 2770.53 695.02 2776.53 691.78C2782.65 688.54 2789.49 686.92 2797.05 686.92ZM2907.17 788.44C2897.93 788.44 2889.59 786.4 2882.15 782.32C2874.83 778.12 2869.01 772.24 2864.69 764.68C2860.49 757 2858.39 748.06 2858.39 737.86C2858.39 727.66 2860.55 718.78 2864.87 711.22C2869.19 703.54 2875.07 697.66 2882.51 693.58C2889.95 689.38 2898.29 687.28 2907.53 687.28C2916.77 687.28 2925.11 689.38 2932.55 693.58C2940.11 697.66 2945.99 703.54 2950.19 711.22C2954.51 718.78 2956.67 727.66 2956.67 737.86C2956.67 747.94 2954.51 756.82 2950.19 764.5C2945.87 772.18 2939.93 778.12 2932.37 782.32C2924.81 786.4 2916.41 788.44 2907.17 788.44ZM2907.17 777.46C2913.65 777.46 2919.65 776.02 2925.17 773.14C2930.69 770.14 2935.13 765.7 2938.49 759.82C2941.97 753.82 2943.71 746.5 2943.71 737.86C2943.71 729.22 2942.03 721.96 2938.67 716.08C2935.31 710.08 2930.87 705.64 2925.35 702.76C2919.83 699.76 2913.83 698.26 2907.35 698.26C2900.87 698.26 2894.87 699.76 2889.35 702.76C2883.83 705.64 2879.39 710.08 2876.03 716.08C2872.79 721.96 2871.17 729.22 2871.17 737.86C2871.17 746.5 2872.79 753.82 2876.03 759.82C2879.39 765.7 2883.77 770.14 2889.17 773.14C2894.69 776.02 2900.69 777.46 2907.17 777.46ZM3025.72 686.92C3037.48 686.92 3047.08 690.58 3054.52 697.9C3061.96 705.1 3065.68 715.6 3065.68 729.4V787H3053.26V730.84C3053.26 720.16 3050.56 712 3045.16 706.36C3039.88 700.72 3032.62 697.9 3023.38 697.9C3013.9 697.9 3006.34 700.9 3000.7 706.9C2995.06 712.9 2992.24 721.72 2992.24 733.36V787H2979.64V688.72H2992.24V705.46C2995.36 699.46 2999.86 694.9 3005.74 691.78C3011.62 688.54 3018.28 686.92 3025.72 686.92Z" fill="white"/>
<path d="M3194.89 841.028C3112.02 839.409 3085.77 907.665 3083 941.995V959.872H3111.34V979.324H3194.89V1125.49H3294.65C3295.92 1031.34 3277.76 842.647 3194.89 841.028Z" fill="#7098FE"/>
<path d="M3181.18 959.872H3111.34V979.324H3194.89V1125.49H3294.65C3295.92 1031.34 3277.76 842.647 3194.89 841.028C3112.02 839.409 3085.77 907.665 3083 941.995V959.872H3181.18ZM3181.18 959.872L3184.35 951.552" stroke="#2F2E41" stroke-width="3"/>
<ellipse cx="3165.07" cy="906.224" rx="13.0738" ry="14.2245" fill="white"/>
<rect width="205" height="185" transform="matrix(1 0 0 -1 2297 2576)" fill="url(#paint5_linear_782_1640)"/>
<rect x="1970" y="2576" width="858" height="62" rx="31" fill="url(#paint6_linear_782_1640)"/>
<rect x="1190" y="1095" width="2417" height="1296" rx="80" fill="url(#paint7_linear_782_1640)"/>
<rect x="1249" y="1157" width="2301" height="1117" rx="20" fill="#19191E"/>
<rect x="1301" y="1196" width="2200" height="1026" fill="url(#paint8_linear_782_1640)"/>
<path d="M2582 1595H3210V1919" stroke="#1C2230" stroke-width="12"/>
<path d="M3199 1956C3199 1944.95 3207.95 1936 3219 1936H3369C3380.05 1936 3389 1944.95 3389 1956V2222H3199V1956Z" fill="#262A36"/>
<path d="M3389 2102H3501V2166L3389 2149V2102Z" fill="#181826"/>
<path d="M3023 1663.5C3023 1704.16 2982.95 1742 2927 1742C2871.05 1742 2831 1704.16 2831 1663.5C2831 1622.84 2871.05 1585 2927 1585C2982.95 1585 3023 1622.84 3023 1663.5Z" fill="#160700" stroke="#201108" stroke-width="36"/>
<path d="M3332 1299V1931H2422V1299H3332Z" stroke="#1C2230" stroke-width="17"/>
<path d="M3039.38 1704.36C3016.05 1755.28 2947.68 1781.49 2884.85 1758.92C2822.01 1736.35 2793.6 1675.38 2816.93 1624.47C2840.26 1573.55 2908.63 1547.34 2971.46 1569.91C3034.3 1592.48 3062.71 1653.45 3039.38 1704.36Z" stroke="url(#paint9_linear_782_1640)" stroke-width="27"/>
<path d="M3055.88 1640.23C3052.57 1621.53 3042.46 1608.13 3036.95 1602.9C3036.48 1602.46 3036.55 1601.8 3037.11 1601.52L3056.27 1591.83C3056.68 1591.63 3057.24 1591.69 3057.61 1591.99C3074.59 1605.86 3079.77 1626.94 3080.3 1636.51C3080.32 1636.92 3080 1637.26 3079.52 1637.34L3057.27 1641.07C3056.63 1641.18 3055.98 1640.78 3055.88 1640.23Z" fill="url(#paint10_linear_782_1640)"/>
<path d="M2899.32 1551.86C2876.5 1555.07 2860.78 1563.11 2854.85 1567.35C2854.38 1567.69 2853.63 1567.62 2853.21 1567.19L2840.05 1553.73C2839.7 1553.37 2839.71 1552.87 2840.07 1552.57C2855.74 1539.62 2881.06 1534.96 2892.75 1534.16C2893.28 1534.12 2893.77 1534.41 2893.94 1534.83L2900.12 1550.75C2900.32 1551.26 2899.95 1551.77 2899.32 1551.86Z" fill="url(#paint11_linear_782_1640)"/>
<path d="M2799.64 1690.38C2804.26 1708.32 2813.64 1720.53 2818.51 1725.16C2818.93 1725.56 2818.89 1726.21 2818.41 1726.59L2804.78 1737.37C2804.38 1737.69 2803.79 1737.7 2803.42 1737.39C2788.77 1725.34 2782.46 1705.44 2780.97 1696.13C2780.9 1695.68 2781.2 1695.24 2781.69 1695.08L2798.3 1689.72C2798.88 1689.53 2799.5 1689.84 2799.64 1690.38Z" fill="url(#paint12_linear_782_1640)"/>
<path d="M2963.98 1773.9C2984.39 1770.51 2998.52 1762.7 3003.93 1758.56C3004.41 1758.2 3005.15 1758.26 3005.56 1758.69L3017.22 1771.19C3017.55 1771.54 3017.54 1772.05 3017.18 1772.37C3003.01 1784.87 2980.29 1789.69 2969.73 1790.64C2969.22 1790.69 2968.74 1790.41 2968.59 1789.99L2963.17 1775.06C2962.98 1774.54 2963.36 1774.01 2963.98 1773.9Z" fill="url(#paint13_linear_782_1640)"/>
<path d="M3284.62 1993.54C3290.34 1964.7 3284.04 1940.99 3279.68 1931.54C3279.41 1930.95 3279.71 1930.3 3280.32 1930.16L3310.7 1923.59C3311.14 1923.49 3311.61 1923.71 3311.83 1924.12C3326.66 1950.98 3322.13 1983.79 3317.79 1997.64C3317.66 1998.06 3317.25 1998.31 3316.8 1998.26L3285.56 1994.8C3284.94 1994.73 3284.5 1994.13 3284.62 1993.54Z" fill="#511E07"/>
<path d="M3123.9 1786.28C3089.15 1778.76 3059.75 1779.52 3046.17 1781.21C3044.13 1781.47 3042.17 1780.23 3041.62 1778.25L3036.71 1760.64C3036.09 1758.41 3037.48 1756.11 3039.77 1755.72C3073.57 1749.9 3112.11 1756.63 3130.87 1761.69C3132.98 1762.26 3134.18 1764.47 3133.56 1766.57L3128.65 1783.47C3128.05 1785.51 3125.97 1786.72 3123.9 1786.28Z" fill="#511E07"/>
<path d="M3248.02 1856.1C3228.73 1832.9 3205.79 1818.43 3194.03 1812.74C3192.38 1811.95 3191.81 1810.31 3192.83 1809.08L3207.19 1791.72C3208.11 1790.61 3210.01 1790.22 3211.56 1790.86C3243.45 1804 3266.96 1829.52 3276.19 1842.64C3276.99 1843.78 3276.5 1845.15 3275.1 1845.85L3252.85 1856.93C3251.25 1857.73 3249.06 1857.34 3248.02 1856.1Z" fill="#511E07"/>
<path d="M2956.06 1815.51C2920.54 1828.56 2898.28 1846.13 2890.84 1854.01C2890.49 1854.39 2889.78 1854.46 2889.26 1854.16L2863.84 1839.72C2863.35 1839.44 2863.21 1838.93 2863.52 1838.56C2883.81 1814.45 2922.3 1798.6 2940.04 1793.36C2940.56 1793.2 2941.16 1793.39 2941.45 1793.78L2956.5 1814.35C2956.82 1814.78 2956.61 1815.31 2956.06 1815.51Z" fill="#511E07"/>
<path d="M2852.97 1927.45C2846.24 1956.77 2851.68 1980.22 2855.7 1989.46C2855.95 1990.04 2855.62 1990.72 2855.01 1990.89L2824.49 1999.31C2824.05 1999.43 2823.59 1999.24 2823.38 1998.84C2809.55 1972.73 2815.22 1939.48 2820.04 1925.3C2820.19 1924.87 2820.6 1924.6 2821.05 1924.62L2852.07 1926.24C2852.69 1926.27 2853.11 1926.85 2852.97 1927.45Z" fill="#511E07"/>
<path d="M2888.16 2066.27C2908.61 2091.06 2932.68 2104.25 2943.27 2108.21C2943.84 2108.43 2944.09 2109.02 2943.8 2109.52L2929.71 2133.6C2929.47 2134.02 2928.91 2134.22 2928.42 2134.06C2896.52 2124.1 2872.16 2097.48 2863.44 2084.68C2863.17 2084.29 2863.28 2083.8 2863.68 2083.5L2886.61 2066.12C2887.08 2065.76 2887.8 2065.83 2888.16 2066.27Z" fill="#511E07"/>
<path d="M3284.62 1993.54C3290.35 1964.7 3284.05 1940.99 3279.68 1931.54C3279.41 1930.95 3279.71 1930.3 3280.33 1930.16L3310.7 1923.59C3311.14 1923.49 3311.61 1923.71 3311.84 1924.12C3326.66 1950.98 3322.14 1983.79 3317.8 1997.64C3317.66 1998.06 3317.26 1998.31 3316.8 1998.26L3285.56 1994.8C3284.95 1994.73 3284.51 1994.13 3284.62 1993.54Z" fill="#511E07"/>
<path d="M3272.73 1960.87C3272.73 2045.69 3186.74 2121.63 3070.87 2121.63C2955 2121.63 2869.01 2045.69 2869.01 1960.87C2869.01 1876.05 2955 1800.11 3070.87 1800.11C3186.74 1800.11 3272.73 1876.05 3272.73 1960.87Z" stroke="url(#paint14_linear_782_1640)" stroke-width="44"/>
<path d="M2956.06 1815.51C2920.54 1828.56 2898.28 1846.13 2890.84 1854.01C2890.49 1854.39 2889.78 1854.46 2889.26 1854.16L2863.84 1839.72C2863.35 1839.44 2863.21 1838.93 2863.52 1838.56C2883.81 1814.45 2922.3 1798.6 2940.04 1793.36C2940.56 1793.2 2941.16 1793.39 2941.45 1793.78L2956.5 1814.35C2956.82 1814.78 2956.61 1815.31 2956.06 1815.51Z" fill="#511E07"/>
<path d="M2852.97 1927.45C2846.24 1956.77 2851.68 1980.22 2855.7 1989.46C2855.95 1990.04 2855.62 1990.72 2855.01 1990.89L2824.49 1999.31C2824.05 1999.43 2823.59 1999.24 2823.38 1998.84C2809.55 1972.73 2815.22 1939.48 2820.04 1925.3C2820.19 1924.87 2820.6 1924.6 2821.05 1924.62L2852.07 1926.24C2852.69 1926.27 2853.11 1926.85 2852.97 1927.45Z" fill="#511E07"/>
<path d="M2888.16 2066.27C2908.62 2091.06 2932.68 2104.25 2943.28 2108.21C2943.85 2108.43 2944.09 2109.02 2943.8 2109.52L2929.71 2133.6C2929.47 2134.02 2928.92 2134.22 2928.42 2134.06C2896.52 2124.1 2872.17 2097.48 2863.44 2084.68C2863.18 2084.29 2863.28 2083.8 2863.68 2083.5L2886.62 2066.12C2887.09 2065.76 2887.8 2065.83 2888.16 2066.27Z" fill="#511E07"/>
<path d="M3203.62 2103.22C3233.9 2087.05 3250.53 2067.41 3255.67 2058.67C3255.95 2058.19 3256.68 2058 3257.25 2058.26L3285.44 2071.01C3285.91 2071.23 3286.11 2071.68 3285.91 2072.09C3272.81 2098.45 3240.15 2117.85 3224.56 2124.67C3224.09 2124.87 3223.53 2124.77 3223.2 2124.45L3203.35 2104.51C3202.94 2104.11 3203.08 2103.51 3203.62 2103.22Z" fill="#511E07"/>
<path d="M3046.11 2139.08C3081.31 2146.05 3109.86 2142.26 3120.8 2139.23C3121.33 2139.08 3121.91 2139.39 3122.09 2139.93L3130.82 2165.61C3130.99 2166.12 3130.74 2166.65 3130.24 2166.82C3098.61 2177.33 3059.3 2171.26 3042.6 2166.66C3042.1 2166.53 3041.78 2166.04 3041.84 2165.54L3044.97 2139.88C3045.04 2139.33 3045.56 2138.97 3046.11 2139.08Z" fill="#511E07"/>
<rect x="2856" y="1251" width="586" height="245" rx="24" fill="#0F0E0E"/>
<rect x="2890" y="1292" width="25" height="3" rx="1.5" fill="#27275C"/>
<rect x="3039" y="1314" width="9" height="4" rx="2" fill="#27275C"/>
<rect x="2916" y="1292" width="53" height="3" rx="1.5" fill="#27275C"/>
<rect x="2924" y="1308" width="24" height="2" rx="1" fill="#27275C"/>
<rect x="2948" y="1308" width="78" height="2" rx="1" fill="#27275C"/>
<rect x="2924" y="1314" width="24" height="4" rx="2" fill="#27275C"/>
<rect x="2948" y="1314" width="84" height="4" rx="2" fill="#27275C"/>
<rect x="2924" y="1325" width="31" height="3" rx="1.5" fill="#27275C"/>
<rect x="2955" y="1325" width="106" height="3" rx="1.5" fill="#27275C"/>
<rect x="2940" y="1320" width="29" height="3" rx="1.5" fill="#27275C"/>
<rect x="2971" y="1320" width="174" height="3" rx="1.5" fill="#27275C"/>
<rect x="2890" y="1297" width="50" height="3" rx="1.5" fill="#27275C"/>
<rect x="2944" y="1297" width="65" height="3" rx="1.5" fill="#27275C"/>
<rect x="2907" y="1303" width="51" height="2" rx="1" fill="#27275C"/>
<rect x="2961" y="1303" width="109" height="2" rx="1" fill="#27275C"/>
<rect x="2890" y="1349" width="12" height="2" rx="1" fill="#27275C"/>
<rect x="3009" y="1297" width="17" height="3" rx="1.5" fill="#27275C"/>
<rect x="2890" y="1337" width="54" height="3" rx="1.5" fill="#27275C"/>
<rect x="2902" y="1342" width="76" height="3" rx="1.5" fill="#27275C"/>
<rect x="2907" y="1332" width="41" height="2" rx="1" fill="#27275C"/>
<rect x="2971" y="1292" width="129" height="3" rx="1.5" fill="#27275C"/>
<rect width="25" height="2" rx="1" transform="matrix(1 0 0 -1 2890 1429)" fill="#27275C"/>
<rect width="9" height="3" rx="1.5" transform="matrix(1 0 0 -1 3039 1403)" fill="#27275C"/>
<rect width="10" height="4" rx="2" transform="matrix(1 0 0 -1 2916 1441)" fill="#27275C"/>
<rect width="53" height="2" rx="1" transform="matrix(1 0 0 -1 2916 1429)" fill="#27275C"/>
<rect width="24" height="2" rx="1" transform="matrix(1 0 0 -1 2924 1410)" fill="#27275C"/>
<rect width="78" height="2" rx="1" transform="matrix(1 0 0 -1 2948 1410)" fill="#27275C"/>
<rect width="24" height="3" rx="1.5" transform="matrix(1 0 0 -1 2924 1403)" fill="#27275C"/>
<rect width="84" height="3" rx="1.5" transform="matrix(1 0 0 -1 2948 1403)" fill="#27275C"/>
<rect width="31" height="5" rx="2.5" transform="matrix(1 0 0 -1 2924 1391)" fill="#27275C"/>
<rect width="106" height="5" rx="2.5" transform="matrix(1 0 0 -1 2955 1391)" fill="#27275C"/>
<rect width="29" height="3" rx="1.5" transform="matrix(1 0 0 -1 2940 1398)" fill="#27275C"/>
<rect width="174" height="3" rx="1.5" transform="matrix(1 0 0 -1 2971 1398)" fill="#27275C"/>
<rect width="50" height="2" rx="1" transform="matrix(1 0 0 -1 2890 1423)" fill="#27275C"/>
<rect width="65" height="2" rx="1" transform="matrix(1 0 0 -1 2944 1423)" fill="#27275C"/>
<rect width="51" height="3" rx="1.5" transform="matrix(1 0 0 -1 2907 1417)" fill="#27275C"/>
<rect width="109" height="3" rx="1.5" transform="matrix(1 0 0 -1 2961 1417)" fill="#27275C"/>
<rect width="17" height="2" rx="1" transform="matrix(1 0 0 -1 3009 1423)" fill="#27275C"/>
<rect width="54" height="2" rx="1" transform="matrix(1 0 0 -1 2890 1377)" fill="#27275C"/>
<rect width="76" height="4" rx="2" transform="matrix(1 0 0 -1 2902 1371)" fill="#27275C"/>
<rect width="41" height="4" rx="2" transform="matrix(1 0 0 -1 2907 1384)" fill="#27275C"/>
<rect width="129" height="2" rx="1" transform="matrix(1 0 0 -1 2971 1429)" fill="#27275C"/>
<rect x="3184" y="1292" width="10" height="3" rx="1.5" fill="#27275C"/>
<rect x="3239" y="1314" width="3" height="4" rx="1.5" fill="#27275C"/>
<rect x="3194" y="1292" width="19" height="3" rx="1.5" fill="#27275C"/>
<rect x="3197" y="1308" width="9" height="2" rx="1" fill="#27275C"/>
<rect x="3206" y="1308" width="28" height="2" rx="1" fill="#27275C"/>
<rect x="3197" y="1314" width="9" height="4" rx="2" fill="#27275C"/>
<rect x="3206" y="1314" width="30" height="4" rx="2" fill="#27275C"/>
<rect x="3197" y="1325" width="11" height="3" rx="1.5" fill="#27275C"/>
<rect x="3208" y="1325" width="38" height="3" rx="1.5" fill="#27275C"/>
<rect x="3202" y="1320" width="11" height="3" rx="1.5" fill="#27275C"/>
<rect x="3214" y="1320" width="63" height="3" rx="1.5" fill="#27275C"/>
<rect x="3184" y="1297" width="18" height="3" rx="1.5" fill="#27275C"/>
<rect x="3204" y="1297" width="24" height="3" rx="1.5" fill="#27275C"/>
<rect x="3190" y="1303" width="19" height="2" rx="1" fill="#27275C"/>
<rect x="3211" y="1303" width="39" height="2" rx="1" fill="#27275C"/>
<rect x="3184" y="1349" width="5" height="2" rx="1" fill="#27275C"/>
<rect x="3228" y="1297" width="6" height="3" rx="1.5" fill="#27275C"/>
<rect x="3184" y="1337" width="20" height="3" rx="1.5" fill="#27275C"/>
<rect x="3189" y="1342" width="28" height="3" rx="1.5" fill="#27275C"/>
<rect x="3190" y="1332" width="16" height="2" rx="1" fill="#27275C"/>
<rect x="3214" y="1292" width="47" height="3" rx="1.5" fill="#27275C"/>
<rect width="10" height="2" rx="1" transform="matrix(1 0 0 -1 3184 1429)" fill="#27275C"/>
<rect width="3" height="3" rx="1.5" transform="matrix(1 0 0 -1 3239 1403)" fill="#27275C"/>
<rect width="3" height="4" rx="1.5" transform="matrix(1 0 0 -1 3194 1441)" fill="#27275C"/>
<rect width="19" height="2" rx="1" transform="matrix(1 0 0 -1 3194 1429)" fill="#27275C"/>
<rect width="9" height="2" rx="1" transform="matrix(1 0 0 -1 3197 1410)" fill="#27275C"/>
<rect width="28" height="2" rx="1" transform="matrix(1 0 0 -1 3206 1410)" fill="#27275C"/>
<rect width="9" height="3" rx="1.5" transform="matrix(1 0 0 -1 3197 1403)" fill="#27275C"/>
<rect width="30" height="3" rx="1.5" transform="matrix(1 0 0 -1 3206 1403)" fill="#27275C"/>
<rect width="11" height="5" rx="2.5" transform="matrix(1 0 0 -1 3197 1391)" fill="#27275C"/>
<rect width="38" height="5" rx="2.5" transform="matrix(1 0 0 -1 3208 1391)" fill="#27275C"/>
<rect width="11" height="3" rx="1.5" transform="matrix(1 0 0 -1 3202 1398)" fill="#27275C"/>
<rect width="63" height="3" rx="1.5" transform="matrix(1 0 0 -1 3214 1398)" fill="#27275C"/>
<rect width="18" height="2" rx="1" transform="matrix(1 0 0 -1 3184 1423)" fill="#27275C"/>
<rect width="24" height="2" rx="1" transform="matrix(1 0 0 -1 3204 1423)" fill="#27275C"/>
<rect width="19" height="3" rx="1.5" transform="matrix(1 0 0 -1 3190 1417)" fill="#27275C"/>
<rect width="39" height="3" rx="1.5" transform="matrix(1 0 0 -1 3211 1417)" fill="#27275C"/>
<rect width="6" height="2" rx="1" transform="matrix(1 0 0 -1 3228 1423)" fill="#27275C"/>
<rect width="20" height="2" rx="1" transform="matrix(1 0 0 -1 3184 1377)" fill="#27275C"/>
<rect width="28" height="4" rx="2" transform="matrix(1 0 0 -1 3189 1371)" fill="#27275C"/>
<rect width="16" height="4" rx="2" transform="matrix(1 0 0 -1 3190 1384)" fill="#27275C"/>
<rect width="47" height="2" rx="1" transform="matrix(1 0 0 -1 3214 1429)" fill="#27275C"/>
<rect x="3299" y="1292" width="10" height="3" rx="1.5" fill="#27275C"/>
<rect x="3354" y="1314" width="3" height="4" rx="1.5" fill="#27275C"/>
<rect x="3309" y="1292" width="19" height="3" rx="1.5" fill="#27275C"/>
<rect x="3312" y="1308" width="9" height="2" rx="1" fill="#27275C"/>
<rect x="3321" y="1308" width="28" height="2" rx="1" fill="#27275C"/>
<rect x="3312" y="1314" width="9" height="4" rx="2" fill="#27275C"/>
<rect x="3321" y="1314" width="30" height="4" rx="2" fill="#27275C"/>
<rect x="3312" y="1325" width="11" height="3" rx="1.5" fill="#27275C"/>
<rect x="3323" y="1325" width="38" height="3" rx="1.5" fill="#27275C"/>
<rect x="3317" y="1320" width="11" height="3" rx="1.5" fill="#27275C"/>
<rect x="3329" y="1320" width="63" height="3" rx="1.5" fill="#27275C"/>
<rect x="3299" y="1297" width="18" height="3" rx="1.5" fill="#27275C"/>
<rect x="3319" y="1297" width="24" height="3" rx="1.5" fill="#27275C"/>
<rect x="3305" y="1303" width="19" height="2" rx="1" fill="#27275C"/>
<rect x="3326" y="1303" width="39" height="2" rx="1" fill="#27275C"/>
<rect x="3299" y="1349" width="5" height="2" rx="1" fill="#27275C"/>
<rect x="3343" y="1297" width="6" height="3" rx="1.5" fill="#27275C"/>
<rect x="3299" y="1337" width="20" height="3" rx="1.5" fill="#27275C"/>
<rect x="3304" y="1342" width="28" height="3" rx="1.5" fill="#27275C"/>
<rect x="3305" y="1332" width="16" height="2" rx="1" fill="#27275C"/>
<rect x="3329" y="1292" width="47" height="3" rx="1.5" fill="#27275C"/>
<rect width="10" height="2" rx="1" transform="matrix(1 0 0 -1 3299 1429)" fill="#27275C"/>
<rect width="3" height="3" rx="1.5" transform="matrix(1 0 0 -1 3354 1403)" fill="#27275C"/>
<rect width="3" height="4" rx="1.5" transform="matrix(1 0 0 -1 3309 1441)" fill="#27275C"/>
<rect width="19" height="2" rx="1" transform="matrix(1 0 0 -1 3309 1429)" fill="#27275C"/>
<rect width="9" height="2" rx="1" transform="matrix(1 0 0 -1 3312 1410)" fill="#27275C"/>
<rect width="28" height="2" rx="1" transform="matrix(1 0 0 -1 3321 1410)" fill="#27275C"/>
<rect width="9" height="3" rx="1.5" transform="matrix(1 0 0 -1 3312 1403)" fill="#27275C"/>
<rect width="30" height="3" rx="1.5" transform="matrix(1 0 0 -1 3321 1403)" fill="#27275C"/>
<rect width="11" height="5" rx="2.5" transform="matrix(1 0 0 -1 3312 1391)" fill="#27275C"/>
<rect width="38" height="5" rx="2.5" transform="matrix(1 0 0 -1 3323 1391)" fill="#27275C"/>
<rect width="11" height="3" rx="1.5" transform="matrix(1 0 0 -1 3317 1398)" fill="#27275C"/>
<rect width="63" height="3" rx="1.5" transform="matrix(1 0 0 -1 3329 1398)" fill="#27275C"/>
<rect width="18" height="2" rx="1" transform="matrix(1 0 0 -1 3299 1423)" fill="#27275C"/>
<rect width="24" height="2" rx="1" transform="matrix(1 0 0 -1 3319 1423)" fill="#27275C"/>
<rect width="19" height="3" rx="1.5" transform="matrix(1 0 0 -1 3305 1417)" fill="#27275C"/>
<rect width="39" height="3" rx="1.5" transform="matrix(1 0 0 -1 3326 1417)" fill="#27275C"/>
<rect width="6" height="2" rx="1" transform="matrix(1 0 0 -1 3343 1423)" fill="#27275C"/>
<rect width="20" height="2" rx="1" transform="matrix(1 0 0 -1 3299 1377)" fill="#27275C"/>
<rect width="28" height="4" rx="2" transform="matrix(1 0 0 -1 3304 1371)" fill="#27275C"/>
<rect width="16" height="4" rx="2" transform="matrix(1 0 0 -1 3305 1384)" fill="#27275C"/>
<rect width="47" height="2" rx="1" transform="matrix(1 0 0 -1 3329 1429)" fill="#27275C"/>
<path d="M3075 2101.5C3124.16 2101.5 3169.14 2086.3 3202.09 2061.15C3235.05 2035.99 3256.5 2000.34 3256.5 1960C3256.5 1919.66 3235.05 1884.01 3202.09 1858.85C3169.14 1833.7 3124.16 1818.5 3075 1818.5C3025.84 1818.5 2980.86 1833.7 2947.91 1858.85C2914.95 1884.01 2893.5 1919.66 2893.5 1960C2893.5 2000.34 2914.95 2035.99 2947.91 2061.15C2980.86 2086.3 3025.84 2101.5 3075 2101.5Z" fill="#160700" stroke="#201108" stroke-width="25"/>
<path d="M2719.5 1898.5C2719.5 1994.93 2616.69 2084.5 2474 2084.5C2331.31 2084.5 2228.5 1994.93 2228.5 1898.5C2228.5 1802.07 2331.31 1712.5 2474 1712.5C2616.69 1712.5 2719.5 1802.07 2719.5 1898.5Z" fill="#160700" stroke="#201108" stroke-width="59"/>
<rect x="3169" y="1565" width="82" height="61" rx="23" fill="#0A0808"/>
<path d="M2801.38 1897.34C2799.86 1853.45 2782 1820.52 2772.46 1808.43C2772.05 1807.91 2772.2 1807.21 2772.77 1806.97L2815.41 1788.88C2815.82 1788.7 2816.34 1788.83 2816.65 1789.19C2847.81 1824.02 2852.46 1873.04 2850.86 1894.03C2850.83 1894.46 2850.49 1894.77 2850.03 1894.81L2802.6 1898.4C2801.98 1898.44 2801.4 1897.94 2801.38 1897.34Z" fill="#511E07"/>
<path d="M2505.92 1646.58C2446.57 1648.06 2400.64 1662.15 2384.16 1669.38C2383.69 1669.58 2383.15 1669.4 2382.87 1668.96L2362.93 1637.4C2362.62 1636.9 2362.79 1636.27 2363.3 1636.02C2412.32 1612.33 2477.7 1608.41 2505.41 1609.42C2505.96 1609.44 2506.38 1609.89 2506.39 1610.44L2506.86 1645.62C2506.87 1646.15 2506.45 1646.57 2505.92 1646.58Z" fill="#511E07"/>
<path d="M2697.74 1716.1C2658.39 1684.45 2615.63 1669.25 2597.94 1665.29C2597.33 1665.16 2597.03 1664.66 2597.27 1664.2L2614.91 1629.86C2615.12 1629.44 2615.72 1629.2 2616.28 1629.3C2670.61 1639.23 2716.46 1672.7 2733.3 1688.84C2733.64 1689.16 2733.58 1689.62 2733.17 1689.94L2699.39 1716.08C2698.92 1716.44 2698.17 1716.44 2697.74 1716.1Z" fill="#511E07"/>
<path d="M2263.95 1729.71C2216.21 1758.5 2189.78 1790.33 2181.98 1803.51C2181.72 1803.95 2181.04 1804.13 2180.46 1803.94L2137.66 1789.75C2137.11 1789.57 2136.85 1789.1 2137.07 1788.68C2158.2 1748.07 2209.23 1714.47 2233.06 1702.23C2233.53 1701.99 2234.16 1702.06 2234.53 1702.39L2264.12 1728.49C2264.53 1728.85 2264.45 1729.4 2263.95 1729.71Z" fill="#511E07"/>
<path d="M2152.58 1918.58C2152.8 1963.48 2169.29 1996.25 2178.27 2008.13C2178.65 2008.64 2178.49 2009.36 2177.93 2009.64L2135.72 2030.48C2135.32 2030.68 2134.82 2030.58 2134.52 2030.23C2105.07 1996.22 2101.95 1946.24 2104.12 1924.64C2104.17 1924.2 2104.51 1923.86 2104.96 1923.8L2151.43 1917.57C2152.03 1917.48 2152.58 1917.97 2152.58 1918.58Z" fill="#511E07"/>
<path d="M2251.06 2109.06C2289.81 2139.75 2329.94 2152.2 2346.39 2154.84C2347 2154.94 2347.38 2155.48 2347.21 2156.01L2334.8 2195.36C2334.66 2195.81 2334.16 2196.11 2333.64 2196.05C2283.49 2190.49 2238.56 2158.34 2221.66 2142.33C2221.31 2142 2221.31 2141.51 2221.62 2141.14L2249.5 2109.19C2249.88 2108.76 2250.6 2108.7 2251.06 2109.06Z" fill="#511E07"/>
<path d="M2801.39 1897.34C2799.86 1853.45 2782.01 1820.52 2772.47 1808.43C2772.06 1807.91 2772.2 1807.21 2772.77 1806.97L2815.41 1788.88C2815.82 1788.7 2816.34 1788.83 2816.66 1789.19C2847.82 1824.02 2852.47 1873.04 2850.87 1894.03C2850.83 1894.46 2850.49 1894.77 2850.03 1894.81L2802.6 1898.4C2801.98 1898.44 2801.41 1897.94 2801.39 1897.34Z" fill="#511E07"/>
<path d="M2771.56 1853.51C2800.81 1975.72 2702.18 2108.37 2534.25 2139.88C2366.32 2171.39 2215.38 2085.57 2186.12 1963.36C2156.87 1841.15 2255.5 1708.5 2423.43 1676.99C2591.36 1645.48 2742.3 1731.3 2771.56 1853.51Z" stroke="url(#paint15_linear_782_1640)" stroke-width="65"/>
<path d="M2505.92 1646.58C2446.57 1648.06 2400.64 1662.15 2384.16 1669.38C2383.69 1669.58 2383.15 1669.4 2382.87 1668.96L2362.93 1637.4C2362.62 1636.9 2362.79 1636.27 2363.3 1636.02C2412.32 1612.33 2477.7 1608.41 2505.41 1609.42C2505.96 1609.44 2506.38 1609.89 2506.39 1610.44L2506.86 1645.62C2506.87 1646.15 2506.45 1646.57 2505.92 1646.58Z" fill="#511E07"/>
<path d="M2697.75 1716.1C2658.4 1684.45 2615.63 1669.25 2597.95 1665.29C2597.34 1665.16 2597.04 1664.66 2597.28 1664.2L2614.91 1629.86C2615.13 1629.44 2615.72 1629.2 2616.28 1629.3C2670.61 1639.23 2716.47 1672.7 2733.31 1688.84C2733.65 1689.16 2733.58 1689.62 2733.18 1689.94L2699.39 1716.08C2698.93 1716.44 2698.18 1716.44 2697.75 1716.1Z" fill="#511E07"/>
<path d="M2263.95 1729.71C2216.21 1758.5 2189.78 1790.33 2181.98 1803.51C2181.72 1803.95 2181.04 1804.13 2180.46 1803.94L2137.66 1789.75C2137.11 1789.57 2136.85 1789.1 2137.07 1788.68C2158.2 1748.07 2209.23 1714.47 2233.06 1702.23C2233.53 1701.99 2234.16 1702.06 2234.53 1702.39L2264.12 1728.49C2264.53 1728.85 2264.45 1729.4 2263.95 1729.71Z" fill="#511E07"/>
<path d="M2152.58 1918.58C2152.8 1963.48 2169.29 1996.25 2178.27 2008.13C2178.65 2008.64 2178.49 2009.36 2177.93 2009.64L2135.72 2030.48C2135.32 2030.68 2134.82 2030.58 2134.52 2030.23C2105.07 1996.22 2101.95 1946.24 2104.12 1924.64C2104.17 1924.2 2104.51 1923.86 2104.96 1923.8L2151.43 1917.57C2152.03 1917.48 2152.58 1917.97 2152.58 1918.58Z" fill="#511E07"/>
<path d="M2251.06 2109.06C2289.81 2139.75 2329.94 2152.2 2346.39 2154.84C2347 2154.94 2347.38 2155.48 2347.21 2156.01L2334.8 2195.36C2334.66 2195.81 2334.16 2196.11 2333.64 2196.05C2283.49 2190.49 2238.56 2158.34 2221.66 2142.33C2221.31 2142 2221.31 2141.51 2221.62 2141.14L2249.5 2109.19C2249.88 2108.76 2250.6 2108.7 2251.06 2109.06Z" fill="#511E07"/>
<path d="M2721.28 2077.06C2760.35 2045.07 2777.76 2011.71 2781.97 1997.96C2782.13 1997.44 2782.8 1997.12 2783.42 1997.27L2829.67 2008.2C2830.18 2008.32 2830.49 2008.72 2830.39 2009.15C2820.58 2051.05 2779.31 2088.2 2759.12 2102.12C2758.7 2102.41 2758.13 2102.41 2757.74 2102.15L2721.31 2078.37C2720.82 2078.05 2720.81 2077.44 2721.28 2077.06Z" fill="#511E07"/>
<path d="M2505.13 2171.18C2559.35 2171.74 2599.92 2158.18 2614.42 2150.87C2614.91 2150.63 2615.53 2150.83 2615.84 2151.32L2637.86 2186.72C2638.15 2187.19 2638.02 2187.75 2637.58 2188.01C2595.06 2212.09 2535.24 2213.96 2509.59 2211.82C2509.07 2211.77 2508.65 2211.36 2508.59 2210.86L2504.19 2172.17C2504.12 2171.62 2504.55 2171.18 2505.13 2171.18Z" fill="#511E07"/>
<path d="M1249 1178.19C1249 1166.59 1258.4 1157.19 1270 1157.19H2590.89C2612.13 1157.19 2619.94 1129.25 2601.78 1118.23L2552.5 1088.34C2538.51 1079.86 2520.61 1089.93 2520.61 1106.3V2155.72C2520.61 2162.37 2523.77 2168.63 2529.11 2172.59L2614.87 2236.13C2631.14 2248.18 2622.62 2274 2602.37 2274H1270C1258.4 2274 1249 2264.6 1249 2253V1178.19Z" fill="#FFE7D5"/>
<path d="M1249 1169.2C1249 1159.26 1257.06 1151.2 1267 1151.2H2666L2539.26 1146.67C2529.07 1146.3 2520.61 1154.46 2520.61 1164.65V1193.42C2520.61 1203.06 2528.2 1210.99 2537.83 1211.41L2666 1217H1267C1257.06 1217 1249 1208.94 1249 1199V1169.2Z" fill="#181414"/>
<path d="M2166 1214C2166 1265.74 2176.99 1316.97 2198.35 1364.78C2219.71 1412.58 2251.01 1456.01 2290.48 1492.6C2329.94 1529.19 2376.8 1558.21 2428.36 1578.01C2479.92 1597.81 2535.19 1608 2591 1608L2591 1214H2166Z" fill="#511E07"/>
<rect x="3328" y="2136" width="41" height="15" fill="#008000"/>
<rect x="3328" y="2102" width="41" height="15" fill="#FF0000"/>
<rect x="1396" y="2013" width="356" height="39" rx="19.5" fill="#511E07"/>
<rect x="1386" y="1252" width="356" height="56" rx="28" fill="#511E07"/>
<rect x="1769" y="2072" width="150" height="23" rx="11.5" fill="#1A1011"/>
<rect x="1396" y="2106" width="187" height="23" rx="11.5" fill="#1A1011"/>
<rect x="1951" y="2140" width="178" height="23" rx="11.5" fill="#1A1011"/>
<rect x="1396" y="2140" width="541" height="23" rx="11.5" fill="#1A1011"/>
<rect x="1831" y="2106" width="206" height="23" rx="11.5" fill="#1A1011"/>
<rect x="1589" y="2106" width="240" height="23" rx="11.5" fill="#1A1011"/>
<rect x="1925" y="2072" width="204" height="23" rx="11.5" fill="#1A1011"/>
<rect x="1396" y="2072" width="356" height="23" rx="11.5" fill="#1A1011"/>
<rect x="2461" y="1772" width="83" height="15" rx="7.5" fill="#1A1011"/>
<rect x="2495" y="1794" width="115" height="14" rx="7" fill="#1A1011"/>
<rect x="2461" y="1843" width="83" height="15" rx="7.5" fill="#1A1011"/>
<rect x="2495" y="1865" width="115" height="14" rx="7" fill="#1A1011"/>
<g filter="url(#filter0_d_782_1640)">
<rect width="388" height="635" rx="42" transform="matrix(-1 0 0 1 2587 1525)" fill="#2F4858"/>
</g>
<path d="M2259.45 1654.65C2259.45 1644.45 2261.75 1635.3 2266.35 1627.2C2270.95 1619 2277.2 1612.6 2285.1 1608C2293.1 1603.4 2301.95 1601.1 2311.65 1601.1C2323.05 1601.1 2333 1603.85 2341.5 1609.35C2350 1614.85 2356.2 1622.65 2360.1 1632.75H2343.75C2340.85 1626.45 2336.65 1621.6 2331.15 1618.2C2325.75 1614.8 2319.25 1613.1 2311.65 1613.1C2304.35 1613.1 2297.8 1614.8 2292 1618.2C2286.2 1621.6 2281.65 1626.45 2278.35 1632.75C2275.05 1638.95 2273.4 1646.25 2273.4 1654.65C2273.4 1662.95 2275.05 1670.25 2278.35 1676.55C2281.65 1682.75 2286.2 1687.55 2292 1690.95C2297.8 1694.35 2304.35 1696.05 2311.65 1696.05C2319.25 1696.05 2325.75 1694.4 2331.15 1691.1C2336.65 1687.7 2340.85 1682.85 2343.75 1676.55H2360.1C2356.2 1686.55 2350 1694.3 2341.5 1699.8C2333 1705.2 2323.05 1707.9 2311.65 1707.9C2301.95 1707.9 2293.1 1705.65 2285.1 1701.15C2277.2 1696.55 2270.95 1690.2 2266.35 1682.1C2261.75 1674 2259.45 1664.85 2259.45 1654.65ZM2413.57 1708.05C2406.67 1708.05 2400.47 1706.85 2394.97 1704.45C2389.57 1701.95 2385.32 1698.55 2382.22 1694.25C2379.12 1689.85 2377.52 1684.8 2377.42 1679.1H2391.97C2392.47 1684 2394.47 1688.15 2397.97 1691.55C2401.57 1694.85 2406.77 1696.5 2413.57 1696.5C2420.07 1696.5 2425.17 1694.9 2428.87 1691.7C2432.67 1688.4 2434.57 1684.2 2434.57 1679.1C2434.57 1675.1 2433.47 1671.85 2431.27 1669.35C2429.07 1666.85 2426.32 1664.95 2423.02 1663.65C2419.72 1662.35 2415.27 1660.95 2409.67 1659.45C2402.77 1657.65 2397.22 1655.85 2393.02 1654.05C2388.92 1652.25 2385.37 1649.45 2382.37 1645.65C2379.47 1641.75 2378.02 1636.55 2378.02 1630.05C2378.02 1624.35 2379.47 1619.3 2382.37 1614.9C2385.27 1610.5 2389.32 1607.1 2394.52 1604.7C2399.82 1602.3 2405.87 1601.1 2412.67 1601.1C2422.47 1601.1 2430.47 1603.55 2436.67 1608.45C2442.97 1613.35 2446.52 1619.85 2447.32 1627.95H2432.32C2431.82 1623.95 2429.72 1620.45 2426.02 1617.45C2422.32 1614.35 2417.42 1612.8 2411.32 1612.8C2405.62 1612.8 2400.97 1614.3 2397.37 1617.3C2393.77 1620.2 2391.97 1624.3 2391.97 1629.6C2391.97 1633.4 2393.02 1636.5 2395.12 1638.9C2397.32 1641.3 2399.97 1643.15 2403.07 1644.45C2406.27 1645.65 2410.72 1647.05 2416.42 1648.65C2423.32 1650.55 2428.87 1652.45 2433.07 1654.35C2437.27 1656.15 2440.87 1659 2443.87 1662.9C2446.87 1666.7 2448.37 1671.9 2448.37 1678.5C2448.37 1683.6 2447.02 1688.4 2444.32 1692.9C2441.62 1697.4 2437.62 1701.05 2432.32 1703.85C2427.02 1706.65 2420.77 1708.05 2413.57 1708.05ZM2501.61 1708.05C2494.71 1708.05 2488.51 1706.85 2483.01 1704.45C2477.61 1701.95 2473.36 1698.55 2470.26 1694.25C2467.16 1689.85 2465.56 1684.8 2465.46 1679.1H2480.01C2480.51 1684 2482.51 1688.15 2486.01 1691.55C2489.61 1694.85 2494.81 1696.5 2501.61 1696.5C2508.11 1696.5 2513.21 1694.9 2516.91 1691.7C2520.71 1688.4 2522.61 1684.2 2522.61 1679.1C2522.61 1675.1 2521.51 1671.85 2519.31 1669.35C2517.11 1666.85 2514.36 1664.95 2511.06 1663.65C2507.76 1662.35 2503.31 1660.95 2497.71 1659.45C2490.81 1657.65 2485.26 1655.85 2481.06 1654.05C2476.96 1652.25 2473.41 1649.45 2470.41 1645.65C2467.51 1641.75 2466.06 1636.55 2466.06 1630.05C2466.06 1624.35 2467.51 1619.3 2470.41 1614.9C2473.31 1610.5 2477.36 1607.1 2482.56 1604.7C2487.86 1602.3 2493.91 1601.1 2500.71 1601.1C2510.51 1601.1 2518.51 1603.55 2524.71 1608.45C2531.01 1613.35 2534.56 1619.85 2535.36 1627.95H2520.36C2519.86 1623.95 2517.76 1620.45 2514.06 1617.45C2510.36 1614.35 2505.46 1612.8 2499.36 1612.8C2493.66 1612.8 2489.01 1614.3 2485.41 1617.3C2481.81 1620.2 2480.01 1624.3 2480.01 1629.6C2480.01 1633.4 2481.06 1636.5 2483.16 1638.9C2485.36 1641.3 2488.01 1643.15 2491.11 1644.45C2494.31 1645.65 2498.76 1647.05 2504.46 1648.65C2511.36 1650.55 2516.91 1652.45 2521.11 1654.35C2525.31 1656.15 2528.91 1659 2531.91 1662.9C2534.91 1666.7 2536.41 1671.9 2536.41 1678.5C2536.41 1683.6 2535.06 1688.4 2532.36 1692.9C2529.66 1697.4 2525.66 1701.05 2520.36 1703.85C2515.06 1706.65 2508.81 1708.05 2501.61 1708.05Z" fill="url(#paint16_linear_782_1640)"/>
<rect x="2253" y="1794" width="104" height="14" rx="7" fill="#1A1011"/>
<rect x="2253" y="1815" width="301" height="15" rx="7.5" fill="#1A1011"/>
<rect x="2360" y="1794" width="134" height="14" rx="7" fill="#1A1011"/>
<rect x="2253" y="1772" width="198" height="15" rx="7.5" fill="#1A1011"/>
<rect x="2253" y="1865" width="104" height="14" rx="7" fill="#1A1011"/>
<rect x="2253" y="1886" width="301" height="15" rx="7.5" fill="#1A1011"/>
<rect x="2360" y="1865" width="134" height="14" rx="7" fill="#1A1011"/>
<rect x="2253" y="1843" width="198" height="15" rx="7.5" fill="#1A1011"/>
<path d="M2515.71 2164.37L2519.86 1034C2689.36 1043.56 2703.9 1098.55 2689.99 1125.64L2623.21 2258C2622.86 2247.77 2606.92 2225.01 2562.67 2214.17C2518.41 2203.33 2512.58 2173 2515.71 2164.37Z" fill="#3E3F40"/>
<rect width="16" height="1635" transform="matrix(-1 0 0 1 823 973)" fill="#C7C763"/>
<rect width="16.0941" height="163.892" transform="matrix(-0.978751 0.205055 -0.177483 -0.984124 823.668 886.07)" fill="#C7C763"/>
<rect x="669" y="733" width="37" height="152" transform="rotate(-90 669 733)" fill="#C7C763"/>
<rect x="686" y="828" width="11" height="120" transform="rotate(-90 686 828)" fill="#C7C763"/>
<rect x="695" y="781" width="12" height="103" transform="rotate(-90 695 781)" fill="#C7C763"/>
<rect width="16.0941" height="163.892" transform="matrix(-0.97875 -0.205055 0.177483 -0.984124 681.617 889.313)" fill="#C7C763"/>
<rect width="16.3206" height="289.669" transform="matrix(-0.8724 0.488792 0.434413 0.900714 686.789 2215.39)" fill="#C7C763"/>
<rect width="16.3893" height="279.984" transform="matrix(0.838429 0.545011 0.488311 -0.872669 672.406 2228.3)" fill="#C7C763"/>
<rect width="17" height="150" transform="matrix(0 -1 -1 0 823 2224)" fill="#C7C763"/>
<rect width="18" height="150" transform="matrix(0 -1 -1 0 823 1993)" fill="#C7C763"/>
<rect width="17" height="150" transform="matrix(0 -1 -1 0 823 1745)" fill="#C7C763"/>
<rect width="17" height="150" transform="matrix(0 -1 -1 0 823 1492)" fill="#C7C763"/>
<rect width="17" height="150" transform="matrix(0 -1 -1 0 823 1227)" fill="#C7C763"/>
<rect width="16.3206" height="309.74" transform="matrix(-0.8724 0.488792 0.434413 0.900714 686.953 1714.99)" fill="#C7C763"/>
<rect width="16.3893" height="279.984" transform="matrix(0.838429 0.545011 0.488311 -0.872669 672.578 1727.9)" fill="#C7C763"/>
<rect width="16.3206" height="297.847" transform="matrix(-0.8724 0.488792 0.434413 0.900714 690.121 1220.89)" fill="#C7C763"/>
<rect width="16.3893" height="269.17" transform="matrix(0.838429 0.545011 0.488311 -0.872669 675.852 1213.65)" fill="#C7C763"/>
<rect width="9.30684" height="75.6233" transform="matrix(0.999979 0.00655314 0.00872354 -0.999962 418.277 968.512)" fill="#C7C763"/>
<rect width="9.30684" height="75.6233" transform="matrix(0.999979 0.00655314 0.00872354 -0.999962 538.504 966.393)" fill="#C7C763"/>
<rect width="9.30684" height="75.6233" transform="matrix(0.999979 0.00655314 0.00872354 -0.999962 261.617 962.152)" fill="#C7C763"/>
<rect width="8.33781" height="200.636" transform="matrix(-0.507341 -0.861746 -0.914554 0.404464 454.84 884.668)" fill="#C7C763"/>
<rect width="8.42377" height="177.513" transform="matrix(-0.577731 0.816227 0.882952 0.469463 404.379 879.531)" fill="#C7C763"/>
<rect width="9.30684" height="75.6233" transform="matrix(0.999979 0.00655314 0.00872354 -0.999962 418.277 968.512)" fill="#C7C763"/>
<rect width="17.2804" height="75.6233" transform="matrix(0.999979 0.00655314 0.00872354 -0.999962 253.484 960.326)" fill="#C7C763"/>
<rect width="8.33781" height="200.636" transform="matrix(-0.507341 -0.861746 -0.914554 0.404464 454.84 884.668)" fill="#C7C763"/>
<rect width="8.42377" height="177.513" transform="matrix(-0.577731 0.816227 0.882952 0.469463 404.379 879.531)" fill="#C7C763"/>
<rect width="9.30684" height="75.6233" transform="matrix(0.999979 0.00655314 0.00872354 -0.999962 691.031 964.843)" fill="#C7C763"/>
<rect width="9.30684" height="75.6233" transform="matrix(0.999979 0.00655314 0.00872354 -0.999962 820.258 962.152)" fill="#C7C763"/>
<rect width="8.33781" height="200.636" transform="matrix(-0.507341 -0.861746 -0.914554 0.404464 727.582 880.999)" fill="#C7C763"/>
<rect width="8.42377" height="177.513" transform="matrix(-0.577731 0.816227 0.882952 0.469463 677.129 875.862)" fill="#C7C763"/>
<rect width="9.30684" height="75.6233" transform="matrix(0.999979 0.00655314 0.00872354 -0.999962 1525.84 965.332)" fill="#C7C763"/>
<rect width="9.30684" height="75.6233" transform="matrix(0.999979 0.00655314 0.00872354 -0.999962 1646.07 963.213)" fill="#C7C763"/>
<rect width="8.33781" height="200.636" transform="matrix(-0.507341 -0.861746 -0.914554 0.404464 1562.4 881.489)" fill="#C7C763"/>
<rect width="8.42377" height="177.513" transform="matrix(-0.577731 0.816227 0.882952 0.469463 1511.95 876.353)" fill="#C7C763"/>
<rect width="9.30684" height="75.6233" transform="matrix(0.999979 0.00655314 0.00872354 -0.999962 1525.84 965.332)" fill="#C7C763"/>
<rect width="8.33781" height="200.636" transform="matrix(-0.507341 -0.861746 -0.914554 0.404464 1562.4 881.489)" fill="#C7C763"/>
<rect width="8.42377" height="177.513" transform="matrix(-0.577731 0.816227 0.882952 0.469463 1511.95 876.353)" fill="#C7C763"/>
<rect width="9.30684" height="75.6233" transform="matrix(0.999979 0.00655314 0.00872354 -0.999962 1798.59 961.663)" fill="#C7C763"/>
<rect width="9.30684" height="75.6233" transform="matrix(0.999979 0.00655314 0.00872354 -0.999962 1927.82 958.974)" fill="#C7C763"/>
<rect width="8.33781" height="200.636" transform="matrix(-0.507341 -0.861746 -0.914554 0.404464 1835.15 877.817)" fill="#C7C763"/>
<rect width="8.33781" height="85.1152" transform="matrix(-0.507341 -0.861746 -0.914554 0.404464 2010.65 925.603)" fill="#C7C763"/>
<rect width="8.42377" height="177.513" transform="matrix(-0.577731 0.816227 0.882952 0.469463 1784.69 872.683)" fill="#C7C763"/>
<path d="M2061.05 961.262L2061.05 930.522L2008.83 905.614L1941.36 870.509V892.574L2008.83 930.524L2061.05 961.262Z" fill="#C7C763"/>
<rect width="9.30684" height="75.6233" transform="matrix(0.999979 0.00655314 0.00872354 -0.999962 972.062 965.332)" fill="#C7C763"/>
<rect width="9.30684" height="75.6233" transform="matrix(0.999979 0.00655314 0.00872354 -0.999962 1092.29 963.213)" fill="#C7C763"/>
<rect width="8.33781" height="200.636" transform="matrix(-0.507341 -0.861746 -0.914554 0.404464 1008.61 881.489)" fill="#C7C763"/>
<rect width="8.42377" height="177.513" transform="matrix(-0.577731 0.816227 0.882952 0.469463 958.16 876.353)" fill="#C7C763"/>
<rect width="9.30684" height="75.6233" transform="matrix(0.999979 0.00655314 0.00872354 -0.999962 972.062 965.332)" fill="#C7C763"/>
<rect width="8.33781" height="200.636" transform="matrix(-0.507341 -0.861746 -0.914554 0.404464 1008.61 881.489)" fill="#C7C763"/>
<rect width="8.42377" height="177.513" transform="matrix(-0.577731 0.816227 0.882952 0.469463 958.16 876.353)" fill="#C7C763"/>
<rect width="9.30684" height="75.6233" transform="matrix(0.999979 0.00655314 0.00872354 -0.999962 1244.81 961.663)" fill="#C7C763"/>
<rect width="9.30684" height="75.6233" transform="matrix(0.999979 0.00655314 0.00872354 -0.999962 1374.04 958.974)" fill="#C7C763"/>
<rect width="8.33781" height="200.636" transform="matrix(-0.507341 -0.861746 -0.914554 0.404464 1281.36 877.817)" fill="#C7C763"/>
<rect width="8.42377" height="177.513" transform="matrix(-0.577731 0.816227 0.882952 0.469463 1230.91 872.683)" fill="#C7C763"/>
<rect width="16" height="1634" transform="matrix(-1 0 0 1 689 968)" fill="#C7C763"/>
<rect width="24" height="1809" transform="matrix(0 1 1 0 253 955)" fill="#C7C763"/>
<path d="M832.712 2461H661.586L593 2700H885L832.712 2461Z" fill="#2C2525"/>
<path d="M261 847C261 830.431 247.569 817 231 817H30C13.4315 817 0 830.431 0 847V1009H261V847Z" fill="#958B2D"/>
<path d="M1919 1575L1768.91 1439L1595 1575H1919Z" stroke="black" stroke-width="9"/>
<g filter="url(#filter1_d_782_1640)">
<rect width="743" height="376" rx="42" transform="matrix(-1 0 0 1 2129 1544)" fill="#ACC2FF"/>
</g>
<path d="M1877.5 1665L1659.69 1920.75H2095.31L1877.5 1665Z" fill="#2F4858"/>
<path d="M1606 1709L1787.87 1920.5H1424.13L1606 1709Z" fill="#2F4858"/>
<ellipse rx="52" ry="45.5" transform="matrix(-1 0 0 1 1643 1607.5)" fill="#EBEB20"/>
<path d="M1778 1024V1400" stroke="black" stroke-width="4"/>
<path d="M1757 1024V1400" stroke="black" stroke-width="4"/>
<path d="M1781.88 1437.17C1783.16 1425.96 1774.03 1419.37 1767.83 1417.75L1762.33 1417C1765.36 1421.11 1773.98 1429.62 1771.01 1435.3C1768.03 1440.98 1761.09 1447.25 1748 1437.17C1748.33 1447.92 1761.36 1451.24 1767.83 1450.99C1774.3 1450.74 1780.51 1449.12 1781.88 1437.17Z" fill="#4D4B4B"/>
<path d="M1783 1402.5C1783 1411.06 1776.06 1418 1767.5 1418V1418C1758.94 1418 1752 1411.06 1752 1402.5V1400H1783V1402.5Z" fill="#958B2D"/>
<path d="M1820 994C1820 1010.57 1806.57 1024 1790 1024H1742C1725.43 1024 1712 1010.57 1712 994V979H1820V994Z" fill="#958B2D"/>
<path d="M766 651.5C766 642.387 758.613 635 749.5 635V635C740.387 635 733 642.387 733 651.5V696H766V651.5Z" fill="#958B2D"/>
<path d="M748 650L1928 881" stroke="black" stroke-width="9"/>
<rect width="23" height="1687" transform="matrix(0 1 1 0 254 870)" fill="#C7C763"/>
<path d="M750 649L126 814" stroke="black" stroke-width="9"/>
<path d="M876.342 914.494C878.555 907.118 876.097 899.135 870.119 894.282L770.295 813.249C766.909 810.5 762.681 809 758.32 809H637C626.507 809 618 817.507 618 828V982C618 992.493 626.507 1001 637 1001H749H836.251C844.641 1001 852.038 995.497 854.449 987.46L876.342 914.494Z" fill="#757418"/>
<path d="M705.5 835V913C705.5 915.485 707.515 917.5 710 917.5H834C836.485 917.5 838.5 915.485 838.5 913V889.683C838.5 888.386 837.94 887.151 836.964 886.297L774.49 831.614C773.67 830.896 772.617 830.5 771.526 830.5H710C707.515 830.5 705.5 832.515 705.5 835Z" fill="url(#paint17_linear_782_1640)" stroke="#4F4F4F"/>
<path d="M695.5 835V913C695.5 915.485 693.485 917.5 691 917.5H634C631.515 917.5 629.5 915.485 629.5 913V887.415V835C629.5 832.515 631.515 830.5 634 830.5H661.797H691C693.485 830.5 695.5 832.515 695.5 835Z" fill="url(#paint18_linear_782_1640)" stroke="#4F4F4F"/>
<path d="M4145.45 2616.99C4145.45 2661.17 4046.06 2696.99 3923.45 2696.99C3800.85 2696.99 3701.45 2661.17 3701.45 2616.99C3675.45 2445.49 3800.85 2536.99 3923.45 2536.99C4046.06 2536.99 4170.45 2444.49 4145.45 2616.99Z" fill="#112837"/>
<ellipse cx="3923.45" cy="2550.99" rx="222" ry="80" fill="#2F4858"/>
<path d="M4145.45 2509.99C4145.45 2554.18 4046.06 2589.99 3923.45 2589.99C3800.85 2589.99 3701.45 2554.18 3701.45 2509.99C3675.45 2338.5 3800.85 2429.99 3923.45 2429.99C4046.06 2429.99 4170.45 2337.5 4145.45 2509.99Z" fill="#112837"/>
<ellipse cx="3923.45" cy="2444" rx="222" ry="80" fill="#2F4858"/>
<path d="M4145.45 2403C4145.45 2447.18 4046.06 2483 3923.45 2483C3800.85 2483 3701.45 2447.18 3701.45 2403C3675.45 2231.5 3800.85 2323 3923.45 2323C4046.06 2323 4170.45 2230.5 4145.45 2403Z" fill="#112837"/>
<ellipse cx="3923.45" cy="2337" rx="222" ry="80" fill="#2F4858"/>
<path d="M208 1951C208 1939.4 217.402 1930 229 1930H1484C1495.6 1930 1505 1939.4 1505 1951V2683C1505 2694.6 1495.6 2704 1484 2704H229C217.402 2704 208 2694.6 208 2683V1951Z" fill="#0B0A0A"/>
<path d="M208 2022H1505V1946C1505 1937.16 1497.84 1930 1489 1930H224C215.163 1930 208 1937.16 208 1946V2022Z" fill="#1C1A1A"/>
<path d="M366.212 2159.14L319.58 2132.23V2120.98L366.212 2094.18V2105.2L329.092 2126.66L366.212 2148.12V2159.14ZM445.052 2080.15V2161H434.496V2124.34H393.316V2161H382.76V2080.15H393.316V2115.64H434.496V2080.15H445.052ZM512.841 2080.15V2088.73H490.801V2161H480.245V2088.73H458.089V2080.15H512.841ZM607.846 2080.73V2161H597.29V2101.14L570.61 2161H563.186L536.39 2101.03V2161H525.834V2080.73H537.202L566.898 2147.08L596.594 2080.73H607.846ZM636.304 2152.42H664.608V2161H625.748V2080.15H636.304V2152.42ZM711.35 2078.53L676.969 2168.08H667.963L702.4 2078.53H711.35ZM721.649 2159.38V2148.36L758.769 2126.9L721.649 2105.44V2094.42L768.281 2121.21V2132.46L721.649 2159.38Z" fill="url(#paint19_linear_782_1640)"/>
<ellipse cx="265.535" cy="1976" rx="12.5347" ry="12" fill="#FF0000"/>
<ellipse cx="335.464" cy="1976" rx="12.5347" ry="12" fill="#255425"/>
<ellipse cx="300.499" cy="1976" rx="13.1944" ry="12" fill="#B9B90C"/>
<rect x="324" y="2255" width="142" height="17" rx="8.5" fill="#072A85"/>
<rect x="324" y="2643" width="142" height="17" rx="8.5" fill="#072A85"/>
<rect x="673" y="2444" width="373" height="15" rx="7.5" fill="#9B9BA2"/>
<rect x="487" y="2255" width="241" height="17" rx="8.5" fill="url(#paint20_linear_782_1640)"/>
<rect x="573" y="2334" width="142" height="17" rx="8.5" fill="#072A85"/>
<rect x="736" y="2334" width="241" height="17" rx="8.5" fill="url(#paint21_linear_782_1640)"/>
<rect x="687" y="2294" width="99" height="17" rx="8.5" fill="url(#paint22_linear_782_1640)"/>
<rect x="741" y="2519" width="374" height="17" rx="8.5" fill="url(#paint23_linear_782_1640)"/>
<rect x="487.5" y="2293.5" width="185" height="18" rx="9" fill="#072A85" stroke="black"/>
<rect x="487.5" y="2602.5" width="185" height="18" rx="9" fill="#072A85" stroke="black"/>
<rect x="578" y="2480" width="137" height="16" rx="8" fill="#072A85"/>
<rect x="578" y="2519" width="142" height="17" rx="8.5" fill="#072A85"/>
<rect x="583" y="2571" width="137" height="16" rx="8" fill="#072A85"/>
<rect x="673" y="2370" width="552" height="17" rx="8.5" fill="#9B9BA2"/>
<rect x="679" y="2545" width="552" height="17" rx="8.5" fill="#9B9BA2"/>
<path d="M673 2414.5C673 2410.36 676.358 2407 680.5 2407H1283.5C1287.64 2407 1291 2410.36 1291 2414.5V2414.5C1291 2418.64 1287.64 2422 1283.5 2422H680.5C676.358 2422 673 2418.64 673 2414.5V2414.5Z" fill="#9B9BA2"/>
<rect x="835" y="2255" width="535" height="17" rx="8.5" fill="#160A60"/>
<ellipse cx="1313.53" cy="1182" rx="12.5347" ry="12" fill="#FF0000"/>
<ellipse cx="1383.46" cy="1182" rx="12.5347" ry="12" fill="#255425"/>
<ellipse cx="1348.5" cy="1182" rx="13.1944" ry="12" fill="#B9B90C"/>
<rect x="805" y="1318" width="450" height="185" rx="22" fill="#1F1D1D"/>
<path d="M931.08 1388.04C929.693 1388.04 928.52 1387.56 927.56 1386.6C926.653 1385.64 926.2 1384.47 926.2 1383.08C926.2 1381.69 926.653 1380.52 927.56 1379.56C928.52 1378.6 929.693 1378.12 931.08 1378.12C932.467 1378.12 933.613 1378.6 934.52 1379.56C935.48 1380.52 935.96 1381.69 935.96 1383.08C935.96 1384.47 935.48 1385.64 934.52 1386.6C933.613 1387.56 932.467 1388.04 931.08 1388.04ZM934.68 1448.52C934.68 1452.41 933.693 1455.27 931.72 1457.08C929.747 1458.89 926.867 1459.8 923.08 1459.8H918.84V1453.64H921.88C923.907 1453.64 925.32 1453.24 926.12 1452.44C926.973 1451.64 927.4 1450.28 927.4 1448.36V1395.16H934.68V1448.52ZM991.724 1449.56L980.604 1438.44C977.884 1439.19 975.11 1439.56 972.284 1439.56C967.11 1439.56 962.39 1438.36 958.124 1435.96C953.857 1433.51 950.47 1430.12 947.964 1425.8C945.51 1421.43 944.284 1416.52 944.284 1411.08C944.284 1405.64 945.51 1400.76 947.964 1396.44C950.47 1392.07 953.857 1388.68 958.124 1386.28C962.39 1383.83 967.11 1382.6 972.284 1382.6C977.51 1382.6 982.257 1383.83 986.524 1386.28C990.79 1388.68 994.15 1392.04 996.604 1396.36C999.057 1400.68 1000.28 1405.59 1000.28 1411.08C1000.28 1416.41 999.11 1421.21 996.764 1425.48C994.417 1429.75 991.19 1433.11 987.084 1435.56L1001.16 1449.56H991.724ZM951.724 1411.08C951.724 1415.51 952.604 1419.4 954.364 1422.76C956.177 1426.12 958.63 1428.71 961.724 1430.52C964.87 1432.33 968.39 1433.24 972.284 1433.24C976.177 1433.24 979.67 1432.33 982.764 1430.52C985.91 1428.71 988.364 1426.12 990.124 1422.76C991.937 1419.4 992.844 1415.51 992.844 1411.08C992.844 1406.6 991.937 1402.71 990.124 1399.4C988.364 1396.04 985.937 1393.45 982.844 1391.64C979.75 1389.83 976.23 1388.92 972.284 1388.92C968.337 1388.92 964.817 1389.83 961.724 1391.64C958.63 1393.45 956.177 1396.04 954.364 1399.4C952.604 1402.71 951.724 1406.6 951.724 1411.08ZM1048.93 1395.16V1439H1041.65V1432.52C1040.26 1434.76 1038.32 1436.52 1035.81 1437.8C1033.36 1439.03 1030.64 1439.64 1027.65 1439.64C1024.24 1439.64 1021.17 1438.95 1018.45 1437.56C1015.73 1436.12 1013.57 1433.99 1011.97 1431.16C1010.42 1428.33 1009.65 1424.89 1009.65 1420.84V1395.16H1016.85V1419.88C1016.85 1424.2 1017.94 1427.53 1020.13 1429.88C1022.32 1432.17 1025.3 1433.32 1029.09 1433.32C1032.98 1433.32 1036.05 1432.12 1038.29 1429.72C1040.53 1427.32 1041.65 1423.83 1041.65 1419.24V1395.16H1048.93ZM1101.22 1415.4C1101.22 1416.79 1101.14 1418.25 1100.98 1419.8H1065.94C1066.21 1424.12 1067.68 1427.51 1070.34 1429.96C1073.06 1432.36 1076.34 1433.56 1080.18 1433.56C1083.33 1433.56 1085.94 1432.84 1088.02 1431.4C1090.16 1429.91 1091.65 1427.93 1092.5 1425.48H1100.34C1099.17 1429.69 1096.82 1433.13 1093.3 1435.8C1089.78 1438.41 1085.41 1439.72 1080.18 1439.72C1076.02 1439.72 1072.29 1438.79 1068.98 1436.92C1065.73 1435.05 1063.17 1432.41 1061.3 1429C1059.44 1425.53 1058.5 1421.53 1058.5 1417C1058.5 1412.47 1059.41 1408.49 1061.22 1405.08C1063.04 1401.67 1065.57 1399.05 1068.82 1397.24C1072.13 1395.37 1075.92 1394.44 1080.18 1394.44C1084.34 1394.44 1088.02 1395.35 1091.22 1397.16C1094.42 1398.97 1096.88 1401.48 1098.58 1404.68C1100.34 1407.83 1101.22 1411.4 1101.22 1415.4ZM1093.7 1413.88C1093.7 1411.11 1093.09 1408.73 1091.86 1406.76C1090.64 1404.73 1088.96 1403.21 1086.82 1402.2C1084.74 1401.13 1082.42 1400.6 1079.86 1400.6C1076.18 1400.6 1073.04 1401.77 1070.42 1404.12C1067.86 1406.47 1066.4 1409.72 1066.02 1413.88H1093.7ZM1118.11 1402.28C1119.39 1399.77 1121.21 1397.83 1123.55 1396.44C1125.95 1395.05 1128.86 1394.36 1132.27 1394.36V1401.88H1130.35C1122.19 1401.88 1118.11 1406.31 1118.11 1415.16V1439H1110.83V1395.16H1118.11V1402.28ZM1178.44 1395.16L1152.04 1459.64H1144.52L1153.16 1438.52L1135.48 1395.16H1143.56L1157.32 1430.68L1170.92 1395.16H1178.44Z" fill="url(#paint24_linear_782_1640)"/>
<path d="M850.356 1369C824.793 1401.26 862.423 1444.63 902 1410.59C880.677 1418.92 840.495 1422.26 850.356 1369Z" fill="#0000FB"/>
<path d="M863.267 1365C844.095 1389.49 872.317 1422.42 902 1396.58C886.008 1402.9 855.871 1405.44 863.267 1365Z" fill="#0000FB"/>
<path d="M876.76 1362C865.257 1378.13 882.19 1399.82 900 1382.8C890.405 1386.96 872.323 1388.63 876.76 1362Z" fill="#0000FB"/>
<defs>
<filter id="filter0_d_782_1640" x="2107" y="1498" width="498" height="745" filterUnits="userSpaceOnUse" color-interpolation-filters="sRGB">
<feFlood flood-opacity="0" result="BackgroundImageFix"/>
<feColorMatrix in="SourceAlpha" type="matrix" values="0 0 0 0 0 0 0 0 0 0 0 0 0 0 0 0 0 0 127 0" result="hardAlpha"/>
<feOffset dx="-37" dy="28"/>
<feGaussianBlur stdDeviation="27.5"/>
<feComposite in2="hardAlpha" operator="out"/>
<feColorMatrix type="matrix" values="0 0 0 0 0 0 0 0 0 0 0 0 0 0 0 0 0 0 0.5 0"/>
<feBlend mode="normal" in2="BackgroundImageFix" result="effect1_dropShadow_782_1640"/>
<feBlend mode="normal" in="SourceGraphic" in2="effect1_dropShadow_782_1640" result="shape"/>
</filter>
<filter id="filter1_d_782_1640" x="1294" y="1517" width="853" height="486" filterUnits="userSpaceOnUse" color-interpolation-filters="sRGB">
<feFlood flood-opacity="0" result="BackgroundImageFix"/>
<feColorMatrix in="SourceAlpha" type="matrix" values="0 0 0 0 0 0 0 0 0 0 0 0 0 0 0 0 0 0 127 0" result="hardAlpha"/>
<feOffset dx="-37" dy="28"/>
<feGaussianBlur stdDeviation="27.5"/>
<feComposite in2="hardAlpha" operator="out"/>
<feColorMatrix type="matrix" values="0 0 0 0 0 0 0 0 0 0 0 0 0 0 0 0 0 0 0.5 0"/>
<feBlend mode="normal" in2="BackgroundImageFix" result="effect1_dropShadow_782_1640"/>
<feBlend mode="normal" in="SourceGraphic" in2="effect1_dropShadow_782_1640" result="shape"/>
</filter>
<linearGradient id="paint0_linear_782_1640" x1="2309.55" y1="493.667" x2="2309.55" y2="2773.35" gradientUnits="userSpaceOnUse">
<stop stop-color="#27275C"/>
<stop offset="1" stop-color="#09092C"/>
</linearGradient>
<linearGradient id="paint1_linear_782_1640" x1="2288" y1="2333" x2="2300" y2="2988" gradientUnits="userSpaceOnUse">
<stop stop-color="#737579"/>
<stop offset="1" stop-color="#4D4E50"/>
</linearGradient>
<linearGradient id="paint2_linear_782_1640" x1="3993.59" y1="1639.46" x2="4225.81" y2="2054.76" gradientUnits="userSpaceOnUse">
<stop offset="0.0001" stop-color="#925700"/>
<stop offset="1" stop-color="#9F4009"/>
</linearGradient>
<linearGradient id="paint3_linear_782_1640" x1="4204" y1="1459" x2="4204" y2="1543" gradientUnits="userSpaceOnUse">
<stop stop-color="white"/>
<stop offset="1" stop-color="white" stop-opacity="0.17"/>
</linearGradient>
<linearGradient id="paint4_linear_782_1640" x1="4201.5" y1="1500.39" x2="4381.36" y2="1729.97" gradientUnits="userSpaceOnUse">
<stop stop-color="#925900"/>
<stop offset="1" stop-color="#9F4009"/>
</linearGradient>
<linearGradient id="paint5_linear_782_1640" x1="2.57539" y1="-2.22453e-05" x2="349.668" y2="187.236" gradientUnits="userSpaceOnUse">
<stop offset="0.296875" stop-color="#3C3B51"/>
<stop offset="1" stop-color="#100F17"/>
</linearGradient>
<linearGradient id="paint6_linear_782_1640" x1="1980.78" y1="2576" x2="2021.21" y2="2848.38" gradientUnits="userSpaceOnUse">
<stop offset="0.296875" stop-color="#3C3B51"/>
<stop offset="1" stop-color="#100F17"/>
</linearGradient>
<linearGradient id="paint7_linear_782_1640" x1="1220.36" y1="1095" x2="4116.42" y2="3724.29" gradientUnits="userSpaceOnUse">
<stop offset="0.296875" stop-color="#2F2E41"/>
<stop offset="0.822917" stop-color="#171736"/>
</linearGradient>
<linearGradient id="paint8_linear_782_1640" x1="3031.99" y1="2222" x2="2369.91" y2="1126.62" gradientUnits="userSpaceOnUse">
<stop stop-color="#0C0C0F"/>
<stop offset="0.890625"/>
</linearGradient>
<linearGradient id="paint9_linear_782_1640" x1="2885.72" y1="1554.67" x2="2896.49" y2="1718.66" gradientUnits="userSpaceOnUse">
<stop stop-color="#511E07"/>
<stop offset="0.0001" stop-color="#511E07"/>
<stop offset="1" stop-color="#3C1A06"/>
</linearGradient>
<linearGradient id="paint10_linear_782_1640" x1="3080.47" y1="1638.12" x2="3053.55" y2="1587.69" gradientUnits="userSpaceOnUse">
<stop offset="0.0693721" stop-color="#511E07"/>
<stop offset="1" stop-color="#431A02"/>
</linearGradient>
<linearGradient id="paint11_linear_782_1640" x1="2894.77" y1="1533.96" x2="2854.85" y2="1575.01" gradientUnits="userSpaceOnUse">
<stop offset="0.0693721" stop-color="#511E07"/>
<stop offset="1" stop-color="#431A02"/>
</linearGradient>
<linearGradient id="paint12_linear_782_1640" x1="2780.64" y1="1694.47" x2="2814.54" y2="1735.19" gradientUnits="userSpaceOnUse">
<stop offset="0.0693721" stop-color="#511E07"/>
<stop offset="1" stop-color="#431A02"/>
</linearGradient>
<linearGradient id="paint13_linear_782_1640" x1="2967.85" y1="1790.87" x2="3006.1" y2="1753.27" gradientUnits="userSpaceOnUse">
<stop offset="0.0693721" stop-color="#511E07"/>
<stop offset="1" stop-color="#431A02"/>
</linearGradient>
<linearGradient id="paint14_linear_782_1640" x1="2927.04" y1="1821.98" x2="3150.92" y2="2168.7" gradientUnits="userSpaceOnUse">
<stop stop-color="#511E07"/>
<stop offset="1" stop-color="#3E1C09"/>
</linearGradient>
<linearGradient id="paint15_linear_782_1640" x1="2478.8" y1="1781.18" x2="2487.18" y2="2041.7" gradientUnits="userSpaceOnUse">
<stop stop-color="#511E07"/>
<stop offset="1" stop-color="#4B2007"/>
</linearGradient>
<linearGradient id="paint16_linear_782_1640" x1="2253" y1="1654.5" x2="2545" y2="1654.5" gradientUnits="userSpaceOnUse">
<stop stop-color="#9C9AF4"/>
<stop offset="1" stop-color="#E4E4E4"/>
</linearGradient>
<linearGradient id="paint17_linear_782_1640" x1="772" y1="830" x2="772" y2="918" gradientUnits="userSpaceOnUse">
<stop stop-color="#3A5EBD"/>
<stop offset="1" stop-color="#7B8DBB"/>
</linearGradient>
<linearGradient id="paint18_linear_782_1640" x1="662.5" y1="830" x2="662.5" y2="918" gradientUnits="userSpaceOnUse">
<stop stop-color="#3A5EBD"/>
<stop offset="1" stop-color="#7B8DBB"/>
</linearGradient>
<linearGradient id="paint19_linear_782_1640" x1="363.768" y1="2120" x2="754.768" y2="2135.39" gradientUnits="userSpaceOnUse">
<stop stop-color="#925700"/>
<stop offset="1" stop-color="#9F4009"/>
</linearGradient>
<linearGradient id="paint20_linear_782_1640" x1="493.5" y1="2255" x2="720" y2="2272" gradientUnits="userSpaceOnUse">
<stop stop-color="#9F4009"/>
<stop offset="1" stop-color="#925700"/>
</linearGradient>
<linearGradient id="paint21_linear_782_1640" x1="742.5" y1="2334" x2="969" y2="2351" gradientUnits="userSpaceOnUse">
<stop stop-color="#9F4009"/>
<stop offset="1" stop-color="#925700"/>
</linearGradient>
<linearGradient id="paint22_linear_782_1640" x1="689.67" y1="2294" x2="783.149" y2="2296.88" gradientUnits="userSpaceOnUse">
<stop stop-color="#9F4009"/>
<stop offset="1" stop-color="#925700"/>
</linearGradient>
<linearGradient id="paint23_linear_782_1640" x1="751.087" y1="2519" x2="1099.83" y2="2559.62" gradientUnits="userSpaceOnUse">
<stop stop-color="#9F4009"/>
<stop offset="1" stop-color="#925700"/>
</linearGradient>
<linearGradient id="paint24_linear_782_1640" x1="921" y1="1411" x2="1172.41" y2="1411" gradientUnits="userSpaceOnUse">
<stop stop-color="white"/>
<stop offset="1" stop-color="#B0B0B0"/>
</linearGradient>
</defs>
</svg>
