<svg width="100%" height="100%" viewBox="0 0 3217 2762" fill="none" xmlns="http://www.w3.org/2000/svg">
<ellipse cx="1647.5" cy="1381" rx="1539.5" ry="1381" fill="url(#paint0_linear_0_1)"/>
<path d="M3187 1381C3187 1562.36 3147.18 1741.94 3069.81 1909.49C2992.45 2077.04 2879.05 2229.28 2736.09 2357.51C2422.5 2357.51 2179 2357.51 1993 2357.51C1757.5 2357.51 1798.67 2357.51 1596.5 2357.51C1394.33 2357.51 1417 2357.51 1161 2357.51C782 2357.51 802 2357.51 558.909 2357.51C415.953 2229.28 302.555 2077.04 225.187 1909.49C147.82 1741.94 108 1562.36 108 1381L1647.5 1381H3187Z" fill="#737579"/>
<rect x="108" y="2150" width="644" height="132" rx="66" fill="#010100"/>
<rect y="1054" width="244" height="132" rx="66" fill="#010100"/>
<rect x="2269" y="446" width="717" height="132" rx="66" fill="#010100"/>
<rect width="205" height="185" transform="matrix(1 0 0 -1 1422 2066)" fill="url(#paint1_linear_0_1)"/>
<rect x="1095" y="2066" width="858" height="62" rx="31" fill="url(#paint2_linear_0_1)"/>
<rect x="315" y="652" width="2417" height="1229" rx="97" fill="url(#paint3_linear_0_1)"/>
<rect x="361" y="702" width="2320" height="1024" rx="50" fill="url(#paint4_radial_0_1)"/>
<path d="M1466.5 1394.23C1533.7 1352.57 1545.83 1227.38 1539 1170H1614.5C1601.83 1230.6 1603.7 1360.28 1664.5 1394.23C1725.3 1428.18 1745.83 1508.68 1748.5 1544.69C1743.17 1582.62 1755.4 1658.49 1847 1658.49C1938.6 1658.49 2051.83 1703.5 2097 1726H1056C1084.83 1704.78 1162.5 1661.58 1242.5 1658.49C1322.5 1655.4 1369.17 1581.33 1382.5 1544.69C1382.5 1511.89 1399.3 1435.9 1466.5 1394.23Z" fill="white"/>
<path d="M1885.5 1394.23C1952.7 1352.57 1964.83 1227.38 1958 1170H2031C2020.5 1230.5 2022.7 1360.28 2083.5 1394.23C2144.3 1428.18 2164.83 1508.68 2167.5 1544.69C2162.17 1582.62 2174.4 1658.49 2266 1658.49C2357.6 1658.49 2470.83 1703.5 2516 1726H1475C1503.83 1704.78 1581.5 1661.58 1661.5 1658.49C1741.5 1655.4 1788.17 1581.33 1801.5 1544.69C1801.5 1511.89 1818.3 1435.9 1885.5 1394.23Z" fill="white"/>
<path d="M1787 1094C1847.75 1094 1897 923.868 1897 714C1897 504.132 1830.5 299 1790.5 240.5C1747 297 1677 504.132 1677 714C1677 923.868 1726.25 1094 1787 1094Z" fill="url(#paint5_linear_0_1)"/>
<path d="M1554 1013.65L1692.28 906L1697.45 934.663L1703.26 962.156L1722 1019.95L1704.94 1009.72H1689.59L1675.95 1016.8L1662.3 1026.25L1554 1116V1065.61V1013.65Z" fill="#BC3510"/>
<path d="M2021 1012.37L1881.83 905L1876.51 934.33L1869.42 963.659L1861.68 992.989L1852 1019.97L1868 1008.42H1883.56L1897.39 1015.53L1911.22 1025L2021 1115V1064.47V1012.37Z" fill="#BC3510"/>
<path d="M2051.43 1136C2052.85 1136 2054 1134.95 2054 1133.66C2053.92 1106.88 2052.41 1080.39 2049.55 1055.64C2046.61 1030.16 2042.3 1007.01 2036.87 987.507C2031.44 968.007 2024.99 952.538 2017.89 941.986C2010.79 931.432 2003.18 926 1995.5 926C1987.82 926 1980.21 931.432 1973.11 941.986C1966.01 952.538 1959.56 968.007 1954.13 987.507C1948.7 1007.01 1944.39 1030.16 1941.45 1055.64C1938.59 1080.39 1937.08 1106.88 1937 1133.66C1937 1134.95 1938.15 1136 1939.57 1136H1995.5H2051.43Z" fill="url(#paint6_linear_0_1)"/>
<g filter="url(#filter0_i_0_1)">
<path d="M2039.85 1135.87H1951.01C1949.59 1135.87 1948.44 1136.91 1948.44 1138.21V1148.74C1948.44 1150.04 1949.59 1151.09 1951.01 1151.09H2039.85C2041.27 1151.09 2042.42 1150.04 2042.42 1148.74V1138.21C2042.42 1136.91 2041.27 1135.87 2039.85 1135.87Z" fill="#0C0823"/>
</g>
<path d="M2032 1151C2032 1171.95 2028 1192.05 2020.87 1206.86C2013.74 1221.68 2004.08 1230 1994 1230C1983.92 1230 1974.26 1221.68 1967.13 1206.86C1960 1192.05 1956 1171.95 1956 1151H1994H2032Z" fill="#F1B609"/>
<path d="M1957.81 1189.41L1956 1151H1995V1267L1992.28 1260.73L1989.56 1250.54L1985.93 1252.11V1242.7L1981.4 1245.05V1234.86L1977.77 1237.22V1220.76L1972.33 1227.03V1213.7L1967.79 1217.62V1206.65L1964.16 1209.78V1198.03L1960.53 1200.38V1187.84L1957.81 1189.41Z" fill="#F1B609"/>
<path d="M2030.28 1189.41L2032 1151H1995V1267L1997.58 1260.73L2000.16 1250.54L2003.6 1252.11V1242.7L2007.91 1245.05V1234.86L2011.35 1237.22V1220.76L2016.51 1227.03V1213.7L2020.81 1217.62V1206.65L2024.26 1209.78V1198.03L2027.7 1200.38V1187.84L2030.28 1189.41Z" fill="#F1B609"/>
<path d="M1967.35 1171.53L1966 1152H1995V1211L1992.98 1207.81L1990.95 1202.63L1988.26 1203.43V1198.64L1984.88 1199.84V1194.66L1982.19 1195.85V1187.48L1978.14 1190.67V1183.89L1974.77 1185.88V1180.3L1972.07 1181.9V1175.92L1969.37 1177.12V1170.74L1967.35 1171.53Z" fill="#F0B713"/>
<path d="M2022.65 1171.53L2024 1152H1995V1211L1997.02 1207.81L1999.05 1202.63L2001.74 1203.43V1198.64L2005.12 1199.84V1194.66L2007.81 1195.85V1187.48L2011.86 1190.67V1183.89L2015.23 1185.88V1180.3L2017.93 1181.9V1175.92L2020.63 1177.12V1170.74L2022.65 1171.53Z" fill="#F0B713"/>
<path d="M1979 1151C1979 1160.28 1980.74 1169.18 1983.83 1175.75C1986.93 1182.31 1991.12 1186 1995.5 1186C1999.88 1186 2004.07 1182.31 2007.17 1175.75C2010.26 1169.18 2012 1160.28 2012 1151H1995.5H1979Z" fill="#F0DB62"/>
<path d="M1979 1171.37V1151H1994.16L1995 1198L1993.32 1195.65L1992.47 1190.95L1990.79 1192.52V1187.03L1988.26 1189.38V1182.33L1985.74 1185.47V1179.98L1983.21 1182.33V1175.28H1981.53V1169.02L1979 1171.37Z" fill="#F0DB62"/>
<path d="M2012 1171.37V1151H1995.89L1995 1198L1996.79 1195.65L1997.68 1190.95L1999.47 1192.52V1187.03L2002.16 1189.38V1182.33L2004.84 1185.47V1179.98L2007.53 1182.33V1175.28H2009.32V1169.02L2012 1171.37Z" fill="#F0DB62"/>
<path d="M1635.43 1137C1636.85 1137 1638 1135.95 1638 1134.66C1637.92 1107.74 1636.41 1081.13 1633.55 1056.25C1630.61 1030.65 1626.3 1007.39 1620.87 987.801C1615.44 968.207 1608.99 952.666 1601.89 942.062C1594.79 931.458 1587.18 926 1579.5 926C1571.82 926 1564.21 931.458 1557.11 942.062C1550.01 952.666 1543.56 968.207 1538.13 987.801C1532.7 1007.39 1528.39 1030.65 1525.45 1056.25C1522.59 1081.13 1521.08 1107.74 1521 1134.66C1521 1135.95 1522.15 1137 1523.57 1137H1579.5H1635.43Z" fill="url(#paint7_linear_0_1)"/>
<g filter="url(#filter1_i_0_1)">
<path d="M1621.42 1133.53H1531.3C1529.88 1133.53 1528.72 1134.57 1528.72 1135.87V1147.58C1528.72 1148.87 1529.88 1149.92 1531.3 1149.92H1621.42C1622.84 1149.92 1624 1148.87 1624 1147.58V1135.87C1624 1134.57 1622.84 1133.53 1621.42 1133.53Z" fill="#0C0823"/>
</g>
<path d="M1837.5 513C1837.5 537.345 1815.58 557.5 1788 557.5C1760.42 557.5 1738.5 537.345 1738.5 513C1738.5 488.655 1760.42 468.5 1788 468.5C1815.58 468.5 1837.5 488.655 1837.5 513Z" fill="url(#paint8_radial_0_1)" stroke="#0C0823" stroke-width="5"/>
<path d="M1894.13 652H1678.87C1676.73 652 1675 653.577 1675 655.522V675.478C1675 677.423 1676.73 679 1678.87 679H1894.13C1896.27 679 1898 677.423 1898 675.478V655.522C1898 653.577 1896.27 652 1894.13 652Z" fill="#0C0823"/>
<path d="M1615 1151C1615 1171.42 1610.94 1191.01 1603.72 1205.45C1596.5 1219.89 1586.71 1228 1576.5 1228C1566.29 1228 1556.5 1219.89 1549.28 1205.45C1542.06 1191.01 1538 1171.42 1538 1151H1576.5H1615Z" fill="#F1B609"/>
<path d="M1539.86 1188.41L1538 1150H1578V1266L1575.21 1259.73L1572.42 1249.54L1568.7 1251.11V1241.7L1564.05 1244.05V1233.86L1560.33 1236.22V1219.76L1554.74 1226.03V1212.7L1550.09 1216.62V1205.65L1546.37 1208.78V1197.03L1542.65 1199.38V1186.84L1539.86 1188.41Z" fill="#F1B609"/>
<path d="M1613.28 1188.41L1615 1150H1578V1266L1580.58 1259.73L1583.16 1249.54L1586.6 1251.11V1241.7L1590.91 1244.05V1233.86L1594.35 1236.22V1219.76L1599.51 1226.03V1212.7L1603.81 1216.62V1205.65L1607.26 1208.78V1197.03L1610.7 1199.38V1186.84L1613.28 1188.41Z" fill="#F1B609"/>
<path d="M1548.44 1170.86L1547 1151H1578V1211L1575.84 1207.76L1573.67 1202.49L1570.79 1203.3V1198.43L1567.19 1199.65V1194.38L1564.3 1195.59V1187.08L1559.98 1190.32V1183.43L1556.37 1185.46V1179.78L1553.49 1181.41V1175.32L1550.6 1176.54V1170.05L1548.44 1170.86Z" fill="#F0B713"/>
<path d="M1604.7 1170.86L1606 1151H1578V1211L1579.95 1207.76L1581.91 1202.49L1584.51 1203.3V1198.43L1587.77 1199.65V1194.38L1590.37 1195.59V1187.08L1594.28 1190.32V1183.43L1597.53 1185.46V1179.78L1600.14 1181.41V1175.32L1602.74 1176.54V1170.05L1604.7 1170.86Z" fill="#F0B713"/>
<path d="M1561 1150C1561 1159.28 1562.63 1168.18 1565.54 1174.75C1568.45 1181.31 1572.39 1185 1576.5 1185C1580.61 1185 1584.55 1181.31 1587.46 1174.75C1590.37 1168.18 1592 1159.28 1592 1150H1576.5H1561Z" fill="#F0DB62"/>
<path d="M1561 1170.8V1150H1577.11L1578 1198L1576.21 1195.6L1575.32 1190.8L1573.53 1192.4V1186.8L1570.84 1189.2V1182L1568.16 1185.2V1179.6L1565.47 1182V1174.8H1563.68V1168.4L1561 1170.8Z" fill="#F0DB62"/>
<path d="M1592 1170.8V1150H1578.74L1578 1198L1579.47 1195.6L1580.21 1190.8L1581.68 1192.4V1186.8L1583.89 1189.2V1182L1586.11 1185.2V1179.6L1588.32 1182V1174.8H1589.79V1168.4L1592 1170.8Z" fill="#F0DB62"/>
<rect x="506" y="1363" width="526" height="169" rx="65" fill="url(#paint9_linear_0_1)"/>
<path d="M588.688 1488V1408H598.375V1479.41H635.563V1488H588.688ZM666.969 1489.41C663.167 1489.41 659.716 1488.69 656.617 1487.26C653.518 1485.8 651.057 1483.7 649.234 1480.97C647.411 1478.21 646.5 1474.87 646.5 1470.97C646.5 1467.53 647.177 1464.74 648.531 1462.61C649.885 1460.45 651.695 1458.76 653.961 1457.53C656.227 1456.31 658.727 1455.4 661.461 1454.8C664.221 1454.17 666.995 1453.68 669.781 1453.31C673.427 1452.84 676.383 1452.49 678.648 1452.26C680.94 1452 682.607 1451.57 683.648 1450.97C684.716 1450.37 685.25 1449.33 685.25 1447.84V1447.53C685.25 1443.68 684.195 1440.68 682.086 1438.55C680.003 1436.41 676.839 1435.34 672.594 1435.34C668.193 1435.34 664.742 1436.31 662.242 1438.23C659.742 1440.16 657.984 1442.22 656.969 1444.41L648.219 1441.28C649.781 1437.64 651.865 1434.8 654.469 1432.77C657.099 1430.71 659.964 1429.28 663.063 1428.47C666.188 1427.64 669.26 1427.22 672.281 1427.22C674.208 1427.22 676.422 1427.45 678.922 1427.92C681.448 1428.36 683.883 1429.29 686.227 1430.7C688.596 1432.1 690.563 1434.22 692.125 1437.06C693.688 1439.9 694.469 1443.7 694.469 1448.47V1488H685.25V1479.87H684.781C684.156 1481.18 683.115 1482.57 681.656 1484.05C680.198 1485.54 678.258 1486.8 675.836 1487.84C673.414 1488.89 670.458 1489.41 666.969 1489.41ZM668.375 1481.12C672.021 1481.12 675.094 1480.41 677.594 1478.98C680.12 1477.54 682.021 1475.7 683.297 1473.43C684.599 1471.16 685.25 1468.78 685.25 1466.28V1457.84C684.859 1458.31 684 1458.74 682.672 1459.13C681.37 1459.5 679.859 1459.82 678.141 1460.11C676.448 1460.37 674.794 1460.6 673.18 1460.81C671.591 1460.99 670.302 1461.15 669.313 1461.28C666.917 1461.59 664.677 1462.1 662.594 1462.8C660.536 1463.48 658.87 1464.51 657.594 1465.89C656.344 1467.24 655.719 1469.09 655.719 1471.44C655.719 1474.64 656.904 1477.06 659.273 1478.7C661.669 1480.32 664.703 1481.12 668.375 1481.12ZM749.107 1463.47V1428H758.326V1488H749.107V1477.84H748.482C747.076 1480.89 744.889 1483.48 741.92 1485.62C738.951 1487.73 735.201 1488.78 730.67 1488.78C726.92 1488.78 723.587 1487.96 720.67 1486.32C717.753 1484.65 715.462 1482.15 713.795 1478.82C712.128 1475.46 711.295 1471.23 711.295 1466.12V1428H720.514V1465.5C720.514 1469.87 721.738 1473.36 724.186 1475.97C726.66 1478.57 729.811 1479.87 733.639 1479.87C735.93 1479.87 738.261 1479.29 740.631 1478.12C743.027 1476.95 745.032 1475.15 746.646 1472.73C748.287 1470.3 749.107 1467.22 749.107 1463.47ZM784.43 1451.91V1488H775.211V1428H784.117V1437.37H784.898C786.305 1434.33 788.44 1431.88 791.305 1430.03C794.169 1428.16 797.867 1427.22 802.398 1427.22C806.461 1427.22 810.016 1428.05 813.063 1429.72C816.109 1431.36 818.479 1433.86 820.172 1437.22C821.865 1440.55 822.711 1444.77 822.711 1449.88V1488H813.492V1450.5C813.492 1445.79 812.268 1442.11 809.82 1439.48C807.372 1436.83 804.013 1435.5 799.742 1435.5C796.799 1435.5 794.169 1436.14 791.852 1437.41C789.56 1438.69 787.75 1440.55 786.422 1443C785.094 1445.45 784.43 1448.42 784.43 1451.91ZM863.932 1489.25C858.307 1489.25 853.463 1487.92 849.4 1485.27C845.338 1482.61 842.213 1478.95 840.025 1474.29C837.838 1469.63 836.744 1464.3 836.744 1458.31C836.744 1452.22 837.864 1446.84 840.104 1442.18C842.369 1437.49 845.52 1433.83 849.557 1431.2C853.619 1428.55 858.359 1427.22 863.775 1427.22C867.994 1427.22 871.796 1428 875.182 1429.56C878.567 1431.12 881.34 1433.31 883.502 1436.12C885.663 1438.94 887.005 1442.22 887.525 1445.97H878.307C877.604 1443.23 876.041 1440.81 873.619 1438.7C871.223 1436.57 867.994 1435.5 863.932 1435.5C860.338 1435.5 857.187 1436.44 854.479 1438.31C851.796 1440.16 849.7 1442.78 848.189 1446.16C846.705 1449.52 845.963 1453.47 845.963 1458C845.963 1462.64 846.692 1466.67 848.15 1470.11C849.635 1473.55 851.718 1476.22 854.4 1478.12C857.109 1480.02 860.286 1480.97 863.932 1480.97C866.327 1480.97 868.502 1480.55 870.455 1479.72C872.408 1478.89 874.062 1477.69 875.416 1476.12C876.77 1474.56 877.734 1472.69 878.307 1470.5H887.525C887.005 1474.04 885.715 1477.23 883.658 1480.07C881.627 1482.88 878.932 1485.12 875.572 1486.79C872.239 1488.43 868.359 1489.25 863.932 1489.25ZM910.221 1451.91V1488H901.002V1408H910.221V1437.37H911.002C912.408 1434.28 914.518 1431.82 917.33 1429.99C920.169 1428.14 923.945 1427.22 928.658 1427.22C932.747 1427.22 936.327 1428.04 939.4 1429.68C942.473 1431.29 944.856 1433.78 946.549 1437.14C948.268 1440.47 949.127 1444.72 949.127 1449.88V1488H939.908V1450.5C939.908 1445.73 938.671 1442.05 936.197 1439.45C933.749 1436.82 930.351 1435.5 926.002 1435.5C922.981 1435.5 920.273 1436.14 917.877 1437.41C915.507 1438.69 913.632 1440.55 912.252 1443C910.898 1445.45 910.221 1448.42 910.221 1451.91Z" fill="white"/>
<path d="M518.33 1136V1034.18H530.659V1125.06H577.989V1136H518.33ZM627.506 1137.59C620.148 1137.59 613.801 1135.97 608.464 1132.72C603.161 1129.44 599.068 1124.86 596.185 1119C593.334 1113.1 591.909 1106.24 591.909 1098.41C591.909 1090.59 593.334 1083.7 596.185 1077.73C599.068 1071.73 603.079 1067.06 608.216 1063.71C613.386 1060.33 619.419 1058.64 626.312 1058.64C630.29 1058.64 634.217 1059.3 638.095 1060.63C641.973 1061.96 645.503 1064.11 648.685 1067.09C651.866 1070.04 654.402 1073.95 656.291 1078.83C658.18 1083.7 659.125 1089.7 659.125 1096.82V1101.8H600.261V1091.65H647.193C647.193 1087.34 646.331 1083.5 644.608 1080.12C642.918 1076.74 640.498 1074.07 637.349 1072.12C634.234 1070.16 630.555 1069.18 626.312 1069.18C621.639 1069.18 617.596 1070.34 614.182 1072.66C610.801 1074.95 608.199 1077.93 606.376 1081.61C604.554 1085.29 603.642 1089.23 603.642 1093.44V1100.2C603.642 1105.97 604.636 1110.86 606.625 1114.87C608.647 1118.85 611.447 1121.88 615.027 1123.97C618.607 1126.02 622.766 1127.05 627.506 1127.05C630.588 1127.05 633.372 1126.62 635.858 1125.76C638.377 1124.86 640.548 1123.54 642.371 1121.78C644.194 1119.99 645.602 1117.77 646.597 1115.12L657.932 1118.3C656.739 1122.15 654.733 1125.53 651.916 1128.44C649.099 1131.33 645.619 1133.58 641.476 1135.2C637.333 1136.8 632.676 1137.59 627.506 1137.59ZM710.183 1059.64V1069.58H670.609V1059.64H710.183ZM682.143 1041.34H693.876V1114.12C693.876 1117.44 694.357 1119.93 695.318 1121.58C696.313 1123.21 697.572 1124.3 699.097 1124.86C700.654 1125.39 702.295 1125.66 704.018 1125.66C705.311 1125.66 706.372 1125.59 707.2 1125.46C708.029 1125.29 708.692 1125.16 709.189 1125.06L711.575 1135.6C710.78 1135.9 709.67 1136.2 708.244 1136.5C706.819 1136.83 705.013 1136.99 702.825 1136.99C699.511 1136.99 696.263 1136.28 693.081 1134.86C689.932 1133.43 687.314 1131.26 685.226 1128.34C683.171 1125.43 682.143 1121.75 682.143 1117.31V1041.34ZM742.138 1034.18V1043.13C742.138 1045.85 741.641 1048.75 740.647 1051.83C739.685 1054.88 738.26 1057.85 736.371 1060.73C734.515 1063.58 732.261 1066.07 729.61 1068.19L723.246 1063.02C725.334 1060.03 727.141 1056.94 728.665 1053.72C730.223 1050.47 731.002 1047.01 731.002 1043.33V1034.18H742.138ZM800.927 1076.74L790.387 1079.72C789.725 1077.96 788.747 1076.26 787.454 1074.6C786.195 1072.91 784.471 1071.52 782.284 1070.42C780.096 1069.33 777.296 1068.78 773.882 1068.78C769.208 1068.78 765.314 1069.86 762.199 1072.02C759.116 1074.14 757.575 1076.84 757.575 1080.12C757.575 1083.04 758.636 1085.34 760.757 1087.03C762.878 1088.72 766.192 1090.13 770.7 1091.26L782.035 1094.04C788.863 1095.7 793.95 1098.23 797.298 1101.65C800.645 1105.03 802.319 1109.39 802.319 1114.72C802.319 1119.1 801.06 1123.01 798.541 1126.45C796.055 1129.9 792.575 1132.62 788.1 1134.61C783.626 1136.6 778.422 1137.59 772.49 1137.59C764.701 1137.59 758.254 1135.9 753.15 1132.52C748.046 1129.14 744.815 1124.2 743.456 1117.7L754.592 1114.92C755.653 1119.03 757.658 1122.11 760.608 1124.17C763.591 1126.22 767.485 1127.25 772.291 1127.25C777.76 1127.25 782.101 1126.09 785.316 1123.77C788.565 1121.42 790.189 1118.6 790.189 1115.32C790.189 1112.67 789.261 1110.45 787.404 1108.66C785.548 1106.83 782.698 1105.47 778.853 1104.58L766.126 1101.6C759.133 1099.94 753.995 1097.37 750.714 1093.89C747.466 1090.38 745.842 1085.99 745.842 1080.72C745.842 1076.41 747.052 1072.6 749.471 1069.28C751.924 1065.97 755.255 1063.37 759.464 1061.48C763.707 1059.59 768.512 1058.64 773.882 1058.64C781.439 1058.64 787.371 1060.3 791.68 1063.61C796.022 1066.93 799.104 1071.3 800.927 1076.74ZM930.549 1066C929.455 1062.65 928.013 1059.65 926.224 1057C924.467 1054.32 922.362 1052.03 919.91 1050.14C917.49 1048.25 914.739 1046.81 911.657 1045.82C908.575 1044.82 905.194 1044.32 901.515 1044.32C895.483 1044.32 889.997 1045.88 885.059 1049C880.121 1052.11 876.193 1056.7 873.276 1062.77C870.36 1068.83 868.901 1076.27 868.901 1085.09C868.901 1093.91 870.376 1101.35 873.326 1107.41C876.276 1113.48 880.27 1118.07 885.308 1121.18C890.345 1124.3 896.013 1125.86 902.31 1125.86C908.144 1125.86 913.281 1124.62 917.722 1122.13C922.197 1119.61 925.677 1116.06 928.163 1111.49C930.682 1106.88 931.941 1101.46 931.941 1095.23L935.719 1096.03H905.094V1085.09H943.873V1096.03C943.873 1104.41 942.083 1111.71 938.504 1117.9C934.957 1124.1 930.052 1128.91 923.788 1132.32C917.557 1135.7 910.397 1137.39 902.31 1137.39C893.295 1137.39 885.374 1135.27 878.546 1131.03C871.752 1126.79 866.449 1120.75 862.637 1112.93C858.859 1105.11 856.969 1095.83 856.969 1085.09C856.969 1077.04 858.047 1069.79 860.201 1063.37C862.388 1056.9 865.471 1051.4 869.448 1046.86C873.425 1042.32 878.132 1038.84 883.567 1036.42C889.003 1034 894.986 1032.79 901.515 1032.79C906.884 1032.79 911.889 1033.6 916.529 1035.23C921.202 1036.82 925.362 1039.09 929.008 1042.04C932.687 1044.95 935.753 1048.45 938.205 1052.53C940.658 1056.57 942.348 1061.06 943.276 1066H930.549ZM994.422 1137.59C987.528 1137.59 981.479 1135.95 976.275 1132.67C971.105 1129.39 967.061 1124.8 964.145 1118.9C961.261 1113 959.819 1106.1 959.819 1098.22C959.819 1090.26 961.261 1083.32 964.145 1077.38C967.061 1071.45 971.105 1066.85 976.275 1063.56C981.479 1060.28 987.528 1058.64 994.422 1058.64C1001.32 1058.64 1007.35 1060.28 1012.52 1063.56C1017.72 1066.85 1021.77 1071.45 1024.65 1077.38C1027.57 1083.32 1029.02 1090.26 1029.02 1098.22C1029.02 1106.1 1027.57 1113 1024.65 1118.9C1021.77 1124.8 1017.72 1129.39 1012.52 1132.67C1007.35 1135.95 1001.32 1137.59 994.422 1137.59ZM994.422 1127.05C999.658 1127.05 1003.97 1125.71 1007.35 1123.02C1010.73 1120.34 1013.23 1116.81 1014.85 1112.43C1016.48 1108.06 1017.29 1103.32 1017.29 1098.22C1017.29 1093.11 1016.48 1088.36 1014.85 1083.95C1013.23 1079.54 1010.73 1075.98 1007.35 1073.26C1003.97 1070.54 999.658 1069.18 994.422 1069.18C989.185 1069.18 984.876 1070.54 981.495 1073.26C978.115 1075.98 975.612 1079.54 973.988 1083.95C972.364 1088.36 971.552 1093.11 971.552 1098.22C971.552 1103.32 972.364 1108.06 973.988 1112.43C975.612 1116.81 978.115 1120.34 981.495 1123.02C984.876 1125.71 989.185 1127.05 994.422 1127.05ZM1098.04 1034.18V1136H1086.31V1034.18H1098.04ZM1119.53 1136V1059.64H1131.26V1136H1119.53ZM1125.5 1046.91C1123.21 1046.91 1121.24 1046.13 1119.58 1044.57C1117.96 1043.01 1117.15 1041.14 1117.15 1038.95C1117.15 1036.77 1117.96 1034.89 1119.58 1033.34C1121.24 1031.78 1123.21 1031 1125.5 1031C1127.78 1031 1129.74 1031.78 1131.36 1033.34C1133.02 1034.89 1133.85 1036.77 1133.85 1038.95C1133.85 1041.14 1133.02 1043.01 1131.36 1044.57C1129.74 1046.13 1127.78 1046.91 1125.5 1046.91ZM1215.2 1059.64L1186.96 1136H1175.03L1146.79 1059.64H1159.52L1180.6 1120.49H1181.39L1202.47 1059.64H1215.2ZM1259.97 1137.59C1252.61 1137.59 1246.26 1135.97 1240.93 1132.72C1235.62 1129.44 1231.53 1124.86 1228.65 1119C1225.8 1113.1 1224.37 1106.24 1224.37 1098.41C1224.37 1090.59 1225.8 1083.7 1228.65 1077.73C1231.53 1071.73 1235.54 1067.06 1240.68 1063.71C1245.85 1060.33 1251.88 1058.64 1258.77 1058.64C1262.75 1058.64 1266.68 1059.3 1270.56 1060.63C1274.43 1061.96 1277.96 1064.11 1281.15 1067.09C1284.33 1070.04 1286.86 1073.95 1288.75 1078.83C1290.64 1083.7 1291.59 1089.7 1291.59 1096.82V1101.8H1232.72V1091.65H1279.65C1279.65 1087.34 1278.79 1083.5 1277.07 1080.12C1275.38 1076.74 1272.96 1074.07 1269.81 1072.12C1266.69 1070.16 1263.02 1069.18 1258.77 1069.18C1254.1 1069.18 1250.06 1070.34 1246.64 1072.66C1243.26 1074.95 1240.66 1077.93 1238.84 1081.61C1237.01 1085.29 1236.1 1089.23 1236.1 1093.44V1100.2C1236.1 1105.97 1237.1 1110.86 1239.09 1114.87C1241.11 1118.85 1243.91 1121.88 1247.49 1123.97C1251.07 1126.02 1255.23 1127.05 1259.97 1127.05C1263.05 1127.05 1265.83 1126.62 1268.32 1125.76C1270.84 1124.86 1273.01 1123.54 1274.83 1121.78C1276.65 1119.99 1278.06 1117.77 1279.06 1115.12L1290.39 1118.3C1289.2 1122.15 1287.19 1125.53 1284.38 1128.44C1281.56 1131.33 1278.08 1133.58 1273.94 1135.2C1269.79 1136.8 1265.14 1137.59 1259.97 1137.59ZM1324.95 1034.18L1323.95 1107.36H1312.42L1311.42 1034.18H1324.95ZM1318.18 1136.8C1315.73 1136.8 1313.63 1135.92 1311.87 1134.16C1310.11 1132.4 1309.24 1130.3 1309.24 1127.85C1309.24 1125.39 1310.11 1123.29 1311.87 1121.53C1313.63 1119.78 1315.73 1118.9 1318.18 1118.9C1320.64 1118.9 1322.74 1119.78 1324.5 1121.53C1326.25 1123.29 1327.13 1125.39 1327.13 1127.85C1327.13 1129.47 1326.72 1130.96 1325.89 1132.32C1325.09 1133.68 1324.02 1134.77 1322.66 1135.6C1321.33 1136.4 1319.84 1136.8 1318.18 1136.8Z" fill="white"/>
<rect x="2487" y="1213" width="730" height="1101" rx="58" fill="#3A3A45"/>
<rect x="2517" y="1252" width="670" height="1030" rx="24" fill="white"/>
<rect x="2705" y="1181" width="293" height="99" rx="13" fill="#925700"/>
<path d="M2889 1181C2889 1175.09 2888.03 1169.24 2886.15 1163.78C2884.26 1158.32 2881.5 1153.36 2878.02 1149.18C2874.53 1145 2870.4 1141.69 2865.85 1139.43C2861.3 1137.16 2856.42 1136 2851.5 1136C2846.58 1136 2841.7 1137.16 2837.15 1139.43C2832.6 1141.69 2828.47 1145 2824.98 1149.18C2821.5 1153.36 2818.74 1158.32 2816.85 1163.78C2814.97 1169.24 2814 1175.09 2814 1181L2851.5 1181H2889Z" fill="#925700"/>
<ellipse cx="2851.5" cy="1169" rx="12.5" ry="12" fill="#11213F"/>
<rect x="2599.5" y="1451.5" width="103" height="102" rx="51" stroke="black" stroke-width="5"/>
<rect x="2599.5" y="2012.5" width="103" height="102" rx="51" stroke="black" stroke-width="5"/>
<rect x="2599.5" y="1825.5" width="103" height="102" rx="51" stroke="black" stroke-width="5"/>
<rect x="2599.5" y="1638.5" width="103" height="102" rx="51" stroke="black" stroke-width="5"/>
<rect x="2998" y="1490" width="184" height="14" rx="7" transform="rotate(-180 2998 1490)" fill="#AFAFB8"/>
<rect x="3110" y="1510" width="184" height="14" rx="7" transform="rotate(-180 3110 1510)" fill="#AFAFB8"/>
<rect x="2918" y="1509" width="104" height="14" rx="7" transform="rotate(-180 2918 1509)" fill="#AFAFB8"/>
<rect x="3055" y="1490" width="49" height="14" rx="7" transform="rotate(-180 3055 1490)" fill="#AFAFB8"/>
<rect x="3096" y="1530" width="282" height="14" rx="7" transform="rotate(-180 3096 1530)" fill="#AFAFB8"/>
<rect x="2998" y="2051" width="184" height="14" rx="7" transform="rotate(-180 2998 2051)" fill="#AFAFB8"/>
<rect x="3110" y="2071" width="184" height="14" rx="7" transform="rotate(-180 3110 2071)" fill="#AFAFB8"/>
<rect x="2918" y="2070" width="104" height="14" rx="7" transform="rotate(-180 2918 2070)" fill="#AFAFB8"/>
<rect x="3096" y="2091" width="282" height="14" rx="7" transform="rotate(-180 3096 2091)" fill="#AFAFB8"/>
<rect x="3110" y="1884" width="184" height="14" rx="7" transform="rotate(-180 3110 1884)" fill="#AFAFB8"/>
<rect x="2918" y="1883" width="104" height="14" rx="7" transform="rotate(-180 2918 1883)" fill="#AFAFB8"/>
<rect x="2866" y="1862" width="49" height="14" rx="7" transform="rotate(-180 2866 1862)" fill="#AFAFB8"/>
<rect x="3096" y="1904" width="282" height="14" rx="7" transform="rotate(-180 3096 1904)" fill="#AFAFB8"/>
<rect x="2926" y="1677" width="112" height="14" rx="7" transform="rotate(-180 2926 1677)" fill="#AFAFB8"/>
<rect x="3110" y="1697" width="184" height="14" rx="7" transform="rotate(-180 3110 1697)" fill="#AFAFB8"/>
<rect x="2918" y="1696" width="104" height="14" rx="7" transform="rotate(-180 2918 1696)" fill="#AFAFB8"/>
<rect x="2986" y="1677" width="49" height="14" rx="7" transform="rotate(-180 2986 1677)" fill="#AFAFB8"/>
<rect x="3006" y="1717" width="192" height="14" rx="7" transform="rotate(-180 3006 1717)" fill="#AFAFB8"/>
<path d="M2628.3 1527.99C2625.55 1523.87 2620.87 1521.55 2620 1494.38L2621.31 1482.94L2623.05 1470.07C2625.24 1477.93 2629.43 1497.31 2633.98 1509.04C2638.52 1520.77 2647.81 1513.93 2651.88 1509.04L2727 1410C2705.6 1444.8 2660.62 1517.12 2651.88 1527.99C2640.96 1541.58 2630.92 1531.92 2628.3 1527.99Z" fill="#FF2F2F"/>
<path d="M2628.3 2089.99C2625.55 2085.87 2620.87 2083.55 2620 2056.38L2621.31 2044.94L2623.05 2032.07C2625.24 2039.93 2629.43 2059.31 2633.98 2071.04C2638.52 2082.77 2647.81 2075.93 2651.88 2071.04L2727 1972C2705.6 2006.8 2660.62 2079.12 2651.88 2089.99C2640.96 2103.58 2630.92 2093.92 2628.3 2089.99Z" fill="#FF2F2F"/>
<path d="M2628.3 1908.99C2625.55 1904.87 2620.87 1902.55 2620 1875.38L2621.31 1863.94L2623.05 1851.07C2625.24 1858.93 2629.43 1878.31 2633.98 1890.04C2638.52 1901.77 2647.81 1894.93 2651.88 1890.04L2727 1791C2705.6 1825.8 2660.62 1898.12 2651.88 1908.99C2640.96 1922.58 2630.92 1912.92 2628.3 1908.99Z" fill="#FF2F2F"/>
<path d="M2628.3 1717.99C2625.55 1713.87 2620.87 1711.55 2620 1684.38L2621.31 1672.94L2623.05 1660.07C2625.24 1667.93 2629.43 1687.31 2633.98 1699.04C2638.52 1710.77 2647.81 1703.93 2651.88 1699.04L2727 1600C2705.6 1634.8 2660.62 1707.12 2651.88 1717.99C2640.96 1731.58 2630.92 1721.92 2628.3 1717.99Z" fill="#FF2F2F"/>
<path d="M558 2357H2736.5L2691 2396L2644 2433.5H651L604 2396.5L558 2357Z" fill="#3F3A3A"/>
<defs>
<filter id="filter0_i_0_1" x="1948.44" y="1135.87" width="93.9844" height="19.2207" filterUnits="userSpaceOnUse" color-interpolation-filters="sRGB">
<feFlood flood-opacity="0" result="BackgroundImageFix"/>
<feBlend mode="normal" in="SourceGraphic" in2="BackgroundImageFix" result="shape"/>
<feColorMatrix in="SourceAlpha" type="matrix" values="0 0 0 0 0 0 0 0 0 0 0 0 0 0 0 0 0 0 127 0" result="hardAlpha"/>
<feOffset dy="4"/>
<feGaussianBlur stdDeviation="2"/>
<feComposite in2="hardAlpha" operator="arithmetic" k2="-1" k3="1"/>
<feColorMatrix type="matrix" values="0 0 0 0 0 0 0 0 0 0 0 0 0 0 0 0 0 0 0.25 0"/>
<feBlend mode="normal" in2="shape" result="effect1_innerShadow_0_1"/>
</filter>
<filter id="filter1_i_0_1" x="1528.72" y="1133.53" width="95.2715" height="20.3926" filterUnits="userSpaceOnUse" color-interpolation-filters="sRGB">
<feFlood flood-opacity="0" result="BackgroundImageFix"/>
<feBlend mode="normal" in="SourceGraphic" in2="BackgroundImageFix" result="shape"/>
<feColorMatrix in="SourceAlpha" type="matrix" values="0 0 0 0 0 0 0 0 0 0 0 0 0 0 0 0 0 0 127 0" result="hardAlpha"/>
<feOffset dy="4"/>
<feGaussianBlur stdDeviation="2"/>
<feComposite in2="hardAlpha" operator="arithmetic" k2="-1" k3="1"/>
<feColorMatrix type="matrix" values="0 0 0 0 0 0 0 0 0 0 0 0 0 0 0 0 0 0 0.25 0"/>
<feBlend mode="normal" in2="shape" result="effect1_innerShadow_0_1"/>
</filter>
<linearGradient id="paint0_linear_0_1" x1="1647.5" y1="0" x2="1647.5" y2="2762" gradientUnits="userSpaceOnUse">
<stop stop-color="#11213F"/>
<stop offset="1" stop-color="#0B1831"/>
</linearGradient>
<linearGradient id="paint1_linear_0_1" x1="2.57539" y1="-3.05937e-05" x2="239.341" y2="71.8725" gradientUnits="userSpaceOnUse">
<stop stop-color="#545370"/>
<stop offset="1" stop-color="#2C2B3C"/>
</linearGradient>
<linearGradient id="paint2_linear_0_1" x1="1105.78" y1="2066" x2="1145.15" y2="2278.02" gradientUnits="userSpaceOnUse">
<stop stop-color="#403F50"/>
<stop offset="1" stop-color="#2C2A48"/>
</linearGradient>
<linearGradient id="paint3_linear_0_1" x1="345.364" y1="652" x2="2443.37" y2="2104.37" gradientUnits="userSpaceOnUse">
<stop stop-color="#4D4B68"/>
<stop offset="1" stop-color="#4C4A6A"/>
</linearGradient>
<radialGradient id="paint4_radial_0_1" cx="0" cy="0" r="1" gradientUnits="userSpaceOnUse" gradientTransform="translate(1521 192.5) rotate(90) scale(2005.5 4543.71)">
<stop/>
<stop offset="0.34375" stop-color="#0B0724"/>
<stop offset="0.697917" stop-color="#3E091C"/>
<stop offset="1" stop-color="#511E07"/>
</radialGradient>
<linearGradient id="paint5_linear_0_1" x1="1897" y1="675" x2="1677" y2="678" gradientUnits="userSpaceOnUse">
<stop offset="0.055693" stop-color="#D13C13"/>
<stop offset="1" stop-color="#F25428"/>
</linearGradient>
<linearGradient id="paint6_linear_0_1" x1="2022.5" y1="926" x2="1937" y2="926" gradientUnits="userSpaceOnUse">
<stop stop-color="#D13C13"/>
<stop offset="1" stop-color="#EF5C1D"/>
</linearGradient>
<linearGradient id="paint7_linear_0_1" x1="1603.93" y1="926" x2="1521" y2="926" gradientUnits="userSpaceOnUse">
<stop stop-color="#D13C13"/>
<stop offset="0.575044" stop-color="#EF5C1D"/>
</linearGradient>
<radialGradient id="paint8_radial_0_1" cx="0" cy="0" r="1" gradientUnits="userSpaceOnUse" gradientTransform="translate(1788 513) rotate(86.9036) scale(59.4243 65.7148)">
<stop stop-color="#DDF1F9"/>
<stop offset="1" stop-color="#6EBDDA"/>
</radialGradient>
<linearGradient id="paint9_linear_0_1" x1="769" y1="1363" x2="769" y2="1532" gradientUnits="userSpaceOnUse">
<stop stop-color="#925700"/>
<stop offset="1" stop-color="#9F4009"/>
</linearGradient>
</defs>
</svg>
