<svg width="100%" height="100%" viewBox="0 0 3222 2762" fill="none" xmlns="http://www.w3.org/2000/svg">
<g clip-path="url(#clip0_782_1642)">
<ellipse cx="1647.5" cy="1381" rx="1539.5" ry="1381" fill="url(#paint0_linear_782_1642)"/>
<path d="M3187 1381C3187 1562.36 3147.18 1741.94 3069.81 1909.49C2992.45 2077.04 2879.05 2229.28 2736.09 2357.51C2422.5 2357.51 2179 2357.51 1993 2357.51C1757.5 2357.51 1798.67 2357.51 1596.5 2357.51C1394.33 2357.51 1417 2357.51 1161 2357.51C782 2357.51 802 2357.51 558.909 2357.51C415.953 2229.28 302.555 2077.04 225.187 1909.49C147.82 1741.94 108 1562.36 108 1381L1647.5 1381H3187Z" fill="#737579"/>
<rect x="253" y="2150" width="499" height="132" rx="66" fill="#010100"/>
<rect y="1054" width="244" height="132" rx="66" fill="#010100"/>
<rect x="2978" y="1437" width="244" height="132" rx="66" fill="#010100"/>
<rect x="2038" y="101" width="551" height="132" rx="66" fill="#010100"/>
<path d="M558 2357H2736L2693.76 2393.45L2649.51 2429.9L2600.52 2464.95L2549.52 2500H745L694.495 2465.42L645.989 2430.84L600.995 2393.92L558 2357Z" fill="#3F3A3A"/>
<path d="M3084.56 676.97C3089.66 645.971 3084.03 620.491 3080.18 610.505C3079.97 609.945 3080.26 609.342 3080.82 609.193L3107.33 602.224C3107.81 602.099 3108.33 602.347 3108.53 602.808C3121.52 631.433 3117.56 666.369 3113.75 681.169C3113.64 681.632 3113.19 681.908 3112.71 681.842L3085.47 678.179C3084.88 678.101 3084.47 677.54 3084.56 676.97Z" fill="#511E07"/>
<path d="M2942.62 455.462C2913.02 447.804 2887.94 448.421 2875.77 450.13C2873.59 450.436 2871.44 449.038 2870.94 446.866L2866.53 427.657C2866.05 425.551 2867.29 423.47 2869.38 423.034C2899.02 416.847 2932.8 423.973 2949.33 429.368C2951.3 430.012 2952.42 432.086 2951.94 434.085L2947.5 452.593C2946.98 454.755 2944.79 456.024 2942.62 455.462Z" fill="#511E07"/>
<path d="M3052.34 530.055C3035.46 505.45 3015.42 490.059 3005.06 483.957C3003.56 483.069 3003.04 481.243 3003.98 479.86L3016.43 461.587C3017.29 460.33 3019.06 459.881 3020.49 460.598C3048.38 474.609 3068.97 501.678 3077.11 515.691C3077.85 516.962 3077.39 518.509 3076.08 519.3L3056.79 530.963C3055.31 531.862 3053.3 531.441 3052.34 530.055Z" fill="#511E07"/>
<path d="M2795.69 486.883C2764.61 500.767 2745.09 519.419 2738.51 527.856C2738.17 528.294 2737.49 528.39 2737.01 528.059L2714.72 512.685C2714.29 512.383 2714.17 511.83 2714.45 511.414C2732.28 485.72 2766.05 468.822 2781.66 463.219C2782.14 463.045 2782.68 463.242 2782.94 463.666L2796.14 485.569C2796.43 486.049 2796.22 486.647 2795.69 486.883Z" fill="#511E07"/>
<path d="M2705.19 606.158C2699.2 637.68 2704.08 662.878 2707.62 672.639C2707.82 673.187 2707.51 673.816 2706.94 674.006L2680.3 682.928C2679.83 683.088 2679.32 682.875 2679.13 682.427C2667.01 654.596 2671.98 619.196 2676.21 604.046C2676.34 603.571 2676.79 603.263 2677.27 603.293L2704.33 605.006C2704.9 605.042 2705.3 605.577 2705.19 606.158Z" fill="#511E07"/>
<path d="M2736.13 754.5C2754.07 780.868 2775.15 794.926 2784.48 799.18C2785.01 799.422 2785.25 800.093 2784.99 800.638L2772.62 826.291C2772.4 826.742 2771.91 826.953 2771.46 826.782C2743.45 816.15 2722.06 787.785 2714.38 774.115C2714.14 773.686 2714.23 773.152 2714.58 772.829L2734.71 754.307C2735.14 753.913 2735.8 754.006 2736.13 754.5Z" fill="#511E07"/>
<path d="M3084.56 676.972C3089.66 645.973 3084.03 620.493 3080.18 610.507C3079.97 609.947 3080.26 609.344 3080.82 609.195L3107.33 602.226C3107.81 602.101 3108.33 602.349 3108.53 602.81C3121.52 631.435 3117.56 666.371 3113.75 681.171C3113.64 681.634 3113.19 681.91 3112.71 681.844L3085.47 678.181C3084.88 678.103 3084.47 677.542 3084.56 676.972Z" fill="#511E07"/>
<path d="M3062.47 641.967C3062.47 732.3 2988.51 805.999 2896.7 805.999C2804.88 805.999 2730.93 732.3 2730.93 641.967C2730.93 551.634 2804.88 477.936 2896.7 477.936C2988.51 477.936 3062.47 551.634 3062.47 641.967Z" stroke="url(#paint1_linear_782_1642)" stroke-width="62"/>
<path d="M2795.69 486.883C2764.61 500.767 2745.09 519.419 2738.51 527.856C2738.17 528.294 2737.49 528.39 2737.01 528.059L2714.72 512.685C2714.29 512.383 2714.17 511.83 2714.45 511.414C2732.28 485.72 2766.05 468.822 2781.66 463.219C2782.14 463.045 2782.68 463.242 2782.94 463.666L2796.14 485.569C2796.43 486.049 2796.22 486.647 2795.69 486.883Z" fill="#511E07"/>
<path d="M2705.19 606.158C2699.2 637.68 2704.08 662.878 2707.62 672.639C2707.82 673.187 2707.51 673.816 2706.94 674.006L2680.3 682.928C2679.83 683.088 2679.32 682.875 2679.13 682.427C2667.01 654.596 2671.98 619.196 2676.21 604.046C2676.34 603.571 2676.79 603.263 2677.27 603.293L2704.33 605.006C2704.9 605.042 2705.3 605.577 2705.19 606.158Z" fill="#511E07"/>
<path d="M2736.14 754.5C2754.07 780.868 2775.15 794.926 2784.49 799.18C2785.02 799.422 2785.25 800.093 2784.99 800.638L2772.63 826.291C2772.41 826.742 2771.91 826.953 2771.46 826.782C2743.45 816.15 2722.06 787.785 2714.38 774.115C2714.14 773.686 2714.23 773.152 2714.58 772.829L2734.71 754.307C2735.14 753.913 2735.8 754.006 2736.14 754.5Z" fill="#511E07"/>
<path d="M3013.41 793.856C3039.98 776.62 3054.59 755.706 3059.12 746.37C3059.38 745.839 3060.04 745.627 3060.57 745.915L3085.26 759.485C3085.69 759.725 3085.88 760.238 3085.7 760.69C3074.19 788.786 3045.53 809.458 3031.82 816.749C3031.39 816.978 3030.87 816.863 3030.57 816.492L3013.17 795.296C3012.8 794.844 3012.92 794.178 3013.41 793.856Z" fill="#511E07"/>
<path d="M2875.13 832.187C2905.77 839.519 2930.65 835.583 2940.39 832.373C2940.95 832.188 2941.57 832.524 2941.74 833.108L2949.43 860.6C2949.57 861.077 2949.34 861.564 2948.89 861.744C2921.1 872.964 2886.56 866.498 2871.87 861.589C2871.41 861.435 2871.12 860.982 2871.17 860.509L2873.93 833.01C2873.99 832.427 2874.55 832.048 2875.13 832.187Z" fill="#511E07"/>
<path d="M2789.71 626.051C2797.46 579.626 2788.83 541.526 2783.15 527.124C2782.92 526.567 2783.22 525.97 2783.78 525.822L2823.74 515.32C2824.21 515.195 2824.73 515.443 2824.94 515.903C2844.39 558.393 2838.36 610.466 2832.7 632.113C2832.58 632.576 2832.14 632.846 2831.66 632.781L2790.61 627.261C2790.03 627.183 2789.61 626.621 2789.71 626.051Z" fill="#511E07"/>
<path d="M2582.52 299.685C2536.53 287.464 2497.66 288.865 2480.29 291.617C2478.11 291.962 2475.98 290.566 2475.48 288.393L2468.14 256.443C2467.65 254.337 2468.9 252.259 2470.98 251.797C2516.08 241.792 2568.19 253.193 2592.19 261.298C2594.16 261.962 2595.26 264.031 2594.78 266.03L2587.4 296.828C2586.88 298.99 2584.68 300.261 2582.52 299.685Z" fill="#511E07"/>
<path d="M2743.14 410.295C2717.37 372.269 2686.34 348.935 2671.35 340.419C2669.83 339.553 2669.31 337.727 2670.25 336.343L2690.13 307.167C2690.98 305.91 2692.75 305.461 2694.19 306.166C2736.6 326.978 2767.74 368.467 2779.41 388.977C2780.14 390.254 2779.67 391.803 2778.37 392.594L2747.58 411.213C2746.1 412.112 2744.08 411.685 2743.14 410.295Z" fill="#511E07"/>
<path d="M2364.66 345.28C2318.1 365.974 2289.06 393.968 2279.64 406.245C2279.3 406.685 2278.63 406.769 2278.16 406.439L2244.53 383.247C2244.1 382.945 2243.98 382.392 2244.26 381.976C2270.62 343.701 2321.04 318.608 2343.91 310.477C2344.4 310.304 2344.94 310.503 2345.19 310.928L2365.11 343.966C2365.4 344.446 2365.19 345.044 2364.66 345.28Z" fill="#511E07"/>
<path d="M2230.94 520.707C2221.87 567.924 2229.35 605.591 2234.6 619.657C2234.81 620.202 2234.5 620.825 2233.93 621.015L2193.78 634.459C2193.31 634.619 2192.8 634.406 2192.61 633.959C2174.45 592.66 2181.98 539.886 2188.25 517.72C2188.39 517.246 2188.83 516.943 2189.31 516.974L2230.08 519.554C2230.66 519.59 2231.05 520.126 2230.94 520.707Z" fill="#511E07"/>
<path d="M2276.14 739.337C2302.94 778.924 2334.6 799.796 2348.15 805.817C2348.68 806.054 2348.91 806.722 2348.65 807.267L2330.02 845.917C2329.8 846.368 2329.31 846.579 2328.86 846.41C2287.17 830.766 2255.37 788.387 2244.19 768.324C2243.95 767.895 2244.05 767.366 2244.4 767.043L2274.72 739.143C2275.15 738.749 2275.81 738.843 2276.14 739.337Z" fill="#511E07"/>
<path d="M2789.71 626.051C2797.46 579.626 2788.83 541.526 2783.15 527.124C2782.92 526.567 2783.22 525.97 2783.78 525.822L2823.74 515.32C2824.21 515.195 2824.73 515.443 2824.94 515.903C2844.39 558.393 2838.36 610.466 2832.7 632.113C2832.58 632.576 2832.14 632.846 2831.66 632.781L2790.61 627.261C2790.03 627.183 2789.61 626.621 2789.71 626.051Z" fill="#511E07"/>
<path d="M2749.92 573.977C2749.92 702.961 2644.29 808.324 2513.01 808.324C2381.72 808.324 2276.1 702.961 2276.1 573.977C2276.1 444.994 2381.72 339.631 2513.01 339.631C2644.29 339.631 2749.92 444.994 2749.92 573.977Z" stroke="url(#paint2_linear_782_1642)" stroke-width="106"/>
<path d="M2364.66 345.28C2318.1 365.974 2289.06 393.968 2279.64 406.245C2279.3 406.685 2278.63 406.769 2278.16 406.439L2244.53 383.247C2244.1 382.945 2243.98 382.392 2244.26 381.976C2270.62 343.701 2321.04 318.608 2343.91 310.477C2344.4 310.304 2344.94 310.503 2345.19 310.928L2365.11 343.966C2365.4 344.446 2365.19 345.044 2364.66 345.28Z" fill="#511E07"/>
<path d="M2230.94 520.707C2221.87 567.924 2229.35 605.591 2234.6 619.657C2234.81 620.202 2234.5 620.825 2233.93 621.015L2193.78 634.459C2193.31 634.619 2192.8 634.406 2192.61 633.959C2174.45 592.66 2181.98 539.886 2188.25 517.72C2188.39 517.246 2188.83 516.943 2189.31 516.974L2230.08 519.554C2230.66 519.59 2231.05 520.126 2230.94 520.707Z" fill="#511E07"/>
<path d="M2276.15 739.337C2302.95 778.924 2334.6 799.796 2348.16 805.817C2348.69 806.054 2348.92 806.722 2348.66 807.267L2330.03 845.917C2329.81 846.368 2329.32 846.579 2328.87 846.41C2287.17 830.766 2255.38 788.387 2244.2 768.324C2243.96 767.895 2244.06 767.366 2244.41 767.043L2274.73 739.143C2275.16 738.749 2275.82 738.843 2276.15 739.337Z" fill="#511E07"/>
<path d="M2684.52 798.044C2724.4 772.3 2746.1 740.883 2752.53 727.323C2752.78 726.79 2753.44 726.583 2753.97 726.872L2791.17 747.318C2791.6 747.557 2791.79 748.071 2791.61 748.523C2774.65 790.349 2731.85 821.071 2711.73 831.675C2711.3 831.902 2710.79 831.785 2710.48 831.414L2684.28 799.484C2683.91 799.032 2684.02 798.365 2684.52 798.044Z" fill="#511E07"/>
<path d="M2480.71 854.112C2526.62 865.212 2563.83 859.118 2577.87 854.341C2578.43 854.151 2579.05 854.49 2579.21 855.073L2590.81 896.489C2590.94 896.966 2590.71 897.452 2590.27 897.634C2549.02 914.468 2497.54 904.697 2476.04 897.429C2475.58 897.273 2475.3 896.822 2475.35 896.349L2479.51 854.934C2479.57 854.351 2480.13 853.972 2480.71 854.112Z" fill="#511E07"/>
<rect width="205" height="185" transform="matrix(1 0 0 -1 1571 2065)" fill="url(#paint3_linear_782_1642)"/>
<rect x="1244" y="2065" width="858" height="62" rx="31" fill="url(#paint4_linear_782_1642)"/>
<rect x="464" y="584" width="2417" height="1296" rx="80" fill="url(#paint5_linear_782_1642)"/>
<rect x="542" y="658" width="2264" height="1103" rx="25" fill="url(#paint6_linear_782_1642)"/>
<path d="M1172.92 947.1V991.1C1172.92 998.033 1174.56 1003.17 1177.82 1006.5C1181.16 1009.83 1185.69 1011.5 1191.42 1011.5C1197.16 1011.5 1201.62 1009.87 1204.82 1006.6C1208.09 1003.27 1209.72 998.1 1209.72 991.1V947.1H1216.72V991C1216.72 999.867 1214.36 1006.53 1209.62 1011C1204.96 1015.47 1198.86 1017.7 1191.32 1017.7C1183.79 1017.7 1177.66 1015.47 1172.92 1011C1168.26 1006.53 1165.92 999.867 1165.92 991V947.1H1172.92ZM1285.04 1017H1278.04L1239.34 958.2V1017H1232.34V947.1H1239.34L1278.04 1005.8V947.1H1285.04V1017ZM1321.59 947.1C1329.33 947.1 1335.96 948.5 1341.49 951.3C1347.03 954.1 1351.26 958.133 1354.19 963.4C1357.13 968.667 1358.59 974.933 1358.59 982.2C1358.59 989.4 1357.13 995.633 1354.19 1000.9C1351.26 1006.1 1347.03 1010.1 1341.49 1012.9C1335.96 1015.63 1329.33 1017 1321.59 1017H1300.89V947.1H1321.59ZM1321.59 1011.2C1331.33 1011.2 1338.73 1008.67 1343.79 1003.6C1348.93 998.467 1351.49 991.333 1351.49 982.2C1351.49 973 1348.93 965.833 1343.79 960.7C1338.73 955.5 1331.33 952.9 1321.59 952.9H1307.89V1011.2H1321.59ZM1378.5 952.8V978.9H1405V984.7H1378.5V1011.2H1408V1017H1371.5V947H1408V952.8H1378.5ZM1458.99 1017L1441.69 987.8H1428.79V1017H1421.79V947.1H1442.79C1450.59 947.1 1456.49 948.967 1460.49 952.7C1464.56 956.433 1466.59 961.333 1466.59 967.4C1466.59 972.467 1465.12 976.8 1462.19 980.4C1459.32 983.933 1455.06 986.233 1449.39 987.3L1467.39 1017H1458.99ZM1428.79 982.1H1442.89C1448.36 982.1 1452.46 980.767 1455.19 978.1C1457.99 975.433 1459.39 971.867 1459.39 967.4C1459.39 962.8 1458.06 959.267 1455.39 956.8C1452.72 954.267 1448.52 953 1442.79 953H1428.79V982.1ZM1576.22 948V1017H1569.22V961.9L1544.62 1017H1539.52L1514.92 962.1V1017H1507.92V948H1515.32L1542.02 1007.8L1568.72 948H1576.22ZM1632.6 1000.4H1600.8L1594.7 1017H1587.3L1612.8 948H1620.7L1646.1 1017H1638.7L1632.6 1000.4ZM1630.5 994.6L1616.7 956.8L1602.9 994.6H1630.5ZM1664.34 947.1V1017H1657.34V947.1H1664.34ZM1732.89 1017H1725.89L1687.19 958.2V1017H1680.19V947.1H1687.19L1725.89 1005.8V947.1H1732.89V1017ZM1789.64 947.1V952.9H1770.24V1017H1763.24V952.9H1743.74V947.1H1789.64ZM1807.7 952.8V978.9H1834.2V984.7H1807.7V1011.2H1837.2V1017H1800.7V947H1837.2V952.8H1807.7ZM1903.69 1017H1896.69L1857.99 958.2V1017H1850.99V947.1H1857.99L1896.69 1005.8V947.1H1903.69V1017ZM1960.04 1000.4H1928.24L1922.14 1017H1914.74L1940.24 948H1948.14L1973.54 1017H1966.14L1960.04 1000.4ZM1957.94 994.6L1944.14 956.8L1930.34 994.6H1957.94ZM2037.48 1017H2030.48L1991.78 958.2V1017H1984.78V947.1H1991.78L2030.48 1005.8V947.1H2037.48V1017ZM2050.13 982C2050.13 975.133 2051.63 969 2054.63 963.6C2057.63 958.133 2061.73 953.9 2066.93 950.9C2072.13 947.833 2077.93 946.3 2084.33 946.3C2092.13 946.3 2098.8 948.167 2104.33 951.9C2109.93 955.567 2114 960.767 2116.53 967.5H2108.33C2106.33 962.767 2103.27 959.067 2099.13 956.4C2095.07 953.733 2090.13 952.4 2084.33 952.4C2079.2 952.4 2074.57 953.6 2070.43 956C2066.37 958.4 2063.17 961.867 2060.83 966.4C2058.5 970.867 2057.33 976.067 2057.33 982C2057.33 987.933 2058.5 993.133 2060.83 997.6C2063.17 1002.07 2066.37 1005.5 2070.43 1007.9C2074.57 1010.3 2079.2 1011.5 2084.33 1011.5C2090.13 1011.5 2095.07 1010.2 2099.13 1007.6C2103.27 1004.93 2106.33 1001.27 2108.33 996.6H2116.53C2114 1003.27 2109.93 1008.43 2104.33 1012.1C2098.73 1015.77 2092.07 1017.6 2084.33 1017.6C2077.93 1017.6 2072.13 1016.1 2066.93 1013.1C2061.73 1010.03 2057.63 1005.8 2054.63 1000.4C2051.63 995 2050.13 988.867 2050.13 982ZM2137.48 952.8V978.9H2163.98V984.7H2137.48V1011.2H2166.98V1017H2130.48V947H2166.98V952.8H2137.48Z" fill="white"/>
<rect x="633.5" y="1570.5" width="2081" height="81" rx="22.5" fill="#D9D9D9" fill-opacity="0.1" stroke="white" stroke-width="3"/>
<rect x="632" y="1569" width="1144" height="84" rx="24" fill="white"/>
<path d="M698.653 1321.62C657.767 1387.08 565.88 1405.52 492.653 1359.79C419.427 1314.05 395.688 1223.39 436.574 1157.93C477.46 1092.47 569.347 1074.02 642.573 1119.76C715.8 1165.5 739.539 1256.16 698.653 1321.62Z" fill="url(#paint7_linear_782_1642)" fill-opacity="0.19" stroke="black" stroke-width="26"/>
<path d="M471.148 1355.79L503.078 1375.73L423.76 1517.22L346.435 1653.35L293.002 1619.98L380.427 1490.16L471.148 1355.79Z" fill="black"/>
<path d="M699.127 485.35C699.03 485.598 698.887 485.824 698.706 486.013C687.952 497.266 674.299 505.331 660.186 506.414C645.952 507.506 632.712 502.58 623.378 492.722C614.044 482.863 609.381 468.878 610.415 453.843C611.44 438.942 620.45 425.989 631.121 414.658C631.31 414.457 631.538 414.3 631.789 414.197L657.598 403.567C659.673 402.713 661.258 405.616 659.518 407.085L639.62 423.887C632.116 431.813 627.497 442.137 626.778 452.588C626.059 463.038 629.301 472.76 635.789 479.613C642.277 486.466 651.48 489.889 661.374 489.13C671.268 488.371 683.029 484.731 690.533 476.804L702.531 461.53L706.264 456.776C707.689 454.962 710.414 456.7 709.556 458.877L699.127 485.35Z" fill="#353535"/>
<path d="M317.032 735.256C317.129 735.008 317.272 734.783 317.453 734.594C330.058 721.386 346.07 711.916 362.624 710.646C379.298 709.367 394.808 715.137 405.741 726.686C416.675 738.235 422.138 754.617 420.927 772.229C419.725 789.707 409.143 804.898 396.622 818.183C396.432 818.385 396.205 818.542 395.954 818.645L363.618 831.962C361.543 832.817 359.958 829.913 361.698 828.444L386.715 807.321C395.505 798.036 400.917 785.942 401.759 773.7C402.6 761.457 398.803 750.07 391.203 742.042C383.603 734.014 372.822 730.004 361.232 730.893C349.642 731.782 335.865 736.047 327.074 745.332L307.23 770.597C305.804 772.411 303.08 770.673 303.938 768.496L317.032 735.256Z" fill="#353535"/>
<rect width="42.1219" height="348.493" transform="matrix(0.687502 0.726183 -0.687502 0.726183 623.074 464.795)" fill="#353535"/>
<rect width="73.0113" height="367.865" rx="11" transform="matrix(0.687502 -0.726183 0.687502 0.726183 329.246 526.902)" fill="#C59144"/>
<path d="M203.188 563.006C199.77 559.397 199.77 553.545 203.188 549.935L345.379 399.743C346.21 398.865 347.201 398.173 348.291 397.708L441.642 357.898C444.898 356.51 448.623 357.311 451.106 359.933L466.887 376.602C470.304 380.211 470.304 386.064 466.887 389.673L259.175 609.072C255.757 612.682 250.217 612.682 246.8 609.072L203.188 563.006Z" fill="#212121"/>
<path d="M1671.81 1350.65C1671.02 1358.9 1663.63 1365.06 1655.63 1362.91C1638.63 1358.34 1623.22 1348.85 1611.44 1335.46C1596.34 1318.3 1588.33 1296.03 1589.04 1273.18C1589.76 1250.33 1599.15 1228.61 1615.3 1212.42C1631.45 1196.24 1653.15 1186.81 1676 1186.05C1698.85 1185.29 1721.13 1193.25 1738.33 1208.32C1755.52 1223.39 1766.33 1244.44 1768.57 1267.19C1770.81 1289.95 1764.3 1312.7 1750.37 1330.83C1739.51 1344.97 1724.77 1355.47 1708.11 1361.16C1700.27 1363.84 1692.49 1358.18 1691.15 1350.01L1690.26 1344.59C1688.92 1336.42 1694.61 1328.88 1702.11 1325.37C1709.95 1321.7 1716.87 1316.18 1722.23 1309.21C1730.66 1298.23 1734.6 1284.45 1733.25 1270.67C1731.89 1256.89 1725.34 1244.14 1714.93 1235.01C1704.52 1225.88 1691.02 1221.06 1677.18 1221.52C1663.34 1221.98 1650.2 1227.7 1640.42 1237.5C1630.64 1247.3 1624.95 1260.45 1624.52 1274.29C1624.09 1288.13 1628.94 1301.62 1638.08 1312.01C1643.9 1318.62 1651.17 1323.66 1659.23 1326.8C1666.95 1329.8 1673.13 1336.94 1672.34 1345.19L1671.81 1350.65Z" fill="url(#paint8_angular_782_1642)"/>
</g>
<defs>
<linearGradient id="paint0_linear_782_1642" x1="1647.5" y1="0" x2="1647.5" y2="2762" gradientUnits="userSpaceOnUse">
<stop stop-color="#11213F"/>
<stop offset="1" stop-color="#0B1831"/>
</linearGradient>
<linearGradient id="paint1_linear_782_1642" x1="2770.27" y1="493.743" x2="3024.83" y2="818.466" gradientUnits="userSpaceOnUse">
<stop stop-color="#511E07"/>
<stop offset="1" stop-color="#3E1C09"/>
</linearGradient>
<linearGradient id="paint2_linear_782_1642" x1="2326.74" y1="355.594" x2="2701.79" y2="834.015" gradientUnits="userSpaceOnUse">
<stop stop-color="#511E07"/>
<stop offset="1" stop-color="#3E1C09"/>
</linearGradient>
<linearGradient id="paint3_linear_782_1642" x1="2.57539" y1="-2.22453e-05" x2="349.668" y2="187.236" gradientUnits="userSpaceOnUse">
<stop offset="0.296875" stop-color="#484D69"/>
<stop offset="1" stop-color="#100F17"/>
</linearGradient>
<linearGradient id="paint4_linear_782_1642" x1="1254.78" y1="2065" x2="1295.21" y2="2337.38" gradientUnits="userSpaceOnUse">
<stop offset="0.296875" stop-color="#43475E"/>
<stop offset="1" stop-color="#100F17"/>
</linearGradient>
<linearGradient id="paint5_linear_782_1642" x1="494.364" y1="584" x2="3390.42" y2="3213.29" gradientUnits="userSpaceOnUse">
<stop offset="0.296875" stop-color="#3B3B59"/>
<stop offset="0.822917" stop-color="#100E28"/>
</linearGradient>
<linearGradient id="paint6_linear_782_1642" x1="1674" y1="658" x2="1674" y2="1761" gradientUnits="userSpaceOnUse">
<stop stop-color="#9F4009"/>
<stop offset="1" stop-color="#3E091C"/>
</linearGradient>
<linearGradient id="paint7_linear_782_1642" x1="649.46" y1="1108.73" x2="485.767" y2="1370.81" gradientUnits="userSpaceOnUse">
<stop stop-color="#FFF3F3"/>
<stop offset="1" stop-color="white" stop-opacity="0.53"/>
</linearGradient>
<radialGradient id="paint8_angular_782_1642" cx="0" cy="0" r="1" gradientUnits="userSpaceOnUse" gradientTransform="translate(1679 1276) rotate(90) scale(90)">
<stop stop-color="#D9D9D9"/>
<stop offset="1" stop-color="#D9D9D9" stop-opacity="0"/>
</radialGradient>
<clipPath id="clip0_782_1642">
<rect width="3222" height="2762" fill="white"/>
</clipPath>
</defs>
</svg>
