<svg width="708" height="706" viewBox="0 0 708 706" fill="none" xmlns="http://www.w3.org/2000/svg">
<g id="Clip path group">
<mask id="mask0_10_2" style="mask-type:luminance" maskUnits="userSpaceOnUse" x="0" y="0" width="708" height="706">
<g id="clip0_522_250">
<path id="Vector" d="M707.047 0H0V706H707.047V0Z" fill="white"/>
</g>
</mask>
<g mask="url(#mask0_10_2)">
<g id="Group">
<g id="radar">
<path id="Vector_2" d="M22.7929 261.674C22.9693 262.036 22.8215 262.479 22.4628 262.664C22.1041 262.848 21.6703 262.704 21.494 262.342L20.6312 260.569L21.9301 259.901L22.7929 261.674Z" fill="#12102B"/>
<path id="Vector_3" d="M13.0467 260.061L20.4694 260.599L22.2713 259.873L27.1703 254.495L26.8973 253.821L12.9318 259.454L13.0467 260.061Z" fill="#474565"/>
<path id="Vector_4" d="M18.7254 255.989L16.005 258.246L16.8943 257.855L19.0457 256.113L19.7126 255.819L22.7721 255.534L23.6614 255.142L19.8369 255.5L18.7254 255.989Z" fill="#474565"/>
<path id="Vector_5" d="M19.1536 256.058L19.4066 255.944L19.7327 256.712L19.4796 256.826L19.1536 256.058Z" fill="#2F2E41"/>
<path id="Vector_6" d="M17.8621 253.186C17.815 253.075 17.867 252.943 17.9783 252.894C18.0897 252.844 18.2181 252.896 18.2652 253.008L19.3976 255.704L18.9945 255.883L17.8621 253.186Z" fill="#474565"/>
<path id="Vector_7" d="M21.2183 260.44L19.5596 256.839L24.8878 254.628L21.2183 260.44Z" fill="black" fill-opacity="0.3"/>
<path id="Vector_8" d="M19.6016 256.781L21.2196 260.439L14.8804 258.697L19.6016 256.781Z" fill="black" fill-opacity="0.6"/>
<path id="Vector_9" d="M20.4998 260.565L21.0778 260.342L14.8803 258.697L12.9071 259.405L13.0306 260.122L20.4998 260.565Z" fill="black" fill-opacity="0.85"/>
</g>
<path id="Vector_10" d="M355.241 706.216C544.984 706.216 698.802 555.718 698.802 370.071C698.802 184.427 544.984 33.9307 355.241 33.9307C165.498 33.9307 11.6807 184.427 11.6807 370.071C11.6807 555.718 165.498 706.216 355.241 706.216Z" fill="url(#paint0_radial_10_2)"/>
<path id="Vector_11" d="M253.795 290.166C253.795 317.646 231.11 339.922 203.126 339.922C175.142 339.922 152.457 317.646 152.457 290.166C152.457 262.687 175.142 240.411 203.126 240.411C231.11 240.411 253.795 262.687 253.795 290.166Z" fill="url(#paint1_radial_10_2)" fill-opacity="0.38"/>
<path id="Vector_12" d="M237.461 100.406C244.589 111.91 240.755 126.979 228.898 134.064C217.04 141.149 201.649 137.567 194.521 126.064C187.393 114.56 191.226 99.4908 203.084 92.4057C214.942 85.3206 230.333 88.9022 237.461 100.406Z" fill="url(#paint2_radial_10_2)"/>
<path id="Vector_13" d="M233.119 102.273C239.093 112.456 235.88 125.794 225.942 132.065C216.005 138.337 203.106 135.166 197.132 124.984C191.158 114.801 194.371 101.463 204.309 95.1911C214.246 88.9197 227.145 92.09 233.119 102.273Z" fill="url(#paint3_radial_10_2)"/>
<path id="Vector_14" d="M76.2454 361.278C74.8111 381.603 62.8016 397.337 49.42 396.426C36.0395 395.515 26.3551 378.306 27.7895 357.981C29.2239 337.655 41.2338 321.918 54.6147 322.829C67.9956 323.739 77.6796 340.953 76.2454 361.278Z" fill="url(#paint4_radial_10_2)"/>
<path id="Vector_15" d="M71.986 360.957C70.8073 378.522 60.9359 392.116 49.9374 391.329C38.9393 390.542 30.9791 375.67 32.1581 358.112C33.3371 340.549 43.2088 326.952 54.2069 327.738C65.2054 328.525 73.1653 343.4 71.986 360.957Z" fill="#0B0502" fill-opacity="0.1"/>
<path id="Vector_16" d="M585.268 437.417C585.268 458.388 568.193 475.389 547.134 475.389C526.075 475.389 508.999 458.388 508.999 437.417C508.999 416.445 526.075 399.444 547.134 399.444C568.193 399.444 585.268 416.445 585.268 437.417Z" fill="url(#paint5_radial_10_2)" fill-opacity="0.2"/>
<path id="Vector_17" d="M583.023 438.522C583.023 456.804 567.815 471.623 549.057 471.623C530.295 471.623 515.087 456.804 515.087 438.522C515.087 420.24 530.295 405.421 549.057 405.421C567.815 405.421 583.023 420.24 583.023 438.522Z" fill="#271307" fill-opacity="0.07"/>
<path id="Vector_18" d="M355.33 607.958C355.33 628.93 338.257 645.93 317.196 645.93C296.136 645.93 279.063 628.93 279.063 607.958C279.063 586.99 296.136 569.986 317.196 569.986C338.257 569.986 355.33 586.99 355.33 607.958Z" fill="url(#paint6_radial_10_2)" fill-opacity="0.2"/>
<path id="Vector_19" d="M345.941 603.118C345.941 621.972 331.091 637.25 312.771 637.25C294.452 637.25 279.601 621.972 279.601 603.118C279.601 584.268 294.452 568.983 312.771 568.983C331.091 568.983 345.941 584.268 345.941 603.118Z" fill="#1D1008" fill-opacity="0.01"/>
<path id="Vector_20" d="M547.169 265.16C547.169 286.131 530.101 303.131 509.035 303.131C487.979 303.131 470.904 286.131 470.904 265.16C470.904 244.189 487.979 227.189 509.035 227.189C530.101 227.189 547.169 244.189 547.169 265.16Z" fill="url(#paint7_radial_10_2)" fill-opacity="0.5"/>
<path id="Vector_21" d="M547.173 265.452C547.173 284.474 531.102 299.894 511.269 299.894C491.447 299.894 475.369 284.474 475.369 265.452C475.369 246.431 491.447 231.011 511.269 231.011C531.102 231.011 547.173 246.431 547.173 265.452Z" fill="#291103" fill-opacity="0.03"/>
<path id="Vector_22" d="M87.5738 541.52C93.9807 553.709 94.604 566.096 88.967 569.191C83.3305 572.28 73.5672 564.913 67.1614 552.724C60.7545 540.535 60.1305 528.148 65.7674 525.056C71.4047 521.96 81.1676 529.331 87.5738 541.52Z" fill="url(#paint8_radial_10_2)" fill-opacity="0.5"/>
<path id="Vector_23" d="M86.0325 542.561C91.6231 553.116 92.1676 563.843 87.2483 566.519C82.3294 569.198 73.8095 562.816 68.2188 552.265C62.6282 541.707 62.0834 530.983 67.0027 528.303C71.922 525.624 80.4415 532.006 86.0325 542.561Z" fill="url(#paint9_radial_10_2)" fill-opacity="0.5"/>
<path id="Vector_24" d="M227.237 487.574C229.848 500.681 222.753 513.082 211.389 515.267C200.025 517.452 188.695 508.585 186.083 495.478C183.472 482.368 190.567 469.967 201.931 467.785C213.295 465.604 224.625 474.464 227.237 487.574Z" fill="url(#paint10_radial_10_2)" fill-opacity="0.47"/>
<path id="Vector_25" d="M427.576 147.752C427.576 158.27 418.974 166.796 408.358 166.796C397.745 166.796 389.137 158.27 389.137 147.752C389.137 137.234 397.745 128.708 408.358 128.708C418.974 128.708 427.576 137.234 427.576 147.752Z" fill="url(#paint11_radial_10_2)"/>
<path id="Vector_26" d="M22.6918 278.787C23.5981 279.517 23.8289 281.782 23.8311 282.823L27.9424 270.367C27.1319 272.311 25.4279 272.807 24.6772 272.812L22.6918 278.787Z" fill="url(#paint12_linear_10_2)"/>
<path id="Vector_27" d="M24.0266 275.926C24.574 274.279 24.8642 272.885 24.6749 272.813C24.4856 272.741 23.8884 274.018 23.341 275.665C22.7936 277.312 22.5034 278.705 22.6927 278.778C22.882 278.85 23.4792 277.573 24.0266 275.926Z" fill="url(#paint13_linear_10_2)"/>
<path id="Vector_28" d="M23.8694 275.891C24.3099 274.565 24.5782 273.457 24.4686 273.415C24.3591 273.374 23.9131 274.414 23.4726 275.74C23.0322 277.065 22.7639 278.173 22.8735 278.215C22.983 278.257 23.4289 277.216 23.8694 275.891Z" fill="#1E1B16" fill-opacity="0.15"/>
<path id="Vector_29" d="M337.239 29.7746C336.7 32.238 332.734 34.4847 330.819 35.2999L357.408 34.1947C353.109 34.0142 350.682 30.8377 350.006 29.272L337.239 29.7746Z" fill="url(#paint14_linear_10_2)"/>
<path id="Vector_30" d="M343.693 30.3419C347.212 30.2036 350.037 29.7251 350.001 29.2731C349.966 28.8212 347.084 28.5669 343.565 28.7052C340.046 28.8434 337.222 29.322 337.257 29.7739C337.293 30.2259 340.174 30.4802 343.693 30.3419Z" fill="url(#paint15_linear_10_2)"/>
<path id="Vector_31" d="M343.617 29.9797C346.449 29.8684 348.728 29.5661 348.708 29.3045C348.687 29.043 346.375 28.9212 343.543 29.0324C340.711 29.1437 338.432 29.446 338.452 29.7076C338.472 29.9691 340.785 30.091 343.617 29.9797Z" fill="#31230B" fill-opacity="0.58"/>
<path id="Vector_32" d="M425.193 36.1719C424.04 38.4159 419.632 39.5776 417.574 39.878L443.501 45.1364C439.39 43.866 437.92 40.6257 437.665 38.9394L425.193 36.1719Z" fill="url(#paint16_linear_10_2)"/>
<path id="Vector_33" d="M431.288 38.3649C434.724 39.128 437.577 39.385 437.658 38.9392C437.739 38.493 435.021 37.5127 431.581 36.7499C428.145 35.9867 425.292 35.7294 425.211 36.1755C425.129 36.6214 427.851 37.6017 431.288 38.3649Z" fill="url(#paint17_linear_10_2)"/>
<path id="Vector_34" d="M431.305 37.9953C434.074 38.6095 436.354 38.8979 436.403 38.6399C436.449 38.3818 434.243 37.6748 431.479 37.0605C428.711 36.4463 426.43 36.1576 426.381 36.416C426.335 36.674 428.541 37.3811 431.305 37.9953Z" fill="#31230B" fill-opacity="0.58"/>
<path id="Vector_35" d="M30.3414 245.119C32.6164 246.846 32.9328 252.014 32.8066 254.383L45.1246 226.344C42.761 230.708 38.2465 231.713 36.2848 231.67L30.3414 245.119Z" fill="url(#paint18_linear_10_2)"/>
<path id="Vector_36" d="M34.1954 238.708C35.8339 235.001 36.7687 231.851 36.2833 231.674C35.7979 231.496 34.0759 234.357 32.4374 238.065C30.7989 241.771 29.8642 244.921 30.3496 245.098C30.8351 245.276 32.5569 242.415 34.1954 238.708Z" fill="url(#paint19_linear_10_2)"/>
<path id="Vector_37" d="M33.7831 238.615C35.1018 235.632 35.943 233.13 35.662 233.027C35.3809 232.924 34.0843 235.26 32.7657 238.243C31.4471 241.226 30.6059 243.728 30.8868 243.831C31.1678 243.934 32.4645 241.598 33.7831 238.615Z" fill="#1E1B16" fill-opacity="0.15"/>
<path id="Vector_38" d="M51.5964 253.256C54.0947 247.706 55.1461 242.487 53.9448 241.6C52.7436 240.713 49.7446 244.494 47.2463 250.044C44.7479 255.595 43.6962 260.814 44.8975 261.701C46.0987 262.588 49.098 258.807 51.5964 253.256Z" fill="#140E04" fill-opacity="0.4"/>
<path id="Vector_39" d="M51.5988 253.256C53.7638 248.446 54.7886 244.006 53.8879 243.341C52.9867 242.676 50.5011 246.037 48.3361 250.847C46.1708 255.658 45.1459 260.097 46.0467 260.763C46.9478 261.428 49.4335 258.067 51.5988 253.256Z" fill="#0D0801" fill-opacity="0.29"/>
<path id="Vector_40" d="M31.1311 310.689C31.8741 307.486 31.7853 304.611 30.9328 304.267C30.0802 303.923 28.7868 306.241 28.0438 309.444C27.3008 312.646 27.3896 315.521 28.2421 315.865C29.0946 316.209 30.3881 313.892 31.1311 310.689Z" fill="#140E04" fill-opacity="0.4"/>
<path id="Vector_41" d="M31.1323 310.689C31.7762 307.913 31.7799 305.454 31.1405 305.196C30.5011 304.938 29.4607 306.979 28.8168 309.755C28.1728 312.531 28.1691 314.99 28.8086 315.248C29.4479 315.506 30.4883 313.465 31.1323 310.689Z" fill="#0D0801" fill-opacity="0.29"/>
<path id="Vector_42" d="M366.105 50.1711C372.193 50.408 377.436 49.4291 377.81 47.985C378.185 46.5405 373.55 45.178 367.459 44.9411C361.371 44.7042 356.129 45.6831 355.754 47.1272C355.379 48.5714 360.014 49.9343 366.105 50.1711Z" fill="#140E04" fill-opacity="0.4"/>
<path id="Vector_43" d="M366.105 50.1721C371.383 50.3772 375.891 49.6656 376.17 48.5825C376.449 47.4992 372.398 46.455 367.12 46.2496C361.842 46.0445 357.338 46.7561 357.055 47.8391C356.776 48.9225 360.827 49.967 366.105 50.1721Z" fill="#0D0801" fill-opacity="0.29"/>
<path id="Vector_44" d="M414.241 50.0032C417.203 50.5437 419.844 50.3368 420.137 49.5411C420.431 48.7455 418.267 47.6625 415.305 47.1224C412.342 46.5819 409.701 46.7888 409.408 47.5845C409.115 48.3801 411.278 49.4631 414.241 50.0032Z" fill="#140E04" fill-opacity="0.4"/>
<path id="Vector_45" d="M414.241 50.0037C416.808 50.4718 419.067 50.3677 419.289 49.7711C419.508 49.1742 417.607 48.3111 415.04 47.8427C412.47 47.3746 410.211 47.4787 409.992 48.0753C409.769 48.6722 411.674 49.5353 414.241 50.0037Z" fill="#0D0801" fill-opacity="0.29"/>
<path id="Vector_46" d="M452.764 59.8707C455.147 60.6046 457.339 60.7468 457.66 60.1884C457.982 59.6303 456.313 58.5829 453.934 57.8494C451.551 57.1159 449.36 56.9736 449.038 57.5317C448.716 58.0898 450.385 59.1371 452.764 59.8707Z" fill="#140E04" fill-opacity="0.4"/>
<path id="Vector_47" d="M452.764 59.871C454.829 60.5068 456.695 60.6829 456.939 60.2643C457.18 59.8456 455.705 58.9907 453.641 58.3549C451.576 57.7191 449.71 57.543 449.466 57.9617C449.225 58.3803 450.703 59.2349 452.764 59.871Z" fill="#0D0801" fill-opacity="0.29"/>
<path id="Vector_48" d="M452.372 87.5338C457.738 88.8029 462.582 88.6271 463.186 87.1413C463.794 85.6555 459.93 83.4225 454.56 82.1534C449.194 80.8844 444.35 81.0602 443.746 82.546C443.138 84.0317 447.002 86.2648 452.372 87.5338Z" fill="#140E04" fill-opacity="0.4"/>
<path id="Vector_49" d="M452.368 87.5347C457.021 88.6346 461.161 88.6226 461.617 87.5086C462.069 86.3942 458.665 84.5992 454.012 83.4992C449.36 82.3996 445.22 82.4113 444.764 83.5257C444.312 84.6401 447.716 86.4351 452.368 87.5347Z" fill="#0D0801" fill-opacity="0.29"/>
<path id="Vector_50" d="M323.697 76.7561C328.841 76.406 333.129 75.0702 333.274 73.7726C333.419 72.4746 329.367 71.7061 324.223 72.0563C319.079 72.4065 314.791 73.7422 314.646 75.0402C314.501 76.3378 318.553 77.1063 323.697 76.7561Z" fill="#140E04" fill-opacity="0.4"/>
<path id="Vector_51" d="M323.696 76.758C328.154 76.4545 331.856 75.4195 331.965 74.4462C332.074 73.4727 328.548 72.9298 324.09 73.233C319.632 73.5366 315.93 74.5716 315.821 75.5448C315.712 76.518 319.238 77.0613 323.696 76.758Z" fill="#0D0801" fill-opacity="0.29"/>
<path id="Vector_52" d="M310.506 48.1084C313.585 47.743 316.12 46.8111 316.167 46.0264C316.214 45.242 313.756 44.9021 310.677 45.2674C307.598 45.6324 305.063 46.5647 305.016 47.3491C304.969 48.1338 307.427 48.4737 310.506 48.1084Z" fill="#140E04" fill-opacity="0.4"/>
<path id="Vector_53" d="M310.506 48.1079C313.175 47.7916 315.367 47.0577 315.402 46.4692C315.437 45.8811 313.303 45.6605 310.634 45.9772C307.966 46.2938 305.774 47.0273 305.739 47.6158C305.703 48.2042 307.838 48.4245 310.506 48.1079Z" fill="#0D0801" fill-opacity="0.29"/>
<path id="Vector_54" d="M392.425 73.0082C396.533 73.3961 400.111 72.8084 400.422 71.695C400.729 70.5817 397.65 69.3645 393.542 68.9766C389.434 68.5883 385.856 69.1764 385.545 70.2894C385.238 71.4027 388.317 72.6199 392.425 73.0082Z" fill="#140E04" fill-opacity="0.4"/>
<path id="Vector_55" d="M392.425 73.009C395.985 73.3454 399.057 72.9412 399.29 72.1064C399.52 71.2712 396.823 70.3216 393.263 69.9852C389.703 69.6488 386.631 70.053 386.397 70.8882C386.167 71.723 388.865 72.6726 392.425 73.009Z" fill="#0D0801" fill-opacity="0.29"/>
<path id="Vector_56" d="M60.9153 190.848C62.0519 192.063 61.7287 195.068 61.4251 196.418L70.4035 182.065C68.6214 184.346 66.7604 183.904 65.6391 183.688L60.9153 190.848Z" fill="url(#paint20_linear_10_2)"/>
<path id="Vector_57" d="M63.7515 187.535C65.0535 185.562 65.8977 183.841 65.6364 183.691C65.3752 183.542 64.1078 185.02 62.8054 186.994C61.5034 188.967 60.6592 190.689 60.9205 190.838C61.1817 190.988 62.4491 189.509 63.7515 187.535Z" fill="#C97300"/>
<path id="Vector_58" d="M63.5261 187.441C64.5743 185.853 65.3015 184.495 65.1502 184.409C64.9989 184.322 64.0271 185.54 62.9789 187.128C61.931 188.716 61.2038 190.074 61.3552 190.16C61.5061 190.247 62.4783 189.029 63.5261 187.441Z" fill="#1E1B16" fill-opacity="0.58"/>
<path id="Vector_59" d="M73.0245 173.072C74.0891 174.215 73.8491 176.59 73.596 177.634L81.6634 166.859C80.0724 168.44 78.2528 168.32 77.2208 167.984L73.0245 173.072Z" fill="url(#paint21_linear_10_2)"/>
<path id="Vector_60" d="M75.5623 170.812C76.719 169.409 77.4607 168.145 77.2184 167.986C76.9761 167.828 75.842 168.837 74.685 170.239C73.5283 171.641 72.7866 172.906 73.0289 173.064C73.2712 173.223 74.4054 172.214 75.5623 170.812Z" fill="#C97300"/>
<path id="Vector_61" d="M75.3542 170.703C76.2854 169.575 76.9266 168.586 76.7863 168.494C76.646 168.403 75.7779 169.243 74.8467 170.372C73.9158 171.5 73.2746 172.489 73.4149 172.581C73.5549 172.673 74.4234 171.832 75.3542 170.703Z" fill="#1E1B16" fill-opacity="0.58"/>
<path id="Vector_62" d="M82.7392 201.578C85.2827 198.165 86.707 194.833 85.9201 194.137C85.1332 193.44 82.4333 195.643 79.8898 199.056C77.3459 202.47 75.9216 205.801 76.7085 206.498C77.4955 207.194 80.1953 204.992 82.7392 201.578Z" fill="#140E04" fill-opacity="0.21"/>
<path id="Vector_63" d="M82.7378 201.578C84.9424 198.62 86.2509 195.798 85.661 195.276C85.0707 194.754 82.805 196.729 80.6008 199.687C78.3961 202.645 77.0876 205.467 77.6776 205.989C78.2678 206.511 80.5331 204.537 82.7378 201.578Z" fill="#0D0801" fill-opacity="0.29"/>
<path id="Vector_64" d="M59.5135 212.647C61.7584 209.03 62.8949 205.59 62.0518 204.963C61.2086 204.335 58.7053 206.759 56.4605 210.376C54.2152 213.993 53.0787 217.433 53.9218 218.06C54.765 218.687 57.2683 216.264 59.5135 212.647Z" fill="#140E04" fill-opacity="0.21"/>
<path id="Vector_65" d="M59.5122 212.648C61.458 209.513 62.5224 206.591 61.8903 206.121C61.2579 205.65 59.1679 207.81 57.2224 210.944C55.2766 214.079 54.2122 217.001 54.8443 217.472C55.4767 217.942 57.5664 215.782 59.5122 212.648Z" fill="#0D0801" fill-opacity="0.32"/>
<path id="Vector_66" d="M117.053 173.42C120.232 170.002 122.191 166.539 121.428 165.687C120.665 164.834 117.469 166.915 114.29 170.334C111.11 173.753 109.151 177.215 109.915 178.068C110.678 178.92 113.873 176.84 117.053 173.42Z" fill="#140E04" fill-opacity="0.4"/>
<path id="Vector_67" d="M117.051 173.419C119.806 170.456 121.576 167.536 121.003 166.897C120.431 166.258 117.734 168.142 114.978 171.105C112.223 174.068 110.453 176.988 111.025 177.627C111.598 178.266 114.295 176.383 117.051 173.419Z" fill="#0D0801" fill-opacity="0.3"/>
<path id="Vector_68" d="M78.6118 241.322C80.221 238.34 80.9695 235.554 80.2836 235.097C79.5974 234.641 77.7365 236.687 76.1272 239.668C74.5177 242.649 73.7692 245.436 74.4554 245.893C75.1413 246.349 77.0022 244.303 78.6118 241.322Z" fill="#140E04" fill-opacity="0.4"/>
<path id="Vector_69" d="M78.6099 241.323C80.0049 238.739 80.7184 236.367 80.204 236.025C79.6892 235.682 78.1415 237.499 76.7465 240.083C75.3519 242.666 74.6381 245.038 75.1528 245.38C75.6672 245.723 77.2153 243.906 78.6099 241.323Z" fill="#0D0801" fill-opacity="0.3"/>
<path id="Vector_70" d="M93.3036 166.822C94.7265 165.255 95.5895 163.675 95.2306 163.293C94.8718 162.911 93.4273 163.871 92.004 165.438C90.5811 167.005 89.7185 168.585 90.0773 168.967C90.4362 169.349 91.8806 168.389 93.3036 166.822Z" fill="#140E04" fill-opacity="0.4"/>
<path id="Vector_71" d="M93.3038 166.822C94.5372 165.464 95.3189 164.131 95.0495 163.844C94.7804 163.558 93.5626 164.426 92.3291 165.784C91.096 167.142 90.3144 168.475 90.5834 168.762C90.8525 169.049 92.0703 168.18 93.3038 166.822Z" fill="#0D0801" fill-opacity="0.3"/>
<path id="Vector_72" d="M59.4054 295.847C59.9608 293.806 60.0113 292.007 59.5178 291.829C59.0243 291.651 58.1737 293.162 57.6183 295.203C57.0626 297.244 57.012 299.043 57.5055 299.221C57.9991 299.399 58.8496 297.888 59.4054 295.847Z" fill="#140E04" fill-opacity="0.4"/>
<path id="Vector_73" d="M59.4071 295.847C59.8886 294.078 59.9791 292.536 59.6089 292.402C59.2388 292.269 58.5484 293.595 58.0669 295.364C57.585 297.133 57.4949 298.675 57.865 298.809C58.2351 298.942 58.9256 297.616 59.4071 295.847Z" fill="#0D0801" fill-opacity="0.3"/>
<path id="Vector_74" d="M33.5484 276.938C34.3362 274.437 34.4888 272.193 33.8895 271.924C33.2901 271.655 32.1656 273.465 31.3779 275.965C30.5902 278.466 30.4375 280.71 31.0368 280.979C31.6362 281.248 32.7607 279.439 33.5484 276.938Z" fill="#140E04" fill-opacity="0.4"/>
<path id="Vector_75" d="M33.548 276.938C34.2308 274.771 34.4198 272.851 33.9703 272.649C33.5207 272.448 32.6029 274.042 31.9202 276.209C31.2374 278.376 31.0484 280.296 31.498 280.497C31.9475 280.699 32.8653 279.105 33.548 276.938Z" fill="#0D0801" fill-opacity="0.3"/>
<path id="Vector_76" d="M23.3804 261.362L22.8222 263.017C22.7616 263.197 22.8562 263.397 23.0334 263.465L23.06 263.475C23.2372 263.543 23.4299 263.452 23.4905 263.273L24.0486 261.618C24.1092 261.438 24.0146 261.237 23.8375 261.17L23.8109 261.16C23.6336 261.092 23.4409 261.182 23.3804 261.362Z" fill="#1A051C"/>
<g id="Group_2" filter="url(#filter0_d_10_2)">
<path id="Vector_77" d="M24.8601 266.376L27.3995 267.346L27.2829 267.693L27.8175 267.897L30.2835 261.031L29.6152 260.776L29.4986 261.122L26.9591 260.151L25.0443 260.46L24.6167 261.728L24.0821 261.524L23.499 263.253L24.0336 263.457L23.5283 264.956L24.8601 266.376Z" fill="#2F2E41"/>
</g>
<path id="Vector_78" d="M24.9936 260.311L24.6049 261.463L29.3695 263.285L30.283 261.031L29.6024 260.771L29.4964 261.086L26.9099 260.097L24.9936 260.311Z" fill="#474565"/>
<path id="Vector_79" d="M21.25 262.523C20.7473 262.331 20.4791 261.763 20.6508 261.253C20.8226 260.744 21.3692 260.487 21.8719 260.679L23.4121 261.268L22.7902 263.112L21.25 262.523Z" fill="#2F2E41"/>
<path id="Vector_80" d="M22.2488 261.734C22.3991 261.289 22.1719 260.794 21.7413 260.629C21.3107 260.465 20.8398 260.692 20.6895 261.138C20.5392 261.584 20.7665 262.078 21.1971 262.243C21.6276 262.408 22.0985 262.18 22.2488 261.734Z" fill="#474565"/>
<path id="Vector_81" d="M21.9873 261.764C22.0302 261.637 21.9653 261.495 21.8422 261.449C21.7192 261.401 21.5847 261.467 21.5418 261.594C21.4988 261.721 21.5637 261.863 21.6867 261.91C21.8098 261.956 21.9443 261.892 21.9873 261.764Z" fill="#1D071F"/>
<path id="Vector_82" d="M24.5725 263.794L24.3393 264.486L25.8986 265.082L26.1318 264.39L24.5725 263.794Z" fill="#18021E"/>
<path id="Vector_83" d="M25.4288 261.258L25.1956 261.949L26.7549 262.546L26.9881 261.854L25.4288 261.258Z" fill="#15021B"/>
</g>
</g>
</g>
<defs>
<filter id="filter0_d_10_2" x="23.499" y="260.149" width="6.7888" height="7.74998" filterUnits="userSpaceOnUse" color-interpolation-filters="sRGB">
<feFlood flood-opacity="0" result="BackgroundImageFix"/>
<feColorMatrix in="SourceAlpha" type="matrix" values="0 0 0 0 0 0 0 0 0 0 0 0 0 0 0 0 0 0 127 0" result="hardAlpha"/>
<feOffset dx="0.00242954" dy="0.000485909"/>
<feGaussianBlur stdDeviation="0.000971817"/>
<feComposite in2="hardAlpha" operator="out"/>
<feColorMatrix type="matrix" values="0 0 0 0 0 0 0 0 0 0 0 0 0 0 0 0 0 0 0.25 0"/>
<feBlend mode="normal" in2="BackgroundImageFix" result="effect1_dropShadow_10_2"/>
<feBlend mode="normal" in="SourceGraphic" in2="effect1_dropShadow_10_2" result="shape"/>
</filter>
<radialGradient id="paint0_radial_10_2" cx="0" cy="0" r="1" gradientUnits="userSpaceOnUse" gradientTransform="translate(103.095 141.895) rotate(46.8204) scale(674.397 677.655)">
<stop stop-color="#D98201"/>
<stop offset="0.107292" stop-color="#C46F01"/>
<stop offset="0.252937" stop-color="#C46000"/>
<stop offset="0.37743" stop-color="#BA5606"/>
<stop offset="0.538859" stop-color="#B74C03"/>
<stop offset="0.709693" stop-color="#AE2E11"/>
<stop offset="0.89375" stop-color="#76001D"/>
</radialGradient>
<radialGradient id="paint1_radial_10_2" cx="0" cy="0" r="1" gradientUnits="userSpaceOnUse" gradientTransform="translate(234.282 327.918) rotate(-133.532) scale(99.9183 165.674)">
<stop offset="0.0104167" stop-color="#9F4009" stop-opacity="0.64"/>
<stop offset="0.5406" stop-color="#7E370E" stop-opacity="0.56"/>
<stop offset="1" stop-color="#7E2D08" stop-opacity="0.54"/>
</radialGradient>
<radialGradient id="paint2_radial_10_2" cx="0" cy="0" r="1" gradientUnits="userSpaceOnUse" gradientTransform="translate(238.986 121.151) rotate(-164.94) scale(49.658 81.0287)">
<stop offset="0.0104167" stop-color="#9F4009" stop-opacity="0.2"/>
<stop offset="0.5406" stop-color="#7E370E" stop-opacity="0.26"/>
<stop offset="1" stop-color="#511E07" stop-opacity="0.24"/>
</radialGradient>
<radialGradient id="paint3_radial_10_2" cx="0" cy="0" r="1" gradientUnits="userSpaceOnUse" gradientTransform="translate(234.397 120.635) rotate(-164.136) scale(41.779 71.4445)">
<stop offset="0.0104167" stop-color="#9F4009" stop-opacity="0.2"/>
<stop offset="0.5406" stop-color="#7E370E" stop-opacity="0.26"/>
<stop offset="1" stop-color="#511E07" stop-opacity="0.24"/>
</radialGradient>
<radialGradient id="paint4_radial_10_2" cx="0" cy="0" r="1" gradientUnits="userSpaceOnUse" gradientTransform="translate(64.9447 388.565) rotate(-117.556) scale(62.9584 93.4335)">
<stop offset="0.0104167" stop-color="#9F4009" stop-opacity="0.2"/>
<stop offset="0.5406" stop-color="#7E370E" stop-opacity="0.26"/>
<stop offset="1" stop-color="#511E07" stop-opacity="0.24"/>
</radialGradient>
<radialGradient id="paint5_radial_10_2" cx="0" cy="0" r="1" gradientUnits="userSpaceOnUse" gradientTransform="translate(575.628 464.53) rotate(-136.687) scale(78.1215 130.604)">
<stop offset="0.0104167" stop-color="#4A1F07" stop-opacity="0.22"/>
<stop offset="0.5406" stop-color="#552408" stop-opacity="0.32"/>
<stop offset="1" stop-color="#511E07" stop-opacity="0.27"/>
</radialGradient>
<radialGradient id="paint6_radial_10_2" cx="0" cy="0" r="1" gradientUnits="userSpaceOnUse" gradientTransform="translate(345.693 635.076) rotate(-136.687) scale(78.1215 130.604)">
<stop offset="0.0104167" stop-color="#411E0A" stop-opacity="0.15"/>
<stop offset="0.5406" stop-color="#2F1405" stop-opacity="0.3"/>
<stop offset="1" stop-color="#511E07"/>
</radialGradient>
<radialGradient id="paint7_radial_10_2" cx="0" cy="0" r="1" gradientUnits="userSpaceOnUse" gradientTransform="translate(537.536 292.277) rotate(-136.687) scale(78.1215 130.604)">
<stop offset="0.0104167" stop-color="#9F4009" stop-opacity="0.33"/>
<stop offset="0.5406" stop-color="#7E370E" stop-opacity="0.47"/>
<stop offset="1" stop-color="#511E07" stop-opacity="0.44"/>
</radialGradient>
<radialGradient id="paint8_radial_10_2" cx="0" cy="0" r="1" gradientUnits="userSpaceOnUse" gradientTransform="translate(92.4446 560.419) rotate(-141.432) scale(39.3301 48.451)">
<stop offset="0.0104167" stop-color="#9F4009"/>
<stop offset="0.5406" stop-color="#7E370E" stop-opacity="0.79"/>
<stop offset="1" stop-color="#511E07" stop-opacity="0.25"/>
</radialGradient>
<radialGradient id="paint9_radial_10_2" cx="0" cy="0" r="1" gradientUnits="userSpaceOnUse" gradientTransform="translate(90.2826 558.93) rotate(-141.649) scale(34.2187 42.0804)">
<stop offset="0.0104167" stop-color="#9F4009"/>
<stop offset="0.5406" stop-color="#7E370E" stop-opacity="0.79"/>
<stop offset="1" stop-color="#511E07" stop-opacity="0.25"/>
</radialGradient>
<radialGradient id="paint10_radial_10_2" cx="0" cy="0" r="1" gradientUnits="userSpaceOnUse" gradientTransform="translate(225.414 505.528) rotate(-143.52) scale(46.4473 76.9463)">
<stop offset="0.0104167" stop-color="#9F4009" stop-opacity="0.43"/>
<stop offset="0.5406" stop-color="#7E370E" stop-opacity="0.46"/>
<stop offset="1" stop-color="#511E07" stop-opacity="0.56"/>
</radialGradient>
<radialGradient id="paint11_radial_10_2" cx="0" cy="0" r="1" gradientUnits="userSpaceOnUse" gradientTransform="translate(422.718 161.352) rotate(-136.826) scale(39.2831 65.6538)">
<stop offset="0.0104167" stop-color="#9F4009" stop-opacity="0.33"/>
<stop offset="0.5406" stop-color="#7E370E" stop-opacity="0.47"/>
<stop offset="1" stop-color="#511E07" stop-opacity="0.44"/>
</radialGradient>
<linearGradient id="paint12_linear_10_2" x1="22.9485" y1="277.996" x2="28.273" y2="277.616" gradientUnits="userSpaceOnUse">
<stop stop-color="#C36100"/>
<stop offset="1" stop-color="#C36700"/>
</linearGradient>
<linearGradient id="paint13_linear_10_2" x1="25.5995" y1="270.766" x2="26.1851" y2="276.146" gradientUnits="userSpaceOnUse">
<stop stop-color="#9F4009"/>
<stop offset="1" stop-color="#C36200"/>
</linearGradient>
<linearGradient id="paint14_linear_10_2" x1="334.08" y1="21.0547" x2="339.657" y2="34.8081" gradientUnits="userSpaceOnUse">
<stop stop-color="#E77716"/>
<stop offset="1" stop-color="#B95405"/>
</linearGradient>
<linearGradient id="paint15_linear_10_2" x1="348.152" y1="30.0781" x2="337.087" y2="29.6622" gradientUnits="userSpaceOnUse">
<stop stop-color="#BE5A03"/>
<stop offset="1" stop-color="#F3790F"/>
</linearGradient>
<linearGradient id="paint16_linear_10_2" x1="429.47" y1="34.0523" x2="431.621" y2="42.0008" gradientUnits="userSpaceOnUse">
<stop offset="0.0125647" stop-color="#BC5207"/>
<stop offset="1" stop-color="#B74D03"/>
</linearGradient>
<linearGradient id="paint17_linear_10_2" x1="442.014" y1="40.4366" x2="431.484" y2="43.0009" gradientUnits="userSpaceOnUse">
<stop stop-color="#B74D03"/>
<stop offset="1" stop-color="#B65105"/>
</linearGradient>
<linearGradient id="paint18_linear_10_2" x1="33.0454" y1="237.886" x2="40.9904" y2="247.114" gradientUnits="userSpaceOnUse">
<stop stop-color="#C46B00"/>
<stop offset="1" stop-color="#C36400"/>
</linearGradient>
<linearGradient id="paint19_linear_10_2" x1="37.0458" y1="229.842" x2="36.252" y2="238.861" gradientUnits="userSpaceOnUse">
<stop stop-color="#C46900"/>
<stop offset="1" stop-color="#C25F00"/>
</linearGradient>
<linearGradient id="paint20_linear_10_2" x1="61.5314" y1="189.898" x2="69.5779" y2="191.049" gradientUnits="userSpaceOnUse">
<stop stop-color="#CF7901"/>
<stop offset="1" stop-color="#C46C00"/>
</linearGradient>
<linearGradient id="paint21_linear_10_2" x1="73.5716" y1="172.395" x2="81.1139" y2="173.475" gradientUnits="userSpaceOnUse">
<stop stop-color="#CF7901"/>
<stop offset="1" stop-color="#C46C00"/>
</linearGradient>
</defs>
</svg>
