<svg width="433" height="433" viewBox="0 0 433 433" fill="none" xmlns="http://www.w3.org/2000/svg">
<g id="mars">
<mask id="mask0_10_2" style="mask-type:luminance" maskUnits="userSpaceOnUse" x="0" y="0" width="433" height="433">
<g id="clip0_522_250">
<path id="Vector" d="M433 0H0V432.359H433V0Z" fill="white"/>
</g>
</mask>
<g mask="url(#mask0_10_2)">
<g id="Group">
<g id="radar">
<path id="Vector_2" d="M13.9585 160.251C14.0665 160.473 13.976 160.744 13.7563 160.857C13.5366 160.97 13.271 160.882 13.163 160.66L12.6346 159.574L13.4301 159.165L13.9585 160.251Z" fill="#12102B"/>
<path id="Vector_3" d="M7.98983 159.263L12.5356 159.593L13.6391 159.148L16.6392 155.855L16.4721 155.442L7.91949 158.891L7.98983 159.263Z" fill="#474565"/>
<path id="Vector_4" d="M11.4676 156.769L9.80157 158.152L10.3462 157.912L11.6637 156.845L12.0721 156.665L13.9458 156.491L14.4904 156.251L12.1483 156.47L11.4676 156.769Z" fill="#474565"/>
<path id="Vector_5" d="M11.7299 156.812L11.8848 156.742L12.0845 157.213L11.9295 157.282L11.7299 156.812Z" fill="#2F2E41"/>
<path id="Vector_6" d="M10.9389 155.053C10.9101 154.985 10.942 154.904 11.0101 154.874C11.0783 154.844 11.157 154.875 11.1858 154.944L11.8793 156.595L11.6324 156.704L10.9389 155.053Z" fill="#474565"/>
<path id="Vector_7" d="M12.9943 159.495L11.9785 157.29L15.2415 155.936L12.9943 159.495Z" fill="black" fill-opacity="0.3"/>
<path id="Vector_8" d="M12.0042 157.254L12.9951 159.495L9.11292 158.428L12.0042 157.254Z" fill="black" fill-opacity="0.6"/>
<path id="Vector_9" d="M12.5543 159.572L12.9082 159.435L9.11286 158.428L7.90442 158.861L7.98004 159.301L12.5543 159.572Z" fill="black" fill-opacity="0.85"/>
</g>
<path id="Vector_10" d="M217.552 432.491C333.752 432.491 427.951 340.325 427.951 226.634C427.951 112.944 333.752 20.7792 217.552 20.7792C101.352 20.7792 7.15332 112.944 7.15332 226.634C7.15332 340.325 101.352 432.491 217.552 432.491Z" fill="url(#paint0_radial_10_2)"/>
<path id="Vector_11" d="M155.426 177.7C155.426 194.528 141.533 208.17 124.396 208.17C107.258 208.17 93.366 194.528 93.366 177.7C93.366 160.871 107.258 147.229 124.396 147.229C141.533 147.229 155.426 160.871 155.426 177.7Z" fill="url(#paint1_radial_10_2)" fill-opacity="0.8"/>
<path id="Vector_12" d="M142.764 62.6325C146.422 68.8684 144.455 77.037 138.369 80.8774C132.283 84.7183 124.384 82.7763 120.725 76.5406C117.066 70.3047 119.034 62.1362 125.12 58.2955C131.206 54.4549 139.105 56.3964 142.764 62.6325Z" fill="url(#paint2_radial_10_2)" fill-opacity="0.8"/>
<path id="Vector_13" d="M44.0846 221.052C43.3628 231.809 37.3175 240.134 30.5819 239.652C23.8466 239.17 18.9717 230.063 19.6938 219.31C20.4158 208.554 26.4613 200.227 33.1966 200.709C39.9321 201.191 44.8069 210.3 44.0846 221.052Z" fill="#0B0502" fill-opacity="0.1"/>
<path id="Vector_14" d="M375.37 282.414C375.37 295.257 364.913 305.668 352.016 305.668C339.12 305.668 328.663 295.257 328.663 282.414C328.663 269.57 339.12 259.159 352.016 259.159C364.913 259.159 375.37 269.57 375.37 282.414Z" fill="url(#paint3_radial_10_2)" fill-opacity="0.8"/>
<path id="Vector_15" d="M239.732 366.927C239.732 379.77 229.275 390.181 216.378 390.181C203.481 390.181 193.024 379.77 193.024 366.927C193.024 354.084 203.481 343.672 216.378 343.672C229.275 343.672 239.732 354.084 239.732 366.927Z" fill="url(#paint4_radial_10_2)" fill-opacity="0.8"/>
<path id="Vector_16" d="M335.09 162.386C335.09 175.229 324.637 185.639 311.736 185.639C298.841 185.639 288.385 175.229 288.385 162.386C288.385 149.543 298.841 139.132 311.736 139.132C324.637 139.132 335.09 149.543 335.09 162.386Z" fill="url(#paint5_radial_10_2)" fill-opacity="0.8"/>
<path id="Vector_17" d="M53.6308 331.63C57.5544 339.095 57.9361 346.681 54.484 348.576C51.0321 350.468 45.0531 345.956 41.1301 338.492C37.2065 331.027 36.8243 323.441 40.2764 321.548C43.7287 319.652 49.7076 324.165 53.6308 331.63Z" fill="url(#paint6_radial_10_2)" fill-opacity="0.8"/>
<path id="Vector_18" d="M144.478 316.345C146.078 324.372 141.733 331.967 134.773 333.305C127.814 334.643 120.875 329.212 119.276 321.186C117.677 313.157 122.022 305.562 128.981 304.226C135.94 302.89 142.879 308.317 144.478 316.345Z" fill="url(#paint7_radial_10_2)" fill-opacity="0.8"/>
<path id="Vector_19" d="M261.85 90.4838C261.85 96.9251 256.583 102.147 250.081 102.147C243.582 102.147 238.31 96.9251 238.31 90.4838C238.31 84.0427 243.582 78.8211 250.081 78.8211C256.583 78.8211 261.85 84.0427 261.85 90.4838Z" fill="url(#paint8_radial_10_2)" fill-opacity="0.62"/>
<path id="Vector_20" d="M13.8967 170.731C14.4516 171.178 14.593 172.565 14.5943 173.203L17.1121 165.575C16.6158 166.765 15.5722 167.069 15.1125 167.072L13.8967 170.731Z" fill="url(#paint9_linear_10_2)"/>
<path id="Vector_21" d="M14.714 168.979C15.0492 167.97 15.227 167.117 15.111 167.073C14.9951 167.028 14.6294 167.81 14.2942 168.819C13.959 169.828 13.7812 170.681 13.8971 170.725C14.0131 170.769 14.3788 169.987 14.714 168.979Z" fill="url(#paint10_linear_10_2)"/>
<path id="Vector_22" d="M14.6177 168.957C14.8875 168.146 15.0518 167.467 14.9847 167.441C14.9176 167.416 14.6445 168.053 14.3747 168.865C14.105 169.676 13.9407 170.355 14.0078 170.381C14.0749 170.406 14.348 169.769 14.6177 168.957Z" fill="#1E1B16" fill-opacity="0.15"/>
<path id="Vector_23" d="M206.527 18.234C206.197 19.7426 203.768 21.1185 202.596 21.6177L218.879 20.9409C216.246 20.8304 214.76 18.885 214.346 17.9262L206.527 18.234Z" fill="url(#paint11_linear_10_2)"/>
<path id="Vector_24" d="M210.48 18.5812C212.635 18.4965 214.365 18.2035 214.343 17.9267C214.321 17.6499 212.557 17.4942 210.401 17.5789C208.246 17.6636 206.517 17.9566 206.539 18.2334C206.56 18.5102 208.325 18.6659 210.48 18.5812Z" fill="url(#paint12_linear_10_2)"/>
<path id="Vector_25" d="M210.433 18.3596C212.167 18.2914 213.563 18.1063 213.551 17.9461C213.538 17.7859 212.122 17.7113 210.388 17.7795C208.653 17.8476 207.258 18.0327 207.27 18.1929C207.283 18.3531 208.699 18.4278 210.433 18.3596Z" fill="#31230B" fill-opacity="0.58"/>
<path id="Vector_26" d="M260.391 22.1519C259.685 23.5261 256.985 24.2376 255.725 24.4216L271.603 27.6419C269.085 26.8638 268.185 24.8794 268.029 23.8467L260.391 22.1519Z" fill="url(#paint13_linear_10_2)"/>
<path id="Vector_27" d="M264.123 23.4948C266.228 23.9622 267.975 24.1196 268.025 23.8465C268.075 23.5733 266.41 22.973 264.303 22.5058C262.199 22.0384 260.452 21.8808 260.402 22.1541C260.352 22.4271 262.019 23.0274 264.123 23.4948Z" fill="url(#paint14_linear_10_2)"/>
<path id="Vector_28" d="M264.134 23.2685C265.83 23.6447 267.226 23.8213 267.256 23.6632C267.284 23.5052 265.933 23.0722 264.24 22.6961C262.545 22.3199 261.149 22.1431 261.118 22.3013C261.09 22.4593 262.441 22.8924 264.134 23.2685Z" fill="#31230B" fill-opacity="0.58"/>
<path id="Vector_29" d="M18.5812 150.112C19.9744 151.17 20.1681 154.335 20.0909 155.786L27.6345 138.614C26.187 141.287 23.4223 141.902 22.2209 141.876L18.5812 150.112Z" fill="url(#paint15_linear_10_2)"/>
<path id="Vector_30" d="M20.9415 146.186C21.9449 143.916 22.5174 141.987 22.2201 141.879C21.9229 141.77 20.8683 143.522 19.8649 145.792C18.8615 148.063 18.289 149.991 18.5863 150.1C18.8836 150.209 19.9381 148.457 20.9415 146.186Z" fill="url(#paint16_linear_10_2)"/>
<path id="Vector_31" d="M20.689 146.129C21.4965 144.302 22.0117 142.77 21.8396 142.707C21.6675 142.644 20.8734 144.074 20.0659 145.901C19.2584 147.728 18.7432 149.261 18.9153 149.324C19.0873 149.386 19.8815 147.956 20.689 146.129Z" fill="#1E1B16" fill-opacity="0.15"/>
<g id="crates1">
<path id="Vector_32" d="M224.205 30.7249C227.933 30.87 231.144 30.2705 231.374 29.3861C231.603 28.5015 228.765 27.667 225.034 27.522C221.306 27.3769 218.096 27.9764 217.866 28.8608C217.637 29.7452 220.475 30.5798 224.205 30.7249Z" fill="#140E04" fill-opacity="0.4"/>
<path id="Vector_33" d="M224.205 30.7255C227.438 30.8511 230.198 30.4153 230.369 29.752C230.54 29.0886 228.059 28.4491 224.827 28.3233C221.594 28.1977 218.836 28.6335 218.663 29.2967C218.492 29.9602 220.973 30.5999 224.205 30.7255Z" fill="#0D0801" fill-opacity="0.29"/>
<path id="Vector_34" d="M253.684 30.6223C255.498 30.9532 257.115 30.8266 257.295 30.3393C257.475 29.852 256.15 29.1888 254.336 28.858C252.521 28.5271 250.904 28.6537 250.724 29.141C250.545 29.6283 251.87 30.2915 253.684 30.6223Z" fill="#140E04" fill-opacity="0.4"/>
<path id="Vector_35" d="M253.684 30.6225C255.256 30.9091 256.639 30.8454 256.775 30.48C256.91 30.1145 255.745 29.5859 254.173 29.299C252.599 29.0124 251.216 29.0761 251.082 29.4415C250.945 29.807 252.112 30.3356 253.684 30.6225Z" fill="#0D0801" fill-opacity="0.29"/>
<path id="Vector_36" d="M277.276 36.6649C278.735 37.1143 280.077 37.2015 280.274 36.8595C280.471 36.5177 279.449 35.8763 277.992 35.4271C276.533 34.9778 275.191 34.8907 274.994 35.2325C274.797 35.5743 275.819 36.2157 277.276 36.6649Z" fill="#140E04" fill-opacity="0.4"/>
<path id="Vector_37" d="M277.276 36.6655C278.54 37.0548 279.683 37.1627 279.833 36.9063C279.98 36.6499 279.077 36.1263 277.813 35.737C276.548 35.3477 275.405 35.2398 275.256 35.4962C275.109 35.7526 276.014 36.2759 277.276 36.6655Z" fill="#0D0801" fill-opacity="0.29"/>
<path id="Vector_38" d="M277.035 53.6062C280.322 54.3834 283.288 54.2757 283.658 53.3658C284.031 52.4559 281.664 51.0884 278.376 50.3112C275.089 49.534 272.123 49.6417 271.753 50.5516C271.38 51.4615 273.747 52.829 277.035 53.6062Z" fill="#140E04" fill-opacity="0.4"/>
<path id="Vector_39" d="M277.034 53.6069C279.883 54.2805 282.418 54.2732 282.697 53.5909C282.974 52.9084 280.889 51.8092 278.04 51.1356C275.191 50.4622 272.656 50.4693 272.377 51.1518C272.1 51.8342 274.184 52.9335 277.034 53.6069Z" fill="#0D0801" fill-opacity="0.29"/>
<path id="Vector_40" d="M198.234 47.0059C201.384 46.7915 204.01 45.9734 204.099 45.1788C204.188 44.3839 201.706 43.9132 198.556 44.1277C195.406 44.3421 192.78 45.1602 192.691 45.9551C192.602 46.7497 195.084 47.2204 198.234 47.0059Z" fill="#140E04" fill-opacity="0.4"/>
<path id="Vector_41" d="M198.234 47.007C200.964 46.8211 203.231 46.1873 203.298 45.5912C203.364 44.995 201.205 44.6625 198.475 44.8482C195.745 45.0342 193.477 45.668 193.411 46.264C193.344 46.86 195.503 47.1927 198.234 47.007Z" fill="#0D0801" fill-opacity="0.29"/>
<path id="Vector_42" d="M190.156 29.4615C192.042 29.2378 193.594 28.6671 193.623 28.1865C193.651 27.7061 192.146 27.498 190.26 27.7217C188.375 27.9452 186.823 28.5162 186.794 28.9965C186.765 29.4771 188.27 29.6853 190.156 29.4615Z" fill="#140E04" fill-opacity="0.4"/>
<path id="Vector_43" d="M190.156 29.4613C191.791 29.2676 193.133 28.8182 193.155 28.4578C193.176 28.0977 191.869 27.9626 190.235 28.1565C188.6 28.3504 187.258 28.7996 187.236 29.16C187.215 29.5203 188.522 29.6552 190.156 29.4613Z" fill="#0D0801" fill-opacity="0.29"/>
<path id="Vector_44" d="M240.324 44.7105C242.839 44.948 245.03 44.5881 245.221 43.9063C245.409 43.2244 243.524 42.479 241.008 42.2415C238.492 42.0037 236.301 42.3638 236.111 43.0454C235.922 43.7273 237.808 44.4727 240.324 44.7105Z" fill="#140E04" fill-opacity="0.4"/>
<path id="Vector_45" d="M240.324 44.7108C242.504 44.9168 244.385 44.6693 244.528 44.158C244.669 43.6466 243.017 43.065 240.837 42.859C238.657 42.653 236.775 42.9005 236.632 43.412C236.492 43.9233 238.144 44.5048 240.324 44.7108Z" fill="#0D0801" fill-opacity="0.29"/>
</g>
<path id="Vector_46" d="M37.3049 116.877C38.001 117.621 37.8031 119.461 37.6171 120.288L43.1156 111.498C42.0242 112.895 40.8845 112.624 40.1978 112.492L37.3049 116.877Z" fill="url(#paint17_linear_10_2)"/>
<path id="Vector_47" d="M39.0418 114.848C39.8392 113.639 40.3562 112.585 40.1962 112.494C40.0362 112.402 39.2601 113.308 38.4625 114.516C37.6651 115.725 37.1481 116.779 37.3081 116.87C37.4681 116.962 38.2442 116.056 39.0418 114.848Z" fill="#C97300"/>
<path id="Vector_48" d="M38.9038 114.79C39.5457 113.817 39.9911 112.986 39.8984 112.933C39.8057 112.88 39.2106 113.626 38.5687 114.598C37.9269 115.571 37.4816 116.402 37.5743 116.455C37.6667 116.508 38.2621 115.763 38.9038 114.79Z" fill="#1E1B16" fill-opacity="0.29"/>
<path id="Vector_49" d="M44.7207 105.99C45.3727 106.69 45.2257 108.144 45.0707 108.784L50.0112 102.185C49.0369 103.153 47.9226 103.08 47.2906 102.874L44.7207 105.99Z" fill="url(#paint18_linear_10_2)"/>
<path id="Vector_50" d="M46.2749 104.606C46.9832 103.747 47.4374 102.973 47.2891 102.876C47.1407 102.779 46.4461 103.397 45.7376 104.255C45.0293 105.114 44.575 105.889 44.7234 105.986C44.8718 106.083 45.5663 105.465 46.2749 104.606Z" fill="#C97300"/>
<path id="Vector_51" d="M46.1474 104.54C46.7177 103.849 47.1104 103.243 47.0244 103.187C46.9385 103.131 46.4069 103.646 45.8366 104.337C45.2666 105.028 44.8739 105.634 44.9598 105.69C45.0455 105.746 45.5774 105.231 46.1474 104.54Z" fill="#1E1B16" fill-opacity="0.29"/>
<g id="crates2">
<path id="Vector_52" d="M31.5979 155.096C33.1279 151.696 33.7718 148.5 33.0361 147.957C32.3004 147.414 30.4639 149.729 28.9339 153.129C27.4039 156.528 26.7598 159.724 27.4954 160.267C28.2311 160.81 30.0679 158.495 31.5979 155.096Z" fill="#140E04" fill-opacity="0.4"/>
<path id="Vector_53" d="M31.5995 155.096C32.9253 152.15 33.5529 149.431 33.0013 149.024C32.4494 148.616 30.9272 150.674 29.6014 153.62C28.2753 156.567 27.6477 159.285 28.1993 159.692C28.7512 160.1 30.2734 158.042 31.5995 155.096Z" fill="#0D0801" fill-opacity="0.29"/>
<path id="Vector_54" d="M19.065 190.268C19.52 188.306 19.4657 186.546 18.9436 186.335C18.4215 186.124 17.6293 187.544 17.1743 189.505C16.7193 191.466 16.7737 193.227 17.2958 193.438C17.8179 193.648 18.61 192.229 19.065 190.268Z" fill="#140E04" fill-opacity="0.4"/>
<path id="Vector_55" d="M19.0654 190.268C19.4598 188.568 19.462 187.062 19.0705 186.904C18.6789 186.746 18.0418 187.996 17.6474 189.696C17.253 191.396 17.2508 192.902 17.6424 193.06C18.0339 193.218 18.6711 191.968 19.0654 190.268Z" fill="#0D0801" fill-opacity="0.29"/>
<path id="Vector_56" d="M50.67 123.448C52.2277 121.357 53.0999 119.317 52.618 118.89C52.1361 118.464 50.4827 119.813 48.925 121.903C47.3671 123.994 46.4949 126.034 46.9768 126.46C47.4587 126.887 49.1121 125.538 50.67 123.448Z" fill="#140E04" fill-opacity="0.21"/>
<path id="Vector_57" d="M50.6692 123.448C52.0194 121.636 52.8207 119.908 52.4594 119.589C52.0979 119.269 50.7104 120.478 49.3605 122.29C48.0103 124.101 47.209 125.829 47.5703 126.149C47.9318 126.469 49.3191 125.26 50.6692 123.448Z" fill="#0D0801" fill-opacity="0.29"/>
<path id="Vector_58" d="M36.4464 130.227C37.8211 128.012 38.5172 125.905 38.0008 125.521C37.4845 125.136 35.9514 126.621 34.5767 128.836C33.2017 131.051 32.5056 133.158 33.022 133.542C33.5383 133.926 35.0714 132.442 36.4464 130.227Z" fill="#140E04" fill-opacity="0.21"/>
<path id="Vector_59" d="M36.4456 130.227C37.6373 128.307 38.2891 126.518 37.902 126.23C37.5147 125.941 36.2348 127.264 35.0434 129.184C33.8518 131.103 33.1999 132.893 33.587 133.181C33.9743 133.469 35.254 132.147 36.4456 130.227Z" fill="#0D0801" fill-opacity="0.32"/>
<path id="Vector_60" d="M71.6838 106.204C73.6308 104.11 74.8304 101.989 74.363 101.467C73.8958 100.945 71.9386 102.22 69.9917 104.314C68.0447 106.407 66.8451 108.528 67.3125 109.05C67.7797 109.572 69.7368 108.298 71.6838 106.204Z" fill="#140E04" fill-opacity="0.4"/>
<path id="Vector_61" d="M71.6827 106.203C73.3701 104.389 74.4539 102.6 74.1033 102.209C73.7531 101.817 72.1009 102.971 70.4135 104.786C68.7261 106.6 67.6423 108.389 67.9928 108.78C68.3434 109.172 69.9953 108.018 71.6827 106.203Z" fill="#0D0801" fill-opacity="0.3"/>
<path id="Vector_62" d="M48.1423 147.787C49.1278 145.961 49.5861 144.255 49.1661 143.975C48.7459 143.695 47.6063 144.949 46.6207 146.774C45.635 148.6 45.1767 150.306 45.5969 150.586C46.0169 150.866 47.1566 149.613 48.1423 147.787Z" fill="#140E04" fill-opacity="0.4"/>
<path id="Vector_63" d="M48.1412 147.787C48.9955 146.205 49.4324 144.753 49.1174 144.543C48.8022 144.333 47.8544 145.446 47.0001 147.028C46.146 148.61 45.7088 150.063 46.0241 150.272C46.3391 150.482 47.2871 149.369 48.1412 147.787Z" fill="#0D0801" fill-opacity="0.3"/>
<path id="Vector_64" d="M57.1397 102.163C58.0111 101.203 58.5396 100.236 58.3198 100.002C58.1001 99.7674 57.2155 100.356 56.3438 101.315C55.4724 102.275 54.9442 103.242 55.1639 103.476C55.3837 103.711 56.2683 103.123 57.1397 102.163Z" fill="#140E04" fill-opacity="0.4"/>
<path id="Vector_65" d="M57.1399 102.163C57.8953 101.331 58.3739 100.515 58.209 100.339C58.0442 100.163 57.2984 100.695 56.543 101.527C55.7878 102.359 55.3092 103.175 55.4739 103.351C55.6387 103.526 56.3845 102.994 57.1399 102.163Z" fill="#0D0801" fill-opacity="0.3"/>
<path id="Vector_66" d="M36.3801 181.179C36.7203 179.929 36.7512 178.827 36.449 178.718C36.1468 178.609 35.6259 179.534 35.2857 180.784C34.9454 182.034 34.9144 183.136 35.2167 183.245C35.5189 183.354 36.0398 182.429 36.3801 181.179Z" fill="#140E04" fill-opacity="0.4"/>
<path id="Vector_67" d="M36.3811 181.178C36.676 180.095 36.7314 179.151 36.5047 179.069C36.2781 178.987 35.8552 179.799 35.5604 180.883C35.2653 181.966 35.2101 182.91 35.4368 182.992C35.6634 183.074 36.0863 182.262 36.3811 181.178Z" fill="#0D0801" fill-opacity="0.3"/>
<path id="Vector_68" d="M20.5453 169.598C21.0277 168.067 21.1212 166.692 20.7542 166.528C20.3871 166.363 19.6985 167.471 19.2161 169.003C18.7336 170.534 18.6401 171.909 19.0072 172.073C19.3742 172.238 20.0629 171.13 20.5453 169.598Z" fill="#140E04" fill-opacity="0.4"/>
<path id="Vector_69" d="M20.5451 169.599C20.9632 168.272 21.079 167.096 20.8037 166.972C20.5284 166.849 19.9663 167.825 19.5482 169.152C19.1301 170.479 19.0143 171.655 19.2896 171.779C19.5649 171.902 20.127 170.926 20.5451 169.599Z" fill="#0D0801" fill-opacity="0.3"/>
</g>
<path id="Vector_70" d="M14.3184 160.06L13.9765 161.073C13.9395 161.183 13.9974 161.306 14.1059 161.348L14.1222 161.354C14.2307 161.395 14.3487 161.34 14.3858 161.23L14.7276 160.216C14.7647 160.106 14.7068 159.983 14.5983 159.942L14.582 159.936C14.4735 159.894 14.3555 159.95 14.3184 160.06Z" fill="#1A051C"/>
<g id="Group_2" filter="url(#filter0_d_10_2)">
<path id="Vector_71" d="M15.2245 163.13L16.7797 163.725L16.7082 163.937L17.0356 164.062L18.5458 159.857L18.1366 159.701L18.0651 159.913L16.51 159.318L15.3373 159.507L15.0755 160.284L14.7481 160.159L14.391 161.218L14.7184 161.343L14.4089 162.261L15.2245 163.13Z" fill="#2F2E41"/>
</g>
<path id="Vector_72" d="M15.3063 159.416L15.0682 160.122L17.9861 161.237L18.5455 159.857L18.1287 159.698L18.0638 159.89L16.4798 159.285L15.3063 159.416Z" fill="#474565"/>
<path id="Vector_73" d="M13.0136 160.771C12.7057 160.653 12.5415 160.305 12.6467 159.993C12.7519 159.681 13.0866 159.524 13.3945 159.641L14.3377 160.002L13.9568 161.131L13.0136 160.771Z" fill="#2F2E41"/>
<path id="Vector_74" d="M13.6252 160.288C13.7172 160.015 13.5781 159.712 13.3144 159.611C13.0507 159.51 12.7623 159.65 12.6703 159.922C12.5783 160.195 12.7174 160.498 12.9811 160.599C13.2448 160.7 13.5332 160.561 13.6252 160.288Z" fill="#474565"/>
<path id="Vector_75" d="M13.4652 160.306C13.4915 160.228 13.4517 160.142 13.3764 160.113C13.3011 160.084 13.2187 160.124 13.1924 160.202C13.1661 160.28 13.2058 160.366 13.2812 160.395C13.3565 160.424 13.4389 160.384 13.4652 160.306Z" fill="#1D071F"/>
<path id="Vector_76" d="M15.0484 161.549L14.9056 161.973L15.8605 162.338L16.0033 161.914L15.0484 161.549Z" fill="#18021E"/>
<path id="Vector_77" d="M15.5728 159.996L15.4299 160.419L16.3849 160.785L16.5277 160.361L15.5728 159.996Z" fill="#15021B"/>
</g>
</g>
</g>
<defs>
<filter id="filter0_d_10_2" x="14.391" y="159.317" width="4.15922" height="4.74752" filterUnits="userSpaceOnUse" color-interpolation-filters="sRGB">
<feFlood flood-opacity="0" result="BackgroundImageFix"/>
<feColorMatrix in="SourceAlpha" type="matrix" values="0 0 0 0 0 0 0 0 0 0 0 0 0 0 0 0 0 0 127 0" result="hardAlpha"/>
<feOffset dx="0.00242954" dy="0.000485909"/>
<feGaussianBlur stdDeviation="0.000971817"/>
<feComposite in2="hardAlpha" operator="out"/>
<feColorMatrix type="matrix" values="0 0 0 0 0 0 0 0 0 0 0 0 0 0 0 0 0 0 0.25 0"/>
<feBlend mode="normal" in2="BackgroundImageFix" result="effect1_dropShadow_10_2"/>
<feBlend mode="normal" in="SourceGraphic" in2="effect1_dropShadow_10_2" result="shape"/>
</filter>
<radialGradient id="paint0_radial_10_2" cx="0" cy="0" r="1" gradientUnits="userSpaceOnUse" gradientTransform="translate(63.1359 86.8973) rotate(46.8205) scale(413.005 415)">
<stop stop-color="#D98201"/>
<stop offset="0.107292" stop-color="#C46F01"/>
<stop offset="0.252937" stop-color="#C46000"/>
<stop offset="0.37743" stop-color="#BA5606"/>
<stop offset="0.538859" stop-color="#B74C03"/>
<stop offset="0.709693" stop-color="#AE2E11"/>
<stop offset="0.89375" stop-color="#76001D"/>
</radialGradient>
<radialGradient id="paint1_radial_10_2" cx="0" cy="0" r="1" gradientUnits="userSpaceOnUse" gradientTransform="translate(143.476 200.819) rotate(-133.532) scale(61.1906 101.46)">
<stop offset="0.0104167" stop-color="#9F4009" stop-opacity="0.64"/>
<stop offset="0.5406" stop-color="#7E370E" stop-opacity="0.56"/>
<stop offset="1" stop-color="#7E2D08" stop-opacity="0.54"/>
</radialGradient>
<radialGradient id="paint2_radial_10_2" cx="0" cy="0" r="1" gradientUnits="userSpaceOnUse" gradientTransform="translate(143.546 73.8775) rotate(-164.136) scale(25.5857 43.7531)">
<stop offset="0.0104167" stop-color="#9F4009" stop-opacity="0.2"/>
<stop offset="0.5406" stop-color="#7E370E" stop-opacity="0.26"/>
<stop offset="1" stop-color="#511E07" stop-opacity="0.24"/>
</radialGradient>
<radialGradient id="paint3_radial_10_2" cx="0" cy="0" r="1" gradientUnits="userSpaceOnUse" gradientTransform="translate(369.466 299.018) rotate(-136.687) scale(47.8421 79.983)">
<stop offset="0.0104167" stop-color="#4A1F07" stop-opacity="0.22"/>
<stop offset="0.5406" stop-color="#552408" stop-opacity="0.32"/>
<stop offset="1" stop-color="#511E07" stop-opacity="0.27"/>
</radialGradient>
<radialGradient id="paint4_radial_10_2" cx="0" cy="0" r="1" gradientUnits="userSpaceOnUse" gradientTransform="translate(233.828 383.532) rotate(-136.687) scale(47.8421 79.983)">
<stop offset="0.0104167" stop-color="#4A1F07" stop-opacity="0.22"/>
<stop offset="0.5406" stop-color="#552408" stop-opacity="0.32"/>
<stop offset="1" stop-color="#511E07" stop-opacity="0.27"/>
</radialGradient>
<radialGradient id="paint5_radial_10_2" cx="0" cy="0" r="1" gradientUnits="userSpaceOnUse" gradientTransform="translate(329.19 178.992) rotate(-136.687) scale(47.8421 79.983)">
<stop offset="0.0104167" stop-color="#9F4009" stop-opacity="0.33"/>
<stop offset="0.5406" stop-color="#7E370E" stop-opacity="0.47"/>
<stop offset="1" stop-color="#511E07" stop-opacity="0.44"/>
</radialGradient>
<radialGradient id="paint6_radial_10_2" cx="0" cy="0" r="1" gradientUnits="userSpaceOnUse" gradientTransform="translate(56.6137 343.204) rotate(-141.432) scale(24.086 29.6717)">
<stop offset="0.0104167" stop-color="#9F4009"/>
<stop offset="0.5406" stop-color="#7E370E" stop-opacity="0.79"/>
<stop offset="1" stop-color="#511E07" stop-opacity="0.25"/>
</radialGradient>
<radialGradient id="paint7_radial_10_2" cx="0" cy="0" r="1" gradientUnits="userSpaceOnUse" gradientTransform="translate(143.362 327.34) rotate(-143.52) scale(28.4447 47.1224)">
<stop offset="0.0104167" stop-color="#9F4009" stop-opacity="0.43"/>
<stop offset="0.5406" stop-color="#7E370E" stop-opacity="0.46"/>
<stop offset="1" stop-color="#511E07" stop-opacity="0.56"/>
</radialGradient>
<radialGradient id="paint8_radial_10_2" cx="0" cy="0" r="1" gradientUnits="userSpaceOnUse" gradientTransform="translate(258.875 98.813) rotate(-136.826) scale(24.0572 40.2068)">
<stop offset="0.0104167" stop-color="#9F4009" stop-opacity="0.33"/>
<stop offset="0.5406" stop-color="#7E370E" stop-opacity="0.47"/>
<stop offset="1" stop-color="#511E07" stop-opacity="0.44"/>
</radialGradient>
<linearGradient id="paint9_linear_10_2" x1="14.0538" y1="170.246" x2="17.3146" y2="170.014" gradientUnits="userSpaceOnUse">
<stop stop-color="#C36100"/>
<stop offset="1" stop-color="#C36700"/>
</linearGradient>
<linearGradient id="paint10_linear_10_2" x1="15.6773" y1="165.819" x2="16.0359" y2="169.114" gradientUnits="userSpaceOnUse">
<stop stop-color="#9F4009"/>
<stop offset="1" stop-color="#C36200"/>
</linearGradient>
<linearGradient id="paint11_linear_10_2" x1="204.593" y1="12.8938" x2="208.008" y2="21.3166" gradientUnits="userSpaceOnUse">
<stop stop-color="#E77716"/>
<stop offset="1" stop-color="#B95405"/>
</linearGradient>
<linearGradient id="paint12_linear_10_2" x1="213.211" y1="18.4197" x2="206.434" y2="18.165" gradientUnits="userSpaceOnUse">
<stop stop-color="#BE5A03"/>
<stop offset="1" stop-color="#F3790F"/>
</linearGradient>
<linearGradient id="paint13_linear_10_2" x1="263.01" y1="20.8538" x2="264.328" y2="25.7215" gradientUnits="userSpaceOnUse">
<stop offset="0.0125647" stop-color="#BC5207"/>
<stop offset="1" stop-color="#B74D03"/>
</linearGradient>
<linearGradient id="paint14_linear_10_2" x1="270.692" y1="24.7636" x2="264.244" y2="26.334" gradientUnits="userSpaceOnUse">
<stop stop-color="#B74D03"/>
<stop offset="1" stop-color="#B65105"/>
</linearGradient>
<linearGradient id="paint15_linear_10_2" x1="20.2371" y1="145.683" x2="25.1027" y2="151.334" gradientUnits="userSpaceOnUse">
<stop stop-color="#C46B00"/>
<stop offset="1" stop-color="#C36400"/>
</linearGradient>
<linearGradient id="paint16_linear_10_2" x1="22.6871" y1="140.757" x2="22.201" y2="146.28" gradientUnits="userSpaceOnUse">
<stop stop-color="#C46900"/>
<stop offset="1" stop-color="#C25F00"/>
</linearGradient>
<linearGradient id="paint17_linear_10_2" x1="37.6823" y1="116.295" x2="42.61" y2="117" gradientUnits="userSpaceOnUse">
<stop stop-color="#CF7901"/>
<stop offset="1" stop-color="#C46C00"/>
</linearGradient>
<linearGradient id="paint18_linear_10_2" x1="45.0558" y1="105.575" x2="49.6747" y2="106.237" gradientUnits="userSpaceOnUse">
<stop stop-color="#CF7901"/>
<stop offset="1" stop-color="#C46C00"/>
</linearGradient>
</defs>
</svg>
