<svg width="100%" height="100%" viewBox="0 0 415 415" fill="none" xmlns="http://www.w3.org/2000/svg">
<g id="Clip path group">
<mask id="mask0_10_2" style="mask-type:luminance" maskUnits="userSpaceOnUse" x="0" y="0" width="415" height="415">
<g id="clip0_522_250">
<path id="Vector" d="M415 0.614258H0V415H415V0.614258Z" fill="white"/>
</g>
</mask>
<g mask="url(#mask0_10_2)">
<g id="Group">
<g id="radar">
<path id="Vector_2" d="M13.3782 154.204C13.4817 154.416 13.395 154.676 13.1844 154.785C12.9739 154.893 12.7193 154.808 12.6158 154.596L12.1094 153.555L12.8718 153.163L13.3782 154.204Z" fill="#12102B"/>
<path id="Vector_3" d="M7.6575 153.257L12.0143 153.573L13.0719 153.146L15.9473 149.99L15.7871 149.594L7.59009 152.9L7.6575 153.257Z" fill="#474565"/>
<path id="Vector_4" d="M10.9908 150.866L9.39404 152.191L9.91599 151.962L11.1788 150.939L11.5702 150.767L13.366 150.599L13.8879 150.37L11.6432 150.58L10.9908 150.866Z" fill="#474565"/>
<path id="Vector_5" d="M11.2422 150.907L11.3907 150.841L11.5821 151.291L11.4335 151.358L11.2422 150.907Z" fill="#2F2E41"/>
<path id="Vector_6" d="M10.4841 149.222C10.4564 149.156 10.487 149.079 10.5523 149.05C10.6176 149.021 10.693 149.051 10.7207 149.117L11.3853 150.7L11.1487 150.804L10.4841 149.222Z" fill="#474565"/>
<path id="Vector_7" d="M12.454 153.479L11.4805 151.366L14.6078 150.068L12.454 153.479Z" fill="black" fill-opacity="0.3"/>
<path id="Vector_8" d="M11.5053 151.332L12.455 153.479L8.73413 152.456L11.5053 151.332Z" fill="black" fill-opacity="0.6"/>
<path id="Vector_9" d="M12.0322 153.552L12.3715 153.422L8.73389 152.456L7.57568 152.872L7.64816 153.293L12.0322 153.552Z" fill="black" fill-opacity="0.85"/>
</g>
<path id="Vector_10" d="M208.508 415.126C319.878 415.126 410.161 326.792 410.161 217.827C410.161 108.863 319.878 20.5295 208.508 20.5295C97.1386 20.5295 6.85596 108.863 6.85596 217.827C6.85596 326.792 97.1386 415.126 208.508 415.126Z" fill="url(#paint0_radial_10_2)"/>
<path id="Vector_11" d="M148.965 170.927C148.965 187.056 135.65 200.131 119.225 200.131C102.799 200.131 89.4846 187.056 89.4846 170.927C89.4846 154.798 102.799 141.723 119.225 141.723C135.65 141.723 148.965 154.798 148.965 170.927Z" fill="url(#paint1_radial_10_2)" fill-opacity="0.38"/>
<path id="Vector_12" d="M139.377 59.5474C143.561 66.2999 141.311 75.1445 134.351 79.3031C127.391 83.4616 118.358 81.3593 114.174 74.6073C109.99 67.855 112.24 59.0102 119.2 54.8516C126.16 50.6931 135.193 52.7952 139.377 59.5474Z" fill="url(#paint2_radial_10_2)"/>
<path id="Vector_13" d="M136.829 60.643C140.335 66.6197 138.449 74.4487 132.616 78.1295C126.784 81.8107 119.213 79.9495 115.706 73.973C112.2 67.9963 114.086 60.1673 119.919 56.4863C125.751 52.8053 133.322 54.6661 136.829 60.643Z" fill="url(#paint3_radial_10_2)"/>
<path id="Vector_14" d="M44.7521 212.666C43.9102 224.596 36.8612 233.83 29.007 233.296C21.1533 232.761 15.469 222.661 16.3109 210.73C17.1529 198.801 24.2021 189.563 32.056 190.098C39.9098 190.633 45.5939 200.736 44.7521 212.666Z" fill="url(#paint4_radial_10_2)"/>
<path id="Vector_15" d="M42.252 212.477C41.5602 222.787 35.7662 230.766 29.3106 230.304C22.8553 229.842 18.183 221.113 18.8751 210.807C19.5671 200.499 25.3613 192.518 31.8166 192.98C38.2721 193.442 42.9442 202.172 42.252 212.477Z" fill="#0B0502" fill-opacity="0.1"/>
<path id="Vector_16" d="M343.523 257.355C343.523 269.664 333.5 279.643 321.139 279.643C308.779 279.643 298.756 269.664 298.756 257.355C298.756 245.046 308.779 235.067 321.139 235.067C333.5 235.067 343.523 245.046 343.523 257.355Z" fill="url(#paint5_radial_10_2)" fill-opacity="0.2"/>
<path id="Vector_17" d="M342.205 258.004C342.205 268.734 333.278 277.432 322.268 277.432C311.256 277.432 302.329 268.734 302.329 258.004C302.329 247.273 311.256 238.575 322.268 238.575C333.278 238.575 342.205 247.273 342.205 258.004Z" fill="#271307" fill-opacity="0.07"/>
<path id="Vector_18" d="M208.56 357.454C208.56 369.764 198.539 379.742 186.178 379.742C173.816 379.742 163.795 369.764 163.795 357.454C163.795 345.147 173.816 335.167 186.178 335.167C198.539 335.167 208.56 345.147 208.56 357.454Z" fill="url(#paint6_radial_10_2)" fill-opacity="0.2"/>
<path id="Vector_19" d="M203.05 354.614C203.05 365.68 194.333 374.647 183.581 374.647C172.828 374.647 164.112 365.68 164.112 354.614C164.112 343.55 172.828 334.578 183.581 334.578C194.333 334.578 203.05 343.55 203.05 354.614Z" fill="#1D1008" fill-opacity="0.01"/>
<path id="Vector_20" d="M321.16 156.249C321.16 168.558 311.142 178.536 298.777 178.536C286.418 178.536 276.396 168.558 276.396 156.249C276.396 143.941 286.418 133.962 298.777 133.962C311.142 133.962 321.16 143.941 321.16 156.249Z" fill="url(#paint7_radial_10_2)" fill-opacity="0.5"/>
<path id="Vector_21" d="M321.162 156.421C321.162 167.586 311.729 176.637 300.089 176.637C288.454 176.637 279.017 167.586 279.017 156.421C279.017 145.256 288.454 136.206 300.089 136.206C311.729 136.206 321.162 145.256 321.162 156.421Z" fill="#291103" fill-opacity="0.03"/>
<path id="Vector_22" d="M51.4012 318.458C55.1617 325.613 55.5275 332.883 52.2189 334.7C48.9106 336.513 43.18 332.189 39.4201 325.035C35.6596 317.88 35.2934 310.61 38.602 308.795C41.9108 306.978 47.6411 311.304 51.4012 318.458Z" fill="url(#paint8_radial_10_2)" fill-opacity="0.5"/>
<path id="Vector_23" d="M50.4966 319.07C53.778 325.265 54.0976 331.561 51.2102 333.132C48.3231 334.704 43.3223 330.958 40.0409 324.765C36.7595 318.568 36.4397 312.274 39.3271 310.701C42.2145 309.129 47.215 312.875 50.4966 319.07Z" fill="url(#paint9_radial_10_2)" fill-opacity="0.5"/>
<path id="Vector_24" d="M133.376 286.795C134.909 294.488 130.745 301.767 124.075 303.05C117.405 304.332 110.754 299.127 109.221 291.434C107.689 283.739 111.853 276.461 118.523 275.18C125.193 273.9 131.843 279.1 133.376 286.795Z" fill="url(#paint10_radial_10_2)" fill-opacity="0.47"/>
<path id="Vector_25" d="M250.965 87.3365C250.965 93.5101 245.916 98.5148 239.685 98.5148C233.456 98.5148 228.403 93.5101 228.403 87.3365C228.403 81.1632 233.456 76.1587 239.685 76.1587C245.916 76.1587 250.965 81.1632 250.965 87.3365Z" fill="url(#paint11_radial_10_2)"/>
<path id="Vector_26" d="M13.3191 164.248C13.851 164.677 13.9865 166.006 13.9878 166.617L16.4009 159.306C15.9252 160.447 14.925 160.738 14.4844 160.741L13.3191 164.248Z" fill="url(#paint12_linear_10_2)"/>
<path id="Vector_27" d="M14.1023 162.568C14.4236 161.602 14.5939 160.784 14.4828 160.741C14.3717 160.699 14.0212 161.448 13.6999 162.415C13.3786 163.382 13.2083 164.2 13.3194 164.242C13.4305 164.284 13.781 163.535 14.1023 162.568Z" fill="url(#paint13_linear_10_2)"/>
<path id="Vector_28" d="M14.0101 162.548C14.2686 161.77 14.4261 161.119 14.3618 161.095C14.2975 161.07 14.0357 161.681 13.7772 162.459C13.5187 163.237 13.3612 163.888 13.4255 163.912C13.4898 163.937 13.7515 163.326 14.0101 162.548Z" fill="#1E1B16" fill-opacity="0.15"/>
<path id="Vector_29" d="M197.942 18.0902C197.625 19.5361 195.298 20.8547 194.174 21.3332L209.78 20.6846C207.257 20.5786 205.832 18.7142 205.436 17.7952L197.942 18.0902Z" fill="url(#paint14_linear_10_2)"/>
<path id="Vector_30" d="M201.73 18.423C203.796 18.3418 205.454 18.061 205.433 17.7957C205.412 17.5304 203.721 17.3811 201.655 17.4623C199.59 17.5435 197.932 17.8243 197.953 18.0896C197.974 18.3549 199.665 18.5042 201.73 18.423Z" fill="url(#paint15_linear_10_2)"/>
<path id="Vector_31" d="M201.685 18.2106C203.348 18.1452 204.686 17.9678 204.673 17.8143C204.661 17.6608 203.304 17.5892 201.642 17.6546C199.98 17.7199 198.642 17.8973 198.654 18.0508C198.666 18.2044 200.023 18.2759 201.685 18.2106Z" fill="#31230B" fill-opacity="0.58"/>
<path id="Vector_32" d="M249.566 21.8452C248.89 23.1623 246.302 23.8442 245.095 24.0205L260.312 27.107C257.899 26.3613 257.036 24.4594 256.887 23.4696L249.566 21.8452Z" fill="url(#paint16_linear_10_2)"/>
<path id="Vector_33" d="M253.144 23.1323C255.161 23.5803 256.835 23.7311 256.883 23.4694C256.931 23.2075 255.335 22.6321 253.316 22.1844C251.299 21.7364 249.624 21.5854 249.577 21.8473C249.529 22.109 251.127 22.6844 253.144 23.1323Z" fill="url(#paint17_linear_10_2)"/>
<path id="Vector_34" d="M253.154 22.9154C254.779 23.2759 256.117 23.4452 256.146 23.2937C256.173 23.1423 254.878 22.7273 253.256 22.3668C251.631 22.0062 250.293 21.8368 250.264 21.9884C250.237 22.1399 251.531 22.5549 253.154 22.9154Z" fill="#31230B" fill-opacity="0.58"/>
<path id="Vector_35" d="M17.8088 144.486C19.1441 145.5 19.3298 148.534 19.2558 149.924L26.4858 133.466C25.0985 136.028 22.4487 136.618 21.2973 136.592L17.8088 144.486Z" fill="url(#paint18_linear_10_2)"/>
<path id="Vector_36" d="M20.0711 140.723C21.0328 138.548 21.5815 136.699 21.2966 136.595C21.0117 136.491 20.001 138.17 19.0393 140.346C18.0775 142.522 17.5289 144.37 17.8138 144.474C18.0987 144.579 19.1094 142.899 20.0711 140.723Z" fill="url(#paint19_linear_10_2)"/>
<path id="Vector_37" d="M19.8289 140.669C20.6029 138.918 21.0967 137.449 20.9317 137.389C20.7667 137.329 20.0057 138.699 19.2317 140.45C18.4578 142.201 17.964 143.67 18.1289 143.73C18.2938 143.791 19.0549 142.42 19.8289 140.669Z" fill="#1E1B16" fill-opacity="0.15"/>
<path id="Vector_38" d="M30.2843 149.263C31.7507 146.004 32.3679 142.941 31.6628 142.421C30.9577 141.9 29.1975 144.119 27.7311 147.377C26.2647 150.635 25.6473 153.699 26.3524 154.219C27.0575 154.74 28.8179 152.52 30.2843 149.263Z" fill="#140E04" fill-opacity="0.4"/>
<path id="Vector_39" d="M30.2858 149.262C31.5566 146.439 32.1581 143.833 31.6294 143.443C31.1005 143.052 29.6416 145.025 28.3708 147.849C27.0999 150.672 26.4983 153.278 27.0271 153.668C27.556 154.059 29.0149 152.086 30.2858 149.262Z" fill="#0D0801" fill-opacity="0.29"/>
<path id="Vector_40" d="M18.2725 182.972C18.7086 181.093 18.6565 179.405 18.1561 179.203C17.6557 179.001 16.8965 180.362 16.4604 182.241C16.0243 184.121 16.0764 185.809 16.5768 186.011C17.0772 186.213 17.8364 184.852 18.2725 182.972Z" fill="#140E04" fill-opacity="0.4"/>
<path id="Vector_41" d="M18.2729 182.973C18.6508 181.344 18.653 179.9 18.2777 179.749C17.9024 179.597 17.2918 180.795 16.9138 182.424C16.5358 184.054 16.5337 185.497 16.909 185.648C17.2843 185.8 17.8949 184.602 18.2729 182.973Z" fill="#0D0801" fill-opacity="0.29"/>
<path id="Vector_42" d="M214.885 30.0619C218.458 30.201 221.535 29.6264 221.755 28.7788C221.975 27.931 219.255 27.1312 215.68 26.9922C212.107 26.8532 209.029 27.4277 208.809 28.2753C208.589 29.1229 211.31 29.9229 214.885 30.0619Z" fill="#140E04" fill-opacity="0.4"/>
<path id="Vector_43" d="M214.885 30.0625C217.983 30.1829 220.629 29.7652 220.792 29.1295C220.956 28.4936 218.578 27.8808 215.48 27.7602C212.382 27.6398 209.739 28.0575 209.573 28.6932C209.409 29.329 211.787 29.9421 214.885 30.0625Z" fill="#0D0801" fill-opacity="0.29"/>
<path id="Vector_44" d="M243.138 29.9636C244.877 30.2808 246.427 30.1594 246.599 29.6924C246.771 29.2253 245.501 28.5897 243.763 28.2727C242.024 27.9555 240.474 28.0769 240.302 28.5439C240.129 29.0109 241.399 29.6466 243.138 29.9636Z" fill="#140E04" fill-opacity="0.4"/>
<path id="Vector_45" d="M243.138 29.9638C244.645 30.2385 245.97 30.1774 246.101 29.8272C246.23 29.4769 245.113 28.9703 243.607 28.6953C242.099 28.4206 240.773 28.4817 240.644 28.8319C240.513 29.1822 241.632 29.6888 243.138 29.9638Z" fill="#0D0801" fill-opacity="0.29"/>
<path id="Vector_46" d="M265.749 35.755C267.148 36.1858 268.434 36.2693 268.623 35.9415C268.812 35.6139 267.832 34.9992 266.436 34.5686C265.037 34.1381 263.751 34.0546 263.562 34.3822C263.373 34.7097 264.353 35.3245 265.749 35.755Z" fill="#140E04" fill-opacity="0.4"/>
<path id="Vector_47" d="M265.749 35.7556C266.961 36.1287 268.057 36.2321 268.2 35.9864C268.341 35.7407 267.476 35.2388 266.264 34.8657C265.052 34.4925 263.957 34.3891 263.813 34.6349C263.672 34.8806 264.54 35.3822 265.749 35.7556Z" fill="#0D0801" fill-opacity="0.29"/>
<path id="Vector_48" d="M265.519 51.992C268.669 52.7369 271.512 52.6337 271.866 51.7616C272.223 50.8896 269.955 49.5789 266.803 48.834C263.654 48.0892 260.811 48.1923 260.456 49.0644C260.099 49.9365 262.367 51.2472 265.519 51.992Z" fill="#140E04" fill-opacity="0.4"/>
<path id="Vector_49" d="M265.517 51.9927C268.248 52.6384 270.678 52.6313 270.945 51.9774C271.211 51.3233 269.213 50.2697 266.482 49.6241C263.751 48.9787 261.321 48.9855 261.054 49.6397C260.788 50.2938 262.786 51.3473 265.517 51.9927Z" fill="#0D0801" fill-opacity="0.29"/>
<path id="Vector_50" d="M189.993 45.6661C193.012 45.4606 195.529 44.6766 195.614 43.915C195.7 43.1531 193.321 42.702 190.302 42.9076C187.283 43.1131 184.766 43.8971 184.681 44.659C184.596 45.4206 186.974 45.8717 189.993 45.6661Z" fill="#140E04" fill-opacity="0.4"/>
<path id="Vector_51" d="M189.993 45.6672C192.609 45.489 194.783 44.8815 194.846 44.3103C194.91 43.7389 192.841 43.4202 190.224 43.5982C187.608 43.7764 185.434 44.3838 185.371 44.9551C185.307 45.5263 187.376 45.8452 189.993 45.6672Z" fill="#0D0801" fill-opacity="0.29"/>
<path id="Vector_52" d="M182.251 28.8511C184.059 28.6366 185.546 28.0897 185.574 27.6291C185.601 27.1687 184.159 26.9692 182.351 27.1836C180.544 27.3978 179.056 27.945 179.029 28.4054C179.001 28.866 180.444 29.0655 182.251 28.8511Z" fill="#140E04" fill-opacity="0.4"/>
<path id="Vector_53" d="M182.251 28.8509C183.818 28.6652 185.104 28.2345 185.125 27.8891C185.146 27.5439 183.893 27.4144 182.327 27.6003C180.76 27.7861 179.474 28.2167 179.453 28.5621C179.432 28.9075 180.685 29.0367 182.251 28.8509Z" fill="#0D0801" fill-opacity="0.29"/>
<path id="Vector_54" d="M230.333 43.4661C232.745 43.6938 234.844 43.3488 235.027 42.6954C235.208 42.0419 233.4 41.3275 230.989 41.0998C228.578 40.8718 226.478 41.217 226.295 41.8703C226.115 42.5238 227.922 43.2382 230.333 43.4661Z" fill="#140E04" fill-opacity="0.4"/>
<path id="Vector_55" d="M230.333 43.4664C232.423 43.6639 234.226 43.4267 234.363 42.9367C234.498 42.4464 232.915 41.8891 230.825 41.6916C228.736 41.4942 226.932 41.7314 226.795 42.2216C226.66 42.7116 228.244 43.269 230.333 43.4664Z" fill="#0D0801" fill-opacity="0.29"/>
<path id="Vector_56" d="M35.7542 112.632C36.4213 113.345 36.2316 115.109 36.0534 115.902L41.3232 107.477C40.2772 108.816 39.185 108.556 38.5268 108.43L35.7542 112.632Z" fill="url(#paint20_linear_10_2)"/>
<path id="Vector_57" d="M37.4187 110.688C38.183 109.529 38.6785 108.519 38.5251 108.431C38.3718 108.344 37.6279 109.212 36.8635 110.37C36.0993 111.528 35.6037 112.539 35.7571 112.626C35.9104 112.714 36.6543 111.846 37.4187 110.688Z" fill="#C97300"/>
<path id="Vector_58" d="M37.2867 110.632C37.9019 109.7 38.3287 108.903 38.2399 108.852C38.1511 108.802 37.5807 109.516 36.9655 110.448C36.3504 111.381 35.9236 112.177 36.0124 112.228C36.101 112.279 36.6717 111.565 37.2867 110.632Z" fill="#1E1B16" fill-opacity="0.29"/>
<path id="Vector_59" d="M42.8616 102.198C43.4865 102.869 43.3456 104.263 43.197 104.876L47.9322 98.5517C46.9984 99.4793 45.9304 99.4091 45.3246 99.212L42.8616 102.198Z" fill="url(#paint21_linear_10_2)"/>
<path id="Vector_60" d="M44.3511 100.872C45.03 100.049 45.4653 99.3063 45.3231 99.2133C45.1809 99.1206 44.5152 99.7125 43.8361 100.535C43.1572 101.359 42.7219 102.101 42.8641 102.194C43.0063 102.287 43.672 101.695 44.3511 100.872Z" fill="#C97300"/>
<path id="Vector_61" d="M44.229 100.808C44.7755 100.146 45.1519 99.5654 45.0695 99.5116C44.9872 99.4579 44.4777 99.9514 43.9311 100.614C43.3847 101.276 43.0084 101.857 43.0907 101.91C43.1729 101.964 43.6826 101.471 44.229 100.808Z" fill="#1E1B16" fill-opacity="0.29"/>
<path id="Vector_62" d="M48.5636 118.93C50.0565 116.927 50.8925 114.971 50.4306 114.562C49.9688 114.154 48.3841 115.446 46.8912 117.45C45.398 119.453 44.562 121.409 45.0239 121.818C45.4858 122.226 47.0705 120.934 48.5636 118.93Z" fill="#140E04" fill-opacity="0.21"/>
<path id="Vector_63" d="M48.5629 118.93C49.8569 117.194 50.6249 115.538 50.2786 115.231C49.9322 114.925 48.6023 116.084 47.3085 117.82C46.0145 119.557 45.2465 121.213 45.5928 121.519C45.9392 121.826 47.2688 120.667 48.5629 118.93Z" fill="#0D0801" fill-opacity="0.29"/>
<path id="Vector_64" d="M34.9313 125.427C36.2489 123.304 36.916 121.285 36.4211 120.917C35.9262 120.549 34.4569 121.971 33.1393 124.094C31.8215 126.217 31.1543 128.236 31.6492 128.605C32.1441 128.973 33.6134 127.55 34.9313 125.427Z" fill="#140E04" fill-opacity="0.21"/>
<path id="Vector_65" d="M34.9306 125.428C36.0726 123.588 36.6974 121.872 36.3264 121.596C35.9552 121.32 34.7285 122.588 33.5866 124.428C32.4445 126.268 31.8197 127.983 32.1907 128.259C32.562 128.535 33.7885 127.267 34.9306 125.428Z" fill="#0D0801" fill-opacity="0.32"/>
<path id="Vector_66" d="M68.7039 102.403C70.57 100.396 71.7197 98.3639 71.2717 97.8635C70.8239 97.3634 68.9481 98.5845 67.0821 100.591C65.216 102.598 64.0663 104.63 64.5143 105.131C64.9621 105.631 66.8379 104.41 68.7039 102.403Z" fill="#140E04" fill-opacity="0.4"/>
<path id="Vector_67" d="M68.7028 102.403C70.3201 100.663 71.3588 98.9496 71.0229 98.5743C70.6871 98.1991 69.1037 99.3049 67.4864 101.044C65.8692 102.783 64.8304 104.497 65.1664 104.872C65.5023 105.248 67.0855 104.142 68.7028 102.403Z" fill="#0D0801" fill-opacity="0.3"/>
<path id="Vector_68" d="M46.141 142.258C47.0856 140.508 47.5248 138.872 47.1223 138.604C46.7195 138.336 45.6273 139.538 44.6827 141.287C43.738 143.037 43.2987 144.672 43.7015 144.94C44.104 145.208 45.1963 144.007 46.141 142.258Z" fill="#140E04" fill-opacity="0.4"/>
<path id="Vector_69" d="M46.14 142.258C46.9588 140.741 47.3775 139.349 47.0756 139.148C46.7735 138.947 45.865 140.014 45.0462 141.53C44.2276 143.046 43.8087 144.439 44.1108 144.64C44.4127 144.841 45.3214 143.774 46.14 142.258Z" fill="#0D0801" fill-opacity="0.3"/>
<path id="Vector_70" d="M54.7644 98.5302C55.5995 97.6104 56.1061 96.6831 55.8954 96.4587C55.6848 96.2343 54.837 96.798 54.0016 97.7178C53.1664 98.6373 52.6601 99.5649 52.8707 99.7891C53.0813 100.013 53.9292 99.4499 54.7644 98.5302Z" fill="#140E04" fill-opacity="0.4"/>
<path id="Vector_71" d="M54.7645 98.53C55.4885 97.7329 55.9473 96.9505 55.7892 96.7821C55.6313 96.6139 54.9164 97.1238 54.1925 97.9208C53.4687 98.7177 53.0099 99.5003 53.1678 99.6685C53.3257 99.8369 54.0406 99.327 54.7645 98.53Z" fill="#0D0801" fill-opacity="0.3"/>
<path id="Vector_72" d="M34.8678 174.261C35.1938 173.063 35.2235 172.007 34.9338 171.903C34.6441 171.798 34.1449 172.685 33.8189 173.883C33.4927 175.081 33.463 176.137 33.7527 176.242C34.0424 176.346 34.5416 175.459 34.8678 174.261Z" fill="#140E04" fill-opacity="0.4"/>
<path id="Vector_73" d="M34.8687 174.261C35.1513 173.223 35.2045 172.317 34.9872 172.239C34.7699 172.161 34.3647 172.939 34.0821 173.977C33.7993 175.016 33.7464 175.921 33.9636 175.999C34.1809 176.078 34.5861 175.299 34.8687 174.261Z" fill="#0D0801" fill-opacity="0.3"/>
<path id="Vector_74" d="M19.6912 163.162C20.1536 161.695 20.2432 160.377 19.8914 160.219C19.5396 160.062 18.8796 161.124 18.4172 162.591C17.9549 164.059 17.8652 165.377 18.217 165.534C18.5688 165.692 19.2288 164.63 19.6912 163.162Z" fill="#140E04" fill-opacity="0.4"/>
<path id="Vector_75" d="M19.691 163.163C20.0918 161.891 20.2027 160.764 19.9389 160.646C19.675 160.527 19.1363 161.463 18.7356 162.735C18.3348 164.007 18.2239 165.134 18.4877 165.252C18.7516 165.37 19.2903 164.435 19.691 163.163Z" fill="#0D0801" fill-opacity="0.3"/>
<path id="Vector_76" d="M13.7231 154.02L13.3955 154.992C13.36 155.097 13.4155 155.215 13.5195 155.255L13.5351 155.261C13.6391 155.3 13.7522 155.247 13.7878 155.142L14.1154 154.17C14.1509 154.065 14.0954 153.947 13.9914 153.907L13.9758 153.901C13.8718 153.862 13.7587 153.915 13.7231 154.02Z" fill="#1A051C"/>
<g id="Group_2" filter="url(#filter0_d_10_2)">
<path id="Vector_77" d="M14.5916 156.963L16.0821 157.533L16.0136 157.736L16.3274 157.856L17.7748 153.826L17.3826 153.676L17.3141 153.879L15.8236 153.309L14.6997 153.491L14.4488 154.235L14.135 154.115L13.7927 155.13L14.1065 155.25L13.8099 156.13L14.5916 156.963Z" fill="#2F2E41"/>
</g>
<path id="Vector_78" d="M14.67 153.403L14.4419 154.08L17.2384 155.149L17.7746 153.826L17.3751 153.673L17.3129 153.858L15.7948 153.277L14.67 153.403Z" fill="#474565"/>
<path id="Vector_79" d="M12.4727 154.702C12.1777 154.589 12.0202 154.255 12.1211 153.956C12.2219 153.657 12.5427 153.506 12.8378 153.619L13.7418 153.965L13.3767 155.047L12.4727 154.702Z" fill="#2F2E41"/>
<path id="Vector_80" d="M13.0589 154.238C13.1471 153.977 13.0137 153.687 12.761 153.59C12.5083 153.493 12.2319 153.627 12.1437 153.889C12.0554 154.15 12.1888 154.441 12.4416 154.537C12.6943 154.634 12.9707 154.5 13.0589 154.238Z" fill="#474565"/>
<path id="Vector_81" d="M12.9055 154.256C12.9307 154.181 12.8926 154.099 12.8204 154.071C12.7482 154.043 12.6692 154.082 12.644 154.156C12.6188 154.231 12.6569 154.314 12.7291 154.342C12.8013 154.369 12.8803 154.331 12.9055 154.256Z" fill="#1D071F"/>
<path id="Vector_82" d="M14.4228 155.448L14.2859 155.854L15.2011 156.203L15.338 155.797L14.4228 155.448Z" fill="#18021E"/>
<path id="Vector_83" d="M14.9255 153.959L14.7886 154.365L15.7038 154.715L15.8407 154.309L14.9255 153.959Z" fill="#15021B"/>
</g>
</g>
</g>
<defs>
<filter id="filter0_d_10_2" x="13.7927" y="153.308" width="3.98655" height="4.55027" filterUnits="userSpaceOnUse" color-interpolation-filters="sRGB">
<feFlood flood-opacity="0" result="BackgroundImageFix"/>
<feColorMatrix in="SourceAlpha" type="matrix" values="0 0 0 0 0 0 0 0 0 0 0 0 0 0 0 0 0 0 127 0" result="hardAlpha"/>
<feOffset dx="0.00242954" dy="0.000485909"/>
<feGaussianBlur stdDeviation="0.000971817"/>
<feComposite in2="hardAlpha" operator="out"/>
<feColorMatrix type="matrix" values="0 0 0 0 0 0 0 0 0 0 0 0 0 0 0 0 0 0 0.25 0"/>
<feBlend mode="normal" in2="BackgroundImageFix" result="effect1_dropShadow_10_2"/>
<feBlend mode="normal" in="SourceGraphic" in2="effect1_dropShadow_10_2" result="shape"/>
</filter>
<radialGradient id="paint0_radial_10_2" cx="0" cy="0" r="1" gradientUnits="userSpaceOnUse" gradientTransform="translate(60.5113 83.8991) rotate(46.8204) scale(395.837 397.749)">
<stop stop-color="#D98201"/>
<stop offset="0.107292" stop-color="#C46F01"/>
<stop offset="0.252937" stop-color="#C46000"/>
<stop offset="0.37743" stop-color="#BA5606"/>
<stop offset="0.538859" stop-color="#B74C03"/>
<stop offset="0.709693" stop-color="#AE2E11"/>
<stop offset="0.89375" stop-color="#76001D"/>
</radialGradient>
<radialGradient id="paint1_radial_10_2" cx="0" cy="0" r="1" gradientUnits="userSpaceOnUse" gradientTransform="translate(137.512 193.085) rotate(-133.532) scale(58.6469 97.2421)">
<stop offset="0.0104167" stop-color="#9F4009" stop-opacity="0.64"/>
<stop offset="0.5406" stop-color="#7E370E" stop-opacity="0.56"/>
<stop offset="1" stop-color="#7E2D08" stop-opacity="0.54"/>
</radialGradient>
<radialGradient id="paint2_radial_10_2" cx="0" cy="0" r="1" gradientUnits="userSpaceOnUse" gradientTransform="translate(140.272 71.7235) rotate(-164.94) scale(29.1467 47.5597)">
<stop offset="0.0104167" stop-color="#9F4009" stop-opacity="0.2"/>
<stop offset="0.5406" stop-color="#7E370E" stop-opacity="0.26"/>
<stop offset="1" stop-color="#511E07" stop-opacity="0.24"/>
</radialGradient>
<radialGradient id="paint3_radial_10_2" cx="0" cy="0" r="1" gradientUnits="userSpaceOnUse" gradientTransform="translate(137.579 71.4206) rotate(-164.136) scale(24.5221 41.9343)">
<stop offset="0.0104167" stop-color="#9F4009" stop-opacity="0.2"/>
<stop offset="0.5406" stop-color="#7E370E" stop-opacity="0.26"/>
<stop offset="1" stop-color="#511E07" stop-opacity="0.24"/>
</radialGradient>
<radialGradient id="paint4_radial_10_2" cx="0" cy="0" r="1" gradientUnits="userSpaceOnUse" gradientTransform="translate(38.1191 228.682) rotate(-117.556) scale(36.9534 54.8407)">
<stop offset="0.0104167" stop-color="#9F4009" stop-opacity="0.2"/>
<stop offset="0.5406" stop-color="#7E370E" stop-opacity="0.26"/>
<stop offset="1" stop-color="#511E07" stop-opacity="0.24"/>
</radialGradient>
<radialGradient id="paint5_radial_10_2" cx="0" cy="0" r="1" gradientUnits="userSpaceOnUse" gradientTransform="translate(337.864 273.27) rotate(-136.687) scale(45.8533 76.658)">
<stop offset="0.0104167" stop-color="#4A1F07" stop-opacity="0.22"/>
<stop offset="0.5406" stop-color="#552408" stop-opacity="0.32"/>
<stop offset="1" stop-color="#511E07" stop-opacity="0.27"/>
</radialGradient>
<radialGradient id="paint6_radial_10_2" cx="0" cy="0" r="1" gradientUnits="userSpaceOnUse" gradientTransform="translate(202.904 373.371) rotate(-136.687) scale(45.8533 76.658)">
<stop offset="0.0104167" stop-color="#411E0A" stop-opacity="0.15"/>
<stop offset="0.5406" stop-color="#2F1405" stop-opacity="0.3"/>
<stop offset="1" stop-color="#511E07"/>
</radialGradient>
<radialGradient id="paint7_radial_10_2" cx="0" cy="0" r="1" gradientUnits="userSpaceOnUse" gradientTransform="translate(315.506 172.165) rotate(-136.687) scale(45.8533 76.658)">
<stop offset="0.0104167" stop-color="#9F4009" stop-opacity="0.33"/>
<stop offset="0.5406" stop-color="#7E370E" stop-opacity="0.47"/>
<stop offset="1" stop-color="#511E07" stop-opacity="0.44"/>
</radialGradient>
<radialGradient id="paint8_radial_10_2" cx="0" cy="0" r="1" gradientUnits="userSpaceOnUse" gradientTransform="translate(54.2601 329.551) rotate(-141.432) scale(23.0848 28.4383)">
<stop offset="0.0104167" stop-color="#9F4009"/>
<stop offset="0.5406" stop-color="#7E370E" stop-opacity="0.79"/>
<stop offset="1" stop-color="#511E07" stop-opacity="0.25"/>
</radialGradient>
<radialGradient id="paint9_radial_10_2" cx="0" cy="0" r="1" gradientUnits="userSpaceOnUse" gradientTransform="translate(52.9912 328.677) rotate(-141.649) scale(20.0846 24.6991)">
<stop offset="0.0104167" stop-color="#9F4009"/>
<stop offset="0.5406" stop-color="#7E370E" stop-opacity="0.79"/>
<stop offset="1" stop-color="#511E07" stop-opacity="0.25"/>
</radialGradient>
<radialGradient id="paint10_radial_10_2" cx="0" cy="0" r="1" gradientUnits="userSpaceOnUse" gradientTransform="translate(132.306 297.333) rotate(-143.52) scale(27.2622 45.1635)">
<stop offset="0.0104167" stop-color="#9F4009" stop-opacity="0.43"/>
<stop offset="0.5406" stop-color="#7E370E" stop-opacity="0.46"/>
<stop offset="1" stop-color="#511E07" stop-opacity="0.56"/>
</radialGradient>
<radialGradient id="paint11_radial_10_2" cx="0" cy="0" r="1" gradientUnits="userSpaceOnUse" gradientTransform="translate(248.114 95.3195) rotate(-136.826) scale(23.0572 38.5354)">
<stop offset="0.0104167" stop-color="#9F4009" stop-opacity="0.33"/>
<stop offset="0.5406" stop-color="#7E370E" stop-opacity="0.47"/>
<stop offset="1" stop-color="#511E07" stop-opacity="0.44"/>
</radialGradient>
<linearGradient id="paint12_linear_10_2" x1="13.4697" y1="163.783" x2="16.5949" y2="163.561" gradientUnits="userSpaceOnUse">
<stop stop-color="#C36100"/>
<stop offset="1" stop-color="#C36700"/>
</linearGradient>
<linearGradient id="paint13_linear_10_2" x1="15.0255" y1="159.54" x2="15.3692" y2="162.698" gradientUnits="userSpaceOnUse">
<stop stop-color="#9F4009"/>
<stop offset="1" stop-color="#C36200"/>
</linearGradient>
<linearGradient id="paint14_linear_10_2" x1="196.088" y1="12.972" x2="199.361" y2="21.0446" gradientUnits="userSpaceOnUse">
<stop stop-color="#E77716"/>
<stop offset="1" stop-color="#B95405"/>
</linearGradient>
<linearGradient id="paint15_linear_10_2" x1="204.347" y1="18.2682" x2="197.853" y2="18.024" gradientUnits="userSpaceOnUse">
<stop stop-color="#BE5A03"/>
<stop offset="1" stop-color="#F3790F"/>
</linearGradient>
<linearGradient id="paint16_linear_10_2" x1="252.077" y1="20.6011" x2="253.339" y2="25.2665" gradientUnits="userSpaceOnUse">
<stop offset="0.0125647" stop-color="#BC5207"/>
<stop offset="1" stop-color="#B74D03"/>
</linearGradient>
<linearGradient id="paint17_linear_10_2" x1="259.439" y1="24.3483" x2="253.259" y2="25.8534" gradientUnits="userSpaceOnUse">
<stop stop-color="#B74D03"/>
<stop offset="1" stop-color="#B65105"/>
</linearGradient>
<linearGradient id="paint18_linear_10_2" x1="19.396" y1="140.241" x2="24.0593" y2="145.657" gradientUnits="userSpaceOnUse">
<stop stop-color="#C46B00"/>
<stop offset="1" stop-color="#C36400"/>
</linearGradient>
<linearGradient id="paint19_linear_10_2" x1="21.7441" y1="135.52" x2="21.2782" y2="140.813" gradientUnits="userSpaceOnUse">
<stop stop-color="#C46900"/>
<stop offset="1" stop-color="#C25F00"/>
</linearGradient>
<linearGradient id="paint20_linear_10_2" x1="36.1158" y1="112.074" x2="40.8386" y2="112.75" gradientUnits="userSpaceOnUse">
<stop stop-color="#CF7901"/>
<stop offset="1" stop-color="#C46C00"/>
</linearGradient>
<linearGradient id="paint21_linear_10_2" x1="43.1827" y1="101.801" x2="47.6096" y2="102.435" gradientUnits="userSpaceOnUse">
<stop stop-color="#CF7901"/>
<stop offset="1" stop-color="#C46C00"/>
</linearGradient>
</defs>
</svg>
