<svg width="100%" height="100%" viewBox="0 0 2051 1161" fill="none" xmlns="http://www.w3.org/2000/svg">
    <g clip-path="url(#clip0_20_565)">
        <mask id="mask0_20_565" style="mask-type:luminance" maskUnits="userSpaceOnUse" x="0" y="0" width="2051"
            height="1161">
            <path d="M2051 0H0V1161H2051V0Z" fill="white" />
        </mask>
        <g mask="url(#mask0_20_565)">
            <path d="M504.362 34.749L503.925 69.9275L489.427 66.4586L504.362 34.749Z" fill="#BBBB3B" />
            <path
                d="M503.969 69.7322L489.461 66.2607L442.537 270.436C441.592 274.546 444.074 278.655 448.08 279.613C452.087 280.572 456.1 278.017 457.045 273.907L503.969 69.7322Z"
                fill="#BBBB3B" />
            <path d="M441.868 29.5269L449.823 63.5883L434.91 64.0356L441.868 29.5269Z" fill="#942434" />
            <path
                d="M449.828 63.3867L434.904 63.8343L437.952 273.226C438.013 277.394 441.403 280.672 445.524 280.548C449.645 280.425 452.937 276.946 452.876 272.779L449.828 63.3867Z"
                fill="#942434" />
            <path
                d="M386 241C386 224.431 399.431 211 416 211H1933C1949.57 211 1963 224.431 1963 241V1019H416C399.431 1019 386 1005.57 386 989V241Z"
                fill="#E8E8E8" />
            <path
                d="M1032.76 902.994C1122.45 1001.84 1235.74 1021.37 1281.17 1018.78H1963V835.141C1824.81 735.218 1595.46 736.118 1498.05 749.059C1406.37 759.073 1197.08 765.262 1093.37 709.899C963.732 640.695 853.014 661.626 780.136 676.479C721.834 688.362 653.3 658.925 626.322 642.721C586.729 630.343 521.209 626.45 575.868 709.899C630.526 793.349 734.821 798.682 780.136 790.918C826.969 787.092 943.06 804.151 1032.76 902.994Z"
                fill="url(#paint0_linear_20_565)" />
            <path
                d="M1486 728H1282C1258.8 728 1240 746.804 1240 770V931C1240 954.196 1258.8 973 1282 973H1486C1509.2 973 1528 954.196 1528 931V770C1528 746.804 1509.2 728 1486 728Z"
                fill="#11213F" />
            <path
                d="M1810 728H1613C1589.8 728 1571 746.804 1571 770V931C1571 954.196 1589.8 973 1613 973H1810C1833.2 973 1852 954.196 1852 931V770C1852 746.804 1833.2 728 1810 728Z"
                fill="#11213F" />
            <path
                d="M394.601 1142.85C391.061 1148.45 383.747 1149.98 378.264 1146.25L326.367 1111.01L274.47 1075.76C268.988 1072.03 267.413 1064.47 270.952 1058.87L381.606 883.721C384.168 879.665 388.847 877.605 393.505 878.481L459.79 890.954C462.984 891.555 465.816 893.478 467.623 896.274L505.133 954.295C507.769 958.372 507.816 963.643 505.254 967.699L394.601 1142.85Z"
                fill="white" />
            <path
                d="M466.398 897.107L503.907 955.127C506.213 958.695 506.255 963.307 504.013 966.856L393.36 1142.01C390.263 1146.91 383.863 1148.24 379.066 1144.98L327.168 1109.74L275.271 1074.49C270.474 1071.23 269.096 1064.62 272.193 1059.71L382.846 884.564C385.088 881.015 389.183 879.212 393.258 879.979L459.543 892.452C462.338 892.978 464.816 894.66 466.398 897.107Z"
                stroke="black" stroke-opacity="0.38" stroke-width="3" />
            <path d="M425.066 1081.25L313.25 1005.31L282.329 1054.25L394.145 1130.2L425.066 1081.25Z" fill="#3E091C" />
            <path d="M486.906 983.364L375.09 907.423L344.169 956.367L455.985 1032.31L486.906 983.364Z" fill="#BD235A" />
            <path d="M455.98 1032.3L344.164 956.363L313.243 1005.31L425.059 1081.25L455.98 1032.3Z" fill="#670E2E" />
            <path
                d="M443.756 928.434C449.655 930.983 456.136 928.452 458.23 922.781C460.325 917.109 457.241 910.446 451.342 907.897C445.443 905.348 438.963 907.88 436.868 913.551C434.773 919.222 437.857 925.886 443.756 928.434Z"
                fill="#E8E8E8" />
            <path
                d="M624.522 1124.34C625.987 1130.8 621.886 1136.98 615.361 1138.14L556.247 1148.65L497.132 1159.15C490.607 1160.31 484.129 1156.01 482.663 1149.55L434.743 938.268C433.71 933.711 435.441 929.093 439.181 926.434L492.139 888.784C494.963 886.777 498.597 886.131 502.077 887.018L567.348 903.654C571.957 904.829 575.568 908.497 576.602 913.055L624.522 1124.34Z"
                fill="white" />
            <path
                d="M501.757 888.456L567.027 905.092C571.061 906.12 574.22 909.33 575.125 913.318L623.045 1124.6C624.327 1130.26 620.739 1135.66 615.029 1136.68L555.915 1147.18L496.801 1157.69C491.091 1158.71 485.423 1154.94 484.14 1149.29L436.22 938.006C435.316 934.018 436.831 929.977 440.103 927.651L493.061 890.001C495.532 888.245 498.712 887.68 501.757 888.456Z"
                stroke="black" stroke-opacity="0.38" stroke-width="3" />
            <path d="M601.698 1055.87L473.863 1078.59L487.259 1137.65L615.094 1114.93L601.698 1055.87Z"
                fill="#511E07" />
            <path d="M575.034 938.292L447.199 961.013L460.595 1020.08L588.43 997.356L575.034 938.292Z" fill="#A34113" />
            <path d="M588.421 997.359L460.586 1020.08L473.857 1078.59L601.691 1055.87L588.421 997.359Z"
                fill="#823512" />
            <path
                d="M505.338 931.229C510.91 933.636 517.124 930.99 519.219 925.319C521.314 919.647 518.495 913.099 512.924 910.691C507.352 908.284 501.138 910.93 499.043 916.602C496.948 922.273 499.767 928.822 505.338 931.229Z"
                fill="#E8E8E8" />
            <path d="M1170.5 423.5H554.5V634.5H1170.5V423.5Z" stroke="#7373E9" stroke-width="5"
                stroke-dasharray="22 22" />
            <path
                d="M463.89 266.224C463.89 266.381 463.974 266.543 464.143 266.712C464.311 266.868 464.57 267.019 464.919 267.164C465.281 267.308 465.738 267.429 466.292 267.525C466.859 267.609 467.533 267.657 468.316 267.669C467.955 267.477 467.587 267.278 467.214 267.073C466.853 266.856 466.503 266.664 466.166 266.495C465.829 266.314 465.522 266.17 465.245 266.062C464.968 265.941 464.733 265.881 464.54 265.881C464.106 265.881 463.89 265.995 463.89 266.224ZM479.951 246.116C480.131 245.755 480.348 245.436 480.601 245.159C480.854 244.882 481.125 244.653 481.414 244.472C481.703 244.292 481.998 244.159 482.299 244.075C482.6 243.978 482.883 243.93 483.148 243.93C483.534 243.93 483.859 244.033 484.124 244.237C484.389 244.43 484.521 244.719 484.521 245.104C484.521 245.406 484.443 245.731 484.287 246.08C483.612 247.525 482.926 248.983 482.227 250.452C481.528 251.91 480.824 253.337 480.113 254.734C479.415 256.131 478.728 257.48 478.054 258.781C477.379 260.069 476.729 261.268 476.103 262.376C475.476 263.484 474.886 264.478 474.332 265.357C473.79 266.236 473.296 266.965 472.851 267.543C473.898 267.471 474.856 267.374 475.723 267.254C476.59 267.133 477.427 266.995 478.234 266.838C479.041 266.682 479.848 266.513 480.655 266.333C481.474 266.14 482.354 265.947 483.293 265.754C483.353 265.73 483.419 265.712 483.492 265.7C483.564 265.688 483.63 265.682 483.69 265.682C484.064 265.682 484.359 265.833 484.576 266.134C484.792 266.423 484.901 266.754 484.901 267.127C484.901 267.356 484.684 267.603 484.25 267.868C483.817 268.121 483.221 268.374 482.462 268.627C481.715 268.88 480.83 269.127 479.806 269.368C478.794 269.597 477.698 269.801 476.518 269.982C475.338 270.151 474.103 270.283 472.814 270.379C471.526 270.488 470.243 270.542 468.966 270.542C467.485 270.542 466.208 270.44 465.136 270.235C464.064 270.03 463.179 269.747 462.48 269.386C461.794 269.024 461.282 268.597 460.945 268.103C460.62 267.609 460.457 267.073 460.457 266.495C460.457 265.929 460.559 265.453 460.764 265.068C460.981 264.67 461.27 264.351 461.631 264.11C462.005 263.869 462.438 263.695 462.932 263.586C463.438 263.478 463.98 263.424 464.558 263.424C465.028 263.424 465.516 263.508 466.021 263.677C466.527 263.845 467.021 264.068 467.503 264.345C467.997 264.61 468.46 264.911 468.894 265.249C469.34 265.574 469.725 265.905 470.05 266.242C470.327 265.52 470.659 264.713 471.044 263.821C471.441 262.93 471.869 261.997 472.327 261.021C472.784 260.033 473.266 259.028 473.772 258.004C474.278 256.968 474.784 255.95 475.29 254.951C475.795 253.951 476.289 252.987 476.771 252.06C477.253 251.133 477.698 250.284 478.108 249.513C478.517 248.742 478.879 248.061 479.192 247.471C479.517 246.881 479.77 246.429 479.951 246.116ZM490.267 260.045C489.701 260.045 489.153 260.19 488.623 260.479C488.105 260.756 487.641 261.129 487.231 261.599C486.834 262.057 486.515 262.581 486.274 263.171C486.033 263.749 485.913 264.345 485.913 264.959C485.913 265.188 485.931 265.441 485.967 265.718C486.003 265.983 486.075 266.236 486.184 266.477C486.304 266.706 486.473 266.899 486.689 267.055C486.906 267.212 487.195 267.29 487.557 267.29C488.111 267.29 488.647 267.146 489.165 266.856C489.694 266.555 490.164 266.17 490.574 265.7C490.983 265.218 491.308 264.676 491.549 264.074C491.79 263.472 491.911 262.864 491.911 262.25C491.911 262.009 491.893 261.762 491.856 261.509C491.832 261.244 491.76 261.003 491.64 260.786C491.531 260.569 491.369 260.395 491.152 260.262C490.935 260.118 490.64 260.045 490.267 260.045ZM491.206 256.866C491.664 256.866 492.152 256.926 492.669 257.046C493.199 257.167 493.687 257.372 494.133 257.661C494.578 257.95 494.946 258.335 495.235 258.817C495.536 259.287 495.687 259.871 495.687 260.569C495.687 260.931 495.638 261.346 495.542 261.816C495.446 262.274 495.301 262.755 495.108 263.261C495.229 263.406 495.367 263.508 495.524 263.568C495.681 263.629 495.849 263.659 496.03 263.659C496.283 263.659 496.56 263.586 496.861 263.442C497.174 263.297 497.493 263.111 497.818 262.882C498.144 262.653 498.469 262.394 498.794 262.105C499.119 261.816 499.426 261.527 499.715 261.238C500.004 260.949 500.263 260.678 500.492 260.425C500.733 260.16 500.932 259.937 501.088 259.756C501.173 259.672 501.275 259.63 501.396 259.63C501.564 259.63 501.715 259.72 501.847 259.901C501.98 260.069 502.046 260.31 502.046 260.624C502.046 260.937 501.95 261.298 501.757 261.708C501.576 262.117 501.233 262.545 500.727 262.99C500.438 263.303 500.107 263.665 499.733 264.074C499.36 264.484 498.963 264.869 498.541 265.23C498.119 265.592 497.68 265.899 497.222 266.152C496.764 266.405 496.307 266.531 495.849 266.531C495.536 266.531 495.229 266.483 494.928 266.387C494.639 266.29 494.344 266.134 494.042 265.917C493.609 266.591 493.115 267.206 492.561 267.76C492.007 268.314 491.387 268.79 490.7 269.187C490.026 269.584 489.291 269.892 488.496 270.108C487.713 270.337 486.876 270.452 485.985 270.452C485.648 270.452 485.256 270.385 484.811 270.253C484.365 270.12 483.937 269.904 483.528 269.603C483.13 269.289 482.793 268.886 482.516 268.392C482.239 267.898 482.101 267.296 482.101 266.585C482.101 266.104 482.179 265.526 482.335 264.851C482.492 264.177 482.727 263.484 483.04 262.773C483.365 262.051 483.769 261.34 484.25 260.642C484.744 259.931 485.328 259.299 486.003 258.745C486.677 258.179 487.448 257.727 488.315 257.39C489.183 257.04 490.146 256.866 491.206 256.866ZM507.05 256.866C507.58 256.866 508.044 256.932 508.441 257.064C508.839 257.197 509.176 257.341 509.453 257.498C509.766 257.691 510.043 257.902 510.284 258.13C510.453 258.022 510.633 257.92 510.826 257.823C510.995 257.739 511.181 257.667 511.386 257.606C511.591 257.534 511.796 257.498 512 257.498C512.53 257.498 512.94 257.606 513.229 257.823C513.518 258.04 513.663 258.299 513.663 258.6C513.663 258.757 513.62 258.913 513.536 259.07L509.309 267.073L509.652 266.766C511.073 265.935 512.241 265.285 513.157 264.815C514.072 264.333 514.801 263.978 515.343 263.749C515.885 263.52 516.27 263.382 516.499 263.333C516.74 263.273 516.89 263.243 516.951 263.243C517.228 263.243 517.438 263.352 517.583 263.568C517.74 263.773 517.818 264.032 517.818 264.345C517.818 264.694 517.715 265.05 517.511 265.411C517.318 265.772 517.017 266.031 516.607 266.188C516.065 266.465 515.433 266.766 514.71 267.091C513.988 267.404 513.235 267.754 512.452 268.139C511.669 268.525 510.88 268.958 510.085 269.44C509.303 269.91 508.568 270.434 507.881 271.012L504.376 277.353C504.087 278.04 503.822 278.6 503.582 279.033C503.353 279.467 503.124 279.81 502.895 280.063C502.666 280.316 502.431 280.491 502.19 280.587C501.95 280.683 501.673 280.731 501.359 280.731C500.89 280.731 500.516 280.569 500.239 280.244C499.974 279.918 499.842 279.527 499.842 279.069C499.842 278.588 499.956 278.028 500.185 277.389C500.414 276.751 500.733 276.058 501.143 275.312C501.564 274.577 502.07 273.8 502.66 272.981C503.25 272.174 503.907 271.349 504.629 270.506L506.87 267.651C506.412 268.073 505.96 268.434 505.515 268.735C505.069 269.036 504.641 269.283 504.232 269.476C503.822 269.657 503.437 269.789 503.076 269.874C502.726 269.958 502.419 270 502.154 270C501.673 270 501.227 269.892 500.817 269.675C500.408 269.446 500.053 269.133 499.751 268.735C499.462 268.338 499.234 267.868 499.065 267.326C498.896 266.784 498.812 266.194 498.812 265.556C498.812 264.231 499.065 263.032 499.571 261.96C500.089 260.889 500.745 259.979 501.54 259.232C502.347 258.474 503.232 257.889 504.196 257.48C505.171 257.07 506.123 256.866 507.05 256.866ZM506.364 260.045C505.798 260.045 505.25 260.19 504.72 260.479C504.19 260.756 503.72 261.129 503.311 261.599C502.901 262.057 502.576 262.587 502.335 263.189C502.094 263.791 501.974 264.411 501.974 265.05C501.974 265.243 501.986 265.453 502.01 265.682C502.046 265.899 502.112 266.104 502.208 266.296C502.317 266.489 502.467 266.652 502.66 266.784C502.865 266.905 503.142 266.965 503.491 266.965C503.744 266.965 504.039 266.856 504.376 266.64C504.726 266.411 505.081 266.128 505.442 265.791C505.816 265.441 506.177 265.062 506.526 264.652C506.876 264.231 507.189 263.821 507.466 263.424C507.755 263.026 507.984 262.671 508.152 262.358C508.321 262.033 508.405 261.792 508.405 261.635C508.405 261.37 508.333 261.141 508.188 260.949C508.044 260.744 507.863 260.575 507.646 260.443C507.442 260.31 507.219 260.214 506.978 260.154C506.749 260.082 506.544 260.045 506.364 260.045ZM522.642 260.045C522.076 260.045 521.528 260.19 520.998 260.479C520.48 260.756 520.016 261.129 519.606 261.599C519.209 262.057 518.89 262.581 518.649 263.171C518.408 263.749 518.288 264.345 518.288 264.959C518.288 265.188 518.306 265.441 518.342 265.718C518.378 265.983 518.45 266.236 518.559 266.477C518.679 266.706 518.848 266.899 519.064 267.055C519.281 267.212 519.57 267.29 519.932 267.29C520.486 267.29 521.022 267.146 521.54 266.856C522.069 266.555 522.539 266.17 522.949 265.7C523.358 265.218 523.683 264.676 523.924 264.074C524.165 263.472 524.286 262.864 524.286 262.25C524.286 262.009 524.268 261.762 524.231 261.509C524.207 261.244 524.135 261.003 524.015 260.786C523.906 260.569 523.744 260.395 523.527 260.262C523.31 260.118 523.015 260.045 522.642 260.045ZM523.581 256.866C524.039 256.866 524.527 256.926 525.044 257.046C525.574 257.167 526.062 257.372 526.508 257.661C526.953 257.95 527.321 258.335 527.61 258.817C527.911 259.287 528.062 259.871 528.062 260.569C528.062 260.931 528.013 261.346 527.917 261.816C527.821 262.274 527.676 262.755 527.483 263.261C527.604 263.406 527.742 263.508 527.899 263.568C528.056 263.629 528.224 263.659 528.405 263.659C528.658 263.659 528.935 263.586 529.236 263.442C529.549 263.297 529.868 263.111 530.193 262.882C530.519 262.653 530.844 262.394 531.169 262.105C531.494 261.816 531.801 261.527 532.09 261.238C532.379 260.949 532.638 260.678 532.867 260.425C533.108 260.16 533.307 259.937 533.463 259.756C533.548 259.672 533.65 259.63 533.771 259.63C533.939 259.63 534.09 259.72 534.222 259.901C534.355 260.069 534.421 260.31 534.421 260.624C534.421 260.937 534.325 261.298 534.132 261.708C533.951 262.117 533.608 262.545 533.102 262.99C532.813 263.303 532.482 263.665 532.108 264.074C531.735 264.484 531.338 264.869 530.916 265.23C530.494 265.592 530.055 265.899 529.597 266.152C529.139 266.405 528.682 266.531 528.224 266.531C527.911 266.531 527.604 266.483 527.303 266.387C527.014 266.29 526.719 266.134 526.417 265.917C525.984 266.591 525.49 267.206 524.936 267.76C524.382 268.314 523.762 268.79 523.075 269.187C522.401 269.584 521.666 269.892 520.871 270.108C520.088 270.337 519.251 270.452 518.36 270.452C518.023 270.452 517.631 270.385 517.186 270.253C516.74 270.12 516.312 269.904 515.903 269.603C515.505 269.289 515.168 268.886 514.891 268.392C514.614 267.898 514.476 267.296 514.476 266.585C514.476 266.104 514.554 265.526 514.71 264.851C514.867 264.177 515.102 263.484 515.415 262.773C515.74 262.051 516.144 261.34 516.625 260.642C517.119 259.931 517.703 259.299 518.378 258.745C519.052 258.179 519.823 257.727 520.69 257.39C521.558 257.04 522.521 256.866 523.581 256.866Z"
                fill="#3E091C" />
            <path
                d="M613 712H854C857.866 712 861 708.866 861 705C861 701.134 857.866 698 854 698H613C609.134 698 606 701.134 606 705C606 708.866 609.134 712 613 712Z"
                fill="black" />
            <path
                d="M769.5 732H1009.5C1013.64 732 1017 728.642 1017 724.5C1017 720.358 1013.64 717 1009.5 717H769.5C765.358 717 762 720.358 762 724.5C762 728.642 765.358 732 769.5 732Z"
                fill="black" />
            <path
                d="M613.5 732H741.5C745.642 732 749 728.642 749 724.5C749 720.358 745.642 717 741.5 717H613.5C609.358 717 606 720.358 606 724.5C606 728.642 609.358 732 613.5 732Z"
                fill="black" />
            <path
                d="M879 712H935C938.866 712 942 708.866 942 705C942 701.134 938.866 698 935 698H879C875.134 698 872 701.134 872 705C872 708.866 875.134 712 879 712Z"
                fill="black" />
            <path
                d="M613.5 752H990.5C994.642 752 998 748.642 998 744.5C998 740.358 994.642 737 990.5 737H613.5C609.358 737 606 740.358 606 744.5C606 748.642 609.358 752 613.5 752Z"
                fill="black" />
            <path
                d="M503.836 497.119L453.871 543.2L26.4824 58.0891C23.6574 54.8826 23.8344 50.0886 26.8882 47.0974C30.096 43.9554 35.2966 43.9425 38.5287 47.0686L268.261 269.269L503.836 497.119Z"
                fill="#8A3502" />
            <path
                d="M1927 210C1927 277.1 1900.03 341.451 1852.02 388.898C1804.01 436.345 1738.9 463 1671 463C1603.1 463 1537.99 436.345 1489.98 388.898C1441.97 341.451 1415 277.1 1415 210H1671H1927Z"
                fill="url(#paint1_linear_20_565)" />
            <path
                d="M1832 343H1260C1248.95 343 1240 351.954 1240 363V667C1240 678.046 1248.95 687 1260 687H1832C1843.05 687 1852 678.046 1852 667V363C1852 351.954 1843.05 343 1832 343Z"
                fill="#A7B3C8" />
            <path d="M1447.5 455L1627.2 688.25H1267.8L1447.5 455Z" fill="#11213F" />
            <path d="M1671 495L1521.18 687.75H1820.82L1671 495Z" fill="#11213F" />
            <path
                d="M1641.5 442C1664.97 442 1684 423.42 1684 400.5C1684 377.58 1664.97 359 1641.5 359C1618.03 359 1599 377.58 1599 400.5C1599 423.42 1618.03 442 1641.5 442Z"
                fill="#EBEB20" />
            <path
                d="M499.959 492.601C639.946 460.306 578.644 634.302 683.816 706.056C508.488 707.442 454.855 595.075 449.955 538.718L499.959 492.601Z"
                fill="url(#paint2_linear_20_565)" />
            <path
                d="M1292.49 934.044L1042.85 757.215L1018.87 743.246L997.997 740.489L996.275 740.809L995.307 741.338L995.028 741.739L994.749 742.14L994.536 742.878L994.453 744.291L1002.69 764.679L1031.86 784.252L1281.73 955.005C1286.61 959.556 1297.73 966.166 1303.14 956.197C1308.55 946.228 1298.29 937.275 1292.49 934.044Z"
                fill="#010100" />
        </g>
        <path
            d="M730.68 497.36V581H719.76V543.08H677.16V581H666.24V497.36H677.16V534.08H719.76V497.36H730.68ZM809.326 545.6C809.326 547.68 809.206 549.88 808.966 552.2H756.406C756.806 558.68 759.006 563.76 763.006 567.44C767.086 571.04 772.006 572.84 777.766 572.84C782.486 572.84 786.406 571.76 789.526 569.6C792.726 567.36 794.966 564.4 796.246 560.72H808.006C806.246 567.04 802.726 572.2 797.446 576.2C792.166 580.12 785.606 582.08 777.766 582.08C771.526 582.08 765.926 580.68 760.966 577.88C756.086 575.08 752.246 571.12 749.446 566C746.646 560.8 745.246 554.8 745.246 548C745.246 541.2 746.606 535.24 749.326 530.12C752.046 525 755.846 521.08 760.726 518.36C765.686 515.56 771.366 514.16 777.766 514.16C784.006 514.16 789.526 515.52 794.326 518.24C799.126 520.96 802.806 524.72 805.366 529.52C808.006 534.24 809.326 539.6 809.326 545.6ZM798.046 543.32C798.046 539.16 797.126 535.6 795.286 532.64C793.446 529.6 790.926 527.32 787.726 525.8C784.606 524.2 781.126 523.4 777.286 523.4C771.766 523.4 767.046 525.16 763.126 528.68C759.286 532.2 757.086 537.08 756.526 543.32H798.046ZM819.66 547.88C819.66 541.16 821.02 535.28 823.74 530.24C826.46 525.12 830.18 521.16 834.9 518.36C839.7 515.56 845.02 514.16 850.86 514.16C856.62 514.16 861.62 515.4 865.86 517.88C870.1 520.36 873.26 523.48 875.34 527.24V515.24H886.38V581H875.34V568.76C873.18 572.6 869.94 575.8 865.62 578.36C861.38 580.84 856.42 582.08 850.74 582.08C844.9 582.08 839.62 580.64 834.9 577.76C830.18 574.88 826.46 570.84 823.74 565.64C821.02 560.44 819.66 554.52 819.66 547.88ZM875.34 548C875.34 543.04 874.34 538.72 872.34 535.04C870.34 531.36 867.62 528.56 864.18 526.64C860.82 524.64 857.1 523.64 853.02 523.64C848.94 523.64 845.22 524.6 841.86 526.52C838.5 528.44 835.82 531.24 833.82 534.92C831.82 538.6 830.82 542.92 830.82 547.88C830.82 552.92 831.82 557.32 833.82 561.08C835.82 564.76 838.5 567.6 841.86 569.6C845.22 571.52 848.94 572.48 853.02 572.48C857.1 572.48 860.82 571.52 864.18 569.6C867.62 567.6 870.34 564.76 872.34 561.08C874.34 557.32 875.34 552.96 875.34 548ZM900.754 547.88C900.754 541.16 902.114 535.28 904.834 530.24C907.554 525.12 911.274 521.16 915.994 518.36C920.794 515.56 926.154 514.16 932.074 514.16C937.194 514.16 941.954 515.36 946.354 517.76C950.754 520.08 954.114 523.16 956.434 527V492.2H967.474V581H956.434V568.64C954.274 572.56 951.074 575.8 946.834 578.36C942.594 580.84 937.634 582.08 931.954 582.08C926.114 582.08 920.794 580.64 915.994 577.76C911.274 574.88 907.554 570.84 904.834 565.64C902.114 560.44 900.754 554.52 900.754 547.88ZM956.434 548C956.434 543.04 955.434 538.72 953.434 535.04C951.434 531.36 948.714 528.56 945.274 526.64C941.914 524.64 938.194 523.64 934.114 523.64C930.034 523.64 926.314 524.6 922.954 526.52C919.594 528.44 916.914 531.24 914.914 534.92C912.914 538.6 911.914 542.92 911.914 547.88C911.914 552.92 912.914 557.32 914.914 561.08C916.914 564.76 919.594 567.6 922.954 569.6C926.314 571.52 930.034 572.48 934.114 572.48C938.194 572.48 941.914 571.52 945.274 569.6C948.714 567.6 951.434 564.76 953.434 561.08C955.434 557.32 956.434 552.96 956.434 548ZM1045.93 545.6C1045.93 547.68 1045.81 549.88 1045.57 552.2H993.008C993.408 558.68 995.608 563.76 999.608 567.44C1003.69 571.04 1008.61 572.84 1014.37 572.84C1019.09 572.84 1023.01 571.76 1026.13 569.6C1029.33 567.36 1031.57 564.4 1032.85 560.72H1044.61C1042.85 567.04 1039.33 572.2 1034.05 576.2C1028.77 580.12 1022.21 582.08 1014.37 582.08C1008.13 582.08 1002.53 580.68 997.568 577.88C992.688 575.08 988.848 571.12 986.048 566C983.248 560.8 981.848 554.8 981.848 548C981.848 541.2 983.208 535.24 985.928 530.12C988.648 525 992.448 521.08 997.328 518.36C1002.29 515.56 1007.97 514.16 1014.37 514.16C1020.61 514.16 1026.13 515.52 1030.93 518.24C1035.73 520.96 1039.41 524.72 1041.97 529.52C1044.61 534.24 1045.93 539.6 1045.93 545.6ZM1034.65 543.32C1034.65 539.16 1033.73 535.6 1031.89 532.64C1030.05 529.6 1027.53 527.32 1024.33 525.8C1021.21 524.2 1017.73 523.4 1013.89 523.4C1008.37 523.4 1003.65 525.16 999.728 528.68C995.888 532.2 993.688 537.08 993.128 543.32H1034.65ZM1071.26 525.92C1073.18 522.16 1075.9 519.24 1079.42 517.16C1083.02 515.08 1087.38 514.04 1092.5 514.04V525.32H1089.62C1077.38 525.32 1071.26 531.96 1071.26 545.24V581H1060.34V515.24H1071.26V525.92Z"
            fill="black" />
        <g filter="url(#filter0_d_20_565)">
            <rect x="737" y="585" width="300" height="565" rx="20" fill="#121212" />
        </g>
        <rect x="746" y="604" width="281" height="511" rx="20" fill="white" />
        <path
            d="M770.433 639.294C770.433 639.451 770.517 639.613 770.686 639.782C770.854 639.938 771.113 640.089 771.462 640.234C771.824 640.378 772.281 640.499 772.835 640.595C773.402 640.679 774.076 640.727 774.859 640.739C774.498 640.547 774.13 640.348 773.757 640.143C773.396 639.926 773.046 639.734 772.709 639.565C772.372 639.384 772.065 639.24 771.788 639.132C771.511 639.011 771.276 638.951 771.083 638.951C770.649 638.951 770.433 639.065 770.433 639.294ZM786.494 619.186C786.674 618.825 786.891 618.506 787.144 618.229C787.397 617.952 787.668 617.723 787.957 617.542C788.246 617.362 788.541 617.229 788.842 617.145C789.143 617.048 789.426 617 789.691 617C790.077 617 790.402 617.103 790.667 617.307C790.932 617.5 791.064 617.789 791.064 618.174C791.064 618.476 790.986 618.801 790.83 619.15C790.155 620.595 789.469 622.053 788.77 623.522C788.071 624.98 787.367 626.407 786.656 627.804C785.958 629.201 785.271 630.55 784.597 631.851C783.922 633.139 783.272 634.338 782.646 635.446C782.019 636.554 781.429 637.548 780.875 638.427C780.333 639.306 779.839 640.035 779.394 640.613C780.441 640.541 781.399 640.444 782.266 640.324C783.133 640.203 783.97 640.065 784.777 639.908C785.584 639.752 786.391 639.583 787.198 639.403C788.017 639.21 788.897 639.017 789.836 638.824C789.896 638.8 789.962 638.782 790.035 638.77C790.107 638.758 790.173 638.752 790.233 638.752C790.607 638.752 790.902 638.903 791.119 639.204C791.335 639.493 791.444 639.824 791.444 640.197C791.444 640.426 791.227 640.673 790.793 640.938C790.36 641.191 789.764 641.444 789.005 641.697C788.258 641.95 787.373 642.197 786.349 642.438C785.337 642.667 784.241 642.871 783.061 643.052C781.881 643.221 780.646 643.353 779.357 643.449C778.069 643.558 776.786 643.612 775.509 643.612C774.028 643.612 772.751 643.51 771.679 643.305C770.607 643.1 769.722 642.817 769.023 642.456C768.337 642.094 767.825 641.667 767.488 641.173C767.163 640.679 767 640.143 767 639.565C767 638.999 767.102 638.523 767.307 638.138C767.524 637.74 767.813 637.421 768.174 637.18C768.548 636.939 768.981 636.765 769.475 636.656C769.981 636.548 770.523 636.494 771.101 636.494C771.571 636.494 772.059 636.578 772.564 636.747C773.07 636.915 773.564 637.138 774.046 637.415C774.54 637.68 775.003 637.981 775.437 638.319C775.883 638.644 776.268 638.975 776.593 639.312C776.87 638.59 777.202 637.783 777.587 636.891C777.984 636 778.412 635.067 778.87 634.091C779.327 633.103 779.809 632.098 780.315 631.074C780.821 630.038 781.327 629.02 781.833 628.021C782.338 627.021 782.832 626.057 783.314 625.13C783.796 624.203 784.241 623.354 784.651 622.583C785.06 621.812 785.422 621.131 785.735 620.541C786.06 619.951 786.313 619.499 786.494 619.186ZM796.81 633.115C796.244 633.115 795.696 633.26 795.166 633.549C794.648 633.826 794.184 634.199 793.774 634.669C793.377 635.127 793.058 635.651 792.817 636.241C792.576 636.819 792.456 637.415 792.456 638.029C792.456 638.258 792.474 638.511 792.51 638.788C792.546 639.053 792.618 639.306 792.727 639.547C792.847 639.776 793.016 639.969 793.232 640.125C793.449 640.282 793.738 640.36 794.1 640.36C794.654 640.36 795.19 640.216 795.708 639.926C796.237 639.625 796.707 639.24 797.117 638.77C797.526 638.288 797.851 637.746 798.092 637.144C798.333 636.542 798.454 635.934 798.454 635.32C798.454 635.079 798.436 634.832 798.399 634.579C798.375 634.314 798.303 634.073 798.183 633.856C798.074 633.639 797.912 633.465 797.695 633.332C797.478 633.188 797.183 633.115 796.81 633.115ZM797.749 629.936C798.207 629.936 798.695 629.996 799.212 630.116C799.742 630.237 800.23 630.442 800.676 630.731C801.121 631.02 801.489 631.405 801.778 631.887C802.079 632.357 802.23 632.941 802.23 633.639C802.23 634.001 802.181 634.416 802.085 634.886C801.989 635.344 801.844 635.825 801.651 636.331C801.772 636.476 801.91 636.578 802.067 636.638C802.224 636.699 802.392 636.729 802.573 636.729C802.826 636.729 803.103 636.656 803.404 636.512C803.717 636.367 804.036 636.181 804.361 635.952C804.687 635.723 805.012 635.464 805.337 635.175C805.662 634.886 805.969 634.597 806.258 634.308C806.547 634.019 806.806 633.748 807.035 633.495C807.276 633.23 807.475 633.007 807.631 632.826C807.716 632.742 807.818 632.7 807.939 632.7C808.107 632.7 808.258 632.79 808.39 632.971C808.523 633.139 808.589 633.38 808.589 633.694C808.589 634.007 808.493 634.368 808.3 634.778C808.119 635.187 807.776 635.615 807.27 636.06C806.981 636.373 806.65 636.735 806.276 637.144C805.903 637.554 805.506 637.939 805.084 638.3C804.662 638.662 804.223 638.969 803.765 639.222C803.307 639.475 802.85 639.601 802.392 639.601C802.079 639.601 801.772 639.553 801.471 639.457C801.182 639.36 800.887 639.204 800.585 638.987C800.152 639.661 799.658 640.276 799.104 640.83C798.55 641.384 797.93 641.86 797.243 642.257C796.569 642.654 795.834 642.962 795.039 643.178C794.256 643.407 793.419 643.522 792.528 643.522C792.191 643.522 791.799 643.455 791.354 643.323C790.908 643.19 790.48 642.974 790.071 642.673C789.673 642.359 789.336 641.956 789.059 641.462C788.782 640.968 788.644 640.366 788.644 639.655C788.644 639.174 788.722 638.596 788.878 637.921C789.035 637.247 789.27 636.554 789.583 635.843C789.908 635.121 790.312 634.41 790.793 633.712C791.287 633.001 791.871 632.369 792.546 631.815C793.22 631.249 793.991 630.797 794.858 630.46C795.726 630.11 796.689 629.936 797.749 629.936ZM813.593 629.936C814.123 629.936 814.587 630.002 814.984 630.134C815.382 630.267 815.719 630.411 815.996 630.568C816.309 630.761 816.586 630.972 816.827 631.2C816.996 631.092 817.176 630.99 817.369 630.893C817.538 630.809 817.724 630.737 817.929 630.676C818.134 630.604 818.339 630.568 818.543 630.568C819.073 630.568 819.483 630.676 819.772 630.893C820.061 631.11 820.206 631.369 820.206 631.67C820.206 631.827 820.163 631.983 820.079 632.14L815.852 640.143L816.195 639.836C817.616 639.005 818.784 638.355 819.7 637.885C820.615 637.403 821.344 637.048 821.886 636.819C822.428 636.59 822.813 636.452 823.042 636.403C823.283 636.343 823.433 636.313 823.494 636.313C823.771 636.313 823.981 636.422 824.126 636.638C824.283 636.843 824.361 637.102 824.361 637.415C824.361 637.764 824.258 638.12 824.054 638.481C823.861 638.842 823.56 639.101 823.15 639.258C822.608 639.535 821.976 639.836 821.253 640.161C820.531 640.474 819.778 640.824 818.995 641.209C818.212 641.595 817.423 642.028 816.628 642.51C815.846 642.98 815.111 643.504 814.424 644.082L810.919 650.423C810.63 651.11 810.365 651.67 810.125 652.103C809.896 652.537 809.667 652.88 809.438 653.133C809.209 653.386 808.974 653.561 808.733 653.657C808.493 653.753 808.216 653.801 807.902 653.801C807.433 653.801 807.059 653.639 806.782 653.314C806.517 652.988 806.385 652.597 806.385 652.139C806.385 651.658 806.499 651.098 806.728 650.459C806.957 649.821 807.276 649.128 807.686 648.382C808.107 647.647 808.613 646.87 809.203 646.051C809.793 645.244 810.45 644.419 811.172 643.576L813.413 640.721C812.955 641.143 812.503 641.504 812.058 641.805C811.612 642.106 811.184 642.353 810.775 642.546C810.365 642.727 809.98 642.859 809.619 642.944C809.269 643.028 808.962 643.07 808.697 643.07C808.216 643.07 807.77 642.962 807.36 642.745C806.951 642.516 806.596 642.203 806.294 641.805C806.005 641.408 805.777 640.938 805.608 640.396C805.439 639.854 805.355 639.264 805.355 638.626C805.355 637.301 805.608 636.102 806.114 635.03C806.632 633.959 807.288 633.049 808.083 632.302C808.89 631.544 809.775 630.959 810.739 630.55C811.714 630.14 812.666 629.936 813.593 629.936ZM812.907 633.115C812.341 633.115 811.793 633.26 811.263 633.549C810.733 633.826 810.263 634.199 809.854 634.669C809.444 635.127 809.119 635.657 808.878 636.259C808.637 636.861 808.517 637.481 808.517 638.12C808.517 638.313 808.529 638.523 808.553 638.752C808.589 638.969 808.655 639.174 808.751 639.366C808.86 639.559 809.01 639.722 809.203 639.854C809.408 639.975 809.685 640.035 810.034 640.035C810.287 640.035 810.582 639.926 810.919 639.71C811.269 639.481 811.624 639.198 811.985 638.861C812.359 638.511 812.72 638.132 813.069 637.722C813.419 637.301 813.732 636.891 814.009 636.494C814.298 636.096 814.527 635.741 814.695 635.428C814.864 635.103 814.948 634.862 814.948 634.705C814.948 634.44 814.876 634.211 814.731 634.019C814.587 633.814 814.406 633.645 814.189 633.513C813.985 633.38 813.762 633.284 813.521 633.224C813.292 633.152 813.087 633.115 812.907 633.115ZM829.185 633.115C828.619 633.115 828.071 633.26 827.541 633.549C827.023 633.826 826.559 634.199 826.149 634.669C825.752 635.127 825.433 635.651 825.192 636.241C824.951 636.819 824.831 637.415 824.831 638.029C824.831 638.258 824.849 638.511 824.885 638.788C824.921 639.053 824.993 639.306 825.102 639.547C825.222 639.776 825.391 639.969 825.607 640.125C825.824 640.282 826.113 640.36 826.475 640.36C827.029 640.36 827.565 640.216 828.083 639.926C828.612 639.625 829.082 639.24 829.492 638.77C829.901 638.288 830.226 637.746 830.467 637.144C830.708 636.542 830.829 635.934 830.829 635.32C830.829 635.079 830.811 634.832 830.774 634.579C830.75 634.314 830.678 634.073 830.558 633.856C830.449 633.639 830.287 633.465 830.07 633.332C829.853 633.188 829.558 633.115 829.185 633.115ZM830.124 629.936C830.582 629.936 831.07 629.996 831.587 630.116C832.117 630.237 832.605 630.442 833.051 630.731C833.496 631.02 833.864 631.405 834.153 631.887C834.454 632.357 834.605 632.941 834.605 633.639C834.605 634.001 834.556 634.416 834.46 634.886C834.364 635.344 834.219 635.825 834.026 636.331C834.147 636.476 834.285 636.578 834.442 636.638C834.599 636.699 834.767 636.729 834.948 636.729C835.201 636.729 835.478 636.656 835.779 636.512C836.092 636.367 836.411 636.181 836.736 635.952C837.062 635.723 837.387 635.464 837.712 635.175C838.037 634.886 838.344 634.597 838.633 634.308C838.922 634.019 839.181 633.748 839.41 633.495C839.651 633.23 839.85 633.007 840.006 632.826C840.091 632.742 840.193 632.7 840.314 632.7C840.482 632.7 840.633 632.79 840.765 632.971C840.898 633.139 840.964 633.38 840.964 633.694C840.964 634.007 840.868 634.368 840.675 634.778C840.494 635.187 840.151 635.615 839.645 636.06C839.356 636.373 839.025 636.735 838.651 637.144C838.278 637.554 837.881 637.939 837.459 638.3C837.037 638.662 836.598 638.969 836.14 639.222C835.682 639.475 835.225 639.601 834.767 639.601C834.454 639.601 834.147 639.553 833.846 639.457C833.557 639.36 833.262 639.204 832.96 638.987C832.527 639.661 832.033 640.276 831.479 640.83C830.925 641.384 830.305 641.86 829.618 642.257C828.944 642.654 828.209 642.962 827.414 643.178C826.631 643.407 825.794 643.522 824.903 643.522C824.566 643.522 824.174 643.455 823.729 643.323C823.283 643.19 822.855 642.974 822.446 642.673C822.048 642.359 821.711 641.956 821.434 641.462C821.157 640.968 821.019 640.366 821.019 639.655C821.019 639.174 821.097 638.596 821.253 637.921C821.41 637.247 821.645 636.554 821.958 635.843C822.283 635.121 822.687 634.41 823.168 633.712C823.662 633.001 824.246 632.369 824.921 631.815C825.595 631.249 826.366 630.797 827.233 630.46C828.101 630.11 829.064 629.936 830.124 629.936Z"
            fill="#3E091C" />
        <path
            d="M797.7 705.15V740H793.15V724.2H775.4V740H770.85V705.15H775.4V720.45H793.15V705.15H797.7ZM830.469 725.25C830.469 726.117 830.419 727.033 830.319 728H808.419C808.586 730.7 809.502 732.817 811.169 734.35C812.869 735.85 814.919 736.6 817.319 736.6C819.286 736.6 820.919 736.15 822.219 735.25C823.552 734.317 824.486 733.083 825.019 731.55H829.919C829.186 734.183 827.719 736.333 825.519 738C823.319 739.633 820.586 740.45 817.319 740.45C814.719 740.45 812.386 739.867 810.319 738.7C808.286 737.533 806.686 735.883 805.519 733.75C804.352 731.583 803.769 729.083 803.769 726.25C803.769 723.417 804.336 720.933 805.469 718.8C806.602 716.667 808.186 715.033 810.219 713.9C812.286 712.733 814.652 712.15 817.319 712.15C819.919 712.15 822.219 712.717 824.219 713.85C826.219 714.983 827.752 716.55 828.819 718.55C829.919 720.517 830.469 722.75 830.469 725.25ZM825.769 724.3C825.769 722.567 825.386 721.083 824.619 719.85C823.852 718.583 822.802 717.633 821.469 717C820.169 716.333 818.719 716 817.119 716C814.819 716 812.852 716.733 811.219 718.2C809.619 719.667 808.702 721.7 808.469 724.3H825.769ZM834.775 726.2C834.775 723.4 835.342 720.95 836.475 718.85C837.608 716.717 839.158 715.067 841.125 713.9C843.125 712.733 845.342 712.15 847.775 712.15C850.175 712.15 852.258 712.667 854.025 713.7C855.792 714.733 857.108 716.033 857.975 717.6V712.6H862.575V740H857.975V734.9C857.075 736.5 855.725 737.833 853.925 738.9C852.158 739.933 850.092 740.45 847.725 740.45C845.292 740.45 843.092 739.85 841.125 738.65C839.158 737.45 837.608 735.767 836.475 733.6C835.342 731.433 834.775 728.967 834.775 726.2ZM857.975 726.25C857.975 724.183 857.558 722.383 856.725 720.85C855.892 719.317 854.758 718.15 853.325 717.35C851.925 716.517 850.375 716.1 848.675 716.1C846.975 716.1 845.425 716.5 844.025 717.3C842.625 718.1 841.508 719.267 840.675 720.8C839.842 722.333 839.425 724.133 839.425 726.2C839.425 728.3 839.842 730.133 840.675 731.7C841.508 733.233 842.625 734.417 844.025 735.25C845.425 736.05 846.975 736.45 848.675 736.45C850.375 736.45 851.925 736.05 853.325 735.25C854.758 734.417 855.892 733.233 856.725 731.7C857.558 730.133 857.975 728.317 857.975 726.25ZM868.564 726.2C868.564 723.4 869.131 720.95 870.264 718.85C871.397 716.717 872.947 715.067 874.914 713.9C876.914 712.733 879.147 712.15 881.614 712.15C883.747 712.15 885.731 712.65 887.564 713.65C889.397 714.617 890.797 715.9 891.764 717.5V703H896.364V740H891.764V734.85C890.864 736.483 889.531 737.833 887.764 738.9C885.997 739.933 883.931 740.45 881.564 740.45C879.131 740.45 876.914 739.85 874.914 738.65C872.947 737.45 871.397 735.767 870.264 733.6C869.131 731.433 868.564 728.967 868.564 726.2ZM891.764 726.25C891.764 724.183 891.347 722.383 890.514 720.85C889.681 719.317 888.547 718.15 887.114 717.35C885.714 716.517 884.164 716.1 882.464 716.1C880.764 716.1 879.214 716.5 877.814 717.3C876.414 718.1 875.297 719.267 874.464 720.8C873.631 722.333 873.214 724.133 873.214 726.2C873.214 728.3 873.631 730.133 874.464 731.7C875.297 733.233 876.414 734.417 877.814 735.25C879.214 736.05 880.764 736.45 882.464 736.45C884.164 736.45 885.714 736.05 887.114 735.25C888.547 734.417 889.681 733.233 890.514 731.7C891.347 730.133 891.764 728.317 891.764 726.25ZM929.053 725.25C929.053 726.117 929.003 727.033 928.903 728H907.003C907.17 730.7 908.086 732.817 909.753 734.35C911.453 735.85 913.503 736.6 915.903 736.6C917.87 736.6 919.503 736.15 920.803 735.25C922.136 734.317 923.07 733.083 923.603 731.55H928.503C927.77 734.183 926.303 736.333 924.103 738C921.903 739.633 919.17 740.45 915.903 740.45C913.303 740.45 910.97 739.867 908.903 738.7C906.87 737.533 905.27 735.883 904.103 733.75C902.936 731.583 902.353 729.083 902.353 726.25C902.353 723.417 902.92 720.933 904.053 718.8C905.186 716.667 906.77 715.033 908.803 713.9C910.87 712.733 913.236 712.15 915.903 712.15C918.503 712.15 920.803 712.717 922.803 713.85C924.803 714.983 926.336 716.55 927.403 718.55C928.503 720.517 929.053 722.75 929.053 725.25ZM924.353 724.3C924.353 722.567 923.97 721.083 923.203 719.85C922.436 718.583 921.386 717.633 920.053 717C918.753 716.333 917.303 716 915.703 716C913.403 716 911.436 716.733 909.803 718.2C908.203 719.667 907.286 721.7 907.053 724.3H924.353ZM939.609 717.05C940.409 715.483 941.542 714.267 943.009 713.4C944.509 712.533 946.326 712.1 948.459 712.1V716.8H947.259C942.159 716.8 939.609 719.567 939.609 725.1V740H935.059V712.6H939.609V717.05Z"
            fill="black" />
        <path d="M1001.57 640C999 640 980.786 640 972 640" stroke="black" stroke-width="2" />
        <path d="M1001.57 633C999 633 980.786 633 972 633" stroke="black" stroke-width="2" />
        <path
            d="M1007.82 771H764.507C759.809 771 756 774.677 756 779.213V904.056C756 908.592 759.809 912.269 764.507 912.269H1007.82C1012.52 912.269 1016.33 908.592 1016.33 904.056V779.213C1016.33 774.677 1012.52 771 1007.82 771Z"
            fill="#A7B3C8" />
        <path d="M844.5 817L922 913H767L844.5 817Z" fill="#11213F" />
        <path d="M939 840L1016 912H862L939 840Z" fill="#11213F" />
        <path
            d="M926.5 811C936.717 811 945 803.389 945 794C945 784.611 936.717 777 926.5 777C916.283 777 908 784.611 908 794C908 803.389 916.283 811 926.5 811Z"
            fill="#EBEB20" />
        <path
            d="M760.983 947H846.017C848.769 947 851 944.538 851 941.5C851 938.462 848.769 936 846.017 936H760.983C758.231 936 756 938.462 756 941.5C756 944.538 758.231 947 760.983 947Z"
            fill="black" />
        <path
            d="M760.975 962H1011.03C1013.77 962 1016 959.538 1016 956.5C1016 953.462 1013.77 951 1011.03 951H760.975C758.227 951 756 953.462 756 956.5C756 959.538 758.227 962 760.975 962Z"
            fill="black" />
        <path
            d="M760.975 979H1011.03C1013.77 979 1016 976.538 1016 973.5C1016 970.462 1013.77 968 1011.03 968H760.975C758.227 968 756 970.462 756 973.5C756 976.538 758.227 979 760.975 979Z"
            fill="black" />
        <path
            d="M760.975 996H1011.03C1013.77 996 1016 993.538 1016 990.5C1016 987.462 1013.77 985 1011.03 985H760.975C758.227 985 756 987.462 756 990.5C756 993.538 758.227 996 760.975 996Z"
            fill="black" />
        <g filter="url(#filter1_b_20_565)">
            <path
                d="M746 1058H1027V1095C1027 1106.05 1018.05 1115 1007 1115H766C754.954 1115 746 1106.05 746 1095V1058Z"
                fill="#11213F" fill-opacity="0.73" />
        </g>
        <circle cx="886" cy="1087" r="17" fill="white" />
        <circle cx="962" cy="1087" r="17" fill="white" />
        <circle cx="810" cy="1087" r="17" fill="white" />
    </g>
    <defs>
        <filter id="filter0_d_20_565" x="698" y="557" width="364" height="629" filterUnits="userSpaceOnUse"
            color-interpolation-filters="sRGB">
            <feFlood flood-opacity="0" result="BackgroundImageFix" />
            <feColorMatrix in="SourceAlpha" type="matrix" values="0 0 0 0 0 0 0 0 0 0 0 0 0 0 0 0 0 0 127 0"
                result="hardAlpha" />
            <feMorphology radius="13" operator="dilate" in="SourceAlpha" result="effect1_dropShadow_20_565" />
            <feOffset dx="-7" dy="4" />
            <feGaussianBlur stdDeviation="9.5" />
            <feComposite in2="hardAlpha" operator="out" />
            <feColorMatrix type="matrix" values="0 0 0 0 0 0 0 0 0 0 0 0 0 0 0 0 0 0 0.21 0" />
            <feBlend mode="normal" in2="BackgroundImageFix" result="effect1_dropShadow_20_565" />
            <feBlend mode="normal" in="SourceGraphic" in2="effect1_dropShadow_20_565" result="shape" />
        </filter>
        <filter id="filter1_b_20_565" x="726" y="1038" width="321" height="97" filterUnits="userSpaceOnUse"
            color-interpolation-filters="sRGB">
            <feFlood flood-opacity="0" result="BackgroundImageFix" />
            <feGaussianBlur in="BackgroundImageFix" stdDeviation="10" />
            <feComposite in2="SourceAlpha" operator="in" result="effect1_backgroundBlur_20_565" />
            <feBlend mode="normal" in="SourceGraphic" in2="effect1_backgroundBlur_20_565" result="shape" />
        </filter>
        <linearGradient id="paint0_linear_20_565" x1="555" y1="636" x2="1954.83" y2="1046.05"
            gradientUnits="userSpaceOnUse">
            <stop stop-color="#750F34" />
            <stop offset="1" stop-color="#9F4009" />
        </linearGradient>
        <linearGradient id="paint1_linear_20_565" x1="1671" y1="-43" x2="1671" y2="463" gradientUnits="userSpaceOnUse">
            <stop stop-color="#BC0044" />
            <stop offset="1" stop-color="#925900" />
        </linearGradient>
        <linearGradient id="paint2_linear_20_565" x1="674.414" y1="714.727" x2="483.53" y2="507.754"
            gradientUnits="userSpaceOnUse">
            <stop stop-color="#9F4009" />
            <stop offset="1" stop-color="#750F34" />
        </linearGradient>
        <clipPath id="clip0_20_565">
            <rect width="2051" height="1161" fill="white" />
        </clipPath>
    </defs>
</svg>