<svg width="100%" height="100%" viewBox="0 0 3936 2514" fill="none" xmlns="http://www.w3.org/2000/svg">
<rect x="125" y="129" width="3362" height="2113" rx="229" fill="url(#paint0_linear_0_1)"/>
<rect width="153" height="154" rx="76.5" transform="matrix(1 0 0 -1 2934 992)" fill="url(#paint1_linear_0_1)" fill-opacity="0.44"/>
<path d="M1248.95 1007.07C1249.72 1015.83 1250.32 1024.21 1250.75 1032.16C1250.17 1023.73 1249.56 1015.36 1248.95 1007.07C1233.29 830.873 1145.13 500.313 894.266 409.409C630.925 313.986 694.277 165.499 758.87 103.184C892.028 -11.6551 1174.77 10.6887 1248.95 1007.07Z" fill="url(#paint2_linear_0_1)"/>
<path d="M1244.14 938.49C1244.49 947.296 1244.97 955.728 1245.57 963.736C1245.07 955.251 1244.6 946.836 1244.14 938.49C1237.14 761.369 1284.76 432.902 1532.09 357.314C1791.71 277.968 1706.69 123.724 1631.73 56.5209C1479 -68.2448 1189.71 -64.0454 1244.14 938.49Z" fill="url(#paint3_linear_0_1)"/>
<rect width="153" height="154" rx="76.5" transform="matrix(1 0 0 -1 2918 1364)" fill="url(#paint4_linear_0_1)" fill-opacity="0.44"/>
<rect width="153" height="154" rx="76.5" transform="matrix(1 0 0 -1 3158 1184)" fill="url(#paint5_linear_0_1)" fill-opacity="0.44"/>
<path d="M542.998 778C542.998 739.34 574.338 708 612.998 708H2723C2761.66 708 2793 739.34 2793 778V1885H612.998C574.338 1885 542.998 1853.66 542.998 1815V778Z" fill="#E8E8E8"/>
<path d="M1465.68 1715.99C1593.66 1859.99 1755.31 1888.45 1820.13 1884.68H2793V1617.13C2595.83 1471.55 2268.57 1472.86 2129.59 1491.72C1998.78 1506.31 1700.15 1515.32 1552.17 1434.67C1367.2 1333.84 1209.22 1364.33 1105.23 1385.97C1022.04 1403.29 924.258 1360.4 885.763 1336.79C829.271 1318.76 735.784 1313.09 813.773 1434.67C891.762 1556.24 1040.57 1564.01 1105.23 1552.7C1172.06 1547.13 1337.7 1571.98 1465.68 1715.99Z" fill="url(#paint6_linear_0_1)"/>
<rect x="3115" y="509" width="16" height="1512" fill="#C7C763"/>
<rect width="16" height="152" transform="matrix(0.981627 0.190809 0.190809 -0.981627 3114.37 428.262)" fill="#C7C763"/>
<rect width="35" height="152" transform="matrix(0 -1 -1 0 3269 287)" fill="#C7C763"/>
<rect width="11" height="120" transform="matrix(0 -1 -1 0 3252 375)" fill="#C7C763"/>
<rect width="11" height="103" transform="matrix(0 -1 -1 0 3243 331)" fill="#C7C763"/>
<rect width="16" height="152" transform="matrix(0.981627 -0.190809 -0.190809 -0.981627 3256 431.261)" fill="#C7C763"/>
<rect x="3250.85" y="1658" width="16" height="272.026" transform="rotate(27.4668 3250.85 1658)" fill="#C7C763"/>
<rect x="3265.19" y="1669.94" width="16" height="263.955" transform="rotate(148.906 3265.19 1669.94)" fill="#C7C763"/>
<rect x="3115" y="1666" width="16" height="150" transform="rotate(-90 3115 1666)" fill="#C7C763"/>
<rect x="3115" y="1452" width="16" height="150" transform="rotate(-90 3115 1452)" fill="#C7C763"/>
<rect x="3115" y="1223" width="16" height="150" transform="rotate(-90 3115 1223)" fill="#C7C763"/>
<rect x="3115" y="989" width="16" height="150" transform="rotate(-90 3115 989)" fill="#C7C763"/>
<rect x="3115" y="744" width="16" height="150" transform="rotate(-90 3115 744)" fill="#C7C763"/>
<rect x="3250.68" y="1195.09" width="16" height="290.875" transform="rotate(27.4668 3250.68 1195.09)" fill="#C7C763"/>
<rect x="3265.02" y="1207.03" width="16" height="263.955" transform="rotate(148.906 3265.02 1207.03)" fill="#C7C763"/>
<rect x="3247.53" y="737.998" width="16" height="279.707" transform="rotate(27.4668 3247.53 737.998)" fill="#C7C763"/>
<rect x="3261.75" y="731.299" width="16" height="253.76" transform="rotate(148.906 3261.75 731.299)" fill="#C7C763"/>
<rect width="9.2796" height="69.9585" transform="matrix(-0.999982 0.00608002 -0.00940235 -0.999956 3518.57 504.528)" fill="#C7C763"/>
<rect width="9.2796" height="69.9585" transform="matrix(-0.999982 0.00608002 -0.00940235 -0.999956 3398.7 502.567)" fill="#C7C763"/>
<rect width="9.2796" height="69.9585" transform="matrix(-0.999982 0.00608002 -0.00940235 -0.999956 3674.78 498.645)" fill="#C7C763"/>
<rect width="7.87207" height="197.758" transform="matrix(0.535786 -0.844354 0.925148 0.379608 3482.12 426.964)" fill="#C7C763"/>
<rect width="8.00023" height="174.258" transform="matrix(0.606538 0.795055 -0.896815 0.442406 3532.43 422.213)" fill="#C7C763"/>
<rect width="9.2796" height="69.9585" transform="matrix(-0.999982 0.00608002 -0.00940235 -0.999956 3518.57 504.528)" fill="#C7C763"/>
<rect width="17.2298" height="69.9585" transform="matrix(-0.999982 0.00608002 -0.00940235 -0.999956 3682.89 496.955)" fill="#C7C763"/>
<rect width="7.87207" height="197.758" transform="matrix(0.535786 -0.844354 0.925148 0.379608 3482.12 426.964)" fill="#C7C763"/>
<rect width="8.00023" height="174.258" transform="matrix(0.606538 0.795055 -0.896815 0.442406 3532.43 422.213)" fill="#C7C763"/>
<rect width="9.2796" height="69.9585" transform="matrix(-0.999982 0.00608002 -0.00940235 -0.999956 3246.62 501.134)" fill="#C7C763"/>
<rect width="9.2796" height="69.9585" transform="matrix(-0.999982 0.00608002 -0.00940235 -0.999956 3117.77 498.645)" fill="#C7C763"/>
<rect width="7.87207" height="197.758" transform="matrix(0.535786 -0.844354 0.925148 0.379608 3210.17 423.569)" fill="#C7C763"/>
<rect width="8.00023" height="174.258" transform="matrix(0.606538 0.795055 -0.896815 0.442406 3260.48 418.818)" fill="#C7C763"/>
<rect width="9.2796" height="69.9585" transform="matrix(-0.999982 0.00608002 -0.00940235 -0.999956 2414.25 501.587)" fill="#C7C763"/>
<rect width="9.2796" height="69.9585" transform="matrix(-0.999982 0.00608002 -0.00940235 -0.999956 2294.37 499.625)" fill="#C7C763"/>
<rect width="7.87207" height="197.758" transform="matrix(0.535786 -0.844354 0.925148 0.379608 2377.8 424.022)" fill="#C7C763"/>
<rect width="8.00023" height="174.258" transform="matrix(0.606538 0.795055 -0.896815 0.442406 2428.11 419.271)" fill="#C7C763"/>
<rect width="9.2796" height="69.9585" transform="matrix(-0.999982 0.00608002 -0.00940235 -0.999956 2414.25 501.587)" fill="#C7C763"/>
<rect width="7.87207" height="197.758" transform="matrix(0.535786 -0.844354 0.925148 0.379608 2377.8 424.022)" fill="#C7C763"/>
<rect width="8.00023" height="174.258" transform="matrix(0.606538 0.795055 -0.896815 0.442406 2428.11 419.271)" fill="#C7C763"/>
<rect width="9.2796" height="69.9585" transform="matrix(-0.999982 0.00608002 -0.00940235 -0.999956 2142.3 498.192)" fill="#C7C763"/>
<rect width="9.2796" height="69.9585" transform="matrix(-0.999982 0.00608002 -0.00940235 -0.999956 2013.45 495.703)" fill="#C7C763"/>
<rect width="7.87207" height="197.758" transform="matrix(0.535786 -0.844354 0.925148 0.379608 2105.85 420.627)" fill="#C7C763"/>
<rect width="7.87207" height="83.8946" transform="matrix(0.535786 -0.844354 0.925148 0.379608 1930.85 464.831)" fill="#C7C763"/>
<rect width="8.00023" height="174.258" transform="matrix(0.606538 0.795055 -0.896815 0.442406 2156.16 415.877)" fill="#C7C763"/>
<path d="M1880.6 497.82L1880.6 469.384L1932.67 446.342L1999.94 413.866V434.278L1932.67 469.385L1880.6 497.82Z" fill="#C7C763"/>
<rect width="9.2796" height="69.9585" transform="matrix(-0.999982 0.00608002 -0.00940235 -0.999956 2966.41 501.587)" fill="#C7C763"/>
<rect width="9.2796" height="69.9585" transform="matrix(-0.999982 0.00608002 -0.00940235 -0.999956 2846.53 499.625)" fill="#C7C763"/>
<rect width="7.87207" height="197.758" transform="matrix(0.535786 -0.844354 0.925148 0.379608 2929.96 424.022)" fill="#C7C763"/>
<rect width="8.00023" height="174.258" transform="matrix(0.606538 0.795055 -0.896815 0.442406 2980.27 419.271)" fill="#C7C763"/>
<rect width="9.2796" height="69.9585" transform="matrix(-0.999982 0.00608002 -0.00940235 -0.999956 2966.41 501.587)" fill="#C7C763"/>
<rect width="7.87207" height="197.758" transform="matrix(0.535786 -0.844354 0.925148 0.379608 2929.96 424.022)" fill="#C7C763"/>
<rect width="8.00023" height="174.258" transform="matrix(0.606538 0.795055 -0.896815 0.442406 2980.27 419.271)" fill="#C7C763"/>
<rect width="9.2796" height="69.9585" transform="matrix(-0.999982 0.00608002 -0.00940235 -0.999956 2694.46 498.192)" fill="#C7C763"/>
<rect width="9.2796" height="69.9585" transform="matrix(-0.999982 0.00608002 -0.00940235 -0.999956 2565.61 495.703)" fill="#C7C763"/>
<rect width="7.87207" height="197.758" transform="matrix(0.535786 -0.844354 0.925148 0.379608 2658.01 420.627)" fill="#C7C763"/>
<rect width="8.00023" height="174.258" transform="matrix(0.606538 0.795055 -0.896815 0.442406 2708.32 415.877)" fill="#C7C763"/>
<rect x="3249" y="504" width="16" height="1512" fill="#C7C763"/>
<rect x="3683" y="492" width="22" height="1803" transform="rotate(90 3683 492)" fill="#C7C763"/>
<path d="M3105.11 1885H3275.65L3344 2073H3053L3105.11 1885Z" fill="#2C2525"/>
<rect x="1762" y="1462" width="411" height="357" rx="42" fill="#11213F"/>
<rect x="2233" y="1462" width="401" height="357" rx="42" fill="#11213F"/>
<path d="M2791.4 2139.32C2787.79 2157.19 2770.39 2168.75 2752.52 2165.14L2682.44 2151L2612.35 2136.85C2594.48 2133.25 2582.92 2115.84 2586.53 2097.98L2642.53 1820.46C2645.09 1807.79 2654.81 1797.78 2667.39 1794.85L2743.93 1777.02C2753.24 1774.85 2763.04 1776.83 2770.78 1782.44L2834.42 1828.55C2844.88 1836.14 2849.96 1849.13 2847.4 1861.8L2791.4 2139.32Z" fill="white"/>
<path d="M2768.14 1786.08L2831.78 1832.2C2840.82 1838.75 2845.2 1849.97 2842.99 1860.91L2786.99 2138.43C2783.87 2153.86 2768.84 2163.84 2753.41 2160.73L2683.33 2146.59L2613.24 2132.44C2597.81 2129.33 2587.83 2114.3 2590.94 2098.87L2646.94 1821.35C2649.15 1810.41 2657.54 1801.76 2668.41 1799.23L2744.95 1781.4C2753 1779.53 2761.46 1781.24 2768.14 1786.08Z" stroke="black" stroke-opacity="0.38" stroke-width="9"/>
<rect x="2613.34" y="2015.65" width="189" height="86" transform="rotate(11.409 2613.34 2015.65)" fill="#3E091C"/>
<rect x="2647.37" y="1847.05" width="189" height="86" transform="rotate(11.409 2647.37 1847.05)" fill="#BD235A"/>
<rect x="2630.36" y="1931.35" width="189" height="86" transform="rotate(11.409 2630.36 1931.35)" fill="#670E2E"/>
<circle cx="2749.5" cy="1818.5" r="15.5" fill="#9F4009"/>
<path d="M3075.21 1981.31C3085.11 1996.62 3080.84 2017.21 3065.68 2027.32L3005.35 2067.54L2945.03 2107.76C2929.86 2117.87 2909.54 2113.66 2899.64 2098.36L2747.18 1862.73C2740.12 1851.82 2740.07 1837.69 2747.04 1826.64L2789.7 1759.11C2794.75 1751.1 2802.93 1745.65 2812.18 1744.12L2890.18 1731.22C2902.94 1729.11 2915.69 1734.77 2922.75 1745.68L3075.21 1981.31Z" fill="white"/>
<path d="M2812.64 1747.1L2890.65 1734.2C2902.24 1732.28 2913.84 1737.43 2920.26 1747.35L3072.71 1982.98C3081.71 1996.89 3077.84 2015.62 3064.05 2024.81L3003.72 2065.02L2943.4 2105.24C2929.61 2114.43 2911.14 2110.6 2902.14 2096.69L2749.68 1861.07C2743.26 1851.14 2743.21 1838.3 2749.55 1828.26L2792.21 1760.72C2796.8 1753.45 2804.24 1748.49 2812.64 1747.1Z" stroke="black" stroke-opacity="0.38" stroke-width="6"/>
<rect width="190.147" height="85.8592" transform="matrix(0.832054 -0.554695 0.543232 0.839583 2861.95 2020.91)" fill="#511E07"/>
<rect width="190.147" height="85.8592" transform="matrix(0.832054 -0.554695 0.543232 0.839583 2769.11 1877.41)" fill="#A34113"/>
<rect width="190.147" height="85.0568" transform="matrix(0.832054 -0.554695 0.543232 0.839583 2815.74 1949.5)" fill="#823512"/>
<circle cx="2831.5" cy="1787.5" r="15.5" fill="#11213F"/>
<rect x="823.5" y="1017.5" width="697" height="311" stroke="#7373E9" stroke-width="5" stroke-dasharray="38 38"/>
<path d="M633.918 816.795C633.918 817.218 634.146 817.658 634.602 818.113C635.057 818.536 635.757 818.943 636.701 819.334C637.678 819.725 638.915 820.05 640.412 820.311C641.942 820.538 643.765 820.669 645.881 820.701C644.904 820.18 643.911 819.643 642.902 819.09C641.926 818.504 640.982 817.983 640.07 817.527C639.159 817.039 638.329 816.648 637.58 816.355C636.831 816.03 636.197 815.867 635.676 815.867C634.504 815.867 633.918 816.176 633.918 816.795ZM677.326 762.449C677.814 761.473 678.4 760.61 679.084 759.861C679.768 759.113 680.5 758.494 681.281 758.006C682.062 757.518 682.86 757.16 683.674 756.932C684.488 756.671 685.253 756.541 685.969 756.541C687.01 756.541 687.889 756.818 688.605 757.371C689.322 757.892 689.68 758.673 689.68 759.715C689.68 760.529 689.468 761.408 689.045 762.352C687.222 766.258 685.367 770.197 683.479 774.168C681.59 778.107 679.686 781.964 677.766 785.74C675.878 789.516 674.022 793.162 672.199 796.678C670.376 800.161 668.618 803.4 666.926 806.395C665.233 809.389 663.638 812.075 662.141 814.451C660.676 816.827 659.341 818.797 658.137 820.359C660.969 820.164 663.557 819.904 665.9 819.578C668.244 819.253 670.507 818.878 672.688 818.455C674.868 818.032 677.049 817.576 679.23 817.088C681.444 816.567 683.82 816.046 686.359 815.525C686.522 815.46 686.701 815.411 686.896 815.379C687.092 815.346 687.271 815.33 687.434 815.33C688.443 815.33 689.24 815.737 689.826 816.551C690.412 817.332 690.705 818.227 690.705 819.236C690.705 819.855 690.119 820.522 688.947 821.238C687.775 821.922 686.164 822.605 684.113 823.289C682.095 823.973 679.702 824.64 676.936 825.291C674.201 825.91 671.239 826.463 668.049 826.951C664.859 827.407 661.522 827.765 658.039 828.025C654.556 828.318 651.089 828.465 647.639 828.465C643.635 828.465 640.184 828.188 637.287 827.635C634.39 827.081 631.997 826.316 630.109 825.34C628.254 824.363 626.87 823.208 625.959 821.873C625.08 820.538 624.641 819.09 624.641 817.527C624.641 815.997 624.917 814.712 625.471 813.67C626.057 812.596 626.838 811.733 627.814 811.082C628.824 810.431 629.995 809.959 631.33 809.666C632.697 809.373 634.162 809.227 635.725 809.227C636.994 809.227 638.312 809.454 639.68 809.91C641.047 810.366 642.382 810.968 643.684 811.717C645.018 812.433 646.271 813.247 647.443 814.158C648.648 815.037 649.689 815.932 650.568 816.844C651.317 814.891 652.212 812.71 653.254 810.301C654.328 807.892 655.484 805.369 656.721 802.732C657.958 800.063 659.26 797.345 660.627 794.578C661.994 791.779 663.361 789.028 664.729 786.326C666.096 783.624 667.43 781.02 668.732 778.514C670.035 776.007 671.239 773.712 672.346 771.629C673.452 769.546 674.429 767.706 675.275 766.111C676.154 764.516 676.838 763.296 677.326 762.449ZM705.207 800.096C703.677 800.096 702.196 800.486 700.764 801.268C699.364 802.016 698.111 803.025 697.004 804.295C695.93 805.532 695.067 806.948 694.416 808.543C693.765 810.105 693.439 811.717 693.439 813.377C693.439 813.995 693.488 814.679 693.586 815.428C693.684 816.144 693.879 816.827 694.172 817.479C694.497 818.097 694.953 818.618 695.539 819.041C696.125 819.464 696.906 819.676 697.883 819.676C699.38 819.676 700.829 819.285 702.229 818.504C703.661 817.69 704.93 816.648 706.037 815.379C707.144 814.077 708.023 812.612 708.674 810.984C709.325 809.357 709.65 807.713 709.65 806.053C709.65 805.402 709.602 804.734 709.504 804.051C709.439 803.335 709.243 802.684 708.918 802.098C708.625 801.512 708.186 801.04 707.6 800.682C707.014 800.291 706.216 800.096 705.207 800.096ZM707.746 791.502C708.983 791.502 710.301 791.665 711.701 791.99C713.133 792.316 714.452 792.869 715.656 793.65C716.861 794.432 717.854 795.473 718.635 796.775C719.449 798.045 719.855 799.624 719.855 801.512C719.855 802.488 719.725 803.611 719.465 804.881C719.204 806.118 718.814 807.42 718.293 808.787C718.618 809.178 718.993 809.454 719.416 809.617C719.839 809.78 720.295 809.861 720.783 809.861C721.467 809.861 722.215 809.666 723.029 809.275C723.876 808.885 724.738 808.38 725.617 807.762C726.496 807.143 727.375 806.443 728.254 805.662C729.133 804.881 729.963 804.1 730.744 803.318C731.525 802.537 732.225 801.805 732.844 801.121C733.495 800.405 734.032 799.803 734.455 799.314C734.683 799.087 734.96 798.973 735.285 798.973C735.741 798.973 736.148 799.217 736.506 799.705C736.864 800.161 737.043 800.812 737.043 801.658C737.043 802.505 736.783 803.481 736.262 804.588C735.773 805.695 734.846 806.85 733.479 808.055C732.697 808.901 731.802 809.878 730.793 810.984C729.784 812.091 728.71 813.133 727.57 814.109C726.431 815.086 725.243 815.916 724.006 816.6C722.769 817.283 721.532 817.625 720.295 817.625C719.449 817.625 718.618 817.495 717.805 817.234C717.023 816.974 716.226 816.551 715.412 815.965C714.24 817.788 712.906 819.448 711.408 820.945C709.911 822.443 708.234 823.729 706.379 824.803C704.556 825.877 702.57 826.707 700.422 827.293C698.306 827.911 696.044 828.221 693.635 828.221C692.723 828.221 691.665 828.042 690.461 827.684C689.257 827.326 688.101 826.74 686.994 825.926C685.92 825.079 685.008 823.989 684.26 822.654C683.511 821.32 683.137 819.692 683.137 817.771C683.137 816.469 683.348 814.907 683.771 813.084C684.195 811.261 684.829 809.389 685.676 807.469C686.555 805.516 687.645 803.595 688.947 801.707C690.282 799.786 691.861 798.077 693.684 796.58C695.507 795.05 697.59 793.829 699.934 792.918C702.277 791.974 704.882 791.502 707.746 791.502ZM750.568 791.502C752.001 791.502 753.254 791.681 754.328 792.039C755.402 792.397 756.314 792.788 757.062 793.211C757.909 793.732 758.658 794.301 759.309 794.92C759.764 794.627 760.253 794.35 760.773 794.09C761.229 793.862 761.734 793.667 762.287 793.504C762.84 793.309 763.394 793.211 763.947 793.211C765.38 793.211 766.486 793.504 767.268 794.09C768.049 794.676 768.439 795.376 768.439 796.189C768.439 796.613 768.326 797.036 768.098 797.459L756.672 819.09L757.6 818.26C761.441 816.014 764.598 814.256 767.072 812.986C769.546 811.684 771.516 810.724 772.98 810.105C774.445 809.487 775.487 809.113 776.105 808.982C776.757 808.82 777.163 808.738 777.326 808.738C778.075 808.738 778.645 809.031 779.035 809.617C779.458 810.171 779.67 810.87 779.67 811.717C779.67 812.661 779.393 813.621 778.84 814.598C778.319 815.574 777.505 816.274 776.398 816.697C774.934 817.446 773.225 818.26 771.271 819.139C769.318 819.985 767.284 820.929 765.168 821.971C763.052 823.012 760.92 824.184 758.771 825.486C756.656 826.756 754.67 828.172 752.814 829.734L743.342 846.873C742.561 848.729 741.844 850.242 741.193 851.414C740.575 852.586 739.956 853.514 739.338 854.197C738.719 854.881 738.085 855.353 737.434 855.613C736.783 855.874 736.034 856.004 735.188 856.004C733.918 856.004 732.909 855.564 732.16 854.686C731.444 853.807 731.086 852.749 731.086 851.512C731.086 850.21 731.395 848.696 732.014 846.971C732.632 845.245 733.495 843.374 734.602 841.355C735.741 839.37 737.108 837.27 738.703 835.057C740.298 832.876 742.072 830.646 744.025 828.367L750.08 820.652C748.843 821.792 747.622 822.768 746.418 823.582C745.214 824.396 744.058 825.063 742.951 825.584C741.844 826.072 740.803 826.43 739.826 826.658C738.882 826.886 738.052 827 737.336 827C736.034 827 734.829 826.707 733.723 826.121C732.616 825.503 731.656 824.656 730.842 823.582C730.061 822.508 729.442 821.238 728.986 819.773C728.531 818.309 728.303 816.714 728.303 814.988C728.303 811.408 728.986 808.169 730.354 805.271C731.753 802.374 733.527 799.917 735.676 797.898C737.857 795.848 740.249 794.269 742.854 793.162C745.49 792.055 748.062 791.502 750.568 791.502ZM748.713 800.096C747.183 800.096 745.702 800.486 744.27 801.268C742.837 802.016 741.568 803.025 740.461 804.295C739.354 805.532 738.475 806.964 737.824 808.592C737.173 810.219 736.848 811.896 736.848 813.621C736.848 814.142 736.88 814.712 736.945 815.33C737.043 815.916 737.222 816.469 737.482 816.99C737.775 817.511 738.182 817.951 738.703 818.309C739.257 818.634 740.005 818.797 740.949 818.797C741.633 818.797 742.43 818.504 743.342 817.918C744.286 817.299 745.246 816.535 746.223 815.623C747.232 814.679 748.208 813.654 749.152 812.547C750.096 811.408 750.943 810.301 751.691 809.227C752.473 808.152 753.091 807.192 753.547 806.346C754.003 805.467 754.23 804.816 754.23 804.393C754.23 803.676 754.035 803.058 753.645 802.537C753.254 801.984 752.766 801.528 752.18 801.17C751.626 800.812 751.024 800.551 750.373 800.389C749.755 800.193 749.201 800.096 748.713 800.096ZM792.707 800.096C791.177 800.096 789.696 800.486 788.264 801.268C786.864 802.016 785.611 803.025 784.504 804.295C783.43 805.532 782.567 806.948 781.916 808.543C781.265 810.105 780.939 811.717 780.939 813.377C780.939 813.995 780.988 814.679 781.086 815.428C781.184 816.144 781.379 816.827 781.672 817.479C781.997 818.097 782.453 818.618 783.039 819.041C783.625 819.464 784.406 819.676 785.383 819.676C786.88 819.676 788.329 819.285 789.729 818.504C791.161 817.69 792.43 816.648 793.537 815.379C794.644 814.077 795.523 812.612 796.174 810.984C796.825 809.357 797.15 807.713 797.15 806.053C797.15 805.402 797.102 804.734 797.004 804.051C796.939 803.335 796.743 802.684 796.418 802.098C796.125 801.512 795.686 801.04 795.1 800.682C794.514 800.291 793.716 800.096 792.707 800.096ZM795.246 791.502C796.483 791.502 797.801 791.665 799.201 791.99C800.633 792.316 801.952 792.869 803.156 793.65C804.361 794.432 805.354 795.473 806.135 796.775C806.949 798.045 807.355 799.624 807.355 801.512C807.355 802.488 807.225 803.611 806.965 804.881C806.704 806.118 806.314 807.42 805.793 808.787C806.118 809.178 806.493 809.454 806.916 809.617C807.339 809.78 807.795 809.861 808.283 809.861C808.967 809.861 809.715 809.666 810.529 809.275C811.376 808.885 812.238 808.38 813.117 807.762C813.996 807.143 814.875 806.443 815.754 805.662C816.633 804.881 817.463 804.1 818.244 803.318C819.025 802.537 819.725 801.805 820.344 801.121C820.995 800.405 821.532 799.803 821.955 799.314C822.183 799.087 822.46 798.973 822.785 798.973C823.241 798.973 823.648 799.217 824.006 799.705C824.364 800.161 824.543 800.812 824.543 801.658C824.543 802.505 824.283 803.481 823.762 804.588C823.273 805.695 822.346 806.85 820.979 808.055C820.197 808.901 819.302 809.878 818.293 810.984C817.284 812.091 816.21 813.133 815.07 814.109C813.931 815.086 812.743 815.916 811.506 816.6C810.269 817.283 809.032 817.625 807.795 817.625C806.949 817.625 806.118 817.495 805.305 817.234C804.523 816.974 803.726 816.551 802.912 815.965C801.74 817.788 800.406 819.448 798.908 820.945C797.411 822.443 795.734 823.729 793.879 824.803C792.056 825.877 790.07 826.707 787.922 827.293C785.806 827.911 783.544 828.221 781.135 828.221C780.223 828.221 779.165 828.042 777.961 827.684C776.757 827.326 775.601 826.74 774.494 825.926C773.42 825.079 772.508 823.989 771.76 822.654C771.011 821.32 770.637 819.692 770.637 817.771C770.637 816.469 770.848 814.907 771.271 813.084C771.695 811.261 772.329 809.389 773.176 807.469C774.055 805.516 775.145 803.595 776.447 801.707C777.782 799.786 779.361 798.077 781.184 796.58C783.007 795.05 785.09 793.829 787.434 792.918C789.777 791.974 792.382 791.502 795.246 791.502Z" fill="#3E091C"/>
<path d="M947.1 1120.45V1225H933.45V1177.6H880.2V1225H866.55V1120.45H880.2V1166.35H933.45V1120.45H947.1ZM1045.41 1180.75C1045.41 1183.35 1045.26 1186.1 1044.96 1189H979.257C979.757 1197.1 982.507 1203.45 987.507 1208.05C992.607 1212.55 998.757 1214.8 1005.96 1214.8C1011.86 1214.8 1016.76 1213.45 1020.66 1210.75C1024.66 1207.95 1027.46 1204.25 1029.06 1199.65H1043.76C1041.56 1207.55 1037.16 1214 1030.56 1219C1023.96 1223.9 1015.76 1226.35 1005.96 1226.35C998.157 1226.35 991.157 1224.6 984.957 1221.1C978.857 1217.6 974.057 1212.65 970.557 1206.25C967.057 1199.75 965.307 1192.25 965.307 1183.75C965.307 1175.25 967.007 1167.8 970.407 1161.4C973.807 1155 978.557 1150.1 984.657 1146.7C990.857 1143.2 997.957 1141.45 1005.96 1141.45C1013.76 1141.45 1020.66 1143.15 1026.66 1146.55C1032.66 1149.95 1037.26 1154.65 1040.46 1160.65C1043.76 1166.55 1045.41 1173.25 1045.41 1180.75ZM1031.31 1177.9C1031.31 1172.7 1030.16 1168.25 1027.86 1164.55C1025.56 1160.75 1022.41 1157.9 1018.41 1156C1014.51 1154 1010.16 1153 1005.36 1153C998.457 1153 992.557 1155.2 987.657 1159.6C982.857 1164 980.107 1170.1 979.407 1177.9H1031.31ZM1058.33 1183.6C1058.33 1175.2 1060.03 1167.85 1063.43 1161.55C1066.83 1155.15 1071.48 1150.2 1077.38 1146.7C1083.38 1143.2 1090.03 1141.45 1097.33 1141.45C1104.53 1141.45 1110.78 1143 1116.08 1146.1C1121.38 1149.2 1125.33 1153.1 1127.93 1157.8V1142.8H1141.73V1225H1127.93V1209.7C1125.23 1214.5 1121.18 1218.5 1115.78 1221.7C1110.48 1224.8 1104.28 1226.35 1097.18 1226.35C1089.88 1226.35 1083.28 1224.55 1077.38 1220.95C1071.48 1217.35 1066.83 1212.3 1063.43 1205.8C1060.03 1199.3 1058.33 1191.9 1058.33 1183.6ZM1127.93 1183.75C1127.93 1177.55 1126.68 1172.15 1124.18 1167.55C1121.68 1162.95 1118.28 1159.45 1113.98 1157.05C1109.78 1154.55 1105.13 1153.3 1100.03 1153.3C1094.93 1153.3 1090.28 1154.5 1086.08 1156.9C1081.88 1159.3 1078.53 1162.8 1076.03 1167.4C1073.53 1172 1072.28 1177.4 1072.28 1183.6C1072.28 1189.9 1073.53 1195.4 1076.03 1200.1C1078.53 1204.7 1081.88 1208.25 1086.08 1210.75C1090.28 1213.15 1094.93 1214.35 1100.03 1214.35C1105.13 1214.35 1109.78 1213.15 1113.98 1210.75C1118.28 1208.25 1121.68 1204.7 1124.18 1200.1C1126.68 1195.4 1127.93 1189.95 1127.93 1183.75ZM1159.69 1183.6C1159.69 1175.2 1161.39 1167.85 1164.79 1161.55C1168.19 1155.15 1172.84 1150.2 1178.74 1146.7C1184.74 1143.2 1191.44 1141.45 1198.84 1141.45C1205.24 1141.45 1211.19 1142.95 1216.69 1145.95C1222.19 1148.85 1226.39 1152.7 1229.29 1157.5V1114H1243.09V1225H1229.29V1209.55C1226.59 1214.45 1222.59 1218.5 1217.29 1221.7C1211.99 1224.8 1205.79 1226.35 1198.69 1226.35C1191.39 1226.35 1184.74 1224.55 1178.74 1220.95C1172.84 1217.35 1168.19 1212.3 1164.79 1205.8C1161.39 1199.3 1159.69 1191.9 1159.69 1183.6ZM1229.29 1183.75C1229.29 1177.55 1228.04 1172.15 1225.54 1167.55C1223.04 1162.95 1219.64 1159.45 1215.34 1157.05C1211.14 1154.55 1206.49 1153.3 1201.39 1153.3C1196.29 1153.3 1191.64 1154.5 1187.44 1156.9C1183.24 1159.3 1179.89 1162.8 1177.39 1167.4C1174.89 1172 1173.64 1177.4 1173.64 1183.6C1173.64 1189.9 1174.89 1195.4 1177.39 1200.1C1179.89 1204.7 1183.24 1208.25 1187.44 1210.75C1191.64 1213.15 1196.29 1214.35 1201.39 1214.35C1206.49 1214.35 1211.14 1213.15 1215.34 1210.75C1219.64 1208.25 1223.04 1204.7 1225.54 1200.1C1228.04 1195.4 1229.29 1189.95 1229.29 1183.75ZM1273.21 1129.45C1270.61 1129.45 1268.41 1128.55 1266.61 1126.75C1264.81 1124.95 1263.91 1122.75 1263.91 1120.15C1263.91 1117.55 1264.81 1115.35 1266.61 1113.55C1268.41 1111.75 1270.61 1110.85 1273.21 1110.85C1275.71 1110.85 1277.81 1111.75 1279.51 1113.55C1281.31 1115.35 1282.21 1117.55 1282.21 1120.15C1282.21 1122.75 1281.31 1124.95 1279.51 1126.75C1277.81 1128.55 1275.71 1129.45 1273.21 1129.45ZM1279.81 1142.8V1225H1266.16V1142.8H1279.81ZM1343.12 1141.3C1353.12 1141.3 1361.22 1144.35 1367.42 1150.45C1373.62 1156.45 1376.72 1165.15 1376.72 1176.55V1225H1363.22V1178.5C1363.22 1170.3 1361.17 1164.05 1357.07 1159.75C1352.97 1155.35 1347.37 1153.15 1340.27 1153.15C1333.07 1153.15 1327.32 1155.4 1323.02 1159.9C1318.82 1164.4 1316.72 1170.95 1316.72 1179.55V1225H1303.07V1142.8H1316.72V1154.5C1319.42 1150.3 1323.07 1147.05 1327.67 1144.75C1332.37 1142.45 1337.52 1141.3 1343.12 1141.3ZM1432.92 1141.45C1440.02 1141.45 1446.22 1143 1451.52 1146.1C1456.92 1149.2 1460.92 1153.1 1463.52 1157.8V1142.8H1477.32V1226.8C1477.32 1234.3 1475.72 1240.95 1472.52 1246.75C1469.32 1252.65 1464.72 1257.25 1458.72 1260.55C1452.82 1263.85 1445.92 1265.5 1438.02 1265.5C1427.22 1265.5 1418.22 1262.95 1411.02 1257.85C1403.82 1252.75 1399.57 1245.8 1398.27 1237H1411.77C1413.27 1242 1416.37 1246 1421.07 1249C1425.77 1252.1 1431.42 1253.65 1438.02 1253.65C1445.52 1253.65 1451.62 1251.3 1456.32 1246.6C1461.12 1241.9 1463.52 1235.3 1463.52 1226.8V1209.55C1460.82 1214.35 1456.82 1218.35 1451.52 1221.55C1446.22 1224.75 1440.02 1226.35 1432.92 1226.35C1425.62 1226.35 1418.97 1224.55 1412.97 1220.95C1407.07 1217.35 1402.42 1212.3 1399.02 1205.8C1395.62 1199.3 1393.92 1191.9 1393.92 1183.6C1393.92 1175.2 1395.62 1167.85 1399.02 1161.55C1402.42 1155.15 1407.07 1150.2 1412.97 1146.7C1418.97 1143.2 1425.62 1141.45 1432.92 1141.45ZM1463.52 1183.75C1463.52 1177.55 1462.27 1172.15 1459.77 1167.55C1457.27 1162.95 1453.87 1159.45 1449.57 1157.05C1445.37 1154.55 1440.72 1153.3 1435.62 1153.3C1430.52 1153.3 1425.87 1154.5 1421.67 1156.9C1417.47 1159.3 1414.12 1162.8 1411.62 1167.4C1409.12 1172 1407.87 1177.4 1407.87 1183.6C1407.87 1189.9 1409.12 1195.4 1411.62 1200.1C1414.12 1204.7 1417.47 1208.25 1421.67 1210.75C1425.87 1213.15 1430.52 1214.35 1435.62 1214.35C1440.72 1214.35 1445.37 1213.15 1449.57 1210.75C1453.87 1208.25 1457.27 1204.7 1459.77 1200.1C1462.27 1195.4 1463.52 1189.95 1463.52 1183.75Z" fill="black"/>
<rect x="1221" y="1438" width="366" height="20" rx="10" transform="rotate(-180 1221 1438)" fill="black"/>
<rect x="1444" y="1468" width="366" height="21" rx="10.5" transform="rotate(-180 1444 1468)" fill="black"/>
<rect x="1062" y="1467" width="207" height="20" rx="10" transform="rotate(-180 1062 1467)" fill="black"/>
<rect x="1335" y="1438" width="98" height="20" rx="10" transform="rotate(-180 1335 1438)" fill="black"/>
<rect x="1416" y="1497" width="561" height="20" rx="10" transform="rotate(-180 1416 1497)" fill="black"/>
<path d="M711.037 1125.97L639.768 1193.11L30.1415 486.279C26.1172 481.613 26.3736 474.633 30.7293 470.275V470.275C35.3049 465.697 42.7187 465.674 47.3231 470.223L375.019 793.985L711.037 1125.97Z" fill="#5C2E12"/>
<path d="M2740 708C2740 805.865 2701.65 899.721 2633.39 968.922C2565.12 1038.12 2472.54 1077 2376 1077C2279.46 1077 2186.88 1038.12 2118.61 968.922C2050.35 899.722 2012 805.865 2012 708L2376 708H2740Z" fill="url(#paint7_linear_0_1)"/>
<path d="M2008 943L2184.5 762L2389 943H2008Z" stroke="black" stroke-width="9"/>
<g filter="url(#filter0_d_0_1)">
<rect x="1762" y="902" width="872" height="501" rx="42" fill="#A7B3C8"/>
</g>
<path d="M2057 1064L2312.48 1403.75H1801.52L2057 1064Z" fill="#11213F"/>
<path d="M2376 1122L2162.09 1403.25H2589.91L2376 1122Z" fill="#11213F"/>
<circle cx="2333" cy="986" r="61" fill="#EBEB20"/>
<path d="M3675 394C3675 377.431 3688.43 364 3705 364H3906C3922.57 364 3936 377.431 3936 394V542H3675V394Z" fill="#958B2D"/>
<path d="M2132 526C2132 542.569 2145.43 556 2162 556H2210C2226.57 556 2240 542.569 2240 526V514H2132V526Z" fill="#958B2D"/>
<path d="M3172 212.5C3172 203.387 3179.39 196 3188.5 196V196C3197.61 196 3205 203.387 3205 212.5V252H3172V212.5Z" fill="#958B2D"/>
<path d="M705.506 1119.39C905.179 1072.33 817.739 1325.85 967.754 1430.4C717.67 1432.42 641.17 1268.7 634.18 1186.58L705.506 1119.39Z" fill="url(#paint8_linear_0_1)"/>
<path d="M1835.95 1762.58L1479.88 1504.94L1445.67 1484.59L1415.89 1480.57L1413.44 1481.03L1412.06 1481.81L1411.66 1482.39L1411.26 1482.97L1410.96 1484.05L1410.84 1486.11L1422.59 1515.81L1464.19 1544.33L1820.6 1793.13C1827.57 1799.76 1843.43 1809.39 1851.14 1794.86C1858.86 1780.34 1844.23 1767.29 1835.95 1762.58Z" fill="#010100"/>
<path d="M368.625 1766.3C459.311 1777.71 469.673 1686.73 533.852 1726.36L541.88 1754.7C456.525 1829.39 390.812 1793.55 368.625 1766.3Z" fill="url(#paint9_linear_0_1)"/>
<path d="M699.807 1943C639.825 1870.61 714.658 1815.09 644.276 1780.02L614.774 1787.6C595.622 1899.48 663.483 1937.82 699.807 1943Z" fill="url(#paint10_linear_0_1)"/>
<path d="M706.445 1998.27C657.764 1917.05 739.04 1872.95 674.893 1827.38L644.866 1830.5C610.309 1939.17 671.52 1987.63 706.445 1998.27Z" fill="url(#paint11_linear_0_1)"/>
<path d="M723.498 2051.19C672.466 1964.41 710.322 1867.99 659.267 1836.15L641.811 1854.09C649.408 2015.84 699.435 2052.88 723.498 2051.19Z" fill="url(#paint12_linear_0_1)"/>
<path d="M693.865 2104.72C615.876 2002.65 716.188 1928.29 623.645 1877.49L584.393 1887.02C556.703 2041.12 645.837 2096.37 693.865 2104.72Z" fill="url(#paint13_linear_0_1)"/>
<path d="M583.956 2121.84C552.023 2004.96 661.34 1961.21 600.112 1888.89L563.83 1887.55C489.326 2025.69 546.204 2101.3 583.956 2121.84Z" fill="url(#paint14_linear_0_1)"/>
<path d="M494.79 2084.46C500.702 1990.33 586.996 1953.27 561.902 1895.65L537.069 1895.11C452.257 2008.05 473.545 2068.4 494.79 2084.46Z" fill="url(#paint15_linear_0_1)"/>
<path d="M317.635 1766.78C408.32 1778.19 418.683 1687.21 482.862 1726.84L490.89 1755.19C405.535 1829.87 339.822 1794.03 317.635 1766.78Z" fill="url(#paint16_linear_0_1)"/>
<path d="M274.755 1800.81C379.993 1811.05 434 1714.13 494.123 1754.92L491.006 1784.88C353.096 1866.04 289.376 1829.32 274.755 1800.81Z" fill="url(#paint17_linear_0_1)"/>
<path d="M218.216 1860.49C347.177 1875.91 353.852 1747.03 447.875 1802.61L461.679 1842.67C347.759 1949.07 251.903 1898.88 218.216 1860.49Z" fill="url(#paint18_linear_0_1)"/>
<path d="M273.976 1955.92C386.763 1919 368.397 1804.71 458.904 1816.22L478.145 1845.55C400.916 1982.18 309.853 1976.06 273.976 1955.92Z" fill="url(#paint19_linear_0_1)"/>
<path d="M361.364 2008.29C436.376 1952.34 423.997 1860.76 484.247 1850.29L497.092 1870.56C445.881 2002.07 385.269 2017.17 361.364 2008.29Z" fill="url(#paint20_linear_0_1)"/>
<path d="M312.43 2226.85C362.139 2069.79 481.486 2012 512.501 1864.72" stroke="#301607" stroke-width="12"/>
<path d="M478.958 2012.71C484.565 1956.79 535.483 1932.8 522.259 1899.24L507.865 1899.5C456.051 1968.42 467.004 2003.69 478.958 2012.71Z" fill="url(#paint21_linear_0_1)"/>
<path d="M412.621 1983.6C466.919 1947.6 455.042 1884.98 499.652 1879.51L509.814 1893.65C475.443 1981.69 430.698 1990.3 412.621 1983.6Z" fill="url(#paint22_linear_0_1)"/>
<rect width="12.2098" height="22.2848" rx="6.1049" transform="matrix(0.992499 0.122252 -0.163524 0.986539 650.834 1540.21)" fill="#FFB800"/>
<rect width="12.2314" height="22.2489" rx="6.11571" transform="matrix(0.599772 0.800171 -0.772219 0.635356 714.639 1581.71)" fill="#FFB800"/>
<ellipse cx="476.107" cy="1845.82" rx="32.2854" ry="34.3915" transform="rotate(28.9198 476.107 1845.82)" fill="#3E091C"/>
<ellipse cx="607.653" cy="1788.08" rx="32.2854" ry="29.3761" transform="rotate(28.9198 607.653 1788.08)" fill="#3E091C"/>
<ellipse cx="639.025" cy="1825.87" rx="32.2854" ry="34.3915" transform="rotate(28.9198 639.025 1825.87)" fill="#3E091C"/>
<ellipse cx="615.195" cy="1883.38" rx="32.2854" ry="34.3915" transform="rotate(28.9198 615.195 1883.38)" fill="#3E091C"/>
<ellipse cx="570.304" cy="1897.87" rx="32.2854" ry="34.3915" transform="rotate(28.9198 570.304 1897.87)" fill="#3E091C"/>
<ellipse cx="530.39" cy="1747.57" rx="32.2854" ry="27.4654" transform="rotate(28.9198 530.39 1747.57)" fill="#3E091C"/>
<ellipse cx="477.825" cy="1745.82" rx="32.2854" ry="34.3915" transform="rotate(28.9198 477.825 1745.82)" fill="#3E091C"/>
<ellipse cx="456.236" cy="1795.55" rx="32.2854" ry="34.3915" transform="rotate(28.9198 456.236 1795.55)" fill="#3E091C"/>
<ellipse cx="550.308" cy="1815.6" rx="82.6193" ry="48.7213" transform="rotate(28.9198 550.308 1815.6)" fill="#3E091C"/>
<path d="M622.228 1811.75L591.446 1797.32C599.294 1783.62 615.467 1778.37 631.154 1785.72L661.936 1800.15C654.089 1813.85 637.916 1819.1 622.228 1811.75Z" stroke="#F39306" stroke-width="19"/>
<path d="M421.722 1831.41L420.065 1830.77C445.112 1781.48 504.34 1758.03 556.849 1778.2L558.506 1778.84C533.459 1828.13 474.23 1851.59 421.722 1831.41Z" stroke="#F39306" stroke-width="19"/>
<path d="M568.236 1802.13L575.488 1786.76C619.853 1812.52 637.809 1868.19 615.455 1915.54L608.203 1930.91C563.837 1905.16 545.882 1849.48 568.236 1802.13Z" stroke="#F39306" stroke-width="19"/>
<path d="M485.928 1716.81L530.867 1739.64C547.316 1748 556.497 1766.84 554.047 1784.72L509.107 1761.9C492.658 1753.54 483.478 1734.7 485.928 1716.81Z" stroke="#F39306" stroke-width="19"/>
<path d="M589.883 1737.06L590.664 1738.03C616.995 1770.84 604.302 1799.56 562.315 1802.17V1802.17L561.534 1801.2C535.203 1768.39 547.895 1739.67 589.883 1737.06V1737.06Z" fill="url(#paint23_linear_0_1)"/>
<path d="M571.17 1773.65V1773.65C593.046 1832.07 564.603 1900.05 507.641 1925.48L488.554 1934.01V1934.01C466.677 1875.59 495.12 1807.61 552.082 1782.17L571.17 1773.65Z" fill="url(#paint24_linear_0_1)"/>
<path d="M682.814 1882.95V1882.95C621.363 1884.69 571.91 1836.29 573.469 1774.84V1774.84V1774.84C634.921 1773.11 684.374 1821.5 682.814 1882.95V1882.95Z" fill="url(#paint25_linear_0_1)"/>
<path d="M573.404 1774.97L565.991 1781.25C520.916 1819.45 455.043 1812.55 418.86 1765.84V1765.84L426.274 1759.56C471.349 1721.36 537.221 1728.26 573.404 1774.97V1774.97Z" fill="url(#paint26_linear_0_1)"/>
<ellipse cx="573.331" cy="1776.48" rx="10.986" ry="7.40372" transform="rotate(28.9198 573.331 1776.48)" fill="#FFFF00"/>
<path d="M579.067 1782.79C603.766 1760.1 630.956 1672.64 702.903 1599.9" stroke="#FFE70E" stroke-width="4"/>
<path d="M566.865 1776.59C570.132 1740.49 637.59 1670.82 653.914 1562.47" stroke="#FFE70E" stroke-width="4"/>
<path d="M3190 210L2013 424" stroke="black" stroke-width="9"/>
<rect x="3682" y="413" width="22" height="1682" transform="rotate(90 3682 413)" fill="#C7C763"/>
<path d="M3187.5 209.5L3809.5 362.5" stroke="black" stroke-width="9"/>
<path d="M2174 557V713" stroke="black" stroke-width="4"/>
<path d="M2199 557V713" stroke="black" stroke-width="4"/>
<path d="M2168.84 760C2167.29 745 2178.34 736.167 2185.84 734L2192.5 733C2188.83 738.5 2178.4 749.9 2182 757.5C2185.6 765.1 2194 773.5 2209.84 760C2209.44 774.4 2193.68 778.833 2185.84 778.5C2178.01 778.167 2170.5 776 2168.84 760Z" fill="#4D4B4B"/>
<path d="M2168 715.5C2168 725.717 2176.28 734 2186.5 734V734C2196.72 734 2205 725.717 2205 715.5V711H2168V715.5Z" fill="#958B2D"/>
<path d="M3062.14 456.351C3059.66 448.656 3062.32 440.234 3068.77 435.361L3167.42 360.84C3170.72 358.348 3174.74 357 3178.87 357H3300C3310.49 357 3319 365.507 3319 376V516C3319 526.493 3310.49 535 3300 535H3188.5H3101.34C3093.09 535 3085.78 529.68 3083.25 521.83L3062.14 456.351Z" fill="#757418"/>
<path d="M3232.5 381V453C3232.5 455.485 3230.49 457.5 3228 457.5H3104C3101.51 457.5 3099.5 455.485 3099.5 453V431.874C3099.5 430.522 3100.11 429.242 3101.16 428.387L3163.53 377.513C3164.33 376.858 3165.34 376.5 3166.37 376.5H3228C3230.49 376.5 3232.5 378.515 3232.5 381Z" fill="url(#paint27_linear_0_1)" stroke="#4F4F4F"/>
<path d="M3242.5 381V453C3242.5 455.485 3244.51 457.5 3247 457.5H3303C3305.49 457.5 3307.5 455.485 3307.5 453V429.5V381C3307.5 378.515 3305.49 376.5 3303 376.5H3275.69H3247C3244.51 376.5 3242.5 378.515 3242.5 381Z" fill="url(#paint28_linear_0_1)" stroke="#4F4F4F"/>
<defs>
<filter id="filter0_d_0_1" x="1670" y="875" width="982" height="611" filterUnits="userSpaceOnUse" color-interpolation-filters="sRGB">
<feFlood flood-opacity="0" result="BackgroundImageFix"/>
<feColorMatrix in="SourceAlpha" type="matrix" values="0 0 0 0 0 0 0 0 0 0 0 0 0 0 0 0 0 0 127 0" result="hardAlpha"/>
<feOffset dx="-37" dy="28"/>
<feGaussianBlur stdDeviation="27.5"/>
<feComposite in2="hardAlpha" operator="out"/>
<feColorMatrix type="matrix" values="0 0 0 0 0 0 0 0 0 0 0 0 0 0 0 0 0 0 0.5 0"/>
<feBlend mode="normal" in2="BackgroundImageFix" result="effect1_dropShadow_0_1"/>
<feBlend mode="normal" in="SourceGraphic" in2="effect1_dropShadow_0_1" result="shape"/>
</filter>
<linearGradient id="paint0_linear_0_1" x1="1806" y1="129" x2="1806" y2="2242" gradientUnits="userSpaceOnUse">
<stop stop-color="#11213F"/>
<stop offset="1" stop-color="#071429"/>
</linearGradient>
<linearGradient id="paint1_linear_0_1" x1="110.358" y1="146.103" x2="17.9888" y2="18.7937" gradientUnits="userSpaceOnUse">
<stop stop-color="#9F4009"/>
<stop offset="1" stop-color="#750F34"/>
</linearGradient>
<linearGradient id="paint2_linear_0_1" x1="1198.67" y1="348.812" x2="894.704" y2="598.228" gradientUnits="userSpaceOnUse">
<stop stop-color="#8B5F0D"/>
<stop offset="1" stop-color="#9F4009"/>
</linearGradient>
<linearGradient id="paint3_linear_0_1" x1="1209.49" y1="276.248" x2="1562.39" y2="540.278" gradientUnits="userSpaceOnUse">
<stop stop-color="#9F4009"/>
<stop offset="1" stop-color="#750F34"/>
</linearGradient>
<linearGradient id="paint4_linear_0_1" x1="110.358" y1="146.103" x2="17.9888" y2="18.7937" gradientUnits="userSpaceOnUse">
<stop stop-color="#9F4009"/>
<stop offset="1" stop-color="#750F34"/>
</linearGradient>
<linearGradient id="paint5_linear_0_1" x1="110.358" y1="146.103" x2="17.9888" y2="18.7937" gradientUnits="userSpaceOnUse">
<stop stop-color="#9F4009"/>
<stop offset="1" stop-color="#750F34"/>
</linearGradient>
<linearGradient id="paint6_linear_0_1" x1="783.998" y1="1327" x2="2787.81" y2="1901.86" gradientUnits="userSpaceOnUse">
<stop stop-color="#750F34"/>
<stop offset="1" stop-color="#9F4009"/>
</linearGradient>
<linearGradient id="paint7_linear_0_1" x1="2376" y1="339" x2="2376" y2="1077" gradientUnits="userSpaceOnUse">
<stop stop-color="#BC0044"/>
<stop offset="1" stop-color="#925900"/>
</linearGradient>
<linearGradient id="paint8_linear_0_1" x1="954.343" y1="1443.03" x2="675.804" y2="1147.37" gradientUnits="userSpaceOnUse">
<stop stop-color="#9F4009"/>
<stop offset="1" stop-color="#750F34"/>
</linearGradient>
<linearGradient id="paint9_linear_0_1" x1="516.673" y1="1705.51" x2="398.636" y2="1802.74" gradientUnits="userSpaceOnUse">
<stop offset="0.015625" stop-color="#511E07"/>
<stop offset="0.953125" stop-color="#925700"/>
</linearGradient>
<linearGradient id="paint10_linear_0_1" x1="672.183" y1="1784.16" x2="649.714" y2="1935.57" gradientUnits="userSpaceOnUse">
<stop offset="0.015625" stop-color="#511E07"/>
<stop offset="0.953125" stop-color="#925700"/>
</linearGradient>
<linearGradient id="paint11_linear_0_1" x1="701.704" y1="1835.71" x2="656.047" y2="1982.6" gradientUnits="userSpaceOnUse">
<stop offset="0.015625" stop-color="#511E07"/>
<stop offset="0.953125" stop-color="#925700"/>
</linearGradient>
<linearGradient id="paint12_linear_0_1" x1="677.782" y1="1835.07" x2="690.522" y2="2053.12" gradientUnits="userSpaceOnUse">
<stop offset="0.015625" stop-color="#511E07"/>
<stop offset="0.953125" stop-color="#925700"/>
</linearGradient>
<linearGradient id="paint13_linear_0_1" x1="660.541" y1="1884.13" x2="623.147" y2="2092" gradientUnits="userSpaceOnUse">
<stop offset="0.015625" stop-color="#511E07"/>
<stop offset="0.953125" stop-color="#925700"/>
</linearGradient>
<linearGradient id="paint14_linear_0_1" x1="629.042" y1="1904.87" x2="526.659" y2="2090.19" gradientUnits="userSpaceOnUse">
<stop offset="0.015625" stop-color="#511E07"/>
<stop offset="0.953125" stop-color="#925700"/>
</linearGradient>
<linearGradient id="paint15_linear_0_1" x1="578.124" y1="1908.15" x2="461.822" y2="2059.05" gradientUnits="userSpaceOnUse">
<stop offset="0.015625" stop-color="#511E07"/>
<stop offset="0.953125" stop-color="#925700"/>
</linearGradient>
<linearGradient id="paint16_linear_0_1" x1="465.683" y1="1705.99" x2="347.645" y2="1803.22" gradientUnits="userSpaceOnUse">
<stop offset="0.015625" stop-color="#511E07"/>
<stop offset="0.953125" stop-color="#925700"/>
</linearGradient>
<linearGradient id="paint17_linear_0_1" x1="482.69" y1="1733.11" x2="291.734" y2="1833.21" gradientUnits="userSpaceOnUse">
<stop offset="0.015625" stop-color="#511E07"/>
<stop offset="0.953125" stop-color="#925700"/>
</linearGradient>
<linearGradient id="paint18_linear_0_1" x1="421.813" y1="1773.23" x2="264.554" y2="1912.73" gradientUnits="userSpaceOnUse">
<stop offset="0.015625" stop-color="#511E07"/>
<stop offset="0.953125" stop-color="#925700"/>
</linearGradient>
<linearGradient id="paint19_linear_0_1" x1="431.209" y1="1800.92" x2="328.827" y2="1986.23" gradientUnits="userSpaceOnUse">
<stop offset="0.015625" stop-color="#511E07"/>
<stop offset="0.953125" stop-color="#925700"/>
</linearGradient>
<linearGradient id="paint20_linear_0_1" x1="465.794" y1="1843.64" x2="401.232" y2="2022.67" gradientUnits="userSpaceOnUse">
<stop offset="0.015625" stop-color="#511E07"/>
<stop offset="0.953125" stop-color="#925700"/>
</linearGradient>
<linearGradient id="paint21_linear_0_1" x1="531.38" y1="1906.27" x2="460.38" y2="1998.39" gradientUnits="userSpaceOnUse">
<stop offset="0.015625" stop-color="#511E07"/>
<stop offset="0.953125" stop-color="#925700"/>
</linearGradient>
<linearGradient id="paint22_linear_0_1" x1="485.704" y1="1874.48" x2="442.47" y2="1994.37" gradientUnits="userSpaceOnUse">
<stop offset="0.015625" stop-color="#511E07"/>
<stop offset="0.953125" stop-color="#925700"/>
</linearGradient>
<linearGradient id="paint23_linear_0_1" x1="591.915" y1="1738.21" x2="571.115" y2="1786.72" gradientUnits="userSpaceOnUse">
<stop stop-color="#750F34"/>
<stop offset="1" stop-color="#9F4009"/>
</linearGradient>
<linearGradient id="paint24_linear_0_1" x1="569.335" y1="1782.32" x2="490.856" y2="1924.37" gradientUnits="userSpaceOnUse">
<stop stop-color="#9F4009"/>
<stop offset="1" stop-color="#750F34"/>
</linearGradient>
<linearGradient id="paint25_linear_0_1" x1="683.092" y1="1882.41" x2="568.261" y2="1782.45" gradientUnits="userSpaceOnUse">
<stop stop-color="#750F34"/>
<stop offset="1" stop-color="#9F4009"/>
</linearGradient>
<linearGradient id="paint26_linear_0_1" x1="562.502" y1="1773.36" x2="423.757" y2="1760.84" gradientUnits="userSpaceOnUse">
<stop stop-color="#9F4009"/>
<stop offset="1" stop-color="#750F34"/>
</linearGradient>
<linearGradient id="paint27_linear_0_1" x1="3166" y1="376" x2="3166" y2="458" gradientUnits="userSpaceOnUse">
<stop stop-color="#3A5EBD"/>
<stop offset="1" stop-color="#7B8DBB"/>
</linearGradient>
<linearGradient id="paint28_linear_0_1" x1="3275" y1="376" x2="3275" y2="458" gradientUnits="userSpaceOnUse">
<stop stop-color="#3A5EBD"/>
<stop offset="1" stop-color="#7B8DBB"/>
</linearGradient>
</defs>
</svg>
