<svg width="3395" height="2200" viewBox="0 0 3395 2200" fill="none" xmlns="http://www.w3.org/2000/svg">
<g clip-path="url(#clip0_6_439)">
<path d="M1654.5 776.518C1484.68 687.034 1371.23 650.829 1449 277.183C1502.65 298.495 1608.35 253.274 1654.5 228C1768.08 291.39 1838.82 287.201 1859.98 277.183C1934.91 643.316 1820.03 688.399 1654.5 776.518Z" fill="url(#paint0_linear_6_439)"/>
<path d="M2215.87 754.806C2243.64 717.458 2258.26 674.722 2258.18 631.18C2258.18 498.129 2124.39 390.27 1959.36 390.27C1794.33 390.27 1660.54 498.129 1660.54 631.18C1660.46 674.722 1675.09 717.458 1702.86 754.806H2215.87Z" fill="#17161C"/>
<path d="M1959.36 639.389C1975.45 639.389 1988.5 628.901 1988.5 615.963C1988.5 603.025 1975.45 592.537 1959.36 592.537C1943.27 592.537 1930.22 603.025 1930.22 615.963C1930.22 628.901 1943.27 639.389 1959.36 639.389Z" fill="#C46E00"/>
<path d="M1729.68 665.671C1737.56 665.671 1743.96 660.299 1743.96 653.673C1743.96 647.046 1737.56 641.674 1729.68 641.674C1721.79 641.674 1715.39 647.046 1715.39 653.673C1715.39 660.299 1721.79 665.671 1729.68 665.671Z" fill="#C46E00"/>
<path d="M1738.82 565.11C1746.7 565.11 1753.1 559.738 1753.1 553.111C1753.1 546.484 1746.7 541.112 1738.82 541.112C1730.93 541.112 1724.53 546.484 1724.53 553.111C1724.53 559.738 1730.93 565.11 1738.82 565.11Z" fill="#C46E00"/>
<path d="M1809.67 481.69C1817.55 481.69 1823.95 476.574 1823.95 470.263C1823.95 463.951 1817.55 458.835 1809.67 458.835C1801.78 458.835 1795.38 463.951 1795.38 470.263C1795.38 476.574 1801.78 481.69 1809.67 481.69Z" fill="#C46E00"/>
<path d="M1923.94 440.552C1931.82 440.552 1938.22 435.436 1938.22 429.124C1938.22 422.813 1931.82 417.697 1923.94 417.697C1916.05 417.697 1909.65 422.813 1909.65 429.124C1909.65 435.436 1916.05 440.552 1923.94 440.552Z" fill="#C46E00"/>
<path d="M2048.49 453.121C2056.38 453.121 2062.78 447.749 2062.78 441.123C2062.78 434.496 2056.38 429.124 2048.49 429.124C2040.61 429.124 2034.21 434.496 2034.21 441.123C2034.21 447.749 2040.61 453.121 2048.49 453.121Z" fill="#C46E00"/>
<path d="M2147.34 514.83C2155.54 514.83 2162.19 509.458 2162.19 502.831C2162.19 496.204 2155.54 490.832 2147.34 490.832C2139.13 490.832 2132.48 496.204 2132.48 502.831C2132.48 509.458 2139.13 514.83 2147.34 514.83Z" fill="#C46E00"/>
<path d="M2192.48 608.534C2200.36 608.534 2206.76 603.418 2206.76 597.107C2206.76 590.796 2200.36 585.679 2192.48 585.679C2184.59 585.679 2178.19 590.796 2178.19 597.107C2178.19 603.418 2184.59 608.534 2192.48 608.534Z" fill="#C46E00"/>
<path d="M2170.76 707.953C2178.65 707.953 2185.05 702.837 2185.05 696.526C2185.05 690.214 2178.65 685.098 2170.76 685.098C2162.88 685.098 2156.48 690.214 2156.48 696.526C2156.48 702.837 2162.88 707.953 2170.76 707.953Z" fill="#C46E00"/>
<path d="M1959.93 615.391L2107.34 525.114" stroke="#6A6A6A" stroke-width="4" stroke-miterlimit="10"/>
<path d="M1995.53 2137.94H1792.09V1954.36H1995.53V2137.94Z" fill="url(#paint1_linear_6_439)"/>
<path d="M2288.29 2137.94H1498.34C1481.35 2137.94 1467.57 2151.71 1467.57 2168.7C1467.57 2185.69 1481.35 2199.46 1498.34 2199.46H2288.29C2305.28 2199.46 2319.05 2185.69 2319.05 2168.7C2319.05 2151.71 2305.28 2137.94 2288.29 2137.94Z" fill="url(#paint2_linear_6_439)"/>
<path d="M807.756 812.317C785.849 829.162 767.497 850.141 753.855 873.937C740.211 897.733 731.571 923.832 728.477 950.595C725.383 977.358 727.901 1004.21 735.873 1029.45C743.846 1054.7 757.101 1077.81 774.805 1097.31C792.51 1116.82 814.282 1132.31 838.75 1142.81C863.222 1153.31 889.868 1158.59 917.01 1158.32C944.152 1158.05 971.205 1152.24 996.472 1141.25C1021.74 1130.26 1044.67 1114.33 1063.84 1094.45L924.205 963.746L807.756 812.317Z" fill="url(#paint3_linear_6_439)" fill-opacity="0.26"/>
<path d="M878.481 444.282C786.677 388.1 909.438 319.933 890.05 222C984.861 315.036 955.605 408.953 929.137 444.282H878.481Z" fill="url(#paint4_linear_6_439)"/>
<path d="M878.733 444.282H929.345V767.286C929.345 781.261 918.012 792.591 904.039 792.591C890.063 792.591 878.733 781.261 878.733 767.286V444.282Z" fill="#8A3502"/>
<path d="M1068.08 490.226L1045.82 479.713L908.456 784.725C905.667 790.923 908.386 798.302 914.539 801.205C920.682 804.109 927.926 801.438 930.715 795.239L1068.08 490.226Z" fill="#BBBB3B"/>
<path d="M1079.33 435.285L1067.94 490.516L1045.69 480.009L1079.33 435.285Z" fill="#BBBB3B"/>
<path d="M988.324 464.068L964.209 459.58L905.548 790.138C904.367 796.808 908.803 803.22 915.462 804.46C922.121 805.7 928.482 801.297 929.673 794.627L988.324 464.068Z" fill="#942434"/>
<path d="M985.823 407.991L988.264 464.384L964.159 459.899L985.823 407.991Z" fill="#942434"/>
<path d="M2961.63 734.78H824.997C752.649 734.78 694 793.426 694 865.768V1823.37C694 1895.71 752.649 1954.36 824.997 1954.36H2961.63C3033.98 1954.36 3092.63 1895.71 3092.63 1823.37V865.768C3092.63 793.426 3033.98 734.78 2961.63 734.78Z" fill="url(#paint5_linear_6_439)"/>
<path d="M3003.32 805H781.681C762.527 805 747 820.53 747 839.688V1778.31C747 1797.47 762.527 1813 781.681 1813H3003.32C3022.47 1813 3038 1797.47 3038 1778.31V839.688C3038 820.53 3022.47 805 3003.32 805Z" fill="white"/>
<path d="M747 855H3038V838C3038 819.775 3022.93 805 3004.34 805H781.681C762.527 805 747 820.223 747 839V855Z" fill="#101011"/>
<path d="M784.606 841.952C790.464 841.952 795.213 836.621 795.213 830.044C795.213 823.467 790.464 818.136 784.606 818.136C778.749 818.136 774 823.467 774 830.044C774 836.621 778.749 841.952 784.606 841.952Z" fill="#FF0000"/>
<path d="M843.775 841.952C849.633 841.952 854.382 836.621 854.382 830.044C854.382 823.467 849.633 818.136 843.775 818.136C837.918 818.136 833.169 823.467 833.169 830.044C833.169 836.621 837.918 841.952 843.775 841.952Z" fill="#255425"/>
<path d="M814.192 841.952C820.358 841.952 825.356 836.621 825.356 830.044C825.356 823.467 820.358 818.136 814.192 818.136C808.026 818.136 803.027 823.467 803.027 830.044C803.027 836.621 808.026 841.952 814.192 841.952Z" fill="#B9B90C"/>
<path d="M2874.8 1793.14C2874.8 1651.82 2808.25 1516.27 2689.78 1416.34C2571.33 1316.41 2410.66 1260.26 2243.13 1260.26C2075.61 1260.26 1914.94 1316.41 1796.48 1416.34C1678.02 1516.27 1611.47 1651.82 1611.47 1793.14H2243.13H2874.8Z" fill="#3A3A67"/>
<path d="M2529 854C2529 910.6 2542.16 966.645 2567.75 1018.94C2593.33 1071.23 2630.82 1118.74 2678.08 1158.76C2725.34 1198.78 2781.46 1230.53 2843.21 1252.19C2904.97 1273.85 2971.16 1285 3038 1285V854H2529Z" fill="#F2C176"/>
<path d="M861.217 883.176H1030.92C1044.62 883.176 1055.73 894.283 1055.73 907.984C1055.73 921.685 1044.62 932.792 1030.92 932.792H861.217C847.515 932.792 836.407 921.685 836.407 907.984C836.407 894.283 847.515 883.176 861.217 883.176Z" fill="#3A3A67"/>
<path d="M2135.46 992.332H1546.97C1530.52 992.332 1517.19 1005.66 1517.19 1022.1V1659.18C1517.19 1675.62 1530.52 1688.95 1546.97 1688.95H2135.46C2151.9 1688.95 2165.23 1675.62 2165.23 1659.18V1022.1C2165.23 1005.66 2151.9 992.332 2135.46 992.332Z" fill="#ECECF3"/>
<path d="M878.088 992.332H1453.68C1470.12 992.332 1483.45 1005.66 1483.45 1022.1V1353.54C1483.45 1369.98 1470.12 1383.31 1453.68 1383.31H878.088C861.646 1383.31 848.316 1369.98 848.316 1353.54V1022.1C848.316 1005.66 861.646 992.332 878.088 992.332Z" fill="#3A3A67"/>
<path d="M2233.71 992.332H2921.44C2937.88 992.332 2951.21 1005.66 2951.21 1022.1V1311.86C2951.21 1328.3 2937.88 1341.63 2921.44 1341.63H2233.71C2217.26 1341.63 2203.93 1328.3 2203.93 1311.86V1022.1C2203.93 1005.66 2217.26 992.332 2233.71 992.332Z" fill="#ECECF3"/>
<path d="M2687.23 1688.95H2921.44C2937.88 1688.95 2951.21 1675.62 2951.21 1659.18V1413.08C2951.21 1396.64 2937.88 1383.31 2921.44 1383.31H2687.23C2670.79 1383.31 2657.46 1396.64 2657.46 1413.08V1659.18C2657.46 1675.62 2670.79 1688.95 2687.23 1688.95Z" fill="#EC7A5A"/>
<path d="M2596.92 1383.31H2233.71C2217.26 1383.31 2203.93 1396.64 2203.93 1413.08V1659.18C2203.93 1675.62 2217.26 1688.95 2233.71 1688.95H2596.92C2613.37 1688.95 2626.7 1675.62 2626.7 1659.18V1413.08C2626.7 1396.64 2613.37 1383.31 2596.92 1383.31Z" fill="#FBFBFF"/>
<path d="M2346.84 1481.55L2470.6 1688.45H2223.08L2346.84 1481.55Z" fill="#23234B"/>
<path d="M2489.75 1517.28L2386.62 1688.45H2592.88L2489.75 1517.28Z" fill="#23234B"/>
<path d="M2479.82 1471.63C2496.26 1471.63 2509.59 1455.19 2509.59 1434.91C2509.59 1414.63 2496.26 1398.2 2479.82 1398.2C2463.38 1398.2 2450.05 1414.63 2450.05 1434.91C2450.05 1455.19 2463.38 1471.63 2479.82 1471.63Z" fill="#EBEB20"/>
<path d="M2774.56 901.037H2926.4C2940.1 901.037 2951.21 912.144 2951.21 925.846C2951.21 939.547 2940.1 950.654 2926.4 950.654H2774.56C2760.86 950.654 2749.75 939.547 2749.75 925.846C2749.75 912.144 2760.86 901.037 2774.56 901.037Z" fill="#3A3A67"/>
<path d="M2682.27 901.037H2543.34C2529.63 901.037 2518.53 912.144 2518.53 925.846C2518.53 939.547 2529.63 950.654 2543.34 950.654H2682.27C2695.97 950.654 2707.08 939.547 2707.08 925.846C2707.08 912.144 2695.97 901.037 2682.27 901.037Z" fill="#3A3A67"/>
<path d="M2269.43 901.037H2439.13C2452.84 901.037 2463.94 912.144 2463.94 925.846C2463.94 939.547 2452.84 950.654 2439.13 950.654H2269.43C2255.73 950.654 2244.62 939.547 2244.62 925.846C2244.62 912.144 2255.73 901.037 2269.43 901.037Z" fill="#3A3A67"/>
<path d="M877.096 1624.45H1133.13C1149.03 1624.45 1161.91 1637.33 1161.91 1653.23C1161.91 1669.12 1149.03 1682 1133.13 1682H877.096C861.201 1682 848.316 1669.12 848.316 1653.23C848.316 1637.33 861.201 1624.45 877.096 1624.45Z" fill="#3A3A67"/>
<path d="M1206.57 1624.45H1454.67C1470.57 1624.45 1483.45 1637.33 1483.45 1653.23C1483.45 1669.12 1470.57 1682 1454.67 1682H1206.57C1190.68 1682 1177.79 1669.12 1177.79 1653.23C1177.79 1637.33 1190.68 1624.45 1206.57 1624.45Z" fill="#3A3A67"/>
<path d="M864.195 1488.5H1467.57C1476.34 1488.5 1483.45 1481.39 1483.45 1472.62C1483.45 1463.85 1476.34 1456.74 1467.57 1456.74H864.195C855.425 1456.74 848.316 1463.85 848.316 1472.62C848.316 1481.39 855.425 1488.5 864.195 1488.5Z" fill="#AFAFB8"/>
<path d="M864.195 1534.15H1467.57C1476.34 1534.15 1483.45 1527.04 1483.45 1518.27C1483.45 1509.5 1476.34 1502.39 1467.57 1502.39H864.195C855.425 1502.39 848.316 1509.5 848.316 1518.27C848.316 1527.04 855.425 1534.15 864.195 1534.15Z" fill="#AFAFB8"/>
<path d="M865.187 1582.77H1466.58C1475.9 1582.77 1483.45 1575.22 1483.45 1565.9C1483.45 1556.58 1475.9 1549.03 1466.58 1549.03H865.187C855.87 1549.03 848.316 1556.58 848.316 1565.9C848.316 1575.22 855.87 1582.77 865.187 1582.77Z" fill="#AFAFB8"/>
<path d="M2249.59 1226.52H2904.57C2910.6 1226.52 2915.49 1221.64 2915.49 1215.61C2915.49 1209.58 2910.6 1204.69 2904.57 1204.69H2249.59C2243.56 1204.69 2238.67 1209.58 2238.67 1215.61C2238.67 1221.64 2243.56 1226.52 2249.59 1226.52Z" fill="#AFAFB8"/>
<path d="M2250.08 1257.28H2904.07C2910.38 1257.28 2915.49 1252.18 2915.49 1245.87C2915.49 1239.57 2910.38 1234.46 2904.07 1234.46H2250.08C2243.78 1234.46 2238.67 1239.57 2238.67 1245.87C2238.67 1252.18 2243.78 1257.28 2250.08 1257.28Z" fill="#AFAFB8"/>
<path d="M2250.08 1290.03H2904.07C2910.38 1290.03 2915.49 1284.92 2915.49 1278.62C2915.49 1272.32 2910.38 1267.21 2904.07 1267.21H2250.08C2243.78 1267.21 2238.67 1272.32 2238.67 1278.62C2238.67 1284.92 2243.78 1290.03 2250.08 1290.03Z" fill="#AFAFB8"/>
<path d="M2627.19 1082.63H2903.08C2909.93 1082.63 2915.49 1077.08 2915.49 1070.23C2915.49 1063.38 2909.93 1057.83 2903.08 1057.83H2627.19C2620.34 1057.83 2614.79 1063.38 2614.79 1070.23C2614.79 1077.08 2620.34 1082.63 2627.19 1082.63Z" fill="#AFAFB8"/>
<path d="M2627.69 1119.35H2902.58C2909.71 1119.35 2915.49 1113.57 2915.49 1106.45C2915.49 1099.33 2909.71 1093.55 2902.58 1093.55H2627.69C2620.56 1093.55 2614.79 1099.33 2614.79 1106.45C2614.79 1113.57 2620.56 1119.35 2627.69 1119.35Z" fill="#AFAFB8"/>
<path d="M2627.69 1157.06H2902.58C2909.71 1157.06 2915.49 1151.28 2915.49 1144.16C2915.49 1137.03 2909.71 1131.26 2902.58 1131.26H2627.69C2620.56 1131.26 2614.79 1137.03 2614.79 1144.16C2614.79 1151.28 2620.56 1157.06 2627.69 1157.06Z" fill="#AFAFB8"/>
<path d="M1569.79 1565.9H2101.72C2108.84 1565.9 2114.62 1560.12 2114.62 1553C2114.62 1545.87 2108.84 1540.1 2101.72 1540.1H1569.79C1562.67 1540.1 1556.89 1545.87 1556.89 1553C1556.89 1560.12 1562.67 1565.9 1569.79 1565.9Z" fill="#AFAFB8"/>
<path d="M1570.78 1604.6H2100.73C2108.4 1604.6 2114.62 1598.38 2114.62 1590.71C2114.62 1583.04 2108.4 1576.82 2100.73 1576.82H1570.78C1563.11 1576.82 1556.89 1583.04 1556.89 1590.71C1556.89 1598.38 1563.11 1604.6 1570.78 1604.6Z" fill="#AFAFB8"/>
<path d="M1570.29 1643.3H2101.22C2108.62 1643.3 2114.62 1637.3 2114.62 1629.91C2114.62 1622.51 2108.62 1616.51 2101.22 1616.51H1570.29C1562.89 1616.51 1556.89 1622.51 1556.89 1629.91C1556.89 1637.3 1562.89 1643.3 1570.29 1643.3Z" fill="#AFAFB8"/>
<path d="M1569.79 1443.84H2101.72C2108.84 1443.84 2114.62 1438.07 2114.62 1430.94C2114.62 1423.82 2108.84 1418.04 2101.72 1418.04H1569.79C1562.67 1418.04 1556.89 1423.82 1556.89 1430.94C1556.89 1438.07 1562.67 1443.84 1569.79 1443.84Z" fill="#AFAFB8"/>
<path d="M1569.79 1482.54H2101.72C2108.84 1482.54 2114.62 1476.77 2114.62 1469.64C2114.62 1462.52 2108.84 1456.74 2101.72 1456.74H1569.79C1562.67 1456.74 1556.89 1462.52 1556.89 1469.64C1556.89 1476.77 1562.67 1482.54 1569.79 1482.54Z" fill="#AFAFB8"/>
<path d="M1570.29 1521.24H2101.22C2108.62 1521.24 2114.62 1515.25 2114.62 1507.85C2114.62 1500.45 2108.62 1494.45 2101.22 1494.45H1570.29C1562.89 1494.45 1556.89 1500.45 1556.89 1507.85C1556.89 1515.25 1562.89 1521.24 1570.29 1521.24Z" fill="#AFAFB8"/>
<path d="M1570.29 1370.41H2101.22C2108.62 1370.41 2114.62 1364.41 2114.62 1357.01C2114.62 1349.62 2108.62 1343.62 2101.22 1343.62H1570.29C1562.89 1343.62 1556.89 1349.62 1556.89 1357.01C1556.89 1364.41 1562.89 1370.41 1570.29 1370.41Z" fill="#AFAFB8"/>
<path d="M1569.79 1409.11H2101.72C2108.84 1409.11 2114.62 1403.34 2114.62 1396.21C2114.62 1389.09 2108.84 1383.31 2101.72 1383.31H1569.79C1562.67 1383.31 1556.89 1389.09 1556.89 1396.21C1556.89 1403.34 1562.67 1409.11 1569.79 1409.11Z" fill="#AFAFB8"/>
<path d="M2765 1464.68L2882.16 1531.88L2763.12 1602.41L2765 1464.68Z" fill="white"/>
<path d="M2114.62 1030.04H1556.89C1551.41 1030.04 1546.97 1034.48 1546.97 1039.96V1287.05C1546.97 1292.54 1551.41 1296.98 1556.89 1296.98H2114.62C2120.1 1296.98 2124.54 1292.54 2124.54 1287.05V1039.96C2124.54 1034.48 2120.1 1030.04 2114.62 1030.04Z" fill="#F4F4D8"/>
<path d="M1413.98 1691.93L1442.76 1716.73L1450.21 1707.8L1421.92 1682.5L1432.34 1669.1L1387.19 1661.16L1403.07 1705.82L1413.98 1691.93Z" fill="#010100"/>
<g filter="url(#filter0_d_6_439)">
<path d="M326.088 1135.81C385.555 1135.81 433.763 1085.39 433.763 1023.18C433.763 960.981 385.555 910.555 326.088 910.555C266.621 910.555 218.413 960.981 218.413 1023.18C218.413 1085.39 266.621 1135.81 326.088 1135.81Z" fill="#FFFF47"/>
</g>
<path d="M290.203 1188.41C285.37 1155.43 263.488 1120.28 253.147 1106.83C306.776 1097.25 410.819 1083.84 397.938 1106.83C385.047 1129.82 377.931 1170.8 375.986 1188.41H290.203Z" fill="#FFFF47"/>
<path d="M361.973 1188.41C366.806 1155.43 388.689 1120.28 399.03 1106.83C345.4 1097.25 241.357 1083.84 254.239 1106.83C267.13 1129.82 274.245 1170.8 276.19 1188.41H361.973Z" fill="#FFFF47"/>
<path d="M313.673 1159.63C310.528 1133.99 306.131 1075.62 313.673 1047.32C321.206 1019.01 305.407 1020.8 296.564 1025.23C289.628 1029.82 279.019 1042.14 292.109 1054.68C305.198 1067.21 334.087 1059.9 346.889 1054.68C355.811 1048.82 369.297 1034.73 351.851 1025.23C334.395 1015.73 330.038 1036 330.038 1047.32L323.836 1159.63H313.673Z" stroke="black" stroke-width="13"/>
<path d="M271.01 1159.13H381.166C385.821 1159.13 389.602 1162.91 389.602 1167.57C389.602 1172.23 385.821 1176 381.166 1176H271.01C266.356 1176 262.575 1172.23 262.575 1167.57C262.575 1162.91 266.356 1159.13 271.01 1159.13Z" fill="#474646" stroke="black"/>
<path d="M415.702 877.189L393.83 910.729L396.539 912.323L422.053 880.925L415.702 877.189Z" fill="#F2F200"/>
<path d="M371.014 853L360.366 891.13L363.442 891.906L378.239 854.819L371.014 853Z" fill="#F2F200"/>
<path d="M480.009 958.912L442.933 976.727L444.382 979.429L483.383 965.243L480.009 958.912Z" fill="#F2F200"/>
<path d="M456.479 913.755L425.09 939.589L427.174 941.879L461.382 919.117L456.479 913.755Z" fill="#F2F200"/>
<path d="M236.564 877.189L255.787 910.729L253.177 912.473L230.451 881.276L236.564 877.189Z" fill="#F2F200"/>
<path d="M275.853 853L285.211 891.13L282.154 892.006L268.688 855.049L275.853 853Z" fill="#F2F200"/>
<path d="M180.047 958.912L212.627 976.727L211.327 979.494L177 965.396L180.047 958.912Z" fill="#F2F200"/>
<path d="M200.718 913.755L228.317 939.589L226.382 941.999L196.193 919.399L200.718 913.755Z" fill="#F2F200"/>
<path d="M858.654 1151H108.346C98.7661 1151 91 1171.81 91 1197.47V2127.86C91 2153.52 113.192 2173.61 122.771 2173.61L858.654 2174.33C868.234 2174.33 876 2153.52 876 2127.86V1197.47C876 1171.81 868.234 1151 858.654 1151Z" fill="black"/>
<path d="M655.24 2044.95H323.807C320.472 2044.95 317.769 2047.66 317.769 2050.99C317.769 2054.33 320.472 2057.03 323.807 2057.03H655.24C658.574 2057.03 661.278 2054.33 661.278 2050.99C661.278 2047.66 658.574 2044.95 655.24 2044.95Z" fill="#072A85"/>
<path d="M306.699 2000H210.088C206.938 2000 204.385 2002.55 204.385 2005.7C204.385 2008.85 206.938 2011.41 210.088 2011.41H306.699C309.849 2011.41 312.402 2008.85 312.402 2005.7C312.402 2002.55 309.849 2000 306.699 2000Z" fill="#072A85"/>
<path d="M438.534 2022.81H323.807C320.472 2022.81 317.769 2025.52 317.769 2028.85C317.769 2032.19 320.472 2034.89 323.807 2034.89H438.534C441.869 2034.89 444.572 2032.19 444.572 2028.85C444.572 2025.52 441.869 2022.81 438.534 2022.81Z" fill="#072A85"/>
<path d="M569.698 2000H323.472C320.322 2000 317.769 2002.55 317.769 2005.7C317.769 2008.85 320.322 2011.41 323.472 2011.41H569.698C572.847 2011.41 575.401 2008.85 575.401 2005.7C575.401 2002.55 572.847 2000 569.698 2000Z" fill="#B6B655"/>
<path d="M457.32 2022.81H463.358C466.693 2022.81 469.396 2025.52 469.396 2028.85C469.396 2032.19 466.693 2034.89 463.358 2034.89H457.32C453.985 2034.89 451.282 2032.19 451.282 2028.85C451.282 2025.52 453.985 2022.81 457.32 2022.81Z" fill="#D6D8DB"/>
<path d="M546.551 2022.81H488.182C484.847 2022.81 482.144 2025.52 482.144 2028.85C482.144 2032.19 484.847 2034.89 488.182 2034.89H546.551C549.886 2034.89 552.59 2032.19 552.59 2028.85C552.59 2025.52 549.886 2022.81 546.551 2022.81Z" fill="#072A85"/>
<path d="M386.873 1943.9H323.807C320.472 1943.9 317.769 1946.6 317.769 1949.93C317.769 1953.27 320.472 1955.97 323.807 1955.97H386.873C390.208 1955.97 392.912 1953.27 392.912 1949.93C392.912 1946.6 390.208 1943.9 386.873 1943.9Z" fill="#76001D"/>
<path d="M322.13 1803H210.088C206.938 1803 204.385 1805.55 204.385 1808.7C204.385 1811.85 206.938 1814.41 210.088 1814.41H322.13C325.28 1814.41 327.833 1811.85 327.833 1808.7C327.833 1805.55 325.28 1803 322.13 1803Z" fill="#072A85"/>
<path d="M251.013 1826.48H210.088C206.938 1826.48 204.385 1829.04 204.385 1832.19C204.385 1835.33 206.938 1837.89 210.088 1837.89H251.013C254.163 1837.89 256.716 1835.33 256.716 1832.19C256.716 1829.04 254.163 1826.48 251.013 1826.48Z" fill="#072A85"/>
<path d="M306.364 1849.97H210.423C207.088 1849.97 204.385 1852.67 204.385 1856C204.385 1859.34 207.088 1862.04 210.423 1862.04H306.364C309.699 1862.04 312.402 1859.34 312.402 1856C312.402 1852.67 309.699 1849.97 306.364 1849.97Z" fill="#072A85"/>
<path d="M622.365 1873.45H323.807C320.472 1873.45 317.769 1876.15 317.769 1879.49C317.769 1882.82 320.472 1885.52 323.807 1885.52H622.365C625.7 1885.52 628.403 1882.82 628.403 1879.49C628.403 1876.15 625.7 1873.45 622.365 1873.45Z" fill="#072A85"/>
<path d="M579.426 1920.41H323.807C320.472 1920.41 317.769 1923.12 317.769 1926.45C317.769 1929.79 320.472 1932.49 323.807 1932.49H579.426C582.761 1932.49 585.464 1929.79 585.464 1926.45C585.464 1923.12 582.761 1920.41 579.426 1920.41Z" fill="#072A85"/>
<path d="M541.185 1943.9H407.002C403.667 1943.9 400.963 1946.6 400.963 1949.93C400.963 1953.27 403.667 1955.97 407.002 1955.97H541.185C544.52 1955.97 547.223 1953.27 547.223 1949.93C547.223 1946.6 544.52 1943.9 541.185 1943.9Z" fill="#072A85"/>
<path d="M611.966 1968.05H405.995C402.846 1968.05 400.292 1970.6 400.292 1973.75C400.292 1976.9 402.846 1979.45 405.995 1979.45H611.966C615.116 1979.45 617.669 1976.9 617.669 1973.75C617.669 1970.6 615.116 1968.05 611.966 1968.05Z" fill="#072A85"/>
<path d="M655.239 1943.9H596.87C593.535 1943.9 590.832 1946.6 590.832 1949.93C590.832 1953.27 593.535 1955.97 596.87 1955.97H655.239C658.574 1955.97 661.278 1953.27 661.278 1949.93C661.278 1946.6 658.574 1943.9 655.239 1943.9Z" fill="#072A85"/>
<path d="M706.9 1896.93H323.807C320.472 1896.93 317.769 1899.63 317.769 1902.97C317.769 1906.3 320.472 1909.01 323.807 1909.01H706.9C710.235 1909.01 712.938 1906.3 712.938 1902.97C712.938 1899.63 710.235 1896.93 706.9 1896.93Z" fill="#072A85"/>
<path d="M579.762 1803H373.12C369.971 1803 367.417 1805.55 367.417 1808.7C367.417 1811.85 369.971 1814.41 373.12 1814.41H579.762C582.912 1814.41 585.465 1811.85 585.465 1808.7C585.465 1805.55 582.912 1803 579.762 1803Z" fill="#B6B655"/>
<path d="M384.526 1826.48H271.812C268.663 1826.48 266.109 1829.04 266.109 1832.19C266.109 1835.33 268.663 1837.89 271.812 1837.89H384.526C387.676 1837.89 390.229 1835.33 390.229 1832.19C390.229 1829.04 387.676 1826.48 384.526 1826.48Z" fill="#B6B655"/>
<path d="M477.447 1849.97H323.807C320.472 1849.97 317.769 1852.67 317.769 1856C317.769 1859.34 320.472 1862.04 323.807 1862.04H477.447C480.782 1862.04 483.485 1859.34 483.485 1856C483.485 1852.67 480.782 1849.97 477.447 1849.97Z" fill="#B6B655"/>
<path d="M344.271 1803H350.98C354.129 1803 356.683 1805.55 356.683 1808.7C356.683 1811.85 354.129 1814.41 350.98 1814.41H344.271C341.121 1814.41 338.568 1811.85 338.568 1808.7C338.568 1805.55 341.121 1803 344.271 1803Z" fill="#D6D8DB"/>
<path d="M561.312 1943.9H577.414C580.749 1943.9 583.452 1946.6 583.452 1949.93C583.452 1953.27 580.749 1955.97 577.414 1955.97H561.312C557.977 1955.97 555.274 1953.27 555.274 1949.93C555.274 1946.6 557.977 1943.9 561.312 1943.9Z" fill="#D6D8DB"/>
<path d="M91 1197.46C91 1171.8 105.082 1151 122.457 1151H176V2174H122.457C105.082 2174 91 2153.2 91 2127.54V1197.46Z" fill="#1D1D1D"/>
<path d="M332.53 1237.55H210.423C207.088 1237.55 204.385 1240.25 204.385 1243.59C204.385 1246.92 207.088 1249.63 210.423 1249.63H332.53C335.864 1249.63 338.568 1246.92 338.568 1243.59C338.568 1240.25 335.864 1237.55 332.53 1237.55Z" fill="#76001D"/>
<path d="M332.53 1264.39H210.423C207.088 1264.39 204.385 1267.09 204.385 1270.43C204.385 1273.76 207.088 1276.46 210.423 1276.46H332.53C335.864 1276.46 338.568 1273.76 338.568 1270.43C338.568 1267.09 335.864 1264.39 332.53 1264.39Z" fill="#76001D"/>
<path d="M447.256 1237.55H352.656C349.322 1237.55 346.618 1240.25 346.618 1243.59C346.618 1246.92 349.322 1249.63 352.656 1249.63H447.256C450.59 1249.63 453.294 1246.92 453.294 1243.59C453.294 1240.25 450.59 1237.55 447.256 1237.55Z" fill="#1F521F"/>
<path d="M647.86 1237.55H553.26C549.926 1237.55 547.222 1240.25 547.222 1243.59C547.222 1246.92 549.926 1249.63 553.26 1249.63H647.86C651.194 1249.63 653.898 1246.92 653.898 1243.59C653.898 1240.25 651.194 1237.55 647.86 1237.55Z" fill="#242443"/>
<path d="M780.03 1264.39H685.431C682.096 1264.39 679.393 1267.09 679.393 1270.43C679.393 1273.76 682.096 1276.46 685.431 1276.46H780.03C783.365 1276.46 786.068 1273.76 786.068 1270.43C786.068 1267.09 783.365 1264.39 780.03 1264.39Z" fill="#242443"/>
<path d="M579.426 1264.39H356.011C352.677 1264.39 349.973 1267.09 349.973 1270.43C349.973 1273.76 352.677 1276.46 356.011 1276.46H579.426C582.761 1276.46 585.465 1273.76 585.465 1270.43C585.465 1267.09 582.761 1264.39 579.426 1264.39Z" fill="#242443"/>
<path d="M531.791 1237.55H468.725C465.39 1237.55 462.687 1240.25 462.687 1243.59C462.687 1246.92 465.39 1249.63 468.725 1249.63H531.791C535.126 1249.63 537.83 1246.92 537.83 1243.59C537.83 1240.25 535.126 1237.55 531.791 1237.55Z" fill="#76001D"/>
<path d="M386.873 1500.55H323.807C320.472 1500.55 317.769 1503.26 317.769 1506.59C317.769 1509.93 320.472 1512.63 323.807 1512.63H386.873C390.208 1512.63 392.912 1509.93 392.912 1506.59C392.912 1503.26 390.208 1500.55 386.873 1500.55Z" fill="#76001D"/>
<path d="M386.873 1593.14H323.807C320.472 1593.14 317.769 1595.85 317.769 1599.18C317.769 1602.52 320.472 1605.22 323.807 1605.22H386.873C390.208 1605.22 392.912 1602.52 392.912 1599.18C392.912 1595.85 390.208 1593.14 386.873 1593.14Z" fill="#76001D"/>
<path d="M453.63 1612.6H389.893C386.744 1612.6 384.19 1615.15 384.19 1618.3C384.19 1621.45 386.744 1624.01 389.893 1624.01H453.63C456.78 1624.01 459.333 1621.45 459.333 1618.3C459.333 1615.15 456.78 1612.6 453.63 1612.6Z" fill="#76001D"/>
<path d="M663.962 1264.39H600.896C597.561 1264.39 594.857 1267.09 594.857 1270.43C594.857 1273.76 597.561 1276.46 600.896 1276.46H663.962C667.297 1276.46 670 1273.76 670 1270.43C670 1267.09 667.297 1264.39 663.962 1264.39Z" fill="#76001D"/>
<path d="M744 1151H862.58L868.956 1161.8L876 1183.4V2136.5L873 2153.5L868.5 2166.5L864.5 2172L860 2174H744V1151Z" fill="#0C0B0B"/>
<path d="M322.13 1359.66H210.088C206.938 1359.66 204.385 1362.21 204.385 1365.36C204.385 1368.51 206.938 1371.07 210.088 1371.07H322.13C325.28 1371.07 327.833 1368.51 327.833 1365.36C327.833 1362.21 325.28 1359.66 322.13 1359.66Z" fill="#072A85"/>
<path d="M251.013 1383.14H210.088C206.938 1383.14 204.385 1385.7 204.385 1388.85C204.385 1391.99 206.938 1394.55 210.088 1394.55H251.013C254.163 1394.55 256.716 1391.99 256.716 1388.85C256.716 1385.7 254.163 1383.14 251.013 1383.14Z" fill="#072A85"/>
<path d="M306.364 1406.62H210.423C207.088 1406.62 204.385 1409.33 204.385 1412.66C204.385 1416 207.088 1418.7 210.423 1418.7H306.364C309.699 1418.7 312.402 1416 312.402 1412.66C312.402 1409.33 309.699 1406.62 306.364 1406.62Z" fill="#072A85"/>
<path d="M622.365 1430.11H323.807C320.472 1430.11 317.769 1432.81 317.769 1436.15C317.769 1439.48 320.472 1442.18 323.807 1442.18H622.365C625.7 1442.18 628.403 1439.48 628.403 1436.15C628.403 1432.81 625.7 1430.11 622.365 1430.11Z" fill="#072A85"/>
<path d="M579.426 1477.07H323.807C320.472 1477.07 317.769 1479.78 317.769 1483.11C317.769 1486.45 320.472 1489.15 323.807 1489.15H579.426C582.761 1489.15 585.464 1486.45 585.464 1483.11C585.464 1479.78 582.761 1477.07 579.426 1477.07Z" fill="#072A85"/>
<path d="M541.185 1500.55H407.002C403.667 1500.55 400.963 1503.26 400.963 1506.59C400.963 1509.93 403.667 1512.63 407.002 1512.63H541.185C544.52 1512.63 547.223 1509.93 547.223 1506.59C547.223 1503.26 544.52 1500.55 541.185 1500.55Z" fill="#072A85"/>
<path d="M611.966 1524.71H405.995C402.846 1524.71 400.292 1527.26 400.292 1530.41C400.292 1533.56 402.846 1536.11 405.995 1536.11H611.966C615.116 1536.11 617.669 1533.56 617.669 1530.41C617.669 1527.26 615.116 1524.71 611.966 1524.71Z" fill="#072A85"/>
<path d="M655.239 1500.55H596.87C593.535 1500.55 590.832 1503.26 590.832 1506.59C590.832 1509.93 593.535 1512.63 596.87 1512.63H655.239C658.574 1512.63 661.278 1509.93 661.278 1506.59C661.278 1503.26 658.574 1500.55 655.239 1500.55Z" fill="#072A85"/>
<path d="M706.9 1453.59H323.807C320.472 1453.59 317.769 1456.29 317.769 1459.63C317.769 1462.96 320.472 1465.67 323.807 1465.67H706.9C710.235 1465.67 712.938 1462.96 712.938 1459.63C712.938 1456.29 710.235 1453.59 706.9 1453.59Z" fill="#072A85"/>
<path d="M579.426 1728.67H323.807C320.472 1728.67 317.769 1731.38 317.769 1734.71C317.769 1738.05 320.472 1740.75 323.807 1740.75H579.426C582.761 1740.75 585.464 1738.05 585.464 1734.71C585.464 1731.38 582.761 1728.67 579.426 1728.67Z" fill="#072A85"/>
<path d="M655.24 1705.19H323.807C320.472 1705.19 317.769 1707.89 317.769 1711.23C317.769 1714.56 320.472 1717.27 323.807 1717.27H655.24C658.574 1717.27 661.278 1714.56 661.278 1711.23C661.278 1707.89 658.574 1705.19 655.24 1705.19Z" fill="#072A85"/>
<path d="M579.762 1359.66H373.12C369.971 1359.66 367.417 1362.21 367.417 1365.36C367.417 1368.51 369.971 1371.07 373.12 1371.07H579.762C582.912 1371.07 585.465 1368.51 585.465 1365.36C585.465 1362.21 582.912 1359.66 579.762 1359.66Z" fill="#B6B655"/>
<path d="M655.24 1571H532.463C529.128 1571 526.424 1573.71 526.424 1577.04C526.424 1580.38 529.128 1583.08 532.463 1583.08H655.24C658.575 1583.08 661.278 1580.38 661.278 1577.04C661.278 1573.71 658.575 1571 655.24 1571Z" fill="#B6B655"/>
<path d="M384.526 1383.14H271.812C268.663 1383.14 266.109 1385.7 266.109 1388.85C266.109 1391.99 268.663 1394.55 271.812 1394.55H384.526C387.676 1394.55 390.229 1391.99 390.229 1388.85C390.229 1385.7 387.676 1383.14 384.526 1383.14Z" fill="#B6B655"/>
<path d="M518.038 1383.14H405.324C402.175 1383.14 399.622 1385.7 399.622 1388.85C399.622 1391.99 402.175 1394.55 405.324 1394.55H518.038C521.188 1394.55 523.741 1391.99 523.741 1388.85C523.741 1385.7 521.188 1383.14 518.038 1383.14Z" fill="#C46E00"/>
<path d="M251.013 1636.08H210.088C206.938 1636.08 204.385 1638.64 204.385 1641.79C204.385 1644.94 206.938 1647.49 210.088 1647.49H251.013C254.163 1647.49 256.716 1644.94 256.716 1641.79C256.716 1638.64 254.163 1636.08 251.013 1636.08Z" fill="#072A85"/>
<path d="M384.526 1636.08H271.812C268.663 1636.08 266.109 1638.64 266.109 1641.79C266.109 1644.94 268.663 1647.49 271.812 1647.49H384.526C387.676 1647.49 390.229 1644.94 390.229 1641.79C390.229 1638.64 387.676 1636.08 384.526 1636.08Z" fill="#B6B655"/>
<path d="M518.038 1636.08H405.324C402.175 1636.08 399.622 1638.64 399.622 1641.79C399.622 1644.94 402.175 1647.49 405.324 1647.49H518.038C521.188 1647.49 523.741 1644.94 523.741 1641.79C523.741 1638.64 521.188 1636.08 518.038 1636.08Z" fill="#C46E00"/>
<path d="M688.45 1612.6H474.428C471.279 1612.6 468.726 1615.15 468.726 1618.3C468.726 1621.45 471.279 1624.01 474.428 1624.01H688.45C691.6 1624.01 694.153 1621.45 694.153 1618.3C694.153 1615.15 691.6 1612.6 688.45 1612.6Z" fill="#C46E00"/>
<path d="M386.873 1750.81H323.807C320.472 1750.81 317.769 1753.52 317.769 1756.85C317.769 1760.19 320.472 1762.89 323.807 1762.89H386.873C390.208 1762.89 392.912 1760.19 392.912 1756.85C392.912 1753.52 390.208 1750.81 386.873 1750.81Z" fill="#76001D"/>
<path d="M453.63 1770.94H389.893C386.744 1770.94 384.19 1773.49 384.19 1776.64C384.19 1779.79 386.744 1782.35 389.893 1782.35H453.63C456.78 1782.35 459.333 1779.79 459.333 1776.64C459.333 1773.49 456.78 1770.94 453.63 1770.94Z" fill="#76001D"/>
<path d="M643.499 1770.94H474.428C471.279 1770.94 468.726 1773.49 468.726 1776.64C468.726 1779.79 471.279 1782.35 474.428 1782.35H643.499C646.649 1782.35 649.202 1779.79 649.202 1776.64C649.202 1773.49 646.649 1770.94 643.499 1770.94Z" fill="#C46E00"/>
<path d="M477.447 1406.62H323.807C320.472 1406.62 317.769 1409.33 317.769 1412.66C317.769 1416 320.472 1418.7 323.807 1418.7H477.447C480.782 1418.7 483.485 1416 483.485 1412.66C483.485 1409.33 480.782 1406.62 477.447 1406.62Z" fill="#B6B655"/>
<path d="M306.699 1660.24H210.088C206.938 1660.24 204.385 1662.79 204.385 1665.94C204.385 1669.09 206.938 1671.64 210.088 1671.64H306.699C309.849 1671.64 312.402 1669.09 312.402 1665.94C312.402 1662.79 309.849 1660.24 306.699 1660.24Z" fill="#072A85"/>
<path d="M438.534 1683.05H323.807C320.472 1683.05 317.769 1685.75 317.769 1689.09C317.769 1692.42 320.472 1695.13 323.807 1695.13H438.534C441.869 1695.13 444.572 1692.42 444.572 1689.09C444.572 1685.75 441.869 1683.05 438.534 1683.05Z" fill="#072A85"/>
<path d="M569.698 1660.24H323.472C320.322 1660.24 317.769 1662.79 317.769 1665.94C317.769 1669.09 320.322 1671.64 323.472 1671.64H569.698C572.847 1671.64 575.401 1669.09 575.401 1665.94C575.401 1662.79 572.847 1660.24 569.698 1660.24Z" fill="#B6B655"/>
<path d="M344.271 1359.66H350.98C354.129 1359.66 356.683 1362.21 356.683 1365.36C356.683 1368.51 354.129 1371.07 350.98 1371.07H344.271C341.121 1371.07 338.568 1368.51 338.568 1365.36C338.568 1362.21 341.121 1359.66 344.271 1359.66Z" fill="#D6D8DB"/>
<path d="M505.626 1571H511.664C514.999 1571 517.703 1573.71 517.703 1577.04C517.703 1580.38 514.999 1583.08 511.664 1583.08H505.626C502.291 1583.08 499.588 1580.38 499.588 1577.04C499.588 1573.71 502.291 1571 505.626 1571Z" fill="#D6D8DB"/>
<path d="M457.32 1683.05H463.358C466.693 1683.05 469.396 1685.75 469.396 1689.09C469.396 1692.42 466.693 1695.13 463.358 1695.13H457.32C453.985 1695.13 451.282 1692.42 451.282 1689.09C451.282 1685.75 453.985 1683.05 457.32 1683.05Z" fill="#D6D8DB"/>
<path d="M561.312 1500.55H577.414C580.749 1500.55 583.452 1503.26 583.452 1506.59C583.452 1509.93 580.749 1512.63 577.414 1512.63H561.312C557.977 1512.63 555.274 1509.93 555.274 1506.59C555.274 1503.26 557.977 1500.55 561.312 1500.55Z" fill="#D6D8DB"/>
<path d="M426.122 1548.19H323.472C320.322 1548.19 317.769 1550.74 317.769 1553.89C317.769 1557.04 320.322 1559.6 323.472 1559.6H426.122C429.271 1559.6 431.825 1557.04 431.825 1553.89C431.825 1550.74 429.271 1548.19 426.122 1548.19Z" fill="#76001D"/>
<path d="M585.13 1548.19H450.276C447.126 1548.19 444.573 1550.74 444.573 1553.89C444.573 1557.04 447.126 1559.6 450.276 1559.6H585.13C588.279 1559.6 590.832 1557.04 590.832 1553.89C590.832 1550.74 588.279 1548.19 585.13 1548.19Z" fill="#072A85"/>
<path d="M484.828 1571H406.331C402.996 1571 400.292 1573.71 400.292 1577.04C400.292 1580.38 402.996 1583.08 406.331 1583.08H484.828C488.163 1583.08 490.866 1580.38 490.866 1577.04C490.866 1573.71 488.163 1571 484.828 1571Z" fill="#072A85"/>
<path d="M697.172 1548.19H638.131C634.981 1548.19 632.428 1550.74 632.428 1553.89C632.428 1557.04 634.981 1559.6 638.131 1559.6H697.172C700.321 1559.6 702.874 1557.04 702.874 1553.89C702.874 1550.74 700.321 1548.19 697.172 1548.19Z" fill="#072A85"/>
<path d="M546.551 1683.05H488.182C484.847 1683.05 482.144 1685.75 482.144 1689.09C482.144 1692.42 484.847 1695.13 488.182 1695.13H546.551C549.886 1695.13 552.59 1692.42 552.59 1689.09C552.59 1685.75 549.886 1683.05 546.551 1683.05Z" fill="#072A85"/>
<path d="M603.915 1548.19H620.688C623.837 1548.19 626.391 1550.74 626.391 1553.89C626.391 1557.04 623.837 1559.6 620.688 1559.6H603.915C600.765 1559.6 598.212 1557.04 598.212 1553.89C598.212 1550.74 600.765 1548.19 603.915 1548.19Z" fill="#D6D8DB"/>
<path d="M784.055 1257.01H765.27C764.528 1257.01 763.928 1257.61 763.928 1258.35C763.928 1259.09 764.528 1259.69 765.27 1259.69H784.055C784.796 1259.69 785.397 1259.09 785.397 1258.35C785.397 1257.61 784.796 1257.01 784.055 1257.01Z" fill="#27275C"/>
<path d="M783.72 1263.05H765.605C764.679 1263.05 763.928 1263.8 763.928 1264.72C763.928 1265.65 764.679 1266.4 765.605 1266.4H783.72C784.646 1266.4 785.397 1265.65 785.397 1264.72C785.397 1263.8 784.646 1263.05 783.72 1263.05Z" fill="#27275C"/>
<path d="M802.17 1257.01H787.41C786.669 1257.01 786.068 1257.61 786.068 1258.35C786.068 1259.09 786.669 1259.69 787.41 1259.69H802.17C802.911 1259.69 803.512 1259.09 803.512 1258.35C803.512 1257.61 802.911 1257.01 802.17 1257.01Z" fill="#27275C"/>
<path d="M822.633 1263.05H788.416C787.49 1263.05 786.739 1263.8 786.739 1264.72C786.739 1265.65 787.49 1266.4 788.416 1266.4H822.633C823.559 1266.4 824.31 1265.65 824.31 1264.72C824.31 1263.8 823.559 1263.05 822.633 1263.05Z" fill="#27275C"/>
<path d="M792.106 1318.06H783.384C782.643 1318.06 782.042 1318.66 782.042 1319.4C782.042 1320.14 782.643 1320.75 783.384 1320.75H792.106C792.847 1320.75 793.448 1320.14 793.448 1319.4C793.448 1318.66 792.847 1318.06 792.106 1318.06Z" fill="#27275C"/>
<path d="M792.106 1339.53H783.384C782.643 1339.53 782.042 1340.13 782.042 1340.87C782.042 1341.61 782.643 1342.21 783.384 1342.21H792.106C792.847 1342.21 793.448 1341.61 793.448 1340.87C793.448 1340.13 792.847 1339.53 792.106 1339.53Z" fill="#27275C"/>
<path d="M802.506 1343.56H793.784C792.857 1343.56 792.106 1344.31 792.106 1345.23C792.106 1346.16 792.857 1346.91 793.784 1346.91H802.506C803.432 1346.91 804.183 1346.16 804.183 1345.23C804.183 1344.31 803.432 1343.56 802.506 1343.56Z" fill="#27275C"/>
<path d="M782.042 1285.19H765.27C764.528 1285.19 763.928 1285.79 763.928 1286.53C763.928 1287.27 764.528 1287.87 765.27 1287.87H782.042C782.784 1287.87 783.384 1287.27 783.384 1286.53C783.384 1285.79 782.784 1285.19 782.042 1285.19Z" fill="#27275C"/>
<path d="M770.637 1290.55H765.27C764.528 1290.55 763.928 1291.15 763.928 1291.9C763.928 1292.64 764.528 1293.24 765.27 1293.24H770.637C771.378 1293.24 771.979 1292.64 771.979 1291.9C771.979 1291.15 771.378 1290.55 770.637 1290.55Z" fill="#27275C"/>
<path d="M779.023 1295.92H765.605C764.679 1295.92 763.928 1296.67 763.928 1297.6C763.928 1298.52 764.679 1299.28 765.605 1299.28H779.023C779.95 1299.28 780.701 1298.52 780.701 1297.6C780.701 1296.67 779.95 1295.92 779.023 1295.92Z" fill="#27275C"/>
<path d="M829.342 1301.29H783.72C782.793 1301.29 782.042 1302.04 782.042 1302.97C782.042 1303.89 782.793 1304.64 783.72 1304.64H829.342C830.268 1304.64 831.019 1303.89 831.019 1302.97C831.019 1302.04 830.268 1301.29 829.342 1301.29Z" fill="#27275C"/>
<path d="M822.968 1312.69H783.384C782.643 1312.69 782.042 1313.29 782.042 1314.04C782.042 1314.78 782.643 1315.38 783.384 1315.38H822.968C823.709 1315.38 824.31 1314.78 824.31 1314.04C824.31 1313.29 823.709 1312.69 822.968 1312.69Z" fill="#27275C"/>
<path d="M816.93 1318.06H796.132C795.391 1318.06 794.79 1318.66 794.79 1319.4C794.79 1320.14 795.391 1320.75 796.132 1320.75H816.93C817.671 1320.75 818.272 1320.14 818.272 1319.4C818.272 1318.66 817.671 1318.06 816.93 1318.06Z" fill="#27275C"/>
<path d="M827.665 1323.43H796.132C795.391 1323.43 794.79 1324.03 794.79 1324.77C794.79 1325.51 795.391 1326.11 796.132 1326.11H827.665C828.406 1326.11 829.007 1325.51 829.007 1324.77C829.007 1324.03 828.406 1323.43 827.665 1323.43Z" fill="#27275C"/>
<path d="M842.76 1306.66H783.72C782.793 1306.66 782.042 1307.41 782.042 1308.33C782.042 1309.26 782.793 1310.01 783.72 1310.01H842.76C843.687 1310.01 844.438 1309.26 844.438 1308.33C844.438 1307.41 843.687 1306.66 842.76 1306.66Z" fill="#27275C"/>
<path d="M822.633 1370.39H783.72C782.793 1370.39 782.042 1371.15 782.042 1372.07C782.042 1373 782.793 1373.75 783.72 1373.75H822.633C823.559 1373.75 824.31 1373 824.31 1372.07C824.31 1371.15 823.559 1370.39 822.633 1370.39Z" fill="#27275C"/>
<path d="M834.709 1365.03H783.72C782.793 1365.03 782.042 1365.78 782.042 1366.7C782.042 1367.63 782.793 1368.38 783.72 1368.38H834.709C835.636 1368.38 836.387 1367.63 836.387 1366.7C836.387 1365.78 835.636 1365.03 834.709 1365.03Z" fill="#27275C"/>
<path d="M822.968 1285.19H790.764C790.023 1285.19 789.422 1285.79 789.422 1286.53C789.422 1287.27 790.023 1287.87 790.764 1287.87H822.968C823.709 1287.87 824.31 1287.27 824.31 1286.53C824.31 1285.79 823.709 1285.19 822.968 1285.19Z" fill="#27275C"/>
<path d="M792.106 1290.55H775.333C774.592 1290.55 773.991 1291.15 773.991 1291.9C773.991 1292.64 774.592 1293.24 775.333 1293.24H792.106C792.847 1293.24 793.448 1292.64 793.448 1291.9C793.448 1291.15 792.847 1290.55 792.106 1290.55Z" fill="#27275C"/>
<path d="M812.905 1290.55H796.132C795.391 1290.55 794.79 1291.15 794.79 1291.9C794.79 1292.64 795.391 1293.24 796.132 1293.24H812.905C813.646 1293.24 814.247 1292.64 814.247 1291.9C814.247 1291.15 813.646 1290.55 812.905 1290.55Z" fill="#27275C"/>
<path d="M770.637 1349.6H765.27C764.528 1349.6 763.928 1350.2 763.928 1350.94C763.928 1351.68 764.528 1352.28 765.27 1352.28H770.637C771.378 1352.28 771.979 1351.68 771.979 1350.94C771.979 1350.2 771.378 1349.6 770.637 1349.6Z" fill="#27275C"/>
<path d="M792.106 1349.6H775.333C774.592 1349.6 773.991 1350.2 773.991 1350.94C773.991 1351.68 774.592 1352.28 775.333 1352.28H792.106C792.847 1352.28 793.448 1351.68 793.448 1350.94C793.448 1350.2 792.847 1349.6 792.106 1349.6Z" fill="#27275C"/>
<path d="M812.905 1349.6H796.132C795.391 1349.6 794.79 1350.2 794.79 1350.94C794.79 1351.68 795.391 1352.28 796.132 1352.28H812.905C813.646 1352.28 814.247 1351.68 814.247 1350.94C814.247 1350.2 813.646 1349.6 812.905 1349.6Z" fill="#27275C"/>
<path d="M792.106 1375.76H783.384C782.643 1375.76 782.042 1376.36 782.042 1377.1C782.042 1377.84 782.643 1378.45 783.384 1378.45H792.106C792.847 1378.45 793.448 1377.84 793.448 1377.1C793.448 1376.36 792.847 1375.76 792.106 1375.76Z" fill="#27275C"/>
<path d="M802.841 1380.46H793.448C792.707 1380.46 792.106 1381.06 792.106 1381.8C792.106 1382.54 792.707 1383.14 793.448 1383.14H802.841C803.582 1383.14 804.183 1382.54 804.183 1381.8C804.183 1381.06 803.582 1380.46 802.841 1380.46Z" fill="#27275C"/>
<path d="M806.531 1295.92H783.72C782.793 1295.92 782.042 1296.67 782.042 1297.6C782.042 1298.52 782.793 1299.28 783.72 1299.28H806.531C807.457 1299.28 808.208 1298.52 808.208 1297.6C808.208 1296.67 807.457 1295.92 806.531 1295.92Z" fill="#27275C"/>
<path d="M779.359 1354.96H765.27C764.528 1354.96 763.928 1355.56 763.928 1356.3C763.928 1357.05 764.528 1357.65 765.27 1357.65H779.359C780.1 1357.65 780.701 1357.05 780.701 1356.3C780.701 1355.56 780.1 1354.96 779.359 1354.96Z" fill="#27275C"/>
<path d="M800.828 1360.33H783.384C782.643 1360.33 782.042 1360.93 782.042 1361.67C782.042 1362.41 782.643 1363.01 783.384 1363.01H800.828C801.569 1363.01 802.17 1362.41 802.17 1361.67C802.17 1360.93 801.569 1360.33 800.828 1360.33Z" fill="#27275C"/>
<path d="M820.956 1354.96H783.384C782.643 1354.96 782.042 1355.56 782.042 1356.3C782.042 1357.05 782.643 1357.65 783.384 1357.65H820.956C821.697 1357.65 822.297 1357.05 822.297 1356.3C822.297 1355.56 821.697 1354.96 820.956 1354.96Z" fill="#27275C"/>
<path d="M785.397 1286.53C785.397 1285.79 785.998 1285.19 786.739 1285.19C787.48 1285.19 788.081 1285.79 788.081 1286.53C788.081 1287.27 787.48 1287.87 786.739 1287.87C785.998 1287.87 785.397 1287.27 785.397 1286.53Z" fill="#27275C"/>
<path d="M798.815 1328.8H783.384C782.643 1328.8 782.042 1329.4 782.042 1330.14C782.042 1330.88 782.643 1331.48 783.384 1331.48H798.815C799.556 1331.48 800.157 1330.88 800.157 1330.14C800.157 1329.4 799.556 1328.8 798.815 1328.8Z" fill="#27275C"/>
<path d="M823.639 1328.8H803.511C802.77 1328.8 802.169 1329.4 802.169 1330.14C802.169 1330.88 802.77 1331.48 803.511 1331.48H823.639C824.38 1331.48 824.981 1330.88 824.981 1330.14C824.981 1329.4 824.38 1328.8 823.639 1328.8Z" fill="#27275C"/>
<path d="M807.537 1334.16H796.132C795.391 1334.16 794.79 1334.76 794.79 1335.51C794.79 1336.25 795.391 1336.85 796.132 1336.85H807.537C808.279 1336.85 808.879 1336.25 808.879 1335.51C808.879 1334.76 808.279 1334.16 807.537 1334.16Z" fill="#27275C"/>
<path d="M781.372 1519.34H762.586C761.845 1519.34 761.245 1519.94 761.245 1520.68C761.245 1521.42 761.845 1522.03 762.586 1522.03H781.372C782.113 1522.03 782.714 1521.42 782.714 1520.68C782.714 1519.94 782.113 1519.34 781.372 1519.34Z" fill="#27275C"/>
<path d="M781.037 1525.38H762.922C761.996 1525.38 761.245 1526.13 761.245 1527.06C761.245 1527.98 761.996 1528.73 762.922 1528.73H781.037C781.963 1528.73 782.714 1527.98 782.714 1527.06C782.714 1526.13 781.963 1525.38 781.037 1525.38Z" fill="#27275C"/>
<path d="M799.487 1519.34H784.727C783.986 1519.34 783.385 1519.94 783.385 1520.68C783.385 1521.42 783.986 1522.03 784.727 1522.03H799.487C800.228 1522.03 800.829 1521.42 800.829 1520.68C800.829 1519.94 800.228 1519.34 799.487 1519.34Z" fill="#27275C"/>
<path d="M819.951 1525.38H785.734C784.808 1525.38 784.057 1526.13 784.057 1527.06C784.057 1527.98 784.808 1528.73 785.734 1528.73H819.951C820.877 1528.73 821.628 1527.98 821.628 1527.06C821.628 1526.13 820.877 1525.38 819.951 1525.38Z" fill="#27275C"/>
<path d="M812.904 1519.34H803.511C802.77 1519.34 802.169 1519.94 802.169 1520.68C802.169 1521.42 802.77 1522.03 803.511 1522.03H812.904C813.645 1522.03 814.246 1521.42 814.246 1520.68C814.246 1519.94 813.645 1519.34 812.904 1519.34Z" fill="#27275C"/>
<path d="M789.423 1580.4H780.701C779.96 1580.4 779.359 1581 779.359 1581.74C779.359 1582.48 779.96 1583.08 780.701 1583.08H789.423C790.164 1583.08 790.764 1582.48 790.764 1581.74C790.764 1581 790.164 1580.4 789.423 1580.4Z" fill="#27275C"/>
<path d="M789.423 1601.87H780.701C779.96 1601.87 779.359 1602.47 779.359 1603.21C779.359 1603.95 779.96 1604.55 780.701 1604.55H789.423C790.164 1604.55 790.764 1603.95 790.764 1603.21C790.764 1602.47 790.164 1601.87 789.423 1601.87Z" fill="#27275C"/>
<path d="M799.822 1605.89H791.1C790.173 1605.89 789.422 1606.64 789.422 1607.57C789.422 1608.5 790.173 1609.25 791.1 1609.25H799.822C800.748 1609.25 801.499 1608.5 801.499 1607.57C801.499 1606.64 800.748 1605.89 799.822 1605.89Z" fill="#27275C"/>
<path d="M779.359 1547.52H762.586C761.845 1547.52 761.245 1548.12 761.245 1548.86C761.245 1549.6 761.845 1550.2 762.586 1550.2H779.359C780.1 1550.2 780.701 1549.6 780.701 1548.86C780.701 1548.12 780.1 1547.52 779.359 1547.52Z" fill="#27275C"/>
<path d="M767.954 1552.89H762.586C761.845 1552.89 761.245 1553.49 761.245 1554.23C761.245 1554.97 761.845 1555.57 762.586 1555.57H767.954C768.695 1555.57 769.296 1554.97 769.296 1554.23C769.296 1553.49 768.695 1552.89 767.954 1552.89Z" fill="#27275C"/>
<path d="M776.34 1558.26H762.922C761.996 1558.26 761.245 1559.01 761.245 1559.93C761.245 1560.86 761.996 1561.61 762.922 1561.61H776.34C777.267 1561.61 778.018 1560.86 778.018 1559.93C778.018 1559.01 777.267 1558.26 776.34 1558.26Z" fill="#27275C"/>
<path d="M826.658 1563.62H781.036C780.11 1563.62 779.359 1564.37 779.359 1565.3C779.359 1566.23 780.11 1566.98 781.036 1566.98H826.658C827.585 1566.98 828.336 1566.23 828.336 1565.3C828.336 1564.37 827.585 1563.62 826.658 1563.62Z" fill="#27275C"/>
<path d="M820.285 1575.03H780.701C779.96 1575.03 779.359 1575.63 779.359 1576.37C779.359 1577.11 779.96 1577.71 780.701 1577.71H820.285C821.026 1577.71 821.627 1577.11 821.627 1576.37C821.627 1575.63 821.026 1575.03 820.285 1575.03Z" fill="#27275C"/>
<path d="M814.247 1580.4H793.448C792.707 1580.4 792.106 1581 792.106 1581.74C792.106 1582.48 792.707 1583.08 793.448 1583.08H814.247C814.988 1583.08 815.588 1582.48 815.588 1581.74C815.588 1581 814.988 1580.4 814.247 1580.4Z" fill="#27275C"/>
<path d="M824.981 1585.76H793.448C792.707 1585.76 792.106 1586.36 792.106 1587.11C792.106 1587.85 792.707 1588.45 793.448 1588.45H824.981C825.722 1588.45 826.323 1587.85 826.323 1587.11C826.323 1586.36 825.722 1585.76 824.981 1585.76Z" fill="#27275C"/>
<path d="M840.077 1568.99H781.036C780.11 1568.99 779.359 1569.74 779.359 1570.67C779.359 1571.59 780.11 1572.34 781.036 1572.34H840.077C841.003 1572.34 841.754 1571.59 841.754 1570.67C841.754 1569.74 841.003 1568.99 840.077 1568.99Z" fill="#27275C"/>
<path d="M819.949 1632.73H781.036C780.11 1632.73 779.359 1633.48 779.359 1634.41C779.359 1635.33 780.11 1636.08 781.036 1636.08H819.949C820.876 1636.08 821.627 1635.33 821.627 1634.41C821.627 1633.48 820.876 1632.73 819.949 1632.73Z" fill="#27275C"/>
<path d="M832.026 1627.36H781.036C780.11 1627.36 779.359 1628.11 779.359 1629.04C779.359 1629.96 780.11 1630.72 781.036 1630.72H832.026C832.952 1630.72 833.703 1629.96 833.703 1629.04C833.703 1628.11 832.952 1627.36 832.026 1627.36Z" fill="#27275C"/>
<path d="M820.285 1547.52H788.081C787.34 1547.52 786.739 1548.12 786.739 1548.86C786.739 1549.6 787.34 1550.2 788.081 1550.2H820.285C821.026 1550.2 821.626 1549.6 821.626 1548.86C821.626 1548.12 821.026 1547.52 820.285 1547.52Z" fill="#27275C"/>
<path d="M789.423 1552.89H772.65C771.909 1552.89 771.309 1553.49 771.309 1554.23C771.309 1554.97 771.909 1555.57 772.65 1555.57H789.423C790.164 1555.57 790.765 1554.97 790.765 1554.23C790.765 1553.49 790.164 1552.89 789.423 1552.89Z" fill="#27275C"/>
<path d="M810.221 1552.89H793.448C792.707 1552.89 792.106 1553.49 792.106 1554.23C792.106 1554.97 792.707 1555.57 793.448 1555.57H810.221C810.962 1555.57 811.563 1554.97 811.563 1554.23C811.563 1553.49 810.962 1552.89 810.221 1552.89Z" fill="#27275C"/>
<path d="M767.954 1611.93H762.586C761.845 1611.93 761.245 1612.53 761.245 1613.27C761.245 1614.01 761.845 1614.61 762.586 1614.61H767.954C768.695 1614.61 769.296 1614.01 769.296 1613.27C769.296 1612.53 768.695 1611.93 767.954 1611.93Z" fill="#27275C"/>
<path d="M789.423 1611.93H772.65C771.909 1611.93 771.309 1612.53 771.309 1613.27C771.309 1614.01 771.909 1614.61 772.65 1614.61H789.423C790.164 1614.61 790.765 1614.01 790.765 1613.27C790.765 1612.53 790.164 1611.93 789.423 1611.93Z" fill="#27275C"/>
<path d="M810.221 1611.93H793.448C792.707 1611.93 792.106 1612.53 792.106 1613.27C792.106 1614.01 792.707 1614.61 793.448 1614.61H810.221C810.962 1614.61 811.563 1614.01 811.563 1613.27C811.563 1612.53 810.962 1611.93 810.221 1611.93Z" fill="#27275C"/>
<path d="M789.423 1638.1H780.701C779.96 1638.1 779.359 1638.7 779.359 1639.44C779.359 1640.18 779.96 1640.78 780.701 1640.78H789.423C790.164 1640.78 790.764 1640.18 790.764 1639.44C790.764 1638.7 790.164 1638.1 789.423 1638.1Z" fill="#27275C"/>
<path d="M800.157 1642.79H790.764C790.023 1642.79 789.422 1643.39 789.422 1644.13C789.422 1644.88 790.023 1645.48 790.764 1645.48H800.157C800.898 1645.48 801.499 1644.88 801.499 1644.13C801.499 1643.39 800.898 1642.79 800.157 1642.79Z" fill="#27275C"/>
<path d="M803.847 1558.26H781.036C780.11 1558.26 779.359 1559.01 779.359 1559.93C779.359 1560.86 780.11 1561.61 781.036 1561.61H803.847C804.774 1561.61 805.525 1560.86 805.525 1559.93C805.525 1559.01 804.774 1558.26 803.847 1558.26Z" fill="#27275C"/>
<path d="M776.676 1617.3H762.586C761.845 1617.3 761.245 1617.9 761.245 1618.64C761.245 1619.38 761.845 1619.98 762.586 1619.98H776.676C777.417 1619.98 778.018 1619.38 778.018 1618.64C778.018 1617.9 777.417 1617.3 776.676 1617.3Z" fill="#27275C"/>
<path d="M798.145 1622.66H780.701C779.96 1622.66 779.359 1623.27 779.359 1624.01C779.359 1624.75 779.96 1625.35 780.701 1625.35H798.145C798.886 1625.35 799.486 1624.75 799.486 1624.01C799.486 1623.27 798.886 1622.66 798.145 1622.66Z" fill="#27275C"/>
<path d="M818.272 1617.3H780.701C779.96 1617.3 779.359 1617.9 779.359 1618.64C779.359 1619.38 779.96 1619.98 780.701 1619.98H818.272C819.013 1619.98 819.614 1619.38 819.614 1618.64C819.614 1617.9 819.013 1617.3 818.272 1617.3Z" fill="#27275C"/>
<path d="M782.714 1548.86C782.714 1548.12 783.315 1547.52 784.056 1547.52C784.797 1547.52 785.397 1548.12 785.397 1548.86C785.397 1549.6 784.797 1550.2 784.056 1550.2C783.315 1550.2 782.714 1549.6 782.714 1548.86Z" fill="#27275C"/>
<path d="M800.157 1624.01C800.157 1623.27 800.757 1622.66 801.499 1622.66C802.24 1622.66 802.84 1623.27 802.84 1624.01C802.84 1624.75 802.24 1625.35 801.499 1625.35C800.757 1625.35 800.157 1624.75 800.157 1624.01Z" fill="#27275C"/>
<path d="M796.132 1591.13H780.701C779.96 1591.13 779.359 1591.73 779.359 1592.47C779.359 1593.21 779.96 1593.81 780.701 1593.81H796.132C796.873 1593.81 797.474 1593.21 797.474 1592.47C797.474 1591.73 796.873 1591.13 796.132 1591.13Z" fill="#27275C"/>
<path d="M820.957 1591.13H800.829C800.088 1591.13 799.487 1591.73 799.487 1592.47C799.487 1593.21 800.088 1593.81 800.829 1593.81H820.957C821.698 1593.81 822.298 1593.21 822.298 1592.47C822.298 1591.73 821.698 1591.13 820.957 1591.13Z" fill="#27275C"/>
<path d="M804.854 1596.5H793.448C792.707 1596.5 792.106 1597.1 792.106 1597.84C792.106 1598.58 792.707 1599.18 793.448 1599.18H804.854C805.595 1599.18 806.196 1598.58 806.196 1597.84C806.196 1597.1 805.595 1596.5 804.854 1596.5Z" fill="#27275C"/>
<path d="M783.384 1386.5H764.599C763.858 1386.5 763.257 1387.1 763.257 1387.84C763.257 1388.58 763.858 1389.18 764.599 1389.18H783.384C784.125 1389.18 784.726 1388.58 784.726 1387.84C784.726 1387.1 784.125 1386.5 783.384 1386.5Z" fill="#27275C"/>
<path d="M783.049 1392.53H764.934C764.008 1392.53 763.257 1393.29 763.257 1394.21C763.257 1395.14 764.008 1395.89 764.934 1395.89H783.049C783.975 1395.89 784.726 1395.14 784.726 1394.21C784.726 1393.29 783.975 1392.53 783.049 1392.53Z" fill="#27275C"/>
<path d="M801.499 1386.5H786.739C785.998 1386.5 785.397 1387.1 785.397 1387.84C785.397 1388.58 785.998 1389.18 786.739 1389.18H801.499C802.241 1389.18 802.841 1388.58 802.841 1387.84C802.841 1387.1 802.241 1386.5 801.499 1386.5Z" fill="#27275C"/>
<path d="M821.962 1392.53H787.746C786.819 1392.53 786.068 1393.29 786.068 1394.21C786.068 1395.14 786.819 1395.89 787.746 1395.89H821.962C822.889 1395.89 823.64 1395.14 823.64 1394.21C823.64 1393.29 822.889 1392.53 821.962 1392.53Z" fill="#27275C"/>
<path d="M791.435 1447.55H782.713C781.972 1447.55 781.372 1448.15 781.372 1448.89C781.372 1449.63 781.972 1450.24 782.713 1450.24H791.435C792.176 1450.24 792.777 1449.63 792.777 1448.89C792.777 1448.15 792.176 1447.55 791.435 1447.55Z" fill="#27275C"/>
<path d="M791.435 1469.02H782.713C781.972 1469.02 781.372 1469.62 781.372 1470.36C781.372 1471.1 781.972 1471.7 782.713 1471.7H791.435C792.176 1471.7 792.777 1471.1 792.777 1470.36C792.777 1469.62 792.176 1469.02 791.435 1469.02Z" fill="#27275C"/>
<path d="M801.834 1473.05H793.112C792.186 1473.05 791.435 1473.8 791.435 1474.72C791.435 1475.65 792.186 1476.4 793.112 1476.4H801.834C802.761 1476.4 803.512 1475.65 803.512 1474.72C803.512 1473.8 802.761 1473.05 801.834 1473.05Z" fill="#27275C"/>
<path d="M781.372 1414.68H764.599C763.858 1414.68 763.257 1415.28 763.257 1416.02C763.257 1416.76 763.858 1417.36 764.599 1417.36H781.372C782.113 1417.36 782.713 1416.76 782.713 1416.02C782.713 1415.28 782.113 1414.68 781.372 1414.68Z" fill="#27275C"/>
<path d="M769.966 1420.04H764.599C763.858 1420.04 763.257 1420.64 763.257 1421.39C763.257 1422.13 763.858 1422.73 764.599 1422.73H769.966C770.707 1422.73 771.308 1422.13 771.308 1421.39C771.308 1420.64 770.707 1420.04 769.966 1420.04Z" fill="#27275C"/>
<path d="M778.352 1425.41H764.934C764.008 1425.41 763.257 1426.16 763.257 1427.09C763.257 1428.01 764.008 1428.77 764.934 1428.77H778.352C779.279 1428.77 780.03 1428.01 780.03 1427.09C780.03 1426.16 779.279 1425.41 778.352 1425.41Z" fill="#27275C"/>
<path d="M828.671 1430.78H783.049C782.123 1430.78 781.372 1431.53 781.372 1432.46C781.372 1433.38 782.123 1434.13 783.049 1434.13H828.671C829.597 1434.13 830.348 1433.38 830.348 1432.46C830.348 1431.53 829.597 1430.78 828.671 1430.78Z" fill="#27275C"/>
<path d="M822.297 1442.18H782.713C781.972 1442.18 781.372 1442.78 781.372 1443.53C781.372 1444.27 781.972 1444.87 782.713 1444.87H822.297C823.039 1444.87 823.639 1444.27 823.639 1443.53C823.639 1442.78 823.039 1442.18 822.297 1442.18Z" fill="#27275C"/>
<path d="M816.26 1447.55H795.461C794.72 1447.55 794.12 1448.15 794.12 1448.89C794.12 1449.63 794.72 1450.24 795.461 1450.24H816.26C817.001 1450.24 817.602 1449.63 817.602 1448.89C817.602 1448.15 817.001 1447.55 816.26 1447.55Z" fill="#27275C"/>
<path d="M826.994 1452.92H795.461C794.72 1452.92 794.12 1453.52 794.12 1454.26C794.12 1455 794.72 1455.6 795.461 1455.6H826.994C827.736 1455.6 828.336 1455 828.336 1454.26C828.336 1453.52 827.736 1452.92 826.994 1452.92Z" fill="#27275C"/>
<path d="M842.089 1436.15H783.049C782.123 1436.15 781.372 1436.9 781.372 1437.82C781.372 1438.75 782.123 1439.5 783.049 1439.5H842.089C843.016 1439.5 843.767 1438.75 843.767 1437.82C843.767 1436.9 843.016 1436.15 842.089 1436.15Z" fill="#27275C"/>
<path d="M821.962 1499.88H783.049C782.123 1499.88 781.372 1500.63 781.372 1501.56C781.372 1502.49 782.123 1503.24 783.049 1503.24H821.962C822.888 1503.24 823.639 1502.49 823.639 1501.56C823.639 1500.63 822.888 1499.88 821.962 1499.88Z" fill="#27275C"/>
<path d="M834.038 1494.52H783.049C782.123 1494.52 781.372 1495.27 781.372 1496.19C781.372 1497.12 782.123 1497.87 783.049 1497.87H834.038C834.965 1497.87 835.716 1497.12 835.716 1496.19C835.716 1495.27 834.965 1494.52 834.038 1494.52Z" fill="#27275C"/>
<path d="M822.298 1414.68H790.094C789.353 1414.68 788.752 1415.28 788.752 1416.02C788.752 1416.76 789.353 1417.36 790.094 1417.36H822.298C823.039 1417.36 823.64 1416.76 823.64 1416.02C823.64 1415.28 823.039 1414.68 822.298 1414.68Z" fill="#27275C"/>
<path d="M791.436 1420.04H774.663C773.922 1420.04 773.321 1420.64 773.321 1421.39C773.321 1422.13 773.922 1422.73 774.663 1422.73H791.436C792.177 1422.73 792.778 1422.13 792.778 1421.39C792.778 1420.64 792.177 1420.04 791.436 1420.04Z" fill="#27275C"/>
<path d="M812.234 1420.04H795.461C794.72 1420.04 794.12 1420.64 794.12 1421.39C794.12 1422.13 794.72 1422.73 795.461 1422.73H812.234C812.975 1422.73 813.576 1422.13 813.576 1421.39C813.576 1420.64 812.975 1420.04 812.234 1420.04Z" fill="#27275C"/>
<path d="M769.966 1479.09H764.599C763.858 1479.09 763.257 1479.69 763.257 1480.43C763.257 1481.17 763.858 1481.77 764.599 1481.77H769.966C770.707 1481.77 771.308 1481.17 771.308 1480.43C771.308 1479.69 770.707 1479.09 769.966 1479.09Z" fill="#27275C"/>
<path d="M791.436 1479.09H774.663C773.922 1479.09 773.321 1479.69 773.321 1480.43C773.321 1481.17 773.922 1481.77 774.663 1481.77H791.436C792.177 1481.77 792.778 1481.17 792.778 1480.43C792.778 1479.69 792.177 1479.09 791.436 1479.09Z" fill="#27275C"/>
<path d="M812.234 1479.09H795.461C794.72 1479.09 794.12 1479.69 794.12 1480.43C794.12 1481.17 794.72 1481.77 795.461 1481.77H812.234C812.975 1481.77 813.576 1481.17 813.576 1480.43C813.576 1479.69 812.975 1479.09 812.234 1479.09Z" fill="#27275C"/>
<path d="M791.435 1505.25H782.713C781.972 1505.25 781.372 1505.85 781.372 1506.59C781.372 1507.33 781.972 1507.94 782.713 1507.94H791.435C792.176 1507.94 792.777 1507.33 792.777 1506.59C792.777 1505.85 792.176 1505.25 791.435 1505.25Z" fill="#27275C"/>
<path d="M802.17 1509.95H792.777C792.036 1509.95 791.435 1510.55 791.435 1511.29C791.435 1512.03 792.036 1512.63 792.777 1512.63H802.17C802.911 1512.63 803.512 1512.03 803.512 1511.29C803.512 1510.55 802.911 1509.95 802.17 1509.95Z" fill="#27275C"/>
<path d="M805.86 1425.41H783.049C782.123 1425.41 781.372 1426.16 781.372 1427.09C781.372 1428.01 782.123 1428.77 783.049 1428.77H805.86C806.786 1428.77 807.537 1428.01 807.537 1427.09C807.537 1426.16 806.786 1425.41 805.86 1425.41Z" fill="#27275C"/>
<path d="M778.688 1484.45H764.599C763.858 1484.45 763.257 1485.05 763.257 1485.79C763.257 1486.54 763.858 1487.14 764.599 1487.14H778.688C779.429 1487.14 780.03 1486.54 780.03 1485.79C780.03 1485.05 779.429 1484.45 778.688 1484.45Z" fill="#27275C"/>
<path d="M800.157 1489.82H782.713C781.972 1489.82 781.372 1490.42 781.372 1491.16C781.372 1491.9 781.972 1492.5 782.713 1492.5H800.157C800.898 1492.5 801.499 1491.9 801.499 1491.16C801.499 1490.42 800.898 1489.82 800.157 1489.82Z" fill="#27275C"/>
<path d="M820.285 1484.45H782.713C781.972 1484.45 781.372 1485.05 781.372 1485.79C781.372 1486.54 781.972 1487.14 782.713 1487.14H820.285C821.026 1487.14 821.627 1486.54 821.627 1485.79C821.627 1485.05 821.026 1484.45 820.285 1484.45Z" fill="#27275C"/>
<path d="M784.726 1416.02C784.726 1415.28 785.327 1414.68 786.068 1414.68C786.809 1414.68 787.41 1415.28 787.41 1416.02C787.41 1416.76 786.809 1417.36 786.068 1417.36C785.327 1417.36 784.726 1416.76 784.726 1416.02Z" fill="#27275C"/>
<path d="M802.17 1491.16C802.17 1490.42 802.771 1489.82 803.512 1489.82C804.253 1489.82 804.854 1490.42 804.854 1491.16C804.854 1491.9 804.253 1492.5 803.512 1492.5C802.771 1492.5 802.17 1491.9 802.17 1491.16Z" fill="#27275C"/>
<path d="M798.144 1458.29H782.713C781.972 1458.29 781.372 1458.89 781.372 1459.63C781.372 1460.37 781.972 1460.97 782.713 1460.97H798.144C798.886 1460.97 799.486 1460.37 799.486 1459.63C799.486 1458.89 798.886 1458.29 798.144 1458.29Z" fill="#27275C"/>
<path d="M822.969 1458.29H802.841C802.1 1458.29 801.5 1458.89 801.5 1459.63C801.5 1460.37 802.1 1460.97 802.841 1460.97H822.969C823.71 1460.97 824.311 1460.37 824.311 1459.63C824.311 1458.89 823.71 1458.29 822.969 1458.29Z" fill="#27275C"/>
<path d="M806.867 1463.65H795.461C794.72 1463.65 794.12 1464.25 794.12 1465C794.12 1465.74 794.72 1466.34 795.461 1466.34H806.867C807.608 1466.34 808.209 1465.74 808.209 1465C808.209 1464.25 807.608 1463.65 806.867 1463.65Z" fill="#27275C"/>
<path d="M91 1182.7C91 1165.19 98.7631 1151 108.342 1151H858.454C868.033 1151 875.796 1165.19 875.796 1182.7V1198.89H91V1182.7Z" fill="#161616"/>
<path d="M120.911 1183.72C125.555 1183.72 129.32 1180.11 129.32 1175.67C129.32 1171.22 125.555 1167.61 120.911 1167.61C116.266 1167.61 112.501 1171.22 112.501 1175.67C112.501 1180.11 116.266 1183.72 120.911 1183.72Z" fill="#FF0000"/>
<path d="M167.827 1183.72C172.471 1183.72 176.236 1180.11 176.236 1175.67C176.236 1171.22 172.471 1167.61 167.827 1167.61C163.182 1167.61 159.417 1171.22 159.417 1175.67C159.417 1180.11 163.182 1183.72 167.827 1183.72Z" fill="#255425"/>
<path d="M144.368 1183.72C149.257 1183.72 153.221 1180.11 153.221 1175.67C153.221 1171.22 149.257 1167.61 144.368 1167.61C139.479 1167.61 135.516 1171.22 135.516 1175.67C135.516 1180.11 139.479 1183.72 144.368 1183.72Z" fill="#B9B90C"/>
<path d="M1020.17 2173.44C1019.81 2182.18 1012.46 2188.76 1003.73 2188.11L921.137 2182.08L838.535 2176.04C829.806 2175.39 823.015 2167.79 823.364 2159.05L834.262 1885.76C834.514 1879.43 838.503 1873.99 844.407 1871.91L928.424 1842.42C932.472 1841 936.979 1841.33 940.891 1843.33L1022.07 1884.91C1027.78 1887.83 1031.31 1893.83 1031.06 1900.15L1020.17 2173.44Z" fill="white"/>
<path d="M940.04 1845.09L1021.22 1886.67C1026.21 1889.23 1029.31 1894.47 1029.09 1900.01L1018.19 2173.3C1017.89 2180.95 1011.45 2186.69 1003.81 2186.13L921.214 2180.1L838.612 2174.05C830.976 2173.49 825.037 2166.85 825.337 2159.19L836.236 1885.9C836.456 1880.37 839.948 1875.6 845.113 1873.79L929.13 1844.3C932.673 1843.05 936.616 1843.34 940.04 1845.09Z" stroke="black" stroke-opacity="0.38" stroke-width="3"/>
<path d="M1014.34 2082.91L836.369 2069.89L833.324 2146.26L1011.29 2159.28L1014.34 2082.91Z" fill="#574529"/>
<path d="M1020.42 1930.17L842.458 1917.16L839.413 1993.53L1017.38 2006.54L1020.42 1930.17Z" fill="#F2C176"/>
<path d="M1017.37 2006.54L839.404 1993.53L836.36 2069.89L1014.33 2082.91L1017.37 2006.54Z" fill="#AF8D58"/>
<path d="M934.833 1895.86C943.26 1894.88 948.998 1887.7 947.649 1879.84C946.301 1871.97 938.376 1866.39 929.949 1867.37C921.523 1868.35 915.785 1875.52 917.133 1883.39C918.482 1891.25 926.406 1896.84 934.833 1895.86Z" fill="#E8E8E8"/>
<path d="M1270.82 2000.51C1276.76 2006.93 1276.15 2016.71 1269.45 2022.34L1208.8 2073.37L1148.15 2124.4C1141.45 2130.03 1131.21 2129.39 1125.27 2122.98L931.019 1913.05C926.83 1908.52 925.761 1902.1 928.282 1896.59L963.976 1818.59C965.88 1814.43 969.609 1811.29 974.173 1810.01L1059.78 1785.94C1065.82 1784.24 1072.37 1786.05 1076.56 1790.58L1270.82 2000.51Z" fill="white"/>
<path d="M974.756 1811.86L1060.36 1787.8C1065.65 1786.31 1071.38 1787.9 1075.05 1791.86L1269.3 2001.79C1274.5 2007.41 1273.96 2015.95 1268.11 2020.89L1207.45 2071.91L1146.81 2122.95C1140.95 2127.88 1131.98 2127.32 1126.79 2121.7L932.535 1911.77C928.869 1907.81 927.934 1902.19 930.139 1897.37L965.834 1819.37C967.5 1815.73 970.762 1812.99 974.756 1811.86Z" stroke="black" stroke-opacity="0.38" stroke-width="3"/>
<path d="M1199.52 1937.3L1068.37 2047.66L1122.67 2106.34L1253.83 1995.98L1199.52 1937.3Z" fill="#3A3A67"/>
<path d="M1091.43 1820.47L960.273 1930.83L1014.58 1989.52L1145.73 1879.16L1091.43 1820.47Z" fill="#ACACEE"/>
<path d="M1145.72 1879.17L1014.57 1989.53L1068.36 2047.66L1199.52 1937.3L1145.72 1879.17Z" fill="#8A8AC9"/>
<path d="M1007.08 1858.4C1015.04 1857.48 1020.4 1850.35 1019.05 1842.48C1017.7 1834.62 1010.16 1828.99 1002.2 1829.91C994.242 1830.84 988.883 1837.97 990.232 1845.83C991.58 1853.7 999.125 1859.33 1007.08 1858.4Z" fill="#E8E8E8"/>
</g>
<defs>
<filter id="filter0_d_6_439" x="117.413" y="813.555" width="417.351" height="427.259" filterUnits="userSpaceOnUse" color-interpolation-filters="sRGB">
<feFlood flood-opacity="0" result="BackgroundImageFix"/>
<feColorMatrix in="SourceAlpha" type="matrix" values="0 0 0 0 0 0 0 0 0 0 0 0 0 0 0 0 0 0 127 0" result="hardAlpha"/>
<feOffset dy="4"/>
<feGaussianBlur stdDeviation="50.5"/>
<feComposite in2="hardAlpha" operator="out"/>
<feColorMatrix type="matrix" values="0 0 0 0 0.94902 0 0 0 0 0.94902 0 0 0 0 0 0 0 0 0.21 0"/>
<feBlend mode="normal" in2="BackgroundImageFix" result="effect1_dropShadow_6_439"/>
<feBlend mode="normal" in="SourceGraphic" in2="effect1_dropShadow_6_439" result="shape"/>
</filter>
<linearGradient id="paint0_linear_6_439" x1="1653.68" y1="228" x2="1653.68" y2="776.518" gradientUnits="userSpaceOnUse">
<stop stop-color="#76001D"/>
<stop offset="1" stop-color="#C46E00"/>
</linearGradient>
<linearGradient id="paint1_linear_6_439" x1="1794.64" y1="2137.94" x2="2139.09" y2="1952.12" gradientUnits="userSpaceOnUse">
<stop offset="0.296875" stop-color="#605D86"/>
<stop offset="1" stop-color="#100F17"/>
</linearGradient>
<linearGradient id="paint2_linear_6_439" x1="1478.27" y1="2137.94" x2="1518.39" y2="2408.23" gradientUnits="userSpaceOnUse">
<stop offset="0.296875" stop-color="#605D86"/>
<stop offset="1" stop-color="#312D50"/>
</linearGradient>
<linearGradient id="paint3_linear_6_439" x1="1018.02" y1="1136.68" x2="751.688" y2="849.178" gradientUnits="userSpaceOnUse">
<stop stop-color="#9F4009"/>
<stop offset="0.125" stop-color="#652712" stop-opacity="0.984545"/>
<stop offset="0.630208" stop-color="#250D16"/>
<stop offset="1"/>
</linearGradient>
<linearGradient id="paint4_linear_6_439" x1="899.574" y1="222" x2="899.574" y2="444.282" gradientUnits="userSpaceOnUse">
<stop stop-color="#9F4009"/>
<stop offset="0.604167" stop-color="#511E07"/>
<stop offset="0.942708" stop-color="#301001"/>
</linearGradient>
<linearGradient id="paint5_linear_6_439" x1="724.133" y1="734.78" x2="3459.56" y2="3353.8" gradientUnits="userSpaceOnUse">
<stop offset="0.296875" stop-color="#605D86"/>
<stop offset="1" stop-color="#312D50"/>
</linearGradient>
<clipPath id="clip0_6_439">
<rect width="3395" height="2200" fill="white"/>
</clipPath>
</defs>
</svg>
